<?xml version="1.0" encoding="UTF-8" standalone="no"?>
<!-- Created with Inkscape (http://www.inkscape.org/) -->
<svg
   xmlns:dc="http://purl.org/dc/elements/1.1/"
   xmlns:cc="http://web.resource.org/cc/"
   xmlns:rdf="http://www.w3.org/1999/02/22-rdf-syntax-ns#"
   xmlns:svg="http://www.w3.org/2000/svg"
   xmlns="http://www.w3.org/2000/svg"
   xmlns:xlink="http://www.w3.org/1999/xlink"
   xmlns:sodipodi="http://sodipodi.sourceforge.net/DTD/sodipodi-0.dtd"
   xmlns:inkscape="http://www.inkscape.org/namespaces/inkscape"
   width="254.72256"
   height="254.60004"
   id="svg2"
   sodipodi:version="0.32"
   inkscape:version="0.45.1"
   sodipodi:docbase="/home/christof/Grafiken/SVGs"
   sodipodi:docname="brit_icon_gimp.svg"
   inkscape:output_extension="org.inkscape.output.svg.inkscape"
   version="1.0">
  <defs
     id="defs4">
    <pattern
       inkscape:collect="always"
       xlink:href="#pattern7096"
       id="pattern7103"
       patternTransform="matrix(0.9807814,0.1951099,-0.1951099,0.9807814,88.853396,564.9863)" />
    <pattern
       patternUnits="userSpaceOnUse"
       width="52.64405"
       height="52.64405"
       patternTransform="translate(265.42265,627.97688)"
       id="pattern7044">
      <path
         id="path6068"
         d="M 0.5,0.5 L 52.14405,52.14405"
         style="fill:none;fill-rule:evenodd;stroke:#e04613;stroke-width:1px;stroke-linecap:butt;stroke-linejoin:miter;stroke-opacity:1" />
    </pattern>
    <pattern
       patternUnits="userSpaceOnUse"
       width="52.64405"
       height="52.64405"
       patternTransform="translate(265.69051,628.69118)"
       id="pattern7053">
      <path
         id="path7051"
         d="M 0.5,0.5 L 52.14405,52.14405"
         style="fill:none;fill-rule:evenodd;stroke:#e04613;stroke-width:1px;stroke-linecap:butt;stroke-linejoin:miter;stroke-opacity:1" />
    </pattern>
    <pattern
       patternUnits="userSpaceOnUse"
       width="7.5"
       height="41.425995"
       patternTransform="translate(198.25517,601.81158)"
       id="pattern7087">
      <rect
         y="1.25"
         x="1.25"
         height="38.925995"
         width="5"
         id="rect7085"
         style="opacity:1;fill:#262729;fill-opacity:1;fill-rule:nonzero;stroke:#e04613;stroke-width:2.5;stroke-linejoin:miter;stroke-miterlimit:4;stroke-dasharray:none;stroke-opacity:1" />
    </pattern>
    <pattern
       patternUnits="userSpaceOnUse"
       width="7.5000006"
       height="213.63924"
       patternTransform="translate(197.38019,536.79187)"
       id="pattern7096">
      <rect
         id="rect7090"
         y="0.87500006"
         x="0.87500006"
         height="211.88924"
         width="5.7500005"
         style="fill:#262729;fill-opacity:1;stroke:#e04613;stroke-width:1.75000012;stroke-miterlimit:4;stroke-dasharray:none;stroke-opacity:1" />
    </pattern>
  </defs>
  <sodipodi:namedview
     id="base"
     pagecolor="#a2a2a2"
     bordercolor="#666666"
     borderopacity="1.0"
     inkscape:pageopacity="0.87843137"
     inkscape:pageshadow="2"
     inkscape:zoom="2.1152149"
     inkscape:cx="128.3578"
     inkscape:cy="140.38187"
     inkscape:document-units="px"
     inkscape:current-layer="layer1"
     inkscape:window-width="1680"
     inkscape:window-height="1003"
     inkscape:window-x="0"
     inkscape:window-y="47"
     showgrid="true" />
  <metadata
     id="metadata7">
    <rdf:RDF>
      <cc:Work
         rdf:about="">
        <dc:format>image/svg+xml</dc:format>
        <dc:type
           rdf:resource="http://purl.org/dc/dcmitype/StillImage" />
      </cc:Work>
    </rdf:RDF>
  </metadata>
  <g
     inkscape:label="Ebene 1"
     inkscape:groupmode="layer"
     id="layer1"
     transform="translate(-259.63,-431.54916)">
    <path
       style="fill:#262729;fill-opacity:1;stroke:none;stroke-width:2.40000224;stroke-linejoin:miter;stroke-miterlimit:4;stroke-opacity:1"
       d="M 292.60735,436.28011 L 508.20734,436.28011 L 510.20734,653.8801 C 510.20734,670.5001 496.82734,683.8801 480.20734,683.8801 L 264.60735,683.8801 L 262.60735,466.28011 C 262.60735,449.66011 275.98735,436.28011 292.60735,436.28011 z "
       id="rect2160"
       sodipodi:nodetypes="ccccccc" />
    <path
       style="fill:none;fill-rule:evenodd;stroke:#6c9eab;stroke-width:10.00000191;stroke-linecap:butt;stroke-linejoin:miter;stroke-miterlimit:4;stroke-dasharray:none;stroke-opacity:1"
       d="M 263.33237,627.59304 L 508.53458,627.59304"
       id="path3134" />
    <path
       style="fill:none;fill-rule:evenodd;stroke:#6c9eab;stroke-width:0.69999981;stroke-linecap:butt;stroke-linejoin:miter;stroke-miterlimit:4;stroke-dasharray:none;stroke-opacity:1"
       d="M 262.28424,676.50298 L 267.14877,681.36751"
       id="path2180"
       inkscape:tile-w="52.72286"
       inkscape:tile-h="52.72285"
       inkscape:tile-cx="241.13734"
       inkscape:tile-cy="655.35609" />
    <path
       id="use14111"
       d="M 262.63882,676.85757 L 267.14877,681.36751"
       style="fill:none;fill-rule:evenodd;stroke:#6c9eab;stroke-width:0.69999981;stroke-linecap:butt;stroke-linejoin:miter;stroke-miterlimit:4;stroke-dasharray:none;stroke-opacity:1" />
    <path
       id="use14113"
       d="M 264.63998,673.90277 L 272.10472,681.36751"
       style="fill:none;fill-rule:evenodd;stroke:#6c9eab;stroke-width:0.69999987;stroke-linecap:butt;stroke-linejoin:miter;stroke-miterlimit:4;stroke-dasharray:none;stroke-opacity:1" />
    <path
       id="use14115"
       d="M 263.92274,668.22958 L 277.06066,681.3675"
       style="fill:none;fill-rule:evenodd;stroke:#6c9eab;stroke-width:0.69999975;stroke-linecap:butt;stroke-linejoin:miter;stroke-miterlimit:4;stroke-dasharray:none;stroke-opacity:1" />
    <path
       id="use14117"
       d="M 262.96912,662.32002 L 282.01662,681.36751"
       style="fill:none;fill-rule:evenodd;stroke:#6c9eab;stroke-width:0.69999981;stroke-linecap:butt;stroke-linejoin:miter;stroke-miterlimit:4;stroke-dasharray:none;stroke-opacity:1" />
    <path
       id="use14119"
       d="M 263.31562,657.71056 L 286.97258,681.36751"
       style="fill:none;fill-rule:evenodd;stroke:#6c9eab;stroke-width:0.69999981;stroke-linecap:butt;stroke-linejoin:miter;stroke-miterlimit:4;stroke-dasharray:none;stroke-opacity:1" />
    <path
       id="use14121"
       d="M 264.72582,654.16482 L 291.92851,681.36751"
       style="fill:none;fill-rule:evenodd;stroke:#6c9eab;stroke-width:0.69999981;stroke-linecap:butt;stroke-linejoin:miter;stroke-miterlimit:4;stroke-dasharray:none;stroke-opacity:1" />
    <path
       id="use14123"
       d="M 264.48136,648.96442 L 296.88447,681.36752"
       style="fill:none;fill-rule:evenodd;stroke:#6c9eab;stroke-width:0.69999981;stroke-linecap:butt;stroke-linejoin:miter;stroke-miterlimit:4;stroke-dasharray:none;stroke-opacity:1" />
    <path
       id="use14125"
       d="M 264.70965,644.23674 L 301.8404,681.36749"
       style="fill:none;fill-rule:evenodd;stroke:#6c9eab;stroke-width:0.69999981;stroke-linecap:butt;stroke-linejoin:miter;stroke-miterlimit:4;stroke-dasharray:none;stroke-opacity:1" />
    <path
       id="use14127"
       d="M 264.1106,638.68175 L 306.79635,681.36749"
       style="fill:none;fill-rule:evenodd;stroke:#6c9eab;stroke-width:0.69999975;stroke-linecap:butt;stroke-linejoin:miter;stroke-miterlimit:4;stroke-dasharray:none;stroke-opacity:1" />
    <path
       id="use14129"
       d="M 264.45711,634.07233 L 311.75232,681.36753"
       style="fill:none;fill-rule:evenodd;stroke:#6c9eab;stroke-width:0.69999987;stroke-linecap:butt;stroke-linejoin:miter;stroke-miterlimit:4;stroke-dasharray:none;stroke-opacity:1" />
    <path
       id="use14131"
       d="M 264.6854,629.34466 L 316.70826,681.36751"
       style="fill:none;fill-rule:evenodd;stroke:#6c9eab;stroke-width:0.69999981;stroke-linecap:butt;stroke-linejoin:miter;stroke-miterlimit:4;stroke-dasharray:none;stroke-opacity:1" />
    <path
       id="use14133"
       d="M 269.64135,629.34466 L 321.66421,681.36751"
       style="fill:none;fill-rule:evenodd;stroke:#6c9eab;stroke-width:0.69999981;stroke-linecap:butt;stroke-linejoin:miter;stroke-miterlimit:4;stroke-dasharray:none;stroke-opacity:1" />
    <path
       id="use14135"
       d="M 274.5973,629.34466 L 326.62016,681.36751"
       style="fill:none;fill-rule:evenodd;stroke:#6c9eab;stroke-width:0.69999981;stroke-linecap:butt;stroke-linejoin:miter;stroke-miterlimit:4;stroke-dasharray:none;stroke-opacity:1" />
    <path
       id="use14137"
       d="M 279.55325,629.34466 L 331.5761,681.36751"
       style="fill:none;fill-rule:evenodd;stroke:#6c9eab;stroke-width:0.69999981;stroke-linecap:butt;stroke-linejoin:miter;stroke-miterlimit:4;stroke-dasharray:none;stroke-opacity:1" />
    <path
       id="use14139"
       d="M 284.50919,629.34466 L 336.53205,681.36751"
       style="fill:none;fill-rule:evenodd;stroke:#6c9eab;stroke-width:0.69999981;stroke-linecap:butt;stroke-linejoin:miter;stroke-miterlimit:4;stroke-dasharray:none;stroke-opacity:1" />
    <path
       id="use14141"
       d="M 289.46514,629.34466 L 341.488,681.36751"
       style="fill:none;fill-rule:evenodd;stroke:#6c9eab;stroke-width:0.69999981;stroke-linecap:butt;stroke-linejoin:miter;stroke-miterlimit:4;stroke-dasharray:none;stroke-opacity:1" />
    <path
       id="use14143"
       d="M 294.42109,629.34466 L 346.44395,681.36751"
       style="fill:none;fill-rule:evenodd;stroke:#6c9eab;stroke-width:0.69999981;stroke-linecap:butt;stroke-linejoin:miter;stroke-miterlimit:4;stroke-dasharray:none;stroke-opacity:1" />
    <path
       id="use14145"
       d="M 299.37704,629.34466 L 351.3999,681.36751"
       style="fill:none;fill-rule:evenodd;stroke:#6c9eab;stroke-width:0.69999981;stroke-linecap:butt;stroke-linejoin:miter;stroke-miterlimit:4;stroke-dasharray:none;stroke-opacity:1" />
    <path
       id="use14147"
       d="M 304.33299,629.34466 L 356.35585,681.36751"
       style="fill:none;fill-rule:evenodd;stroke:#6c9eab;stroke-width:0.69999981;stroke-linecap:butt;stroke-linejoin:miter;stroke-miterlimit:4;stroke-dasharray:none;stroke-opacity:1" />
    <path
       id="use14149"
       d="M 309.28894,629.34466 L 361.3118,681.36751"
       style="fill:none;fill-rule:evenodd;stroke:#6c9eab;stroke-width:0.69999981;stroke-linecap:butt;stroke-linejoin:miter;stroke-miterlimit:4;stroke-dasharray:none;stroke-opacity:1" />
    <path
       id="use14151"
       d="M 314.24489,629.34466 L 366.26775,681.36751"
       style="fill:none;fill-rule:evenodd;stroke:#6c9eab;stroke-width:0.69999981;stroke-linecap:butt;stroke-linejoin:miter;stroke-miterlimit:4;stroke-dasharray:none;stroke-opacity:1" />
    <path
       id="use14153"
       d="M 319.20084,629.34466 L 371.2237,681.36751"
       style="fill:none;fill-rule:evenodd;stroke:#6c9eab;stroke-width:0.69999981;stroke-linecap:butt;stroke-linejoin:miter;stroke-miterlimit:4;stroke-dasharray:none;stroke-opacity:1" />
    <path
       id="use14155"
       d="M 324.15678,629.34466 L 376.17964,681.36751"
       style="fill:none;fill-rule:evenodd;stroke:#6c9eab;stroke-width:0.69999981;stroke-linecap:butt;stroke-linejoin:miter;stroke-miterlimit:4;stroke-dasharray:none;stroke-opacity:1" />
    <path
       id="use14157"
       d="M 329.11273,629.34466 L 381.13559,681.36751"
       style="fill:none;fill-rule:evenodd;stroke:#6c9eab;stroke-width:0.69999981;stroke-linecap:butt;stroke-linejoin:miter;stroke-miterlimit:4;stroke-dasharray:none;stroke-opacity:1" />
    <path
       id="use14159"
       d="M 334.06868,629.34466 L 386.09154,681.36751"
       style="fill:none;fill-rule:evenodd;stroke:#6c9eab;stroke-width:0.69999981;stroke-linecap:butt;stroke-linejoin:miter;stroke-miterlimit:4;stroke-dasharray:none;stroke-opacity:1" />
    <path
       id="use14161"
       d="M 339.02463,629.34466 L 391.04749,681.36751"
       style="fill:none;fill-rule:evenodd;stroke:#6c9eab;stroke-width:0.69999981;stroke-linecap:butt;stroke-linejoin:miter;stroke-miterlimit:4;stroke-dasharray:none;stroke-opacity:1" />
    <path
       id="use14163"
       d="M 343.98058,629.34466 L 396.00344,681.36751"
       style="fill:none;fill-rule:evenodd;stroke:#6c9eab;stroke-width:0.69999981;stroke-linecap:butt;stroke-linejoin:miter;stroke-miterlimit:4;stroke-dasharray:none;stroke-opacity:1" />
    <path
       id="use14165"
       d="M 348.93653,629.34466 L 400.95939,681.36751"
       style="fill:none;fill-rule:evenodd;stroke:#6c9eab;stroke-width:0.69999981;stroke-linecap:butt;stroke-linejoin:miter;stroke-miterlimit:4;stroke-dasharray:none;stroke-opacity:1" />
    <path
       id="use14167"
       d="M 353.89248,629.34466 L 405.91534,681.36751"
       style="fill:none;fill-rule:evenodd;stroke:#6c9eab;stroke-width:0.69999981;stroke-linecap:butt;stroke-linejoin:miter;stroke-miterlimit:4;stroke-dasharray:none;stroke-opacity:1" />
    <path
       id="use14169"
       d="M 358.84843,629.34466 L 410.87129,681.36751"
       style="fill:none;fill-rule:evenodd;stroke:#6c9eab;stroke-width:0.69999981;stroke-linecap:butt;stroke-linejoin:miter;stroke-miterlimit:4;stroke-dasharray:none;stroke-opacity:1" />
    <path
       id="use14171"
       d="M 363.80437,629.34466 L 415.82723,681.36751"
       style="fill:none;fill-rule:evenodd;stroke:#6c9eab;stroke-width:0.69999981;stroke-linecap:butt;stroke-linejoin:miter;stroke-miterlimit:4;stroke-dasharray:none;stroke-opacity:1" />
    <path
       id="use14173"
       d="M 368.76032,629.34466 L 420.78318,681.36751"
       style="fill:none;fill-rule:evenodd;stroke:#6c9eab;stroke-width:0.69999981;stroke-linecap:butt;stroke-linejoin:miter;stroke-miterlimit:4;stroke-dasharray:none;stroke-opacity:1" />
    <path
       id="use14175"
       d="M 373.71627,629.34466 L 425.73913,681.36751"
       style="fill:none;fill-rule:evenodd;stroke:#6c9eab;stroke-width:0.69999981;stroke-linecap:butt;stroke-linejoin:miter;stroke-miterlimit:4;stroke-dasharray:none;stroke-opacity:1" />
    <path
       id="use14177"
       d="M 378.67222,629.34466 L 430.69508,681.36751"
       style="fill:none;fill-rule:evenodd;stroke:#6c9eab;stroke-width:0.69999981;stroke-linecap:butt;stroke-linejoin:miter;stroke-miterlimit:4;stroke-dasharray:none;stroke-opacity:1" />
    <path
       id="use14179"
       d="M 383.62817,629.34466 L 435.65103,681.36751"
       style="fill:none;fill-rule:evenodd;stroke:#6c9eab;stroke-width:0.69999981;stroke-linecap:butt;stroke-linejoin:miter;stroke-miterlimit:4;stroke-dasharray:none;stroke-opacity:1" />
    <path
       id="use14181"
       d="M 388.58412,629.34466 L 440.60698,681.36751"
       style="fill:none;fill-rule:evenodd;stroke:#6c9eab;stroke-width:0.69999981;stroke-linecap:butt;stroke-linejoin:miter;stroke-miterlimit:4;stroke-dasharray:none;stroke-opacity:1" />
    <path
       id="use14183"
       d="M 393.54007,629.34466 L 445.56293,681.36751"
       style="fill:none;fill-rule:evenodd;stroke:#6c9eab;stroke-width:0.69999981;stroke-linecap:butt;stroke-linejoin:miter;stroke-miterlimit:4;stroke-dasharray:none;stroke-opacity:1" />
    <path
       id="use14185"
       d="M 398.49602,629.34466 L 450.51888,681.36751"
       style="fill:none;fill-rule:evenodd;stroke:#6c9eab;stroke-width:0.69999981;stroke-linecap:butt;stroke-linejoin:miter;stroke-miterlimit:4;stroke-dasharray:none;stroke-opacity:1" />
    <path
       id="use14187"
       d="M 403.45197,629.34466 L 455.47483,681.36751"
       style="fill:none;fill-rule:evenodd;stroke:#6c9eab;stroke-width:0.69999981;stroke-linecap:butt;stroke-linejoin:miter;stroke-miterlimit:4;stroke-dasharray:none;stroke-opacity:1" />
    <path
       id="use14189"
       d="M 408.40791,629.34466 L 460.43077,681.36751"
       style="fill:none;fill-rule:evenodd;stroke:#6c9eab;stroke-width:0.69999981;stroke-linecap:butt;stroke-linejoin:miter;stroke-miterlimit:4;stroke-dasharray:none;stroke-opacity:1" />
    <path
       id="use14191"
       d="M 413.36386,629.34466 L 465.38672,681.36751"
       style="fill:none;fill-rule:evenodd;stroke:#6c9eab;stroke-width:0.69999981;stroke-linecap:butt;stroke-linejoin:miter;stroke-miterlimit:4;stroke-dasharray:none;stroke-opacity:1" />
    <path
       id="use14193"
       d="M 418.31981,629.34466 L 470.34267,681.36751"
       style="fill:none;fill-rule:evenodd;stroke:#6c9eab;stroke-width:0.69999981;stroke-linecap:butt;stroke-linejoin:miter;stroke-miterlimit:4;stroke-dasharray:none;stroke-opacity:1" />
    <path
       id="use14195"
       d="M 423.27576,629.34466 L 475.29862,681.36751"
       style="fill:none;fill-rule:evenodd;stroke:#6c9eab;stroke-width:0.69999981;stroke-linecap:butt;stroke-linejoin:miter;stroke-miterlimit:4;stroke-dasharray:none;stroke-opacity:1" />
    <path
       id="use14197"
       d="M 428.23171,629.34466 L 480.25457,681.36751"
       style="fill:none;fill-rule:evenodd;stroke:#6c9eab;stroke-width:0.69999981;stroke-linecap:butt;stroke-linejoin:miter;stroke-miterlimit:4;stroke-dasharray:none;stroke-opacity:1" />
    <path
       id="use14199"
       d="M 433.18766,629.34466 L 485.21052,681.36751"
       style="fill:none;fill-rule:evenodd;stroke:#6c9eab;stroke-width:0.69999981;stroke-linecap:butt;stroke-linejoin:miter;stroke-miterlimit:4;stroke-dasharray:none;stroke-opacity:1" />
    <path
       id="use14201"
       d="M 438.14361,629.34466 L 490.16647,681.36751"
       style="fill:none;fill-rule:evenodd;stroke:#6c9eab;stroke-width:0.69999981;stroke-linecap:butt;stroke-linejoin:miter;stroke-miterlimit:4;stroke-dasharray:none;stroke-opacity:1" />
    <path
       id="use14203"
       d="M 443.09954,629.34463 L 492.404,678.64908"
       style="fill:none;fill-rule:evenodd;stroke:#6c9eab;stroke-width:0.69999981;stroke-linecap:butt;stroke-linejoin:miter;stroke-miterlimit:4;stroke-dasharray:none;stroke-opacity:1" />
    <path
       id="use14205"
       d="M 448.05551,629.34468 L 495.46891,676.75807"
       style="fill:none;fill-rule:evenodd;stroke:#6c9eab;stroke-width:0.69999981;stroke-linecap:butt;stroke-linejoin:miter;stroke-miterlimit:4;stroke-dasharray:none;stroke-opacity:1" />
    <path
       id="use14207"
       d="M 453.01147,629.34469 L 498.06104,674.39425"
       style="fill:none;fill-rule:evenodd;stroke:#6c9eab;stroke-width:0.69999987;stroke-linecap:butt;stroke-linejoin:miter;stroke-miterlimit:4;stroke-dasharray:none;stroke-opacity:1" />
    <path
       id="use14209"
       d="M 457.96741,629.34467 L 502.18964,673.5669"
       style="fill:none;fill-rule:evenodd;stroke:#6c9eab;stroke-width:0.69999981;stroke-linecap:butt;stroke-linejoin:miter;stroke-miterlimit:4;stroke-dasharray:none;stroke-opacity:1" />
    <path
       id="use14211"
       d="M 462.92335,629.34466 L 504.07261,670.49391"
       style="fill:none;fill-rule:evenodd;stroke:#6c9eab;stroke-width:0.69999981;stroke-linecap:butt;stroke-linejoin:miter;stroke-miterlimit:4;stroke-dasharray:none;stroke-opacity:1" />
    <path
       id="use14213"
       d="M 467.8793,629.34467 L 505.71921,667.18456"
       style="fill:none;fill-rule:evenodd;stroke:#6c9eab;stroke-width:0.69999981;stroke-linecap:butt;stroke-linejoin:miter;stroke-miterlimit:4;stroke-dasharray:none;stroke-opacity:1" />
    <path
       id="use14215"
       d="M 472.83527,629.34468 L 507.01124,663.52065"
       style="fill:none;fill-rule:evenodd;stroke:#6c9eab;stroke-width:0.69999987;stroke-linecap:butt;stroke-linejoin:miter;stroke-miterlimit:4;stroke-dasharray:none;stroke-opacity:1" />
    <path
       id="use14217"
       d="M 477.79119,629.34464 L 508.53961,660.09305"
       style="fill:none;fill-rule:evenodd;stroke:#6c9eab;stroke-width:0.69999975;stroke-linecap:butt;stroke-linejoin:miter;stroke-miterlimit:4;stroke-dasharray:none;stroke-opacity:1" />
    <path
       id="use14219"
       d="M 482.74713,629.34464 L 510.1862,656.7837"
       style="fill:none;fill-rule:evenodd;stroke:#6c9eab;stroke-width:0.69999975;stroke-linecap:butt;stroke-linejoin:miter;stroke-miterlimit:4;stroke-dasharray:none;stroke-opacity:1" />
    <path
       id="use14221"
       d="M 487.70311,629.34468 L 510.17815,651.81971"
       style="fill:none;fill-rule:evenodd;stroke:#6c9eab;stroke-width:0.69999981;stroke-linecap:butt;stroke-linejoin:miter;stroke-miterlimit:4;stroke-dasharray:none;stroke-opacity:1" />
    <path
       id="use14223"
       d="M 492.65904,629.34467 L 509.81547,646.50109"
       style="fill:none;fill-rule:evenodd;stroke:#6c9eab;stroke-width:0.69999987;stroke-linecap:butt;stroke-linejoin:miter;stroke-miterlimit:4;stroke-dasharray:none;stroke-opacity:1" />
    <path
       id="use14225"
       d="M 497.61501,629.34469 L 508.50729,640.23696"
       style="fill:none;fill-rule:evenodd;stroke:#6c9eab;stroke-width:0.69999993;stroke-linecap:butt;stroke-linejoin:miter;stroke-miterlimit:4;stroke-dasharray:none;stroke-opacity:1" />
    <path
       id="use14227"
       d="M 502.57094,629.34467 L 508.85377,635.62749"
       style="fill:none;fill-rule:evenodd;stroke:#6c9eab;stroke-width:0.69999987;stroke-linecap:butt;stroke-linejoin:miter;stroke-miterlimit:4;stroke-dasharray:none;stroke-opacity:1" />
    <path
       style="fill:none;fill-opacity:1;stroke:#ffffff;stroke-width:10.00000095;stroke-linejoin:miter;stroke-miterlimit:4;stroke-dasharray:none;stroke-opacity:1"
       d="M 293.67747,436.54916 L 509.35257,436.54916 L 509.23001,652.03395 C 509.23001,668.16379 496.27484,681.14919 480.18254,681.14919 L 264.67458,681.14919 L 264.63,465.66439 C 264.63,449.53456 277.58518,436.54916 293.67747,436.54916 z "
       id="rect6047"
       sodipodi:nodetypes="ccccccc" />
    <g
       id="g10587"
       transform="matrix(3.7309066,0,0,3.7518985,297.02693,434.39266)"
       style="fill:#ffffff;fill-opacity:1;stroke:#ffffff;stroke-width:0.26728049;stroke-opacity:1">
      <path
         d="M 10.374369,12.467884 C 10.374369,12.467884 13.248878,18.395518 19.973611,18.228291 C 34.066126,17.874738 36.53732,10.523341 36.890873,9.4626804 C 37.244427,8.4020202 37.785407,8.5626825 37.91048,9.542947 C 42.506674,51.262247 6.0135488,33.362123 4.7175144,26.256467 C 11.965359,24.135147 10.197592,20.069282 10.197592,20.069282 L 10.374369,12.467884 z "
         style="color:#000000;fill:#ffffff;fill-opacity:1;fill-rule:evenodd;stroke:#ffffff;stroke-width:0.2672804;stroke-linecap:butt;stroke-linejoin:miter;marker:none;marker-start:none;marker-mid:none;marker-end:none;stroke-miterlimit:10;stroke-dasharray:none;stroke-dashoffset:0;stroke-opacity:1;visibility:visible;display:inline;overflow:visible"
         id="path4323" />
      <path
         d="M 15.73779,30.066049 C 22.47669,31.413886 25.908481,30.164142 27.916965,28.613273 C 27.386635,27.928263 26.480655,27.176962 26.480655,27.176962 C 26.480655,27.176962 28.833972,27.830904 29.662635,28.900535 C 30.488925,29.967103 29.969443,30.624242 29.753196,31.988905 C 29.271785,30.790306 28.373215,30.340813 28.251562,29.864573 C 26.445294,32.3615 21.94512,32.257773 15.73779,30.066049 z "
         style="color:#000000;fill:#ffffff;fill-opacity:1;fill-rule:evenodd;stroke:#ffffff;stroke-width:0.2672804;stroke-linecap:butt;stroke-linejoin:miter;marker:none;marker-start:none;marker-mid:none;marker-end:none;stroke-miterlimit:10;stroke-dasharray:none;stroke-dashoffset:0;stroke-opacity:1;visibility:visible;display:inline;overflow:visible"
         id="path6480" />
      <path
         d="M 36.96875,11.84375 C 36.406772,12.770645 35.562258,13.876916 34.28125,14.9375 C 31.649332,17.116542 27.230687,19.099847 20,19.28125 C 15.775627,19.386299 13.047259,17.347101 11.375,15.53125 L 11.25,20 C 11.386107,20.418802 11.665455,21.390498 11.1875,22.71875 C 10.673186,24.148046 9.032986,25.610113 6.21875,26.71875 C 6.4690804,27.240783 6.7142345,27.76237 7.46875,28.5 C 8.4967003,29.504945 9.9257833,30.588049 11.625,31.5625 C 15.023433,33.511402 19.426583,35.055712 23.53125,35.125 C 27.635917,35.194288 31.388376,33.89045 33.96875,30.125 C 36.347494,26.653782 37.651223,20.777057 36.96875,11.84375 z "
         style="opacity:0.18539327;color:#000000;fill:#ffffff;fill-opacity:1;fill-rule:evenodd;stroke:#ffffff;stroke-width:0.2672804;stroke-linecap:butt;stroke-linejoin:miter;marker:none;marker-start:none;marker-mid:none;marker-end:none;stroke-miterlimit:10;stroke-dasharray:none;stroke-dashoffset:0;stroke-opacity:1;visibility:visible;display:inline;overflow:visible"
         id="path8520" />
      <path
         d="M 72.655224,21.837049 C 72.655665,23.59472 71.230914,25.019827 69.473244,25.019827 C 67.715573,25.019827 66.290822,23.59472 66.291263,21.837049 C 66.290822,20.079378 67.715573,18.654271 69.473244,18.654271 C 71.230914,18.654271 72.655665,20.079378 72.655224,21.837049 z "
         transform="matrix(1.277778,0,0,1.277778,-75.12661,-6.507784)"
         style="color:#000000;fill:#ffffff;fill-opacity:1;fill-rule:evenodd;stroke:#ffffff;stroke-width:0.20917597;stroke-linecap:butt;stroke-linejoin:miter;marker:none;marker-start:none;marker-mid:none;marker-end:none;stroke-miterlimit:10;stroke-dasharray:none;stroke-dashoffset:0;stroke-opacity:1;visibility:visible;display:inline;overflow:visible"
         id="path4357" />
      <path
         d="M 10.429825,27.228739 C 10.429825,30.597011 8.4907573,33.327535 6.098796,33.327535 C 3.7068347,33.327535 1.767767,30.597011 1.767767,27.228739 C 1.767767,23.860467 3.7068347,21.129943 6.098796,21.129943 C 8.4907573,21.129943 10.429825,23.860467 10.429825,27.228739 L 10.429825,27.228739 z "
         transform="matrix(0.810984,-0.585069,0.585069,0.810984,-14.77791,6.947121)"
         style="color:#000000;fill:#ffffff;fill-opacity:1;fill-rule:evenodd;stroke:#ffffff;stroke-width:0.2672804;stroke-linecap:butt;stroke-linejoin:miter;marker:none;marker-start:none;marker-mid:none;marker-end:none;stroke-miterlimit:10;stroke-dasharray:none;stroke-dashoffset:0;stroke-opacity:1;visibility:visible;display:inline;overflow:visible"
         id="path5198" />
      <path
         d="M 24.041631,21.837049 C 24.042006,23.106518 23.013003,24.135824 21.743534,24.135824 C 20.474065,24.135824 19.445062,23.106518 19.445437,21.837049 C 19.445062,20.56758 20.474065,19.538274 21.743534,19.538274 C 23.013003,19.538274 24.042006,20.56758 24.041631,21.837049 L 24.041631,21.837049 z "
         transform="matrix(0.851852,0,0,0.851852,-3.926759,3.395528)"
         style="color:#000000;fill:#ffffff;fill-opacity:1;fill-rule:evenodd;stroke:#ffffff;stroke-width:0.31376398;stroke-linecap:butt;stroke-linejoin:miter;marker:none;marker-start:none;marker-mid:none;marker-end:none;stroke-miterlimit:10;stroke-dasharray:none;stroke-dashoffset:0;stroke-opacity:1;visibility:visible;display:inline;overflow:visible"
         id="path4359" />
      <path
         d="M 6.09375,22.15625 C 5.2955008,22.15625 4.5406196,22.602421 3.90625,23.5 C 3.2718804,24.397579 2.8125,25.734204 2.8125,27.21875 C 2.8125,28.703296 3.2718804,30.039921 3.90625,30.9375 C 4.5406196,31.835079 5.2955011,32.28125 6.09375,32.28125 C 6.8919992,32.28125 7.6710339,31.804861 8.3125,30.90625 C 8.9539661,30.007639 9.40625,28.700064 9.40625,27.21875 C 9.40625,25.737436 8.9539662,24.429861 8.3125,23.53125 C 7.6710338,22.632639 6.8919989,22.15625 6.09375,22.15625 z "
         transform="matrix(0.800389,-0.599481,0.599481,0.800389,-15.2744,7.32784)"
         style="opacity:0.28089887;color:#000000;fill:#ffffff;fill-opacity:1;fill-rule:evenodd;stroke:#ffffff;stroke-width:0.26728052;stroke-linecap:butt;stroke-linejoin:miter;marker:none;marker-start:none;marker-mid:none;marker-end:none;stroke-miterlimit:10;stroke-dasharray:none;stroke-dashoffset:0;stroke-opacity:1;visibility:visible;display:inline;overflow:visible"
         id="path6450" />
      <path
         d="M 5.833631,23.251263 C 5.8338632,24.423033 5.042339,25.373088 4.0658641,25.373088 C 3.0893891,25.373088 2.2978649,24.423033 2.2980971,23.251263 C 2.2978649,22.079493 3.0893891,21.129438 4.0658641,21.129438 C 5.042339,21.129438 5.8338632,22.079493 5.833631,23.251263 z "
         style="color:#000000;fill:#ffffff;fill-opacity:1;fill-rule:evenodd;stroke:#ffffff;stroke-width:0.2672804;stroke-linecap:butt;stroke-linejoin:miter;marker:none;marker-start:none;marker-mid:none;marker-end:none;stroke-miterlimit:10;stroke-dasharray:none;stroke-dashoffset:0;stroke-opacity:1;visibility:visible;display:inline;overflow:visible"
         id="path6446" />
      <path
         d="M 23.157747,20.953165 C 23.157747,21.929476 22.366291,22.720932 21.38998,22.720932 C 20.413669,22.720932 19.622213,21.929476 19.622213,20.953165 C 19.622213,19.976854 20.413669,19.185398 21.38998,19.185398 C 22.366291,19.185398 23.157747,19.976854 23.157747,20.953165 z "
         transform="matrix(0.766666,0,0,0.766666,-2.556414,5.029841)"
         style="color:#000000;fill:#ffffff;fill-opacity:1;fill-rule:evenodd;stroke:#ffffff;stroke-width:0.2672804;stroke-linecap:butt;stroke-linejoin:miter;marker:none;marker-start:none;marker-mid:none;marker-end:none;stroke-miterlimit:10;stroke-dasharray:none;stroke-dashoffset:0;stroke-opacity:1;visibility:visible;display:inline;overflow:visible"
         id="path4361" />
      <path
         d="M 72.655224,21.837049 C 72.655665,23.59472 71.230914,25.019827 69.473244,25.019827 C 67.715573,25.019827 66.290822,23.59472 66.291263,21.837049 C 66.290822,20.079378 67.715573,18.654271 69.473244,18.654271 C 71.230914,18.654271 72.655665,20.079378 72.655224,21.837049 z "
         transform="matrix(1.5,0,0,1.5,-82.16821,-10.91852)"
         style="color:#000000;fill:#ffffff;fill-opacity:1;fill-rule:evenodd;stroke:#ffffff;stroke-width:0.17818694;stroke-linecap:butt;stroke-linejoin:miter;marker:none;marker-start:none;marker-mid:none;marker-end:none;stroke-miterlimit:10;stroke-dasharray:none;stroke-dashoffset:0;stroke-opacity:1;visibility:visible;display:inline;overflow:visible"
         id="path6462" />
      <path
         d="M 24.041631,21.837049 C 24.042006,23.106518 23.013003,24.135824 21.743534,24.135824 C 20.474065,24.135824 19.445062,23.106518 19.445437,21.837049 C 19.445062,20.56758 20.474065,19.538274 21.743534,19.538274 C 23.013003,19.538274 24.042006,20.56758 24.041631,21.837049 L 24.041631,21.837049 z "
         transform="translate(1.414216,0.707108)"
         style="color:#000000;fill:#ffffff;fill-opacity:1;fill-rule:evenodd;stroke:#ffffff;stroke-width:0.2672804;stroke-linecap:butt;stroke-linejoin:miter;marker:none;marker-start:none;marker-mid:none;marker-end:none;stroke-miterlimit:10;stroke-dasharray:none;stroke-dashoffset:0;stroke-opacity:1;visibility:visible;display:inline;overflow:visible"
         id="path6464" />
      <path
         d="M 23.157747,20.953165 C 23.157747,21.929476 22.366291,22.720932 21.38998,22.720932 C 20.413669,22.720932 19.622213,21.929476 19.622213,20.953165 C 19.622213,19.976854 20.413669,19.185398 21.38998,19.185398 C 22.366291,19.185398 23.157747,19.976854 23.157747,20.953165 z "
         transform="matrix(0.9,0,0,0.9,3.022883,2.625648)"
         style="color:#000000;fill:#ffffff;fill-opacity:1;fill-rule:evenodd;stroke:#ffffff;stroke-width:0.2672804;stroke-linecap:butt;stroke-linejoin:miter;marker:none;marker-start:none;marker-mid:none;marker-end:none;stroke-miterlimit:10;stroke-dasharray:none;stroke-dashoffset:0;stroke-opacity:1;visibility:visible;display:inline;overflow:visible"
         id="path6466" />
      <g
         transform="matrix(-0.114852,-0.389864,0.389864,-0.114852,24.71507,29.68942)"
         id="g8463"
         style="fill:#ffffff;fill-opacity:1;stroke:#ffffff;stroke-width:0.26728049;stroke-opacity:1">
        <path
           d="M -23.364209,23.568336 L -19.654111,27.037511 C -11.307128,20.656664 -2.5600338,6.9381374 -2.5600338,6.9381374 C -0.58371893,4.6957251 -2.6769537,3.1876548 -4.7249404,4.5402186 C -4.7249404,4.5402186 -17.695303,14.655085 -23.364209,23.568336 z "
           style="opacity:1;color:#000000;fill:#ffffff;fill-opacity:1;fill-rule:nonzero;stroke:#ffffff;stroke-width:0.6576311;stroke-linecap:round;stroke-linejoin:miter;marker:none;marker-start:none;marker-mid:none;marker-end:none;stroke-miterlimit:4;stroke-dasharray:none;stroke-dashoffset:0;stroke-opacity:1;visibility:visible;display:inline;overflow:visible"
           id="path6937" />
        <path
           d="M -30.449715,32.813894 L -28.203395,34.747714 L -19.710629,27.380683 L -19.435568,26.674855 L -18.341163,26.65704 C -18.778663,25.09454 -21.282677,22.273585 -23.157677,22.273585 L -23.075658,23.36366 L -23.745649,23.743687 L -30.449715,32.813894 z "
           style="opacity:1;color:#000000;fill:#ffffff;fill-opacity:1;fill-rule:nonzero;stroke:#ffffff;stroke-width:0.6576311;stroke-linecap:round;stroke-linejoin:miter;marker:none;marker-start:none;marker-mid:none;marker-end:none;stroke-miterlimit:4;stroke-dasharray:none;stroke-dashoffset:0;stroke-opacity:1;visibility:visible;display:inline;overflow:visible"
           id="path6935" />
        <path
           d="M -23.801371,28.376767 L -28.166304,33.643238"
           style="opacity:1;color:#000000;fill:#ffffff;fill-opacity:1;fill-rule:nonzero;stroke:#ffffff;stroke-width:0.65763116;stroke-linecap:round;stroke-linejoin:round;marker:none;marker-start:none;marker-mid:none;marker-end:none;stroke-miterlimit:4;stroke-dasharray:none;stroke-dashoffset:0;stroke-opacity:1;visibility:visible;display:inline;overflow:visible"
           id="path6985" />
        <path
           d="M -45.341208,42.769835 C -34.89725,42.769835 -26.971169,44.013565 -25.470603,36.415097 C -24.261354,30.291783 -32.681137,27.357729 -36.853473,32.824236 C -40.87275,38.090207 -45.341208,42.769835 -45.341208,42.769835 z "
           style="opacity:1;color:#000000;fill:#ffffff;fill-opacity:1;fill-rule:nonzero;stroke:#ffffff;stroke-width:0.0534561;stroke-linecap:round;stroke-linejoin:miter;marker:none;marker-start:none;marker-mid:none;marker-end:none;stroke-miterlimit:4;stroke-dasharray:none;stroke-dashoffset:0;stroke-opacity:1;visibility:visible;display:inline;overflow:visible"
           id="path6933" />
        <path
           d="M 8.8749989,37.75 C 8.8751942,38.440494 8.315493,39.000353 7.624999,39.000353 C 6.9345051,39.000353 6.3748039,38.440494 6.3749992,37.75 C 6.3748039,37.059506 6.9345051,36.499647 7.624999,36.499647 C 8.315493,36.499647 8.8751942,37.059506 8.8749989,37.75 z "
           transform="matrix(2.069903,0,0,2.069903,-44.75012,-41.50978)"
           style="opacity:0.52777782;color:#000000;fill:#ffffff;fill-opacity:1;fill-rule:nonzero;stroke:#ffffff;stroke-width:0.26728049;stroke-linecap:round;stroke-linejoin:miter;marker:none;marker-start:none;marker-mid:none;marker-end:none;stroke-miterlimit:4;stroke-dasharray:none;stroke-dashoffset:0;stroke-opacity:1;visibility:visible;display:inline;overflow:visible"
           id="path6971" />
        <path
           d="M 8.8749989,37.75 C 8.8751942,38.440494 8.315493,39.000353 7.624999,39.000353 C 6.9345051,39.000353 6.3748039,38.440494 6.3749992,37.75 C 6.3748039,37.059506 6.9345051,36.499647 7.624999,36.499647 C 8.315493,36.499647 8.8751942,37.059506 8.8749989,37.75 z "
           transform="matrix(1.396669,0,0,1.396669,-32.05526,-25.87664)"
           style="opacity:1;color:#000000;fill:#ffffff;fill-opacity:1;fill-rule:nonzero;stroke:#ffffff;stroke-width:0.26728049;stroke-linecap:round;stroke-linejoin:miter;marker:none;marker-start:none;marker-mid:none;marker-end:none;stroke-miterlimit:4;stroke-dasharray:none;stroke-dashoffset:0;stroke-opacity:1;visibility:visible;display:inline;overflow:visible"
           id="path6983" />
        <path
           d="M -38.543723,40.909242 C -38.543723,40.909242 -34.822203,41.003542 -32.427185,39.497247 C -31.579834,38.964324 -30.911411,40.147232 -31.933366,40.584614 C -34.14076,41.529346 -38.543723,40.909242 -38.543723,40.909242 z "
           style="opacity:0.42777776;color:#000000;fill:#ffffff;fill-opacity:1;fill-rule:nonzero;stroke:#ffffff;stroke-width:0.26728049;stroke-linecap:round;stroke-linejoin:miter;marker:none;marker-start:none;marker-mid:none;marker-end:none;stroke-miterlimit:4;stroke-dasharray:none;stroke-dashoffset:0;stroke-opacity:1;visibility:visible;display:inline;overflow:visible"
           id="path1571" />
      </g>
      <path
         d="M 23.003067,31.736544 C 24.500439,31.879636 25.852696,31.464331 26.41496,31.262497 C 26.513185,30.707111 26.951512,29.64124 28.461048,29.571029 L 27.930718,28.642952 C 27.930718,28.642952 25.964077,29.990873 23.864854,30.388621 L 23.003067,31.736544 z "
         style="color:#000000;fill:#ffffff;fill-opacity:1;fill-rule:evenodd;stroke:#ffffff;stroke-width:0.2672804;stroke-linecap:butt;stroke-linejoin:miter;marker:none;marker-start:none;marker-mid:none;marker-end:none;stroke-miterlimit:10;stroke-dasharray:none;stroke-dashoffset:0;stroke-opacity:1;visibility:visible;display:inline;overflow:visible"
         id="path8532" />
    </g>
  </g>
</svg>
