<?xml version="1.0" encoding="UTF-8" standalone="no"?>
<!-- Created with Inkscape (http://www.inkscape.org/) -->
<svg
   xmlns:dc="http://purl.org/dc/elements/1.1/"
   xmlns:cc="http://creativecommons.org/ns#"
   xmlns:rdf="http://www.w3.org/1999/02/22-rdf-syntax-ns#"
   xmlns:svg="http://www.w3.org/2000/svg"
   xmlns="http://www.w3.org/2000/svg"
   xmlns:xlink="http://www.w3.org/1999/xlink"
   xmlns:sodipodi="http://sodipodi.sourceforge.net/DTD/sodipodi-0.dtd"
   xmlns:inkscape="http://www.inkscape.org/namespaces/inkscape"
   width="254.72256"
   height="254.60004"
   id="svg2"
   sodipodi:version="0.32"
   inkscape:version="0.46"
   sodipodi:docbase="/home/christof/Grafiken/SVGs"
   sodipodi:docname="terminal.svg"
   inkscape:output_extension="org.inkscape.output.svg.inkscape"
   version="1.0">
  <defs
     id="defs4">
    <inkscape:perspective
       sodipodi:type="inkscape:persp3d"
       inkscape:vp_x="0 : 127.30002 : 1"
       inkscape:vp_y="0 : 1000 : 0"
       inkscape:vp_z="254.72256 : 127.30002 : 1"
       inkscape:persp3d-origin="127.36128 : 84.866679 : 1"
       id="perspective92" />
    <linearGradient
       id="linearGradient15107">
      <stop
         style="stop-color:#ffffff;stop-opacity:1.0000000;"
         offset="0.0000000"
         id="stop15109" />
      <stop
         style="stop-color:#e2e2e2;stop-opacity:1.0000000;"
         offset="1.0000000"
         id="stop15111" />
    </linearGradient>
    <linearGradient
       y2="26.022909"
       x2="18.475286"
       y1="4.7461624"
       x1="11.572842"
       gradientTransform="matrix(4.424777,0,0,4.6697466,315.57521,459.96281)"
       gradientUnits="userSpaceOnUse"
       id="linearGradient27486"
       xlink:href="#linearGradient15107"
       inkscape:collect="always" />
    <radialGradient
       cx="64.551804"
       cy="14.1646"
       r="52.241501"
       fx="64.551804"
       fy="14.1646"
       id="XMLID_67_"
       gradientUnits="userSpaceOnUse">
      <stop
         style="stop-color:#0f80bc;stop-opacity:1"
         offset="0"
         id="stop85" />
      <stop
         style="stop-color:#0a5f9e;stop-opacity:1"
         offset="0.33759999"
         id="stop87" />
      <stop
         style="stop-color:#00145a;stop-opacity:1"
         offset="1"
         id="stop89" />
    </radialGradient>
    <clipPath
       clipPathUnits="userSpaceOnUse"
       id="clipoutline1">
      <path
         id="outline1"
         d="M 54.1,12.5 L 12.9,54.7 C -2.7,70.3 23,69 32.3,74.9 C 36.6,77.7 18.5,81.3 22.2,85 C 25.8,88.7 43.9,92.1 47.5,95.7 C 51.1,99.4 40.2,103.3 43.8,107 C 47.3,110.7 55.7,107.2 57.2,115.6 C 58.3,121.8 72.6,118.7 79,113.4 C 83,110 72.1,110 75.7,106.3 C 84.7,97.2 92.7,102.2 96,93.8 C 97.8,89.3 82.4,86.1 86.5,83.2 C 96.3,76.3 132.3,72.8 115.7,56.2 L 73,12.5 C 67.7,7.5 59,7.5 54.1,12.5 z M 44.2,77.2 C 45.1,77.2 75,81.2 63.5,84.3 C 59.1,85.5 38.9,77.2 44.2,77.2 z M 101.4,93.8 C 101.4,95.9 117.7,97.1 116.8,93.3 C 115.5,86.9 103.2,87.4 101.4,93.8 z M 31.9,104.9 C 35.6,108.1 41.2,104.2 43,99.7 C 39.4,95 26.1,100 31.9,104.9 z M 99.4,98.2 C 94.8,102.4 100.2,106.8 104.7,103.9 C 105.9,103.1 104.6,99.2 99.4,98.2 z " />
    </clipPath>
    <pattern
       inkscape:collect="always"
       xlink:href="#pattern7096"
       id="pattern7103"
       patternTransform="matrix(0.9807814,0.1951099,-0.1951099,0.9807814,88.853396,564.9863)" />
    <pattern
       patternUnits="userSpaceOnUse"
       width="52.64405"
       height="52.64405"
       patternTransform="translate(265.42265,627.97688)"
       id="pattern7044">
      <path
         id="path6068"
         d="M 0.5,0.5 L 52.14405,52.14405"
         style="fill:none;fill-rule:evenodd;stroke:#e04613;stroke-width:1px;stroke-linecap:butt;stroke-linejoin:miter;stroke-opacity:1" />
    </pattern>
    <pattern
       patternUnits="userSpaceOnUse"
       width="52.64405"
       height="52.64405"
       patternTransform="translate(265.69051,628.69118)"
       id="pattern7053">
      <path
         id="path7051"
         d="M 0.5,0.5 L 52.14405,52.14405"
         style="fill:none;fill-rule:evenodd;stroke:#e04613;stroke-width:1px;stroke-linecap:butt;stroke-linejoin:miter;stroke-opacity:1" />
    </pattern>
    <pattern
       patternUnits="userSpaceOnUse"
       width="7.5"
       height="41.425995"
       patternTransform="translate(198.25517,601.81158)"
       id="pattern7087">
      <rect
         y="1.25"
         x="1.25"
         height="38.925995"
         width="5"
         id="rect7085"
         style="opacity:1;fill:#262729;fill-opacity:1;fill-rule:nonzero;stroke:#e04613;stroke-width:2.5;stroke-linejoin:miter;stroke-miterlimit:4;stroke-dasharray:none;stroke-opacity:1" />
    </pattern>
    <pattern
       patternUnits="userSpaceOnUse"
       width="7.5000006"
       height="213.63924"
       patternTransform="translate(197.38019,536.79187)"
       id="pattern7096">
      <rect
         id="rect7090"
         y="0.87500006"
         x="0.87500006"
         height="211.88924"
         width="5.7500005"
         style="fill:#262729;fill-opacity:1;stroke:#e04613;stroke-width:1.75000012;stroke-miterlimit:4;stroke-dasharray:none;stroke-opacity:1" />
    </pattern>
    <radialGradient
       inkscape:collect="always"
       xlink:href="#XMLID_67_"
       id="radialGradient31918"
       gradientUnits="userSpaceOnUse"
       cx="64.551804"
       cy="14.1646"
       fx="64.551804"
       fy="14.1646"
       r="52.241501" />
    <radialGradient
       inkscape:collect="always"
       xlink:href="#XMLID_67_"
       id="radialGradient32255"
       gradientUnits="userSpaceOnUse"
       cx="64.551804"
       cy="14.1646"
       fx="64.551804"
       fy="14.1646"
       r="52.241501" />
    <inkscape:perspective
       sodipodi:type="inkscape:persp3d"
       inkscape:vp_x="0 : 127.30002 : 1"
       inkscape:vp_y="0 : 1000 : 0"
       inkscape:vp_z="254.72256 : 127.30002 : 1"
       inkscape:persp3d-origin="127.36128 : 84.866679 : 1"
       id="perspective2559" />
    <linearGradient
       id="linearGradient2562">
      <stop
         style="stop-color:#ffffff;stop-opacity:1.0000000;"
         offset="0.0000000"
         id="stop2564" />
      <stop
         style="stop-color:#e2e2e2;stop-opacity:1.0000000;"
         offset="1.0000000"
         id="stop2566" />
    </linearGradient>
    <linearGradient
       y2="26.022909"
       x2="18.475286"
       y1="4.7461624"
       x1="11.572842"
       gradientTransform="matrix(4.424777,0,0,4.6697466,315.57521,459.96281)"
       gradientUnits="userSpaceOnUse"
       id="linearGradient2568"
       xlink:href="#linearGradient15107"
       inkscape:collect="always" />
    <radialGradient
       cx="64.551804"
       cy="14.1646"
       r="52.241501"
       fx="64.551804"
       fy="14.1646"
       id="radialGradient2570"
       gradientUnits="userSpaceOnUse">
      <stop
         style="stop-color:#0f80bc;stop-opacity:1"
         offset="0"
         id="stop2572" />
      <stop
         style="stop-color:#0a5f9e;stop-opacity:1"
         offset="0.33759999"
         id="stop2574" />
      <stop
         style="stop-color:#00145a;stop-opacity:1"
         offset="1"
         id="stop2576" />
    </radialGradient>
    <clipPath
       clipPathUnits="userSpaceOnUse"
       id="clipPath2578">
      <path
         id="path2580"
         d="M 54.1,12.5 L 12.9,54.7 C -2.7,70.3 23,69 32.3,74.9 C 36.6,77.7 18.5,81.3 22.2,85 C 25.8,88.7 43.9,92.1 47.5,95.7 C 51.1,99.4 40.2,103.3 43.8,107 C 47.3,110.7 55.7,107.2 57.2,115.6 C 58.3,121.8 72.6,118.7 79,113.4 C 83,110 72.1,110 75.7,106.3 C 84.7,97.2 92.7,102.2 96,93.8 C 97.8,89.3 82.4,86.1 86.5,83.2 C 96.3,76.3 132.3,72.8 115.7,56.2 L 73,12.5 C 67.7,7.5 59,7.5 54.1,12.5 z M 44.2,77.2 C 45.1,77.2 75,81.2 63.5,84.3 C 59.1,85.5 38.9,77.2 44.2,77.2 z M 101.4,93.8 C 101.4,95.9 117.7,97.1 116.8,93.3 C 115.5,86.9 103.2,87.4 101.4,93.8 z M 31.9,104.9 C 35.6,108.1 41.2,104.2 43,99.7 C 39.4,95 26.1,100 31.9,104.9 z M 99.4,98.2 C 94.8,102.4 100.2,106.8 104.7,103.9 C 105.9,103.1 104.6,99.2 99.4,98.2 z " />
    </clipPath>
    <pattern
       inkscape:collect="always"
       xlink:href="#pattern7096"
       id="pattern2582"
       patternTransform="matrix(0.9807814,0.1951099,-0.1951099,0.9807814,88.853396,564.9863)" />
    <pattern
       patternUnits="userSpaceOnUse"
       width="52.64405"
       height="52.64405"
       patternTransform="translate(265.42265,627.97688)"
       id="pattern2584">
      <path
         id="path2586"
         d="M 0.5,0.5 L 52.14405,52.14405"
         style="fill:none;fill-rule:evenodd;stroke:#e04613;stroke-width:1px;stroke-linecap:butt;stroke-linejoin:miter;stroke-opacity:1" />
    </pattern>
    <pattern
       patternUnits="userSpaceOnUse"
       width="52.64405"
       height="52.64405"
       patternTransform="translate(265.69051,628.69118)"
       id="pattern2588">
      <path
         id="path2590"
         d="M 0.5,0.5 L 52.14405,52.14405"
         style="fill:none;fill-rule:evenodd;stroke:#e04613;stroke-width:1px;stroke-linecap:butt;stroke-linejoin:miter;stroke-opacity:1" />
    </pattern>
    <pattern
       patternUnits="userSpaceOnUse"
       width="7.5"
       height="41.425995"
       patternTransform="translate(198.25517,601.81158)"
       id="pattern2592">
      <rect
         y="1.25"
         x="1.25"
         height="38.925995"
         width="5"
         id="rect2594"
         style="opacity:1;fill:#262729;fill-opacity:1;fill-rule:nonzero;stroke:#e04613;stroke-width:2.5;stroke-linejoin:miter;stroke-miterlimit:4;stroke-dasharray:none;stroke-opacity:1" />
    </pattern>
    <pattern
       patternUnits="userSpaceOnUse"
       width="7.5000006"
       height="213.63924"
       patternTransform="translate(197.38019,536.79187)"
       id="pattern2596">
      <rect
         id="rect2598"
         y="0.87500006"
         x="0.87500006"
         height="211.88924"
         width="5.7500005"
         style="fill:#262729;fill-opacity:1;stroke:#e04613;stroke-width:1.75000012;stroke-miterlimit:4;stroke-dasharray:none;stroke-opacity:1" />
    </pattern>
    <radialGradient
       inkscape:collect="always"
       xlink:href="#XMLID_67_"
       id="radialGradient2600"
       gradientUnits="userSpaceOnUse"
       cx="64.551804"
       cy="14.1646"
       fx="64.551804"
       fy="14.1646"
       r="52.241501" />
    <radialGradient
       inkscape:collect="always"
       xlink:href="#XMLID_67_"
       id="radialGradient2602"
       gradientUnits="userSpaceOnUse"
       cx="64.551804"
       cy="14.1646"
       fx="64.551804"
       fy="14.1646"
       r="52.241501" />
    <radialGradient
       r="52.241501"
       fy="14.1646"
       fx="64.551804"
       cy="14.1646"
       cx="64.551804"
       gradientUnits="userSpaceOnUse"
       id="radialGradient2624"
       xlink:href="#XMLID_67_"
       inkscape:collect="always" />
    <radialGradient
       r="52.241501"
       fy="14.1646"
       fx="64.551804"
       cy="14.1646"
       cx="64.551804"
       gradientUnits="userSpaceOnUse"
       id="radialGradient2622"
       xlink:href="#XMLID_67_"
       inkscape:collect="always" />
    <pattern
       id="pattern2618"
       patternTransform="translate(197.38019,536.79187)"
       height="213.63924"
       width="7.5000006"
       patternUnits="userSpaceOnUse">
      <rect
         style="fill:#262729;fill-opacity:1;stroke:#e04613;stroke-width:1.75000012;stroke-miterlimit:4;stroke-dasharray:none;stroke-opacity:1"
         width="5.7500005"
         height="211.88924"
         x="0.87500006"
         y="0.87500006"
         id="rect2620" />
    </pattern>
    <pattern
       id="pattern2614"
       patternTransform="translate(198.25517,601.81158)"
       height="41.425995"
       width="7.5"
       patternUnits="userSpaceOnUse">
      <rect
         style="opacity:1;fill:#262729;fill-opacity:1;fill-rule:nonzero;stroke:#e04613;stroke-width:2.5;stroke-linejoin:miter;stroke-miterlimit:4;stroke-dasharray:none;stroke-opacity:1"
         id="rect2616"
         width="5"
         height="38.925995"
         x="1.25"
         y="1.25" />
    </pattern>
    <pattern
       id="pattern2610"
       patternTransform="translate(265.69051,628.69118)"
       height="52.64405"
       width="52.64405"
       patternUnits="userSpaceOnUse">
      <path
         style="fill:none;fill-rule:evenodd;stroke:#e04613;stroke-width:1px;stroke-linecap:butt;stroke-linejoin:miter;stroke-opacity:1"
         d="M 0.5,0.5 L 52.14405,52.14405"
         id="path2612" />
    </pattern>
    <pattern
       id="pattern2606"
       patternTransform="translate(265.42265,627.97688)"
       height="52.64405"
       width="52.64405"
       patternUnits="userSpaceOnUse">
      <path
         style="fill:none;fill-rule:evenodd;stroke:#e04613;stroke-width:1px;stroke-linecap:butt;stroke-linejoin:miter;stroke-opacity:1"
         d="M 0.5,0.5 L 52.14405,52.14405"
         id="path2608" />
    </pattern>
    <pattern
       patternTransform="matrix(0.9807814,0.1951099,-0.1951099,0.9807814,88.853396,564.9863)"
       id="pattern2604"
       xlink:href="#pattern7096"
       inkscape:collect="always" />
    <clipPath
       id="clipPath2600"
       clipPathUnits="userSpaceOnUse">
      <path
         d="M 54.1,12.5 L 12.9,54.7 C -2.7,70.3 23,69 32.3,74.9 C 36.6,77.7 18.5,81.3 22.2,85 C 25.8,88.7 43.9,92.1 47.5,95.7 C 51.1,99.4 40.2,103.3 43.8,107 C 47.3,110.7 55.7,107.2 57.2,115.6 C 58.3,121.8 72.6,118.7 79,113.4 C 83,110 72.1,110 75.7,106.3 C 84.7,97.2 92.7,102.2 96,93.8 C 97.8,89.3 82.4,86.1 86.5,83.2 C 96.3,76.3 132.3,72.8 115.7,56.2 L 73,12.5 C 67.7,7.5 59,7.5 54.1,12.5 z M 44.2,77.2 C 45.1,77.2 75,81.2 63.5,84.3 C 59.1,85.5 38.9,77.2 44.2,77.2 z M 101.4,93.8 C 101.4,95.9 117.7,97.1 116.8,93.3 C 115.5,86.9 103.2,87.4 101.4,93.8 z M 31.9,104.9 C 35.6,108.1 41.2,104.2 43,99.7 C 39.4,95 26.1,100 31.9,104.9 z M 99.4,98.2 C 94.8,102.4 100.2,106.8 104.7,103.9 C 105.9,103.1 104.6,99.2 99.4,98.2 z "
         id="path2602" />
    </clipPath>
    <radialGradient
       gradientUnits="userSpaceOnUse"
       id="radialGradient2592"
       fy="14.1646"
       fx="64.551804"
       r="52.241501"
       cy="14.1646"
       cx="64.551804">
      <stop
         id="stop2594"
         offset="0"
         style="stop-color:#0f80bc;stop-opacity:1" />
      <stop
         id="stop2596"
         offset="0.33759999"
         style="stop-color:#0a5f9e;stop-opacity:1" />
      <stop
         id="stop2598"
         offset="1"
         style="stop-color:#00145a;stop-opacity:1" />
    </radialGradient>
    <linearGradient
       inkscape:collect="always"
       xlink:href="#linearGradient15107"
       id="linearGradient2590"
       gradientUnits="userSpaceOnUse"
       gradientTransform="matrix(4.424777,0,0,4.6697466,315.57521,459.96281)"
       x1="11.572842"
       y1="4.7461624"
       x2="18.475286"
       y2="26.022909" />
    <linearGradient
       id="linearGradient2584">
      <stop
         id="stop2586"
         offset="0.0000000"
         style="stop-color:#ffffff;stop-opacity:1.0000000;" />
      <stop
         id="stop2588"
         offset="1.0000000"
         style="stop-color:#e2e2e2;stop-opacity:1.0000000;" />
    </linearGradient>
    <inkscape:perspective
       id="perspective96"
       inkscape:persp3d-origin="127.36128 : 84.866679 : 1"
       inkscape:vp_z="254.72256 : 127.30002 : 1"
       inkscape:vp_y="0 : 1000 : 0"
       inkscape:vp_x="0 : 127.30002 : 1"
       sodipodi:type="inkscape:persp3d" />
  </defs>
  <sodipodi:namedview
     id="base"
     pagecolor="#a2a2a2"
     bordercolor="#666666"
     borderopacity="1.0"
     inkscape:pageopacity="0.87843137"
     inkscape:pageshadow="2"
     inkscape:zoom="1.0576075"
     inkscape:cx="80.358063"
     inkscape:cy="249.24644"
     inkscape:document-units="px"
     inkscape:current-layer="layer1"
     inkscape:window-width="1280"
     inkscape:window-height="929"
     inkscape:window-x="0"
     inkscape:window-y="25"
     showgrid="true" />
  <metadata
     id="metadata7">
    <rdf:RDF>
      <cc:Work
         rdf:about="">
        <dc:format>image/svg+xml</dc:format>
        <dc:type
           rdf:resource="http://purl.org/dc/dcmitype/StillImage" />
      </cc:Work>
    </rdf:RDF>
  </metadata>
  <g
     inkscape:label="Ebene 1"
     inkscape:groupmode="layer"
     id="layer1"
     transform="translate(-259.63,-431.54916)">
    <path
       style="fill:#262729;fill-opacity:1;stroke:none;stroke-width:2.40000224;stroke-linejoin:miter;stroke-miterlimit:4;stroke-opacity:1"
       d="M 292.60735,436.28011 L 508.20734,436.28011 L 510.20734,653.8801 C 510.20734,670.5001 496.82734,683.8801 480.20734,683.8801 L 264.60735,683.8801 L 262.60735,466.28011 C 262.60735,449.66011 275.98735,436.28011 292.60735,436.28011 z "
       id="rect2160"
       sodipodi:nodetypes="ccccccc" />
    <path
       transform="matrix(1.4936394,0,0,1.3520318,201.41415,415.66221)"
       style="font-size:50.66594696px;font-family:Impact;fill:#ffffff;fill-opacity:1"
       d="M 95.372038,102.66005 C 92.76615,104.82063 90.424171,105.90091 88.346096,105.90089 C 86.927697,105.90091 84.816618,105.2247 82.012853,103.87227 C 80.413039,103.09713 79.24205,102.70955 78.499882,102.70953 C 76.702158,102.70955 74.401412,104.04547 71.597636,106.71729 L 71.597636,99.864518 C 74.022077,97.753462 76.405287,96.697922 78.747274,96.697897 C 80.149154,96.697922 82.062319,97.27517 84.486776,98.429643 C 86.449406,99.369756 87.843048,99.839801 88.667706,99.839779 C 89.426357,99.839801 90.234504,99.625395 91.092151,99.196559 C 91.949756,98.751276 93.376384,97.638012 95.372038,95.856763 L 95.372038,102.66005 M 122.01619,93.753928 L 112.02154,93.753928 L 112.02154,92.0964 C 112.02153,90.331699 111.90608,89.177203 111.67519,88.632907 C 111.44428,88.088678 110.94949,87.816547 110.19084,87.816512 C 109.58059,87.816547 109.11879,88.055692 108.80544,88.53395 C 108.50856,88.995782 108.36012,89.696726 108.36013,90.636785 C 108.36012,92.203633 108.67349,93.300404 109.30023,93.927103 C 109.91045,94.553857 111.70816,95.774325 114.69338,97.588509 C 117.23325,99.122364 118.965,100.3016 119.88862,101.12622 C 120.81219,101.93439 121.58735,103.08888 122.2141,104.58971 C 122.8573,106.07408 123.17891,107.92952 123.17893,110.15604 C 123.17891,113.7185 122.32128,116.51403 120.60605,118.54264 C 118.89078,120.57126 116.3179,121.82471 112.88741,122.303 L 112.88741,126.06336 L 108.28592,126.06336 L 108.28592,122.17931 C 105.61407,121.91542 103.28034,120.89287 101.28471,119.11164 C 99.28908,117.31393 98.291266,114.18854 98.291267,109.73547 L 98.291267,107.78107 L 108.28592,107.78107 L 108.28592,110.23026 C 108.28591,112.9186 108.38486,114.59262 108.58279,115.25232 C 108.79718,115.89555 109.30021,116.21716 110.09188,116.21715 C 110.76807,116.21716 111.2711,115.9945 111.60097,115.54919 C 111.93082,115.0874 112.09574,114.41119 112.09576,113.52057 C 112.09574,111.27756 111.93906,109.67776 111.62571,108.72116 C 111.31234,107.7481 110.2403,106.69256 108.40961,105.55454 C 105.35843,103.64139 103.28034,102.2395 102.17533,101.34887 C 101.0868,100.44179 100.13846,99.171843 99.330315,97.539031 C 98.538658,95.906267 98.142831,94.059073 98.142832,91.997443 C 98.142831,89.012275 98.983964,86.670297 100.66623,84.971501 C 102.36499,83.272779 104.90488,82.225486 108.28592,81.829618 L 108.28592,78.638257 L 112.88741,78.638257 L 112.88741,81.829618 C 115.97155,82.225486 118.28055,83.264533 119.8144,84.946762 C 121.34821,86.612572 122.11512,88.921565 122.11515,91.873746 C 122.11512,92.286097 122.08214,92.912823 122.01619,93.753928 M 124.21798,125.93967 L 152.7918,125.93967 L 152.7918,128.46307 L 124.21798,128.46307 L 124.21798,125.93967"
       id="flowRoot3375" />
    <g
       id="g2796"
       transform="translate(333.24037,9.5439475)">
      <g
         transform="translate(-617.02236,-14.884113)"
         id="g2860">
        <path
           style="fill:none;fill-rule:evenodd;stroke:#6c9eab;stroke-width:10.00000191;stroke-linecap:butt;stroke-linejoin:miter;stroke-miterlimit:4;stroke-dasharray:none;stroke-opacity:1"
           d="M 547.92563,632.91964 L 793.12784,632.91964"
           id="path2658" />
        <path
           style="fill:none;fill-rule:evenodd;stroke:#6c9eab;stroke-width:0.69999981;stroke-linecap:butt;stroke-linejoin:miter;stroke-miterlimit:4;stroke-dasharray:none;stroke-opacity:1"
           d="M 546.8775,681.82958 L 551.74203,686.69411"
           id="path2610"
           inkscape:tile-w="52.72286"
           inkscape:tile-h="52.72285"
           inkscape:tile-cx="241.13734"
           inkscape:tile-cy="655.35609" />
        <path
           id="path2661"
           d="M 547.23208,682.18417 L 551.74203,686.69411"
           style="fill:none;fill-rule:evenodd;stroke:#6c9eab;stroke-width:0.69999981;stroke-linecap:butt;stroke-linejoin:miter;stroke-miterlimit:4;stroke-dasharray:none;stroke-opacity:1" />
        <path
           id="path2614"
           d="M 549.23324,679.22937 L 556.69798,686.69411"
           style="fill:none;fill-rule:evenodd;stroke:#6c9eab;stroke-width:0.69999987;stroke-linecap:butt;stroke-linejoin:miter;stroke-miterlimit:4;stroke-dasharray:none;stroke-opacity:1" />
        <path
           id="path2616"
           d="M 548.516,673.55618 L 561.65392,686.6941"
           style="fill:none;fill-rule:evenodd;stroke:#6c9eab;stroke-width:0.69999975;stroke-linecap:butt;stroke-linejoin:miter;stroke-miterlimit:4;stroke-dasharray:none;stroke-opacity:1" />
        <path
           id="path2618"
           d="M 547.56238,667.64662 L 566.60988,686.69411"
           style="fill:none;fill-rule:evenodd;stroke:#6c9eab;stroke-width:0.69999981;stroke-linecap:butt;stroke-linejoin:miter;stroke-miterlimit:4;stroke-dasharray:none;stroke-opacity:1" />
        <path
           id="path2620"
           d="M 547.90888,663.03716 L 571.56584,686.69411"
           style="fill:none;fill-rule:evenodd;stroke:#6c9eab;stroke-width:0.69999981;stroke-linecap:butt;stroke-linejoin:miter;stroke-miterlimit:4;stroke-dasharray:none;stroke-opacity:1" />
        <path
           id="path2622"
           d="M 549.31908,659.49142 L 576.52177,686.69411"
           style="fill:none;fill-rule:evenodd;stroke:#6c9eab;stroke-width:0.69999981;stroke-linecap:butt;stroke-linejoin:miter;stroke-miterlimit:4;stroke-dasharray:none;stroke-opacity:1" />
        <path
           id="path2624"
           d="M 549.07462,654.29102 L 581.47773,686.69412"
           style="fill:none;fill-rule:evenodd;stroke:#6c9eab;stroke-width:0.69999981;stroke-linecap:butt;stroke-linejoin:miter;stroke-miterlimit:4;stroke-dasharray:none;stroke-opacity:1" />
        <path
           id="path2626"
           d="M 549.30291,649.56334 L 586.43366,686.69409"
           style="fill:none;fill-rule:evenodd;stroke:#6c9eab;stroke-width:0.69999981;stroke-linecap:butt;stroke-linejoin:miter;stroke-miterlimit:4;stroke-dasharray:none;stroke-opacity:1" />
        <path
           id="path2628"
           d="M 548.70386,644.00835 L 591.38961,686.69409"
           style="fill:none;fill-rule:evenodd;stroke:#6c9eab;stroke-width:0.69999975;stroke-linecap:butt;stroke-linejoin:miter;stroke-miterlimit:4;stroke-dasharray:none;stroke-opacity:1" />
        <path
           id="path2630"
           d="M 549.05037,639.39893 L 596.34558,686.69413"
           style="fill:none;fill-rule:evenodd;stroke:#6c9eab;stroke-width:0.69999987;stroke-linecap:butt;stroke-linejoin:miter;stroke-miterlimit:4;stroke-dasharray:none;stroke-opacity:1" />
        <path
           id="path2632"
           d="M 549.27866,634.67126 L 601.30152,686.69411"
           style="fill:none;fill-rule:evenodd;stroke:#6c9eab;stroke-width:0.69999981;stroke-linecap:butt;stroke-linejoin:miter;stroke-miterlimit:4;stroke-dasharray:none;stroke-opacity:1" />
        <path
           id="path2634"
           d="M 554.23461,634.67126 L 606.25747,686.69411"
           style="fill:none;fill-rule:evenodd;stroke:#6c9eab;stroke-width:0.69999981;stroke-linecap:butt;stroke-linejoin:miter;stroke-miterlimit:4;stroke-dasharray:none;stroke-opacity:1" />
        <path
           id="path2636"
           d="M 559.19056,634.67126 L 611.21342,686.69411"
           style="fill:none;fill-rule:evenodd;stroke:#6c9eab;stroke-width:0.69999981;stroke-linecap:butt;stroke-linejoin:miter;stroke-miterlimit:4;stroke-dasharray:none;stroke-opacity:1" />
        <path
           id="path2638"
           d="M 564.14651,634.67126 L 616.16936,686.69411"
           style="fill:none;fill-rule:evenodd;stroke:#6c9eab;stroke-width:0.69999981;stroke-linecap:butt;stroke-linejoin:miter;stroke-miterlimit:4;stroke-dasharray:none;stroke-opacity:1" />
        <path
           id="path2640"
           d="M 569.10245,634.67126 L 621.12531,686.69411"
           style="fill:none;fill-rule:evenodd;stroke:#6c9eab;stroke-width:0.69999981;stroke-linecap:butt;stroke-linejoin:miter;stroke-miterlimit:4;stroke-dasharray:none;stroke-opacity:1" />
        <path
           id="path2642"
           d="M 574.0584,634.67126 L 626.08126,686.69411"
           style="fill:none;fill-rule:evenodd;stroke:#6c9eab;stroke-width:0.69999981;stroke-linecap:butt;stroke-linejoin:miter;stroke-miterlimit:4;stroke-dasharray:none;stroke-opacity:1" />
        <path
           id="path2644"
           d="M 579.01435,634.67126 L 631.03721,686.69411"
           style="fill:none;fill-rule:evenodd;stroke:#6c9eab;stroke-width:0.69999981;stroke-linecap:butt;stroke-linejoin:miter;stroke-miterlimit:4;stroke-dasharray:none;stroke-opacity:1" />
        <path
           id="path2646"
           d="M 583.9703,634.67126 L 635.99316,686.69411"
           style="fill:none;fill-rule:evenodd;stroke:#6c9eab;stroke-width:0.69999981;stroke-linecap:butt;stroke-linejoin:miter;stroke-miterlimit:4;stroke-dasharray:none;stroke-opacity:1" />
        <path
           id="path2648"
           d="M 588.92625,634.67126 L 640.94911,686.69411"
           style="fill:none;fill-rule:evenodd;stroke:#6c9eab;stroke-width:0.69999981;stroke-linecap:butt;stroke-linejoin:miter;stroke-miterlimit:4;stroke-dasharray:none;stroke-opacity:1" />
        <path
           id="path2681"
           d="M 593.8822,634.67126 L 645.90506,686.69411"
           style="fill:none;fill-rule:evenodd;stroke:#6c9eab;stroke-width:0.69999981;stroke-linecap:butt;stroke-linejoin:miter;stroke-miterlimit:4;stroke-dasharray:none;stroke-opacity:1" />
        <path
           id="path2652"
           d="M 598.83815,634.67126 L 650.86101,686.69411"
           style="fill:none;fill-rule:evenodd;stroke:#6c9eab;stroke-width:0.69999981;stroke-linecap:butt;stroke-linejoin:miter;stroke-miterlimit:4;stroke-dasharray:none;stroke-opacity:1" />
        <path
           id="path2654"
           d="M 603.7941,634.67126 L 655.81696,686.69411"
           style="fill:none;fill-rule:evenodd;stroke:#6c9eab;stroke-width:0.69999981;stroke-linecap:butt;stroke-linejoin:miter;stroke-miterlimit:4;stroke-dasharray:none;stroke-opacity:1" />
        <path
           id="path2656"
           d="M 608.75004,634.67126 L 660.7729,686.69411"
           style="fill:none;fill-rule:evenodd;stroke:#6c9eab;stroke-width:0.69999981;stroke-linecap:butt;stroke-linejoin:miter;stroke-miterlimit:4;stroke-dasharray:none;stroke-opacity:1" />
        <path
           id="path2686"
           d="M 613.70599,634.67126 L 665.72885,686.69411"
           style="fill:none;fill-rule:evenodd;stroke:#6c9eab;stroke-width:0.69999981;stroke-linecap:butt;stroke-linejoin:miter;stroke-miterlimit:4;stroke-dasharray:none;stroke-opacity:1" />
        <path
           id="path2660"
           d="M 618.66194,634.67126 L 670.6848,686.69411"
           style="fill:none;fill-rule:evenodd;stroke:#6c9eab;stroke-width:0.69999981;stroke-linecap:butt;stroke-linejoin:miter;stroke-miterlimit:4;stroke-dasharray:none;stroke-opacity:1" />
        <path
           id="path2662"
           d="M 623.61789,634.67126 L 675.64075,686.69411"
           style="fill:none;fill-rule:evenodd;stroke:#6c9eab;stroke-width:0.69999981;stroke-linecap:butt;stroke-linejoin:miter;stroke-miterlimit:4;stroke-dasharray:none;stroke-opacity:1" />
        <path
           id="path2664"
           d="M 628.57384,634.67126 L 680.5967,686.69411"
           style="fill:none;fill-rule:evenodd;stroke:#6c9eab;stroke-width:0.69999981;stroke-linecap:butt;stroke-linejoin:miter;stroke-miterlimit:4;stroke-dasharray:none;stroke-opacity:1" />
        <path
           id="path2666"
           d="M 633.52979,634.67126 L 685.55265,686.69411"
           style="fill:none;fill-rule:evenodd;stroke:#6c9eab;stroke-width:0.69999981;stroke-linecap:butt;stroke-linejoin:miter;stroke-miterlimit:4;stroke-dasharray:none;stroke-opacity:1" />
        <path
           id="path2668"
           d="M 638.48574,634.67126 L 690.5086,686.69411"
           style="fill:none;fill-rule:evenodd;stroke:#6c9eab;stroke-width:0.69999981;stroke-linecap:butt;stroke-linejoin:miter;stroke-miterlimit:4;stroke-dasharray:none;stroke-opacity:1" />
        <path
           id="path2670"
           d="M 643.44169,634.67126 L 695.46455,686.69411"
           style="fill:none;fill-rule:evenodd;stroke:#6c9eab;stroke-width:0.69999981;stroke-linecap:butt;stroke-linejoin:miter;stroke-miterlimit:4;stroke-dasharray:none;stroke-opacity:1" />
        <path
           id="path2672"
           d="M 648.39763,634.67126 L 700.42049,686.69411"
           style="fill:none;fill-rule:evenodd;stroke:#6c9eab;stroke-width:0.69999981;stroke-linecap:butt;stroke-linejoin:miter;stroke-miterlimit:4;stroke-dasharray:none;stroke-opacity:1" />
        <path
           id="path2674"
           d="M 653.35358,634.67126 L 705.37644,686.69411"
           style="fill:none;fill-rule:evenodd;stroke:#6c9eab;stroke-width:0.69999981;stroke-linecap:butt;stroke-linejoin:miter;stroke-miterlimit:4;stroke-dasharray:none;stroke-opacity:1" />
        <path
           id="path2676"
           d="M 658.30953,634.67126 L 710.33239,686.69411"
           style="fill:none;fill-rule:evenodd;stroke:#6c9eab;stroke-width:0.69999981;stroke-linecap:butt;stroke-linejoin:miter;stroke-miterlimit:4;stroke-dasharray:none;stroke-opacity:1" />
        <path
           id="path2678"
           d="M 663.26548,634.67126 L 715.28834,686.69411"
           style="fill:none;fill-rule:evenodd;stroke:#6c9eab;stroke-width:0.69999981;stroke-linecap:butt;stroke-linejoin:miter;stroke-miterlimit:4;stroke-dasharray:none;stroke-opacity:1" />
        <path
           id="path2680"
           d="M 668.22143,634.67126 L 720.24429,686.69411"
           style="fill:none;fill-rule:evenodd;stroke:#6c9eab;stroke-width:0.69999981;stroke-linecap:butt;stroke-linejoin:miter;stroke-miterlimit:4;stroke-dasharray:none;stroke-opacity:1" />
        <path
           id="path2682"
           d="M 673.17738,634.67126 L 725.20024,686.69411"
           style="fill:none;fill-rule:evenodd;stroke:#6c9eab;stroke-width:0.69999981;stroke-linecap:butt;stroke-linejoin:miter;stroke-miterlimit:4;stroke-dasharray:none;stroke-opacity:1" />
        <path
           id="path2684"
           d="M 678.13333,634.67126 L 730.15619,686.69411"
           style="fill:none;fill-rule:evenodd;stroke:#6c9eab;stroke-width:0.69999981;stroke-linecap:butt;stroke-linejoin:miter;stroke-miterlimit:4;stroke-dasharray:none;stroke-opacity:1" />
        <path
           id="path2701"
           d="M 683.08928,634.67126 L 735.11214,686.69411"
           style="fill:none;fill-rule:evenodd;stroke:#6c9eab;stroke-width:0.69999981;stroke-linecap:butt;stroke-linejoin:miter;stroke-miterlimit:4;stroke-dasharray:none;stroke-opacity:1" />
        <path
           id="path2688"
           d="M 688.04523,634.67126 L 740.06809,686.69411"
           style="fill:none;fill-rule:evenodd;stroke:#6c9eab;stroke-width:0.69999981;stroke-linecap:butt;stroke-linejoin:miter;stroke-miterlimit:4;stroke-dasharray:none;stroke-opacity:1" />
        <path
           id="path2690"
           d="M 693.00117,634.67126 L 745.02403,686.69411"
           style="fill:none;fill-rule:evenodd;stroke:#6c9eab;stroke-width:0.69999981;stroke-linecap:butt;stroke-linejoin:miter;stroke-miterlimit:4;stroke-dasharray:none;stroke-opacity:1" />
        <path
           id="path2692"
           d="M 697.95712,634.67126 L 749.97998,686.69411"
           style="fill:none;fill-rule:evenodd;stroke:#6c9eab;stroke-width:0.69999981;stroke-linecap:butt;stroke-linejoin:miter;stroke-miterlimit:4;stroke-dasharray:none;stroke-opacity:1" />
        <path
           id="path2694"
           d="M 702.91307,634.67126 L 754.93593,686.69411"
           style="fill:none;fill-rule:evenodd;stroke:#6c9eab;stroke-width:0.69999981;stroke-linecap:butt;stroke-linejoin:miter;stroke-miterlimit:4;stroke-dasharray:none;stroke-opacity:1" />
        <path
           id="path2696"
           d="M 707.86902,634.67126 L 759.89188,686.69411"
           style="fill:none;fill-rule:evenodd;stroke:#6c9eab;stroke-width:0.69999981;stroke-linecap:butt;stroke-linejoin:miter;stroke-miterlimit:4;stroke-dasharray:none;stroke-opacity:1" />
        <path
           id="path2698"
           d="M 712.82497,634.67126 L 764.84783,686.69411"
           style="fill:none;fill-rule:evenodd;stroke:#6c9eab;stroke-width:0.69999981;stroke-linecap:butt;stroke-linejoin:miter;stroke-miterlimit:4;stroke-dasharray:none;stroke-opacity:1" />
        <path
           id="path2700"
           d="M 717.78092,634.67126 L 769.80378,686.69411"
           style="fill:none;fill-rule:evenodd;stroke:#6c9eab;stroke-width:0.69999981;stroke-linecap:butt;stroke-linejoin:miter;stroke-miterlimit:4;stroke-dasharray:none;stroke-opacity:1" />
        <path
           id="path2702"
           d="M 722.73687,634.67126 L 774.75973,686.69411"
           style="fill:none;fill-rule:evenodd;stroke:#6c9eab;stroke-width:0.69999981;stroke-linecap:butt;stroke-linejoin:miter;stroke-miterlimit:4;stroke-dasharray:none;stroke-opacity:1" />
        <path
           id="path2704"
           d="M 727.6928,634.67123 L 776.99726,683.97568"
           style="fill:none;fill-rule:evenodd;stroke:#6c9eab;stroke-width:0.69999981;stroke-linecap:butt;stroke-linejoin:miter;stroke-miterlimit:4;stroke-dasharray:none;stroke-opacity:1" />
        <path
           id="path2706"
           d="M 732.64877,634.67128 L 780.06217,682.08467"
           style="fill:none;fill-rule:evenodd;stroke:#6c9eab;stroke-width:0.69999981;stroke-linecap:butt;stroke-linejoin:miter;stroke-miterlimit:4;stroke-dasharray:none;stroke-opacity:1" />
        <path
           id="path2708"
           d="M 737.60473,634.67129 L 782.6543,679.72085"
           style="fill:none;fill-rule:evenodd;stroke:#6c9eab;stroke-width:0.69999987;stroke-linecap:butt;stroke-linejoin:miter;stroke-miterlimit:4;stroke-dasharray:none;stroke-opacity:1" />
        <path
           id="path2710"
           d="M 742.56067,634.67127 L 786.7829,678.8935"
           style="fill:none;fill-rule:evenodd;stroke:#6c9eab;stroke-width:0.69999981;stroke-linecap:butt;stroke-linejoin:miter;stroke-miterlimit:4;stroke-dasharray:none;stroke-opacity:1" />
        <path
           id="path2712"
           d="M 747.51661,634.67126 L 788.66587,675.82051"
           style="fill:none;fill-rule:evenodd;stroke:#6c9eab;stroke-width:0.69999981;stroke-linecap:butt;stroke-linejoin:miter;stroke-miterlimit:4;stroke-dasharray:none;stroke-opacity:1" />
        <path
           id="path2714"
           d="M 752.47256,634.67127 L 790.31247,672.51116"
           style="fill:none;fill-rule:evenodd;stroke:#6c9eab;stroke-width:0.69999981;stroke-linecap:butt;stroke-linejoin:miter;stroke-miterlimit:4;stroke-dasharray:none;stroke-opacity:1" />
        <path
           id="path2716"
           d="M 757.42853,634.67128 L 791.6045,668.84725"
           style="fill:none;fill-rule:evenodd;stroke:#6c9eab;stroke-width:0.69999987;stroke-linecap:butt;stroke-linejoin:miter;stroke-miterlimit:4;stroke-dasharray:none;stroke-opacity:1" />
        <path
           id="path2718"
           d="M 762.38445,634.67124 L 793.13287,665.41965"
           style="fill:none;fill-rule:evenodd;stroke:#6c9eab;stroke-width:0.69999975;stroke-linecap:butt;stroke-linejoin:miter;stroke-miterlimit:4;stroke-dasharray:none;stroke-opacity:1" />
        <path
           id="path2720"
           d="M 767.34039,634.67124 L 794.77946,662.1103"
           style="fill:none;fill-rule:evenodd;stroke:#6c9eab;stroke-width:0.69999975;stroke-linecap:butt;stroke-linejoin:miter;stroke-miterlimit:4;stroke-dasharray:none;stroke-opacity:1" />
        <path
           id="path2722"
           d="M 772.29637,634.67128 L 794.77141,657.14631"
           style="fill:none;fill-rule:evenodd;stroke:#6c9eab;stroke-width:0.69999981;stroke-linecap:butt;stroke-linejoin:miter;stroke-miterlimit:4;stroke-dasharray:none;stroke-opacity:1" />
        <path
           id="path2724"
           d="M 777.2523,634.67127 L 794.40873,651.82769"
           style="fill:none;fill-rule:evenodd;stroke:#6c9eab;stroke-width:0.69999987;stroke-linecap:butt;stroke-linejoin:miter;stroke-miterlimit:4;stroke-dasharray:none;stroke-opacity:1" />
        <path
           id="path2726"
           d="M 782.20827,634.67129 L 793.10055,645.56356"
           style="fill:none;fill-rule:evenodd;stroke:#6c9eab;stroke-width:0.69999993;stroke-linecap:butt;stroke-linejoin:miter;stroke-miterlimit:4;stroke-dasharray:none;stroke-opacity:1" />
        <path
           id="path2728"
           d="M 787.1642,634.67127 L 793.44703,640.95409"
           style="fill:none;fill-rule:evenodd;stroke:#6c9eab;stroke-width:0.69999987;stroke-linecap:butt;stroke-linejoin:miter;stroke-miterlimit:4;stroke-dasharray:none;stroke-opacity:1" />
      </g>
    </g>
    <path
       style="fill:none;fill-opacity:1;stroke:#ffffff;stroke-width:10.00000095;stroke-linejoin:miter;stroke-miterlimit:4;stroke-dasharray:none;stroke-opacity:1"
       d="M 293.67747,436.54916 L 509.35257,436.54916 L 509.23001,652.03395 C 509.23001,668.16379 496.27484,681.14919 480.18254,681.14919 L 264.67458,681.14919 L 264.63,465.66439 C 264.63,449.53456 277.58518,436.54916 293.67747,436.54916 z "
       id="rect6047"
       sodipodi:nodetypes="ccccccc" />
  </g>
</svg>
