<?xml version="1.0" encoding="UTF-8" standalone="no"?>
<!-- Created with Inkscape (http://www.inkscape.org/) -->
<svg
   xmlns:dc="http://purl.org/dc/elements/1.1/"
   xmlns:cc="http://creativecommons.org/ns#"
   xmlns:rdf="http://www.w3.org/1999/02/22-rdf-syntax-ns#"
   xmlns:svg="http://www.w3.org/2000/svg"
   xmlns="http://www.w3.org/2000/svg"
   xmlns:xlink="http://www.w3.org/1999/xlink"
   xmlns:sodipodi="http://sodipodi.sourceforge.net/DTD/sodipodi-0.dtd"
   xmlns:inkscape="http://www.inkscape.org/namespaces/inkscape"
   width="254.72256"
   height="254.60004"
   id="svg2"
   sodipodi:version="0.32"
   inkscape:version="0.46"
   sodipodi:docbase="/home/christof/Grafiken/SVGs"
   sodipodi:docname="virtual_machine.svg"
   inkscape:output_extension="org.inkscape.output.svg.inkscape"
   version="1.0">
  <defs
     id="defs4"><inkscape:perspective
   sodipodi:type="inkscape:persp3d"
   inkscape:vp_x="0 : 127.30002 : 1"
   inkscape:vp_y="0 : 1000 : 0"
   inkscape:vp_z="254.72256 : 127.30002 : 1"
   inkscape:persp3d-origin="127.36128 : 84.866679 : 1"
   id="perspective92" />
<linearGradient
   id="linearGradient15107">
  <stop
     style="stop-color:#ffffff;stop-opacity:1.0000000;"
     offset="0.0000000"
     id="stop15109" />
  <stop
     style="stop-color:#e2e2e2;stop-opacity:1.0000000;"
     offset="1.0000000"
     id="stop15111" />
</linearGradient>
<linearGradient
   y2="26.022909"
   x2="18.475286"
   y1="4.7461624"
   x1="11.572842"
   gradientTransform="matrix(4.424777,0,0,4.6697466,315.57521,459.96281)"
   gradientUnits="userSpaceOnUse"
   id="linearGradient27486"
   xlink:href="#linearGradient15107"
   inkscape:collect="always" />
<radialGradient
   cx="64.551804"
   cy="14.1646"
   r="52.241501"
   fx="64.551804"
   fy="14.1646"
   id="XMLID_67_"
   gradientUnits="userSpaceOnUse">
  <stop
     style="stop-color:#0f80bc;stop-opacity:1"
     offset="0"
     id="stop85" />
  <stop
     style="stop-color:#0a5f9e;stop-opacity:1"
     offset="0.33759999"
     id="stop87" />
  <stop
     style="stop-color:#00145a;stop-opacity:1"
     offset="1"
     id="stop89" />
</radialGradient>
<clipPath
   clipPathUnits="userSpaceOnUse"
   id="clipoutline1">
  <path
     id="outline1"
     d="M 54.1,12.5 L 12.9,54.7 C -2.7,70.3 23,69 32.3,74.9 C 36.6,77.7 18.5,81.3 22.2,85 C 25.8,88.7 43.9,92.1 47.5,95.7 C 51.1,99.4 40.2,103.3 43.8,107 C 47.3,110.7 55.7,107.2 57.2,115.6 C 58.3,121.8 72.6,118.7 79,113.4 C 83,110 72.1,110 75.7,106.3 C 84.7,97.2 92.7,102.2 96,93.8 C 97.8,89.3 82.4,86.1 86.5,83.2 C 96.3,76.3 132.3,72.8 115.7,56.2 L 73,12.5 C 67.7,7.5 59,7.5 54.1,12.5 z M 44.2,77.2 C 45.1,77.2 75,81.2 63.5,84.3 C 59.1,85.5 38.9,77.2 44.2,77.2 z M 101.4,93.8 C 101.4,95.9 117.7,97.1 116.8,93.3 C 115.5,86.9 103.2,87.4 101.4,93.8 z M 31.9,104.9 C 35.6,108.1 41.2,104.2 43,99.7 C 39.4,95 26.1,100 31.9,104.9 z M 99.4,98.2 C 94.8,102.4 100.2,106.8 104.7,103.9 C 105.9,103.1 104.6,99.2 99.4,98.2 z " />
</clipPath>
<pattern
   inkscape:collect="always"
   xlink:href="#pattern7096"
   id="pattern7103"
   patternTransform="matrix(0.9807814,0.1951099,-0.1951099,0.9807814,88.853396,564.9863)" />
<pattern
   patternUnits="userSpaceOnUse"
   width="52.64405"
   height="52.64405"
   patternTransform="translate(265.42265,627.97688)"
   id="pattern7044">
  <path
     id="path6068"
     d="M 0.5,0.5 L 52.14405,52.14405"
     style="fill:none;fill-rule:evenodd;stroke:#e04613;stroke-width:1px;stroke-linecap:butt;stroke-linejoin:miter;stroke-opacity:1" />
</pattern>
<pattern
   patternUnits="userSpaceOnUse"
   width="52.64405"
   height="52.64405"
   patternTransform="translate(265.69051,628.69118)"
   id="pattern7053">
  <path
     id="path7051"
     d="M 0.5,0.5 L 52.14405,52.14405"
     style="fill:none;fill-rule:evenodd;stroke:#e04613;stroke-width:1px;stroke-linecap:butt;stroke-linejoin:miter;stroke-opacity:1" />
</pattern>
<pattern
   patternUnits="userSpaceOnUse"
   width="7.5"
   height="41.425995"
   patternTransform="translate(198.25517,601.81158)"
   id="pattern7087">
  <rect
     y="1.25"
     x="1.25"
     height="38.925995"
     width="5"
     id="rect7085"
     style="opacity:1;fill:#262729;fill-opacity:1;fill-rule:nonzero;stroke:#e04613;stroke-width:2.5;stroke-linejoin:miter;stroke-miterlimit:4;stroke-dasharray:none;stroke-opacity:1" />
</pattern>
<pattern
   patternUnits="userSpaceOnUse"
   width="7.5000006"
   height="213.63924"
   patternTransform="translate(197.38019,536.79187)"
   id="pattern7096">
  <rect
     id="rect7090"
     y="0.87500006"
     x="0.87500006"
     height="211.88924"
     width="5.7500005"
     style="fill:#262729;fill-opacity:1;stroke:#e04613;stroke-width:1.75000012;stroke-miterlimit:4;stroke-dasharray:none;stroke-opacity:1" />
</pattern>
<radialGradient
   inkscape:collect="always"
   xlink:href="#XMLID_67_"
   id="radialGradient31918"
   gradientUnits="userSpaceOnUse"
   cx="64.551804"
   cy="14.1646"
   fx="64.551804"
   fy="14.1646"
   r="52.241501" />
<radialGradient
   inkscape:collect="always"
   xlink:href="#XMLID_67_"
   id="radialGradient32255"
   gradientUnits="userSpaceOnUse"
   cx="64.551804"
   cy="14.1646"
   fx="64.551804"
   fy="14.1646"
   r="52.241501" />
<radialGradient
   r="52.241501"
   fy="14.1646"
   fx="64.551804"
   cy="14.1646"
   cx="64.551804"
   gradientUnits="userSpaceOnUse"
   id="radialGradient3411"
   xlink:href="#XMLID_67_"
   inkscape:collect="always" />
<radialGradient
   r="52.241501"
   fy="14.1646"
   fx="64.551804"
   cy="14.1646"
   cx="64.551804"
   gradientUnits="userSpaceOnUse"
   id="radialGradient3409"
   xlink:href="#XMLID_67_"
   inkscape:collect="always" />
<pattern
   id="pattern3405"
   patternTransform="translate(197.38019,536.79187)"
   height="213.63924"
   width="7.5000006"
   patternUnits="userSpaceOnUse">
  <rect
     style="fill:#262729;fill-opacity:1;stroke:#e04613;stroke-width:1.75000012;stroke-miterlimit:4;stroke-dasharray:none;stroke-opacity:1"
     width="5.7500005"
     height="211.88924"
     x="0.87500006"
     y="0.87500006"
     id="rect3407" />
</pattern>
<pattern
   id="pattern3401"
   patternTransform="translate(198.25517,601.81158)"
   height="41.425995"
   width="7.5"
   patternUnits="userSpaceOnUse">
  <rect
     style="opacity:1;fill:#262729;fill-opacity:1;fill-rule:nonzero;stroke:#e04613;stroke-width:2.5;stroke-linejoin:miter;stroke-miterlimit:4;stroke-dasharray:none;stroke-opacity:1"
     id="rect3403"
     width="5"
     height="38.925995"
     x="1.25"
     y="1.25" />
</pattern>
<pattern
   id="pattern3397"
   patternTransform="translate(265.69051,628.69118)"
   height="52.64405"
   width="52.64405"
   patternUnits="userSpaceOnUse">
  <path
     style="fill:none;fill-rule:evenodd;stroke:#e04613;stroke-width:1px;stroke-linecap:butt;stroke-linejoin:miter;stroke-opacity:1"
     d="M 0.5,0.5 L 52.14405,52.14405"
     id="path3399" />
</pattern>
<pattern
   id="pattern3393"
   patternTransform="translate(265.42265,627.97688)"
   height="52.64405"
   width="52.64405"
   patternUnits="userSpaceOnUse">
  <path
     style="fill:none;fill-rule:evenodd;stroke:#e04613;stroke-width:1px;stroke-linecap:butt;stroke-linejoin:miter;stroke-opacity:1"
     d="M 0.5,0.5 L 52.14405,52.14405"
     id="path3395" />
</pattern>
<pattern
   patternTransform="matrix(0.9807814,0.1951099,-0.1951099,0.9807814,88.853396,564.9863)"
   id="pattern3391"
   xlink:href="#pattern7096"
   inkscape:collect="always" />
<clipPath
   id="clipPath3387"
   clipPathUnits="userSpaceOnUse">
  <path
     d="M 54.1,12.5 L 12.9,54.7 C -2.7,70.3 23,69 32.3,74.9 C 36.6,77.7 18.5,81.3 22.2,85 C 25.8,88.7 43.9,92.1 47.5,95.7 C 51.1,99.4 40.2,103.3 43.8,107 C 47.3,110.7 55.7,107.2 57.2,115.6 C 58.3,121.8 72.6,118.7 79,113.4 C 83,110 72.1,110 75.7,106.3 C 84.7,97.2 92.7,102.2 96,93.8 C 97.8,89.3 82.4,86.1 86.5,83.2 C 96.3,76.3 132.3,72.8 115.7,56.2 L 73,12.5 C 67.7,7.5 59,7.5 54.1,12.5 z M 44.2,77.2 C 45.1,77.2 75,81.2 63.5,84.3 C 59.1,85.5 38.9,77.2 44.2,77.2 z M 101.4,93.8 C 101.4,95.9 117.7,97.1 116.8,93.3 C 115.5,86.9 103.2,87.4 101.4,93.8 z M 31.9,104.9 C 35.6,108.1 41.2,104.2 43,99.7 C 39.4,95 26.1,100 31.9,104.9 z M 99.4,98.2 C 94.8,102.4 100.2,106.8 104.7,103.9 C 105.9,103.1 104.6,99.2 99.4,98.2 z "
     id="path3389" />
</clipPath>
<radialGradient
   gradientUnits="userSpaceOnUse"
   id="radialGradient3379"
   fy="14.1646"
   fx="64.551804"
   r="52.241501"
   cy="14.1646"
   cx="64.551804">
  <stop
     id="stop3381"
     offset="0"
     style="stop-color:#0f80bc;stop-opacity:1" />
  <stop
     id="stop3383"
     offset="0.33759999"
     style="stop-color:#0a5f9e;stop-opacity:1" />
  <stop
     id="stop3385"
     offset="1"
     style="stop-color:#00145a;stop-opacity:1" />
</radialGradient>
<linearGradient
   inkscape:collect="always"
   xlink:href="#linearGradient15107"
   id="linearGradient3377"
   gradientUnits="userSpaceOnUse"
   gradientTransform="matrix(4.424777,0,0,4.6697466,315.57521,459.96281)"
   x1="11.572842"
   y1="4.7461624"
   x2="18.475286"
   y2="26.022909" />
<linearGradient
   id="linearGradient3371">
  <stop
     id="stop3373"
     offset="0.0000000"
     style="stop-color:#ffffff;stop-opacity:1.0000000;" />
  <stop
     id="stop3375"
     offset="1.0000000"
     style="stop-color:#e2e2e2;stop-opacity:1.0000000;" />
</linearGradient>
<inkscape:perspective
   id="perspective3368"
   inkscape:persp3d-origin="127.36128 : 84.866679 : 1"
   inkscape:vp_z="254.72256 : 127.30002 : 1"
   inkscape:vp_y="0 : 1000 : 0"
   inkscape:vp_x="0 : 127.30002 : 1"
   sodipodi:type="inkscape:persp3d" />
<inkscape:perspective
   id="perspective3313"
   inkscape:persp3d-origin="372.04724 : 350.78739 : 1"
   inkscape:vp_z="744.09448 : 526.18109 : 1"
   inkscape:vp_y="0 : 1000 : 0"
   inkscape:vp_x="0 : 526.18109 : 1"
   sodipodi:type="inkscape:persp3d" />
<inkscape:perspective
   id="perspective3822"
   inkscape:persp3d-origin="406.022 : 50.988668 : 1"
   inkscape:vp_z="812.04401 : 76.483002 : 1"
   inkscape:vp_y="0 : 1000 : 0"
   inkscape:vp_x="0 : 76.483002 : 1"
   sodipodi:type="inkscape:persp3d" />

	
	
	
	
	

		
		
		
		
		
		
		
		
		
		<linearGradient
   id="XMLID_57_"
   gradientUnits="userSpaceOnUse"
   x1="19.1108"
   y1="62.3535"
   x2="82.387199"
   y2="62.3535">
			<stop
   offset="0"
   style="stop-color:#FAAB4F"
   id="stop3643" />

			<stop
   offset="0.25"
   style="stop-color:#FAAB4F"
   id="stop3645" />

			<stop
   offset="0.475"
   style="stop-color:#FCC193"
   id="stop3647" />

			<stop
   offset="0.525"
   style="stop-color:#FCC193"
   id="stop3649" />

			<stop
   offset="0.75"
   style="stop-color:#F89C3E"
   id="stop3651" />

			<stop
   offset="1"
   style="stop-color:#F89C3E"
   id="stop3653" />

		</linearGradient>

		
		
		
		<linearGradient
   id="XMLID_58_"
   gradientUnits="userSpaceOnUse"
   x1="89.186501"
   y1="44.528801"
   x2="29.653999"
   y2="27.458099">
			<stop
   offset="0"
   style="stop-color:#CD2B2B"
   id="stop3662" />

			<stop
   offset="0.4"
   style="stop-color:#F2692A"
   id="stop3664" />

			<stop
   offset="0.725"
   style="stop-color:#FCB544"
   id="stop3666" />

			<stop
   offset="1"
   style="stop-color:#F37237"
   id="stop3668" />

		</linearGradient>

		
	
		
		<linearGradient
   id="XMLID_51_"
   gradientUnits="userSpaceOnUse"
   x1="159.86909"
   y1="57.839802"
   x2="100.4596"
   y2="40.804401">
			<stop
   offset="0"
   style="stop-color:#6FBC48"
   id="stop3501" />

			<stop
   offset="0.3333"
   style="stop-color:#98C74F"
   id="stop3503" />

			<stop
   offset="0.6666"
   style="stop-color:#80C046"
   id="stop3505" />

			<stop
   offset="1"
   style="stop-color:#607D3A"
   id="stop3507" />

		</linearGradient>

		
	
		<linearGradient
   id="XMLID_59_"
   gradientUnits="userSpaceOnUse"
   x1="137.6787"
   y1="144.4785"
   x2="137.34171"
   y2="145.7364">
			<stop
   offset="0"
   style="stop-color:#D4A52E"
   id="stop3675" />

			<stop
   offset="1"
   style="stop-color:#A87C3C"
   id="stop3677" />

		</linearGradient>

		
		
		<linearGradient
   id="XMLID_60_"
   gradientUnits="userSpaceOnUse"
   x1="153.5293"
   y1="89.365196"
   x2="153.5293"
   y2="90.400398">
			<stop
   offset="0.0056"
   style="stop-color:#C19236"
   id="stop3684" />

			<stop
   offset="1"
   style="stop-color:#D4A52E"
   id="stop3686" />

		</linearGradient>

		
		<linearGradient
   id="XMLID_61_"
   gradientUnits="userSpaceOnUse"
   x1="151.23"
   y1="88.141602"
   x2="151.8813"
   y2="89.225601">
			<stop
   offset="0.0056"
   style="stop-color:#FFCD02"
   id="stop3691" />

			<stop
   offset="1"
   style="stop-color:#A87C3C"
   id="stop3693" />

		</linearGradient>

		
		<linearGradient
   id="XMLID_62_"
   gradientUnits="userSpaceOnUse"
   x1="152.9268"
   y1="88.972702"
   x2="152.52811"
   y2="89.4478">
			<stop
   offset="0.0056"
   style="stop-color:#FFCD02"
   id="stop3698" />

			<stop
   offset="1"
   style="stop-color:#A87C3C"
   id="stop3700" />

		</linearGradient>

		
		
		<linearGradient
   id="XMLID_63_"
   gradientUnits="userSpaceOnUse"
   x1="136.3667"
   y1="143.90331"
   x2="134.9541"
   y2="143.8046">
			<stop
   offset="0"
   style="stop-color:#C19236"
   id="stop3707" />

			<stop
   offset="1"
   style="stop-color:#FFCD02"
   id="stop3709" />

		</linearGradient>

		
		
		
		<linearGradient
   id="XMLID_64_"
   gradientUnits="userSpaceOnUse"
   x1="80.171402"
   y1="111.6348"
   x2="78.692902"
   y2="111.2108">
			<stop
   offset="0"
   style="stop-color:#D4A52E"
   id="stop3718" />

			<stop
   offset="0.1"
   style="stop-color:#D4A52E"
   id="stop3720" />

			<stop
   offset="0.2"
   style="stop-color:#FFC222"
   id="stop3722" />

			<stop
   offset="0.35"
   style="stop-color:#FFC222"
   id="stop3724" />

			<stop
   offset="1"
   style="stop-color:#D4A52E"
   id="stop3726" />

		</linearGradient>

		
		<linearGradient
   id="XMLID_65_"
   gradientUnits="userSpaceOnUse"
   x1="144.2988"
   y1="116.2773"
   x2="142.89819"
   y2="115.8757">
			<stop
   offset="0"
   style="stop-color:#A87C3C"
   id="stop3731" />

			<stop
   offset="1"
   style="stop-color:#FFD200"
   id="stop3733" />

		</linearGradient>

		
		
		<linearGradient
   id="XMLID_66_"
   gradientUnits="userSpaceOnUse"
   x1="136.95461"
   y1="143.748"
   x2="136.2509"
   y2="145.32851">
			<stop
   offset="0"
   style="stop-color:#C19236"
   id="stop3740" />

			<stop
   offset="1"
   style="stop-color:#D4A52E"
   id="stop3742" />

		</linearGradient>

		
		<linearGradient
   id="linearGradient4055"
   gradientUnits="userSpaceOnUse"
   x1="71.436996"
   y1="145.625"
   x2="135.6938"
   y2="145.625">
			<stop
   offset="0"
   style="stop-color:#D4A52E"
   id="stop3747" />

			<stop
   offset="0.4"
   style="stop-color:#FFD200"
   id="stop3749" />

			<stop
   offset="1"
   style="stop-color:#D4A52E"
   id="stop3751" />

		</linearGradient>

		
		
		
		<linearGradient
   id="XMLID_68_"
   gradientUnits="userSpaceOnUse"
   x1="70.992203"
   y1="140.8633"
   x2="69.9571"
   y2="139.7137">
			<stop
   offset="0"
   style="stop-color:#D4A52E"
   id="stop3760" />

			<stop
   offset="0.1"
   style="stop-color:#D4A52E"
   id="stop3762" />

			<stop
   offset="0.7"
   style="stop-color:#FFD200"
   id="stop3764" />

			<stop
   offset="1"
   style="stop-color:#D4A52E"
   id="stop3766" />

		</linearGradient>

		
		<linearGradient
   id="XMLID_69_"
   gradientUnits="userSpaceOnUse"
   x1="71.022499"
   y1="138.93359"
   x2="71.754898"
   y2="140.2549">
			<stop
   offset="0"
   style="stop-color:#D4A52E"
   id="stop3771" />

			<stop
   offset="0.4"
   style="stop-color:#FFC222"
   id="stop3773" />

			<stop
   offset="0.8"
   style="stop-color:#FFCD02"
   id="stop3775" />

			<stop
   offset="1"
   style="stop-color:#D4A52E"
   id="stop3777" />

		</linearGradient>

		
		
		
		<linearGradient
   id="XMLID_72_"
   gradientUnits="userSpaceOnUse"
   x1="88.188004"
   y1="83.368202"
   x2="86.717003"
   y2="83.265297">
			<stop
   offset="0"
   style="stop-color:#FFC222"
   id="stop3807" />

			<stop
   offset="0.2"
   style="stop-color:#FFC222"
   id="stop3809" />

			<stop
   offset="0.525"
   style="stop-color:#FFD200"
   id="stop3811" />

			<stop
   offset="1"
   style="stop-color:#D4A52E"
   id="stop3813" />

		</linearGradient>

		
	
		
		<linearGradient
   id="XMLID_55_"
   gradientUnits="userSpaceOnUse"
   x1="16.246599"
   y1="74.212402"
   x2="16.246599"
   y2="74.620598">
			<stop
   offset="0"
   style="stop-color:#76A5D8"
   id="stop3578" />

			<stop
   offset="1"
   style="stop-color:#2E499E"
   id="stop3580" />

		</linearGradient>

		
	</defs>
  <sodipodi:namedview
     id="base"
     pagecolor="#a2a2a2"
     bordercolor="#666666"
     borderopacity="1.0"
     inkscape:pageopacity="0.87843137"
     inkscape:pageshadow="2"
     inkscape:zoom="2.1152149"
     inkscape:cx="128.75433"
     inkscape:cy="142.69636"
     inkscape:document-units="px"
     inkscape:current-layer="layer1"
     inkscape:window-width="1280"
     inkscape:window-height="897"
     inkscape:window-x="0"
     inkscape:window-y="25"
     showgrid="true" />
  <metadata
     id="metadata7">
    <rdf:RDF>
      <cc:Work
         rdf:about="">
        <dc:format>image/svg+xml</dc:format>
        <dc:type
           rdf:resource="http://purl.org/dc/dcmitype/StillImage" />
      </cc:Work>
    </rdf:RDF>
  </metadata>
  <g
     inkscape:label="Ebene 1"
     inkscape:groupmode="layer"
     id="layer1"
     transform="translate(-259.63,-431.54916)">
    <path
       style="fill:#262729;fill-opacity:1;stroke:none;stroke-width:2.40000224;stroke-linejoin:miter;stroke-miterlimit:4;stroke-opacity:1"
       d="M 292.60735,436.28011 L 508.20734,436.28011 L 510.20734,653.8801 C 510.20734,670.5001 496.82734,683.8801 480.20734,683.8801 L 264.60735,683.8801 L 262.60735,466.28011 C 262.60735,449.66011 275.98735,436.28011 292.60735,436.28011 z "
       id="rect2160"
       sodipodi:nodetypes="ccccccc" />
    <path
       style="fill:none;fill-rule:evenodd;stroke:#6c9eab;stroke-width:10.00000191;stroke-linecap:butt;stroke-linejoin:miter;stroke-miterlimit:4;stroke-dasharray:none;stroke-opacity:1"
       d="M 263.33237,627.59304 L 508.53458,627.59304"
       id="path3134" />
    <path
       style="fill:none;fill-rule:evenodd;stroke:#6c9eab;stroke-width:0.69999981;stroke-linecap:butt;stroke-linejoin:miter;stroke-miterlimit:4;stroke-dasharray:none;stroke-opacity:1"
       d="M 262.28424,676.50298 L 267.14877,681.36751"
       id="path2180"
       inkscape:tile-w="52.72286"
       inkscape:tile-h="52.72285"
       inkscape:tile-cx="241.13734"
       inkscape:tile-cy="655.35609" />
    <path
       id="use14111"
       d="M 262.63882,676.85757 L 267.14877,681.36751"
       style="fill:none;fill-rule:evenodd;stroke:#6c9eab;stroke-width:0.69999981;stroke-linecap:butt;stroke-linejoin:miter;stroke-miterlimit:4;stroke-dasharray:none;stroke-opacity:1" />
    <path
       id="use14113"
       d="M 264.63998,673.90277 L 272.10472,681.36751"
       style="fill:none;fill-rule:evenodd;stroke:#6c9eab;stroke-width:0.69999987;stroke-linecap:butt;stroke-linejoin:miter;stroke-miterlimit:4;stroke-dasharray:none;stroke-opacity:1" />
    <path
       id="use14115"
       d="M 263.92274,668.22958 L 277.06066,681.3675"
       style="fill:none;fill-rule:evenodd;stroke:#6c9eab;stroke-width:0.69999975;stroke-linecap:butt;stroke-linejoin:miter;stroke-miterlimit:4;stroke-dasharray:none;stroke-opacity:1" />
    <path
       id="use14117"
       d="M 262.96912,662.32002 L 282.01662,681.36751"
       style="fill:none;fill-rule:evenodd;stroke:#6c9eab;stroke-width:0.69999981;stroke-linecap:butt;stroke-linejoin:miter;stroke-miterlimit:4;stroke-dasharray:none;stroke-opacity:1" />
    <path
       id="use14119"
       d="M 263.31562,657.71056 L 286.97258,681.36751"
       style="fill:none;fill-rule:evenodd;stroke:#6c9eab;stroke-width:0.69999981;stroke-linecap:butt;stroke-linejoin:miter;stroke-miterlimit:4;stroke-dasharray:none;stroke-opacity:1" />
    <path
       id="use14121"
       d="M 264.72582,654.16482 L 291.92851,681.36751"
       style="fill:none;fill-rule:evenodd;stroke:#6c9eab;stroke-width:0.69999981;stroke-linecap:butt;stroke-linejoin:miter;stroke-miterlimit:4;stroke-dasharray:none;stroke-opacity:1" />
    <path
       id="use14123"
       d="M 264.48136,648.96442 L 296.88447,681.36752"
       style="fill:none;fill-rule:evenodd;stroke:#6c9eab;stroke-width:0.69999981;stroke-linecap:butt;stroke-linejoin:miter;stroke-miterlimit:4;stroke-dasharray:none;stroke-opacity:1" />
    <path
       id="use14125"
       d="M 264.70965,644.23674 L 301.8404,681.36749"
       style="fill:none;fill-rule:evenodd;stroke:#6c9eab;stroke-width:0.69999981;stroke-linecap:butt;stroke-linejoin:miter;stroke-miterlimit:4;stroke-dasharray:none;stroke-opacity:1" />
    <path
       id="use14127"
       d="M 264.1106,638.68175 L 306.79635,681.36749"
       style="fill:none;fill-rule:evenodd;stroke:#6c9eab;stroke-width:0.69999975;stroke-linecap:butt;stroke-linejoin:miter;stroke-miterlimit:4;stroke-dasharray:none;stroke-opacity:1" />
    <path
       id="use14129"
       d="M 264.45711,634.07233 L 311.75232,681.36753"
       style="fill:none;fill-rule:evenodd;stroke:#6c9eab;stroke-width:0.69999987;stroke-linecap:butt;stroke-linejoin:miter;stroke-miterlimit:4;stroke-dasharray:none;stroke-opacity:1" />
    <path
       id="use14131"
       d="M 264.6854,629.34466 L 316.70826,681.36751"
       style="fill:none;fill-rule:evenodd;stroke:#6c9eab;stroke-width:0.69999981;stroke-linecap:butt;stroke-linejoin:miter;stroke-miterlimit:4;stroke-dasharray:none;stroke-opacity:1" />
    <path
       id="use14133"
       d="M 269.64135,629.34466 L 321.66421,681.36751"
       style="fill:none;fill-rule:evenodd;stroke:#6c9eab;stroke-width:0.69999981;stroke-linecap:butt;stroke-linejoin:miter;stroke-miterlimit:4;stroke-dasharray:none;stroke-opacity:1" />
    <path
       id="use14135"
       d="M 274.5973,629.34466 L 326.62016,681.36751"
       style="fill:none;fill-rule:evenodd;stroke:#6c9eab;stroke-width:0.69999981;stroke-linecap:butt;stroke-linejoin:miter;stroke-miterlimit:4;stroke-dasharray:none;stroke-opacity:1" />
    <path
       id="use14137"
       d="M 279.55325,629.34466 L 331.5761,681.36751"
       style="fill:none;fill-rule:evenodd;stroke:#6c9eab;stroke-width:0.69999981;stroke-linecap:butt;stroke-linejoin:miter;stroke-miterlimit:4;stroke-dasharray:none;stroke-opacity:1" />
    <path
       id="use14139"
       d="M 284.50919,629.34466 L 336.53205,681.36751"
       style="fill:none;fill-rule:evenodd;stroke:#6c9eab;stroke-width:0.69999981;stroke-linecap:butt;stroke-linejoin:miter;stroke-miterlimit:4;stroke-dasharray:none;stroke-opacity:1" />
    <path
       id="use14141"
       d="M 289.46514,629.34466 L 341.488,681.36751"
       style="fill:none;fill-rule:evenodd;stroke:#6c9eab;stroke-width:0.69999981;stroke-linecap:butt;stroke-linejoin:miter;stroke-miterlimit:4;stroke-dasharray:none;stroke-opacity:1" />
    <path
       id="use14143"
       d="M 294.42109,629.34466 L 346.44395,681.36751"
       style="fill:none;fill-rule:evenodd;stroke:#6c9eab;stroke-width:0.69999981;stroke-linecap:butt;stroke-linejoin:miter;stroke-miterlimit:4;stroke-dasharray:none;stroke-opacity:1" />
    <path
       id="use14145"
       d="M 299.37704,629.34466 L 351.3999,681.36751"
       style="fill:none;fill-rule:evenodd;stroke:#6c9eab;stroke-width:0.69999981;stroke-linecap:butt;stroke-linejoin:miter;stroke-miterlimit:4;stroke-dasharray:none;stroke-opacity:1" />
    <path
       id="use14147"
       d="M 304.33299,629.34466 L 356.35585,681.36751"
       style="fill:none;fill-rule:evenodd;stroke:#6c9eab;stroke-width:0.69999981;stroke-linecap:butt;stroke-linejoin:miter;stroke-miterlimit:4;stroke-dasharray:none;stroke-opacity:1" />
    <path
       id="use14149"
       d="M 309.28894,629.34466 L 361.3118,681.36751"
       style="fill:none;fill-rule:evenodd;stroke:#6c9eab;stroke-width:0.69999981;stroke-linecap:butt;stroke-linejoin:miter;stroke-miterlimit:4;stroke-dasharray:none;stroke-opacity:1" />
    <path
       id="use14151"
       d="M 314.24489,629.34466 L 366.26775,681.36751"
       style="fill:none;fill-rule:evenodd;stroke:#6c9eab;stroke-width:0.69999981;stroke-linecap:butt;stroke-linejoin:miter;stroke-miterlimit:4;stroke-dasharray:none;stroke-opacity:1" />
    <path
       id="use14153"
       d="M 319.20084,629.34466 L 371.2237,681.36751"
       style="fill:none;fill-rule:evenodd;stroke:#6c9eab;stroke-width:0.69999981;stroke-linecap:butt;stroke-linejoin:miter;stroke-miterlimit:4;stroke-dasharray:none;stroke-opacity:1" />
    <path
       id="use14155"
       d="M 324.15678,629.34466 L 376.17964,681.36751"
       style="fill:none;fill-rule:evenodd;stroke:#6c9eab;stroke-width:0.69999981;stroke-linecap:butt;stroke-linejoin:miter;stroke-miterlimit:4;stroke-dasharray:none;stroke-opacity:1" />
    <path
       id="use14157"
       d="M 329.11273,629.34466 L 381.13559,681.36751"
       style="fill:none;fill-rule:evenodd;stroke:#6c9eab;stroke-width:0.69999981;stroke-linecap:butt;stroke-linejoin:miter;stroke-miterlimit:4;stroke-dasharray:none;stroke-opacity:1" />
    <path
       id="use14159"
       d="M 334.06868,629.34466 L 386.09154,681.36751"
       style="fill:none;fill-rule:evenodd;stroke:#6c9eab;stroke-width:0.69999981;stroke-linecap:butt;stroke-linejoin:miter;stroke-miterlimit:4;stroke-dasharray:none;stroke-opacity:1" />
    <path
       id="use14161"
       d="M 339.02463,629.34466 L 391.04749,681.36751"
       style="fill:none;fill-rule:evenodd;stroke:#6c9eab;stroke-width:0.69999981;stroke-linecap:butt;stroke-linejoin:miter;stroke-miterlimit:4;stroke-dasharray:none;stroke-opacity:1" />
    <path
       id="use14163"
       d="M 343.98058,629.34466 L 396.00344,681.36751"
       style="fill:none;fill-rule:evenodd;stroke:#6c9eab;stroke-width:0.69999981;stroke-linecap:butt;stroke-linejoin:miter;stroke-miterlimit:4;stroke-dasharray:none;stroke-opacity:1" />
    <path
       id="use14165"
       d="M 348.93653,629.34466 L 400.95939,681.36751"
       style="fill:none;fill-rule:evenodd;stroke:#6c9eab;stroke-width:0.69999981;stroke-linecap:butt;stroke-linejoin:miter;stroke-miterlimit:4;stroke-dasharray:none;stroke-opacity:1" />
    <path
       id="use14167"
       d="M 353.89248,629.34466 L 405.91534,681.36751"
       style="fill:none;fill-rule:evenodd;stroke:#6c9eab;stroke-width:0.69999981;stroke-linecap:butt;stroke-linejoin:miter;stroke-miterlimit:4;stroke-dasharray:none;stroke-opacity:1" />
    <path
       id="use14169"
       d="M 358.84843,629.34466 L 410.87129,681.36751"
       style="fill:none;fill-rule:evenodd;stroke:#6c9eab;stroke-width:0.69999981;stroke-linecap:butt;stroke-linejoin:miter;stroke-miterlimit:4;stroke-dasharray:none;stroke-opacity:1" />
    <path
       id="use14171"
       d="M 363.80437,629.34466 L 415.82723,681.36751"
       style="fill:none;fill-rule:evenodd;stroke:#6c9eab;stroke-width:0.69999981;stroke-linecap:butt;stroke-linejoin:miter;stroke-miterlimit:4;stroke-dasharray:none;stroke-opacity:1" />
    <path
       id="use14173"
       d="M 368.76032,629.34466 L 420.78318,681.36751"
       style="fill:none;fill-rule:evenodd;stroke:#6c9eab;stroke-width:0.69999981;stroke-linecap:butt;stroke-linejoin:miter;stroke-miterlimit:4;stroke-dasharray:none;stroke-opacity:1" />
    <path
       id="use14175"
       d="M 373.71627,629.34466 L 425.73913,681.36751"
       style="fill:none;fill-rule:evenodd;stroke:#6c9eab;stroke-width:0.69999981;stroke-linecap:butt;stroke-linejoin:miter;stroke-miterlimit:4;stroke-dasharray:none;stroke-opacity:1" />
    <path
       id="use14177"
       d="M 378.67222,629.34466 L 430.69508,681.36751"
       style="fill:none;fill-rule:evenodd;stroke:#6c9eab;stroke-width:0.69999981;stroke-linecap:butt;stroke-linejoin:miter;stroke-miterlimit:4;stroke-dasharray:none;stroke-opacity:1" />
    <path
       id="use14179"
       d="M 383.62817,629.34466 L 435.65103,681.36751"
       style="fill:none;fill-rule:evenodd;stroke:#6c9eab;stroke-width:0.69999981;stroke-linecap:butt;stroke-linejoin:miter;stroke-miterlimit:4;stroke-dasharray:none;stroke-opacity:1" />
    <path
       id="use14181"
       d="M 388.58412,629.34466 L 440.60698,681.36751"
       style="fill:none;fill-rule:evenodd;stroke:#6c9eab;stroke-width:0.69999981;stroke-linecap:butt;stroke-linejoin:miter;stroke-miterlimit:4;stroke-dasharray:none;stroke-opacity:1" />
    <path
       id="use14183"
       d="M 393.54007,629.34466 L 445.56293,681.36751"
       style="fill:none;fill-rule:evenodd;stroke:#6c9eab;stroke-width:0.69999981;stroke-linecap:butt;stroke-linejoin:miter;stroke-miterlimit:4;stroke-dasharray:none;stroke-opacity:1" />
    <path
       id="use14185"
       d="M 398.49602,629.34466 L 450.51888,681.36751"
       style="fill:none;fill-rule:evenodd;stroke:#6c9eab;stroke-width:0.69999981;stroke-linecap:butt;stroke-linejoin:miter;stroke-miterlimit:4;stroke-dasharray:none;stroke-opacity:1" />
    <path
       id="use14187"
       d="M 403.45197,629.34466 L 455.47483,681.36751"
       style="fill:none;fill-rule:evenodd;stroke:#6c9eab;stroke-width:0.69999981;stroke-linecap:butt;stroke-linejoin:miter;stroke-miterlimit:4;stroke-dasharray:none;stroke-opacity:1" />
    <path
       id="use14189"
       d="M 408.40791,629.34466 L 460.43077,681.36751"
       style="fill:none;fill-rule:evenodd;stroke:#6c9eab;stroke-width:0.69999981;stroke-linecap:butt;stroke-linejoin:miter;stroke-miterlimit:4;stroke-dasharray:none;stroke-opacity:1" />
    <path
       id="use14191"
       d="M 413.36386,629.34466 L 465.38672,681.36751"
       style="fill:none;fill-rule:evenodd;stroke:#6c9eab;stroke-width:0.69999981;stroke-linecap:butt;stroke-linejoin:miter;stroke-miterlimit:4;stroke-dasharray:none;stroke-opacity:1" />
    <path
       id="use14193"
       d="M 418.31981,629.34466 L 470.34267,681.36751"
       style="fill:none;fill-rule:evenodd;stroke:#6c9eab;stroke-width:0.69999981;stroke-linecap:butt;stroke-linejoin:miter;stroke-miterlimit:4;stroke-dasharray:none;stroke-opacity:1" />
    <path
       id="use14195"
       d="M 423.27576,629.34466 L 475.29862,681.36751"
       style="fill:none;fill-rule:evenodd;stroke:#6c9eab;stroke-width:0.69999981;stroke-linecap:butt;stroke-linejoin:miter;stroke-miterlimit:4;stroke-dasharray:none;stroke-opacity:1" />
    <path
       id="use14197"
       d="M 428.23171,629.34466 L 480.25457,681.36751"
       style="fill:none;fill-rule:evenodd;stroke:#6c9eab;stroke-width:0.69999981;stroke-linecap:butt;stroke-linejoin:miter;stroke-miterlimit:4;stroke-dasharray:none;stroke-opacity:1" />
    <path
       id="use14199"
       d="M 433.18766,629.34466 L 485.21052,681.36751"
       style="fill:none;fill-rule:evenodd;stroke:#6c9eab;stroke-width:0.69999981;stroke-linecap:butt;stroke-linejoin:miter;stroke-miterlimit:4;stroke-dasharray:none;stroke-opacity:1" />
    <path
       id="use14201"
       d="M 438.14361,629.34466 L 490.16647,681.36751"
       style="fill:none;fill-rule:evenodd;stroke:#6c9eab;stroke-width:0.69999981;stroke-linecap:butt;stroke-linejoin:miter;stroke-miterlimit:4;stroke-dasharray:none;stroke-opacity:1" />
    <path
       id="use14203"
       d="M 443.09954,629.34463 L 492.404,678.64908"
       style="fill:none;fill-rule:evenodd;stroke:#6c9eab;stroke-width:0.69999981;stroke-linecap:butt;stroke-linejoin:miter;stroke-miterlimit:4;stroke-dasharray:none;stroke-opacity:1" />
    <path
       id="use14205"
       d="M 448.05551,629.34468 L 495.46891,676.75807"
       style="fill:none;fill-rule:evenodd;stroke:#6c9eab;stroke-width:0.69999981;stroke-linecap:butt;stroke-linejoin:miter;stroke-miterlimit:4;stroke-dasharray:none;stroke-opacity:1" />
    <path
       id="use14207"
       d="M 453.01147,629.34469 L 498.06104,674.39425"
       style="fill:none;fill-rule:evenodd;stroke:#6c9eab;stroke-width:0.69999987;stroke-linecap:butt;stroke-linejoin:miter;stroke-miterlimit:4;stroke-dasharray:none;stroke-opacity:1" />
    <path
       id="use14209"
       d="M 457.96741,629.34467 L 502.18964,673.5669"
       style="fill:none;fill-rule:evenodd;stroke:#6c9eab;stroke-width:0.69999981;stroke-linecap:butt;stroke-linejoin:miter;stroke-miterlimit:4;stroke-dasharray:none;stroke-opacity:1" />
    <path
       id="use14211"
       d="M 462.92335,629.34466 L 504.07261,670.49391"
       style="fill:none;fill-rule:evenodd;stroke:#6c9eab;stroke-width:0.69999981;stroke-linecap:butt;stroke-linejoin:miter;stroke-miterlimit:4;stroke-dasharray:none;stroke-opacity:1" />
    <path
       id="use14213"
       d="M 467.8793,629.34467 L 505.71921,667.18456"
       style="fill:none;fill-rule:evenodd;stroke:#6c9eab;stroke-width:0.69999981;stroke-linecap:butt;stroke-linejoin:miter;stroke-miterlimit:4;stroke-dasharray:none;stroke-opacity:1" />
    <path
       id="use14215"
       d="M 472.83527,629.34468 L 507.01124,663.52065"
       style="fill:none;fill-rule:evenodd;stroke:#6c9eab;stroke-width:0.69999987;stroke-linecap:butt;stroke-linejoin:miter;stroke-miterlimit:4;stroke-dasharray:none;stroke-opacity:1" />
    <path
       id="use14217"
       d="M 477.79119,629.34464 L 508.53961,660.09305"
       style="fill:none;fill-rule:evenodd;stroke:#6c9eab;stroke-width:0.69999975;stroke-linecap:butt;stroke-linejoin:miter;stroke-miterlimit:4;stroke-dasharray:none;stroke-opacity:1" />
    <path
       id="use14219"
       d="M 482.74713,629.34464 L 510.1862,656.7837"
       style="fill:none;fill-rule:evenodd;stroke:#6c9eab;stroke-width:0.69999975;stroke-linecap:butt;stroke-linejoin:miter;stroke-miterlimit:4;stroke-dasharray:none;stroke-opacity:1" />
    <path
       id="use14221"
       d="M 487.70311,629.34468 L 510.17815,651.81971"
       style="fill:none;fill-rule:evenodd;stroke:#6c9eab;stroke-width:0.69999981;stroke-linecap:butt;stroke-linejoin:miter;stroke-miterlimit:4;stroke-dasharray:none;stroke-opacity:1" />
    <path
       id="use14223"
       d="M 492.65904,629.34467 L 509.81547,646.50109"
       style="fill:none;fill-rule:evenodd;stroke:#6c9eab;stroke-width:0.69999987;stroke-linecap:butt;stroke-linejoin:miter;stroke-miterlimit:4;stroke-dasharray:none;stroke-opacity:1" />
    <path
       id="use14225"
       d="M 497.61501,629.34469 L 508.50729,640.23696"
       style="fill:none;fill-rule:evenodd;stroke:#6c9eab;stroke-width:0.69999993;stroke-linecap:butt;stroke-linejoin:miter;stroke-miterlimit:4;stroke-dasharray:none;stroke-opacity:1" />
    <path
       id="use14227"
       d="M 502.57094,629.34467 L 508.85377,635.62749"
       style="fill:none;fill-rule:evenodd;stroke:#6c9eab;stroke-width:0.69999987;stroke-linecap:butt;stroke-linejoin:miter;stroke-miterlimit:4;stroke-dasharray:none;stroke-opacity:1" />
    <path
       style="fill:none;fill-opacity:1;stroke:#ffffff;stroke-width:10.00000095;stroke-linejoin:miter;stroke-miterlimit:4;stroke-dasharray:none;stroke-opacity:1"
       d="M 293.67747,436.54916 L 509.35257,436.54916 L 509.23001,652.03395 C 509.23001,668.16379 496.27484,681.14919 480.18254,681.14919 L 264.67458,681.14919 L 264.63,465.66439 C 264.63,449.53456 277.58518,436.54916 293.67747,436.54916 z "
       id="rect6047"
       sodipodi:nodetypes="ccccccc" />
    <path
       id="path3276"
       d="M 314.505,466.79916 C 309.2444,466.79916 305.005,471.11746 305.005,476.48666 L 305.005,583.33041 C 305.005,588.6996 309.2444,593.0179 314.505,593.01791 L 460.03625,593.01791 C 465.29685,593.01791 469.53626,588.69961 469.53625,583.33041 L 469.53625,476.48666 C 469.53625,471.11747 465.29685,466.79916 460.03625,466.79916 L 314.505,466.79916 z M 322.13,471.98666 L 453.84875,471.98666 C 458.6105,471.98666 462.4425,475.87917 462.4425,480.70541 L 462.4425,576.73666 C 462.4425,581.5629 458.6105,585.45541 453.84875,585.45541 L 322.13,585.45541 C 317.36825,585.45541 313.53625,581.5629 313.53625,576.73666 L 313.53625,480.70541 C 313.53625,475.87917 317.36825,471.98666 322.13,471.98666 z"
       style="fill:none;fill-opacity:1;fill-rule:evenodd;stroke:#ffffff;stroke-width:10;stroke-linecap:round;stroke-linejoin:round;stroke-miterlimit:4;stroke-dasharray:none;stroke-opacity:1" />
    <path
       style="fill:#ffffff;fill-opacity:1;fill-rule:evenodd;stroke:#262729;stroke-width:2;stroke-linecap:butt;stroke-linejoin:miter;stroke-miterlimit:4;stroke-dasharray:none;stroke-opacity:1"
       d="M 374.03918,590.17786 C 375.4551,602.88194 370.05285,611.32466 351.34645,611.45229 L 350.87368,619.01654 L 423.67952,619.01654 L 423.67952,612.39782 C 402.98121,611.24606 401.03413,601.2702 401.45956,590.17786 L 374.03918,590.17786 z"
       id="path3254"
       sodipodi:nodetypes="ccccccc" />
    <rect
       style="fill:#262729;fill-opacity:1;stroke:#262729;stroke-width:5;stroke-linecap:round;stroke-miterlimit:4;stroke-dasharray:none;stroke-opacity:1"
       id="rect3292"
       width="76.553665"
       height="56.16164"
       x="348.55261"
       y="494.09644" />
    <path
       style="fill:none;fill-opacity:1;fill-rule:evenodd;stroke:#ffffff;stroke-width:5.03913879;stroke-linecap:round;stroke-linejoin:round;stroke-miterlimit:4;stroke-dasharray:none;stroke-opacity:1"
       d="M 350.10158,491.8981 C 347.45068,491.8981 345.31439,494.07416 345.31439,496.77977 L 345.31439,550.61982 C 345.31439,553.32543 347.45068,555.50148 350.10158,555.50149 L 423.4368,555.50149 C 426.08768,555.50149 428.22398,553.32544 428.22398,550.61982 L 428.22398,496.77977 C 428.22398,494.07416 426.08768,491.8981 423.4368,491.8981 L 350.10158,491.8981 z M 353.94392,494.51216 L 420.31883,494.51216 C 422.71834,494.51216 424.64934,496.47365 424.64934,498.90566 L 424.64934,547.29714 C 424.64934,549.72915 422.71834,551.69064 420.31883,551.69064 L 353.94392,551.69064 C 351.54441,551.69064 349.61341,549.72915 349.61341,547.29714 L 349.61341,498.90566 C 349.61341,496.47365 351.54441,494.51216 353.94392,494.51216 z"
       id="path2505" />
    <path
       sodipodi:nodetypes="ccccccc"
       id="path2507"
       d="M 380.10167,554.07035 C 380.81517,560.47211 378.0929,564.72651 368.66649,564.79083 L 368.42825,568.60256 L 405.11613,568.60256 L 405.11613,565.26729 C 394.68596,564.68691 393.7048,559.65993 393.91918,554.07035 L 380.10167,554.07035 z"
       style="fill:#ffffff;fill-opacity:1;fill-rule:evenodd;stroke:#262729;stroke-width:1.00782776;stroke-linecap:butt;stroke-linejoin:miter;stroke-miterlimit:4;stroke-dasharray:none;stroke-opacity:1" />
    <g
       id="g3369"
       transform="translate(382.7982,100.86898)">
		<path
   d=""
   id="path3371"
   style="fill:none" />

	</g>
    <g
       id="g5000"
       transform="matrix(0.2162259,0,0,0.2162259,284.05747,483.3761)">
      <path
         id="path3509"
         d="M 553.2052,121.95898 C 520.2092,135.60098 504.3442,127.93198 490.0452,118.30898 L 473.7672,174.77098 C 488.0522,184.44898 505.2982,192.40598 536.9552,178.23398 L 553.2052,121.95898 z"
         style="fill:#ffffff;fill-opacity:1" />
      <g
         style="fill:#ffffff;fill-opacity:1"
         transform="translate(382.7982,100.86898)"
         id="g3513">
			<path
   id="path3515"
   d="M 1.36,132.346 C 1.468,132.362 1.667,132.268 1.667,132.268 C 1.896,132.424 2.078,132.534 2.078,132.534 C 2.078,132.534 1.72,132.619 1.36,132.346 z"
   clip-rule="evenodd"
   style="fill:#ffffff;fill-opacity:1;fill-rule:evenodd" />

			<path
   id="path3517"
   d="M 62.57,135.236 C 62.57,135.236 62.789,135.439 63.041,135.369 L 62.052,135.955 C 61.736,136.096 61.411,135.873 61.411,135.873 L 62.57,135.236 z"
   style="fill:#ffffff;fill-opacity:1" />

			<path
   id="path3519"
   d="M 1.68,132.275 C 1.68,132.275 1.487,132.373 1.378,132.357 L 0.293,131.529 L 0.268,131.506 C 0.425,131.561 0.606,131.533 0.679,131.518 L 1.68,132.275 z"
   style="fill:#ffffff;fill-opacity:1" />

			<path
   id="path3521"
   d="M 63.125,134.428 C 63.238,134.51 63.357,134.6 63.469,134.826 C 63.406,135.123 63.158,135.275 63.018,135.385 C 62.816,135.432 62.533,135.24 62.533,135.24 C 62.691,135.107 62.961,134.916 63.125,134.428 z"
   style="fill:#ffffff;fill-opacity:1" />

			<g
   style="fill:#ffffff;fill-opacity:1"
   id="g3523">
				<g
   style="fill:#ffffff;fill-opacity:1"
   id="g3525">
					<rect
   id="rect3527"
   height="0.017999999"
   width="0.324"
   clip-rule="evenodd"
   y="74.602997"
   x="16.084"
   style="fill:#ffffff;fill-opacity:1;fill-rule:evenodd" />

				</g>

			</g>

			<polygon
   id="polygon3529"
   points="16.086,74.56 16.267,74.611 0.207,130.799 0.023,130.752 16.086,74.56 "
   clip-rule="evenodd"
   style="fill:#ffffff;fill-opacity:1;fill-rule:evenodd" />

			<path
   id="path3531"
   d="M 0.293,131.529 C 0.085,131.349 -0.059,131.041 0.022,130.752 L 0.215,130.678 C 0.134,131.096 0.441,131.397 0.665,131.526 C 0.667,131.525 0.503,131.607 0.293,131.529 z"
   clip-rule="evenodd"
   style="fill:#ffffff;fill-opacity:1;fill-rule:evenodd" />

			<linearGradient
   y2="129.19141"
   x2="63.144001"
   y1="129.19141"
   x1="0.18700001"
   gradientUnits="userSpaceOnUse"
   id="XMLID_52_">
				<stop
   id="stop3534"
   style="stop-color:#76A5D8"
   offset="0" />

				<stop
   id="stop3536"
   style="stop-color:#DAE3EC"
   offset="0.45" />

				<stop
   id="stop3538"
   style="stop-color:#3F87C7"
   offset="1" />

			</linearGradient>

			<path
   id="path3540"
   d="M 62.56,135.275 C 48.228,125.63 33.375,118.263 0.686,131.545 C 0.461,131.412 0.119,131.092 0.199,130.67 C 33.391,116.541 48.812,124.795 63.144,134.443 C 62.998,134.955 62.718,135.146 62.56,135.275 z"
   style="fill:#ffffff;fill-opacity:1" />

			<path
   id="path3542"
   d="M 1.615,132.232 C 33.079,119.931 47.182,126.63 61.507,135.853 C 52.927,130.33 44.097,125.908 31.913,125.833 C 23.759,125.786 14.122,127.856 2.062,132.532 C 2.062,132.533 1.813,132.439 1.615,132.232 z"
   clip-rule="evenodd"
   style="fill:#ffffff;fill-opacity:1;fill-rule:evenodd" />

			<path
   id="path3544"
   d="M 62.577,135.271 L 61.418,135.876 C 47.093,126.653 32.595,120.278 1.681,132.274 L 0.659,131.528 C 33.348,118.244 48.246,125.623 62.577,135.271 z"
   clip-rule="evenodd"
   style="fill:#ffffff;fill-opacity:1;fill-rule:evenodd" />

			<path
   id="path3546"
   d="M 63.115,134.459 L 79.642,77.892 C 79.819,78.015 79.913,78.111 80.005,78.216 L 63.463,134.853 C 63.37,134.615 63.115,134.459 63.115,134.459 z"
   clip-rule="evenodd"
   style="fill:#ffffff;fill-opacity:1;fill-rule:evenodd" />

			<path
   id="path3548"
   d="M 79.635,77.919 C 65.317,68.215 49.168,61.191 16.232,74.634 C 16.314,74.353 16.381,74.22 16.381,74.22 C 49.462,60.542 65.437,67.804 79.754,77.509 L 79.635,77.919 z"
   clip-rule="evenodd"
   style="fill:#ffffff;fill-opacity:1;fill-rule:evenodd" />

			<g
   style="fill:#ffffff;fill-opacity:1"
   id="g3550">
				<defs
   id="defs3552">
					<path
   d="M 63.135,134.475 C 48.804,124.827 33.267,117.01 0.193,130.682 L 16.238,74.603 C 49.317,60.923 65.345,68.203 79.664,77.906 L 63.135,134.475 z"
   id="XMLID_16_" />

				</defs>

				<clipPath
   id="XMLID_53_">
					<use
   id="use3556"
   xlink:href="#XMLID_16_"
   x="0"
   y="0"
   width="254.72256"
   height="254.60004" />

				</clipPath>

				<g
   style="fill:#ffffff;fill-opacity:1"
   id="g3558"
   clip-path="url(#XMLID_53_)">
					<g
   style="fill:#ffffff;fill-opacity:1"
   id="g3560">
						<linearGradient
   y2="93.900703"
   x2="10.6821"
   y1="110.9561"
   x1="70.161102"
   gradientUnits="userSpaceOnUse"
   id="XMLID_54_">
							<stop
   id="stop3563"
   style="stop-color:#2E499E"
   offset="0" />

							<stop
   id="stop3565"
   style="stop-color:#4496D1"
   offset="0.4" />

							<stop
   id="stop3567"
   style="stop-color:#A5CDED"
   offset="0.725" />

							<stop
   id="stop3569"
   style="stop-color:#007FC4"
   offset="1" />

						</linearGradient>

						<path
   id="path3571"
   d="M 63.141,134.596 C 48.81,124.951 33.231,117.018 0.157,130.694 L 16.352,74.127 C 49.433,60.449 65.325,68.189 79.642,77.893 L 63.141,134.596 z"
   style="fill:#ffffff;fill-opacity:1" />

						<path
   id="path3573"
   d="M 63.141,134.596 C 48.81,124.951 33.231,117.018 0.157,130.694 L 16.352,74.127 C 49.433,60.449 65.325,68.189 79.642,77.893 L 63.141,134.596 z"
   style="fill:#ffffff;fill-opacity:1" />

					</g>

				</g>

			</g>

			<path
   id="path3575"
   d="M 79.749,77.505 L 79.776,77.521 C 79.98,77.666 80.063,77.947 80.005,78.216 L 79.993,78.251 C 79.902,78.147 79.807,78.048 79.631,77.925 L 79.749,77.505 z"
   clip-rule="evenodd"
   style="fill:#ffffff;fill-opacity:1;fill-rule:evenodd" />

		</g>
      <path
         id="path3670"
         d="M 465.1902,168.54898 C 456.5622,162.73898 447.2832,157.31598 434.1052,157.21598 C 425.4102,157.14898 415.0602,159.61898 401.9212,165.05198 L 418.2042,108.62998 C 451.2632,94.96098 467.1422,102.69698 481.4492,112.39398 L 465.1902,168.54898 z"
         style="fill:#ffffff;fill-opacity:1" />
      <g
         style="fill:#ffffff;fill-opacity:1"
         transform="translate(382.7982,100.86898)"
         id="g3781">
			<defs
   id="defs3783">
				<path
   d="M 88.131,83.682 C 102.444,93.315 117.953,99.991 150.891,88.651 L 135.188,143.229 C 106.208,155.971 86.647,148.319 71.987,139.459 L 88.131,83.682 z"
   id="XMLID_35_" />

			</defs>

			<clipPath
   id="XMLID_70_">
				<use
   id="use3787"
   xlink:href="#XMLID_35_"
   x="0"
   y="0"
   width="254.72256"
   height="254.60004" />

			</clipPath>

			<linearGradient
   y2="106.5514"
   x2="81.422997"
   y1="123.625"
   x1="140.96581"
   gradientUnits="userSpaceOnUse"
   id="XMLID_71_">
				<stop
   id="stop3790"
   style="stop-color:#FFC907"
   offset="0" />

				<stop
   id="stop3792"
   style="stop-color:#FFD200"
   offset="0.1667" />

				<stop
   id="stop3794"
   style="stop-color:#FFD952"
   offset="0.3333" />

				<stop
   id="stop3796"
   style="stop-color:#FFCD02"
   offset="0.625" />

				<stop
   id="stop3798"
   style="stop-color:#B77A36"
   offset="1" />

			</linearGradient>

			<path
   id="path3800"
   d="M 88.226,83.334 C 102.539,92.971 118.438,100.647 151.469,86.994 L 135.188,143.228 C 102.151,156.892 86.285,149.154 71.987,139.458 L 88.226,83.334 z"
   clip-path="url(#XMLID_70_)"
   style="fill:#ffffff;fill-opacity:1" />

			<path
   id="path3802"
   d="M 88.226,83.334 C 102.539,92.971 118.438,100.647 151.469,86.994 L 135.188,143.228 C 102.151,156.892 86.285,149.154 71.987,139.458 L 88.226,83.334 z"
   clip-path="url(#XMLID_70_)"
   style="fill:#ffffff;fill-opacity:1" />

		</g>
    </g>
  </g>
</svg>
