<?xml version="1.0" encoding="UTF-8" standalone="no"?>
<!-- Created with Inkscape (http://www.inkscape.org/) -->
<svg
   xmlns:dc="http://purl.org/dc/elements/1.1/"
   xmlns:cc="http://web.resource.org/cc/"
   xmlns:rdf="http://www.w3.org/1999/02/22-rdf-syntax-ns#"
   xmlns:svg="http://www.w3.org/2000/svg"
   xmlns="http://www.w3.org/2000/svg"
   xmlns:xlink="http://www.w3.org/1999/xlink"
   xmlns:sodipodi="http://sodipodi.sourceforge.net/DTD/sodipodi-0.dtd"
   xmlns:inkscape="http://www.inkscape.org/namespaces/inkscape"
   width="254.72256"
   height="254.60004"
   id="svg2"
   sodipodi:version="0.32"
   inkscape:version="0.45.1"
   sodipodi:docbase="/home/christof/Grafiken/SVGs/brits"
   sodipodi:docname="brit_icon_dict.svg"
   inkscape:output_extension="org.inkscape.output.svg.inkscape"
   version="1.0">
  <defs
     id="defs4">
    <linearGradient
       id="linearGradient15107">
      <stop
         style="stop-color:#ffffff;stop-opacity:1.0000000;"
         offset="0.0000000"
         id="stop15109" />
      <stop
         style="stop-color:#e2e2e2;stop-opacity:1.0000000;"
         offset="1.0000000"
         id="stop15111" />
    </linearGradient>
    <linearGradient
       y2="26.022909"
       x2="18.475286"
       y1="4.7461624"
       x1="11.572842"
       gradientTransform="matrix(4.424777,0,0,4.6697466,315.57521,459.96281)"
       gradientUnits="userSpaceOnUse"
       id="linearGradient27486"
       xlink:href="#linearGradient15107"
       inkscape:collect="always" />
    <radialGradient
       cx="64.551804"
       cy="14.1646"
       r="52.241501"
       fx="64.551804"
       fy="14.1646"
       id="XMLID_67_"
       gradientUnits="userSpaceOnUse">
      <stop
         style="stop-color:#0f80bc;stop-opacity:1"
         offset="0"
         id="stop85" />
      <stop
         style="stop-color:#0a5f9e;stop-opacity:1"
         offset="0.33759999"
         id="stop87" />
      <stop
         style="stop-color:#00145a;stop-opacity:1"
         offset="1"
         id="stop89" />
    </radialGradient>
    <clipPath
       clipPathUnits="userSpaceOnUse"
       id="clipoutline1">
      <path
         id="outline1"
         d="M 54.1,12.5 L 12.9,54.7 C -2.7,70.3 23,69 32.3,74.9 C 36.6,77.7 18.5,81.3 22.2,85 C 25.8,88.7 43.9,92.1 47.5,95.7 C 51.1,99.4 40.2,103.3 43.8,107 C 47.3,110.7 55.7,107.2 57.2,115.6 C 58.3,121.8 72.6,118.7 79,113.4 C 83,110 72.1,110 75.7,106.3 C 84.7,97.2 92.7,102.2 96,93.8 C 97.8,89.3 82.4,86.1 86.5,83.2 C 96.3,76.3 132.3,72.8 115.7,56.2 L 73,12.5 C 67.7,7.5 59,7.5 54.1,12.5 z M 44.2,77.2 C 45.1,77.2 75,81.2 63.5,84.3 C 59.1,85.5 38.9,77.2 44.2,77.2 z M 101.4,93.8 C 101.4,95.9 117.7,97.1 116.8,93.3 C 115.5,86.9 103.2,87.4 101.4,93.8 z M 31.9,104.9 C 35.6,108.1 41.2,104.2 43,99.7 C 39.4,95 26.1,100 31.9,104.9 z M 99.4,98.2 C 94.8,102.4 100.2,106.8 104.7,103.9 C 105.9,103.1 104.6,99.2 99.4,98.2 z " />
    </clipPath>
    <pattern
       inkscape:collect="always"
       xlink:href="#pattern7096"
       id="pattern7103"
       patternTransform="matrix(0.9807814,0.1951099,-0.1951099,0.9807814,88.853396,564.9863)" />
    <pattern
       patternUnits="userSpaceOnUse"
       width="52.64405"
       height="52.64405"
       patternTransform="translate(265.42265,627.97688)"
       id="pattern7044">
      <path
         id="path6068"
         d="M 0.5,0.5 L 52.14405,52.14405"
         style="fill:none;fill-rule:evenodd;stroke:#e04613;stroke-width:1px;stroke-linecap:butt;stroke-linejoin:miter;stroke-opacity:1" />
    </pattern>
    <pattern
       patternUnits="userSpaceOnUse"
       width="52.64405"
       height="52.64405"
       patternTransform="translate(265.69051,628.69118)"
       id="pattern7053">
      <path
         id="path7051"
         d="M 0.5,0.5 L 52.14405,52.14405"
         style="fill:none;fill-rule:evenodd;stroke:#e04613;stroke-width:1px;stroke-linecap:butt;stroke-linejoin:miter;stroke-opacity:1" />
    </pattern>
    <pattern
       patternUnits="userSpaceOnUse"
       width="7.5"
       height="41.425995"
       patternTransform="translate(198.25517,601.81158)"
       id="pattern7087">
      <rect
         y="1.25"
         x="1.25"
         height="38.925995"
         width="5"
         id="rect7085"
         style="opacity:1;fill:#262729;fill-opacity:1;fill-rule:nonzero;stroke:#e04613;stroke-width:2.5;stroke-linejoin:miter;stroke-miterlimit:4;stroke-dasharray:none;stroke-opacity:1" />
    </pattern>
    <pattern
       patternUnits="userSpaceOnUse"
       width="7.5000006"
       height="213.63924"
       patternTransform="translate(197.38019,536.79187)"
       id="pattern7096">
      <rect
         id="rect7090"
         y="0.87500006"
         x="0.87500006"
         height="211.88924"
         width="5.7500005"
         style="fill:#262729;fill-opacity:1;stroke:#e04613;stroke-width:1.75000012;stroke-miterlimit:4;stroke-dasharray:none;stroke-opacity:1" />
    </pattern>
    <radialGradient
       inkscape:collect="always"
       xlink:href="#XMLID_67_"
       id="radialGradient31918"
       gradientUnits="userSpaceOnUse"
       cx="64.551804"
       cy="14.1646"
       fx="64.551804"
       fy="14.1646"
       r="52.241501" />
    <radialGradient
       inkscape:collect="always"
       xlink:href="#XMLID_67_"
       id="radialGradient32255"
       gradientUnits="userSpaceOnUse"
       cx="64.551804"
       cy="14.1646"
       fx="64.551804"
       fy="14.1646"
       r="52.241501" />
  </defs>
  <sodipodi:namedview
     id="base"
     pagecolor="#a2a2a2"
     bordercolor="#666666"
     borderopacity="1.0"
     inkscape:pageopacity="0.87843137"
     inkscape:pageshadow="2"
     inkscape:zoom="2.1152149"
     inkscape:cx="155.55486"
     inkscape:cy="130.50599"
     inkscape:document-units="px"
     inkscape:current-layer="layer1"
     inkscape:window-width="1680"
     inkscape:window-height="1003"
     inkscape:window-x="0"
     inkscape:window-y="47"
     showgrid="true" />
  <metadata
     id="metadata7">
    <rdf:RDF>
      <cc:Work
         rdf:about="">
        <dc:format>image/svg+xml</dc:format>
        <dc:type
           rdf:resource="http://purl.org/dc/dcmitype/StillImage" />
      </cc:Work>
    </rdf:RDF>
  </metadata>
  <g
     inkscape:label="Ebene 1"
     inkscape:groupmode="layer"
     id="layer1"
     transform="translate(-259.63,-431.54916)">
    <path
       style="fill:#262729;fill-opacity:1;stroke:none;stroke-width:2.40000224;stroke-linejoin:miter;stroke-miterlimit:4;stroke-opacity:1"
       d="M 292.60735,436.28011 L 508.20734,436.28011 L 510.20734,653.8801 C 510.20734,670.5001 496.82734,683.8801 480.20734,683.8801 L 264.60735,683.8801 L 262.60735,466.28011 C 262.60735,449.66011 275.98735,436.28011 292.60735,436.28011 z "
       id="rect2160"
       sodipodi:nodetypes="ccccccc" />
    <path
       style="fill:none;fill-rule:evenodd;stroke:#6c9eab;stroke-width:10.00000191;stroke-linecap:butt;stroke-linejoin:miter;stroke-miterlimit:4;stroke-dasharray:none;stroke-opacity:1"
       d="M 263.33237,627.59304 L 508.53458,627.59304"
       id="path3134" />
    <path
       style="fill:none;fill-rule:evenodd;stroke:#6c9eab;stroke-width:0.69999981;stroke-linecap:butt;stroke-linejoin:miter;stroke-miterlimit:4;stroke-dasharray:none;stroke-opacity:1"
       d="M 262.28424,676.50298 L 267.14877,681.36751"
       id="path2180"
       inkscape:tile-w="52.72286"
       inkscape:tile-h="52.72285"
       inkscape:tile-cx="241.13734"
       inkscape:tile-cy="655.35609" />
    <path
       id="use14111"
       d="M 262.63882,676.85757 L 267.14877,681.36751"
       style="fill:none;fill-rule:evenodd;stroke:#6c9eab;stroke-width:0.69999981;stroke-linecap:butt;stroke-linejoin:miter;stroke-miterlimit:4;stroke-dasharray:none;stroke-opacity:1" />
    <path
       id="use14113"
       d="M 264.63998,673.90277 L 272.10472,681.36751"
       style="fill:none;fill-rule:evenodd;stroke:#6c9eab;stroke-width:0.69999987;stroke-linecap:butt;stroke-linejoin:miter;stroke-miterlimit:4;stroke-dasharray:none;stroke-opacity:1" />
    <path
       id="use14115"
       d="M 263.92274,668.22958 L 277.06066,681.3675"
       style="fill:none;fill-rule:evenodd;stroke:#6c9eab;stroke-width:0.69999975;stroke-linecap:butt;stroke-linejoin:miter;stroke-miterlimit:4;stroke-dasharray:none;stroke-opacity:1" />
    <path
       id="use14117"
       d="M 262.96912,662.32002 L 282.01662,681.36751"
       style="fill:none;fill-rule:evenodd;stroke:#6c9eab;stroke-width:0.69999981;stroke-linecap:butt;stroke-linejoin:miter;stroke-miterlimit:4;stroke-dasharray:none;stroke-opacity:1" />
    <path
       id="use14119"
       d="M 263.31562,657.71056 L 286.97258,681.36751"
       style="fill:none;fill-rule:evenodd;stroke:#6c9eab;stroke-width:0.69999981;stroke-linecap:butt;stroke-linejoin:miter;stroke-miterlimit:4;stroke-dasharray:none;stroke-opacity:1" />
    <path
       id="use14121"
       d="M 264.72582,654.16482 L 291.92851,681.36751"
       style="fill:none;fill-rule:evenodd;stroke:#6c9eab;stroke-width:0.69999981;stroke-linecap:butt;stroke-linejoin:miter;stroke-miterlimit:4;stroke-dasharray:none;stroke-opacity:1" />
    <path
       id="use14123"
       d="M 264.48136,648.96442 L 296.88447,681.36752"
       style="fill:none;fill-rule:evenodd;stroke:#6c9eab;stroke-width:0.69999981;stroke-linecap:butt;stroke-linejoin:miter;stroke-miterlimit:4;stroke-dasharray:none;stroke-opacity:1" />
    <path
       id="use14125"
       d="M 264.70965,644.23674 L 301.8404,681.36749"
       style="fill:none;fill-rule:evenodd;stroke:#6c9eab;stroke-width:0.69999981;stroke-linecap:butt;stroke-linejoin:miter;stroke-miterlimit:4;stroke-dasharray:none;stroke-opacity:1" />
    <path
       id="use14127"
       d="M 264.1106,638.68175 L 306.79635,681.36749"
       style="fill:none;fill-rule:evenodd;stroke:#6c9eab;stroke-width:0.69999975;stroke-linecap:butt;stroke-linejoin:miter;stroke-miterlimit:4;stroke-dasharray:none;stroke-opacity:1" />
    <path
       id="use14129"
       d="M 264.45711,634.07233 L 311.75232,681.36753"
       style="fill:none;fill-rule:evenodd;stroke:#6c9eab;stroke-width:0.69999987;stroke-linecap:butt;stroke-linejoin:miter;stroke-miterlimit:4;stroke-dasharray:none;stroke-opacity:1" />
    <path
       id="use14131"
       d="M 264.6854,629.34466 L 316.70826,681.36751"
       style="fill:none;fill-rule:evenodd;stroke:#6c9eab;stroke-width:0.69999981;stroke-linecap:butt;stroke-linejoin:miter;stroke-miterlimit:4;stroke-dasharray:none;stroke-opacity:1" />
    <path
       id="use14133"
       d="M 269.64135,629.34466 L 321.66421,681.36751"
       style="fill:none;fill-rule:evenodd;stroke:#6c9eab;stroke-width:0.69999981;stroke-linecap:butt;stroke-linejoin:miter;stroke-miterlimit:4;stroke-dasharray:none;stroke-opacity:1" />
    <path
       id="use14135"
       d="M 274.5973,629.34466 L 326.62016,681.36751"
       style="fill:none;fill-rule:evenodd;stroke:#6c9eab;stroke-width:0.69999981;stroke-linecap:butt;stroke-linejoin:miter;stroke-miterlimit:4;stroke-dasharray:none;stroke-opacity:1" />
    <path
       id="use14137"
       d="M 279.55325,629.34466 L 331.5761,681.36751"
       style="fill:none;fill-rule:evenodd;stroke:#6c9eab;stroke-width:0.69999981;stroke-linecap:butt;stroke-linejoin:miter;stroke-miterlimit:4;stroke-dasharray:none;stroke-opacity:1" />
    <path
       id="use14139"
       d="M 284.50919,629.34466 L 336.53205,681.36751"
       style="fill:none;fill-rule:evenodd;stroke:#6c9eab;stroke-width:0.69999981;stroke-linecap:butt;stroke-linejoin:miter;stroke-miterlimit:4;stroke-dasharray:none;stroke-opacity:1" />
    <path
       id="use14141"
       d="M 289.46514,629.34466 L 341.488,681.36751"
       style="fill:none;fill-rule:evenodd;stroke:#6c9eab;stroke-width:0.69999981;stroke-linecap:butt;stroke-linejoin:miter;stroke-miterlimit:4;stroke-dasharray:none;stroke-opacity:1" />
    <path
       id="use14143"
       d="M 294.42109,629.34466 L 346.44395,681.36751"
       style="fill:none;fill-rule:evenodd;stroke:#6c9eab;stroke-width:0.69999981;stroke-linecap:butt;stroke-linejoin:miter;stroke-miterlimit:4;stroke-dasharray:none;stroke-opacity:1" />
    <path
       id="use14145"
       d="M 299.37704,629.34466 L 351.3999,681.36751"
       style="fill:none;fill-rule:evenodd;stroke:#6c9eab;stroke-width:0.69999981;stroke-linecap:butt;stroke-linejoin:miter;stroke-miterlimit:4;stroke-dasharray:none;stroke-opacity:1" />
    <path
       id="use14147"
       d="M 304.33299,629.34466 L 356.35585,681.36751"
       style="fill:none;fill-rule:evenodd;stroke:#6c9eab;stroke-width:0.69999981;stroke-linecap:butt;stroke-linejoin:miter;stroke-miterlimit:4;stroke-dasharray:none;stroke-opacity:1" />
    <path
       id="use14149"
       d="M 309.28894,629.34466 L 361.3118,681.36751"
       style="fill:none;fill-rule:evenodd;stroke:#6c9eab;stroke-width:0.69999981;stroke-linecap:butt;stroke-linejoin:miter;stroke-miterlimit:4;stroke-dasharray:none;stroke-opacity:1" />
    <path
       id="use14151"
       d="M 314.24489,629.34466 L 366.26775,681.36751"
       style="fill:none;fill-rule:evenodd;stroke:#6c9eab;stroke-width:0.69999981;stroke-linecap:butt;stroke-linejoin:miter;stroke-miterlimit:4;stroke-dasharray:none;stroke-opacity:1" />
    <path
       id="use14153"
       d="M 319.20084,629.34466 L 371.2237,681.36751"
       style="fill:none;fill-rule:evenodd;stroke:#6c9eab;stroke-width:0.69999981;stroke-linecap:butt;stroke-linejoin:miter;stroke-miterlimit:4;stroke-dasharray:none;stroke-opacity:1" />
    <path
       id="use14155"
       d="M 324.15678,629.34466 L 376.17964,681.36751"
       style="fill:none;fill-rule:evenodd;stroke:#6c9eab;stroke-width:0.69999981;stroke-linecap:butt;stroke-linejoin:miter;stroke-miterlimit:4;stroke-dasharray:none;stroke-opacity:1" />
    <path
       id="use14157"
       d="M 329.11273,629.34466 L 381.13559,681.36751"
       style="fill:none;fill-rule:evenodd;stroke:#6c9eab;stroke-width:0.69999981;stroke-linecap:butt;stroke-linejoin:miter;stroke-miterlimit:4;stroke-dasharray:none;stroke-opacity:1" />
    <path
       id="use14159"
       d="M 334.06868,629.34466 L 386.09154,681.36751"
       style="fill:none;fill-rule:evenodd;stroke:#6c9eab;stroke-width:0.69999981;stroke-linecap:butt;stroke-linejoin:miter;stroke-miterlimit:4;stroke-dasharray:none;stroke-opacity:1" />
    <path
       id="use14161"
       d="M 339.02463,629.34466 L 391.04749,681.36751"
       style="fill:none;fill-rule:evenodd;stroke:#6c9eab;stroke-width:0.69999981;stroke-linecap:butt;stroke-linejoin:miter;stroke-miterlimit:4;stroke-dasharray:none;stroke-opacity:1" />
    <path
       id="use14163"
       d="M 343.98058,629.34466 L 396.00344,681.36751"
       style="fill:none;fill-rule:evenodd;stroke:#6c9eab;stroke-width:0.69999981;stroke-linecap:butt;stroke-linejoin:miter;stroke-miterlimit:4;stroke-dasharray:none;stroke-opacity:1" />
    <path
       id="use14165"
       d="M 348.93653,629.34466 L 400.95939,681.36751"
       style="fill:none;fill-rule:evenodd;stroke:#6c9eab;stroke-width:0.69999981;stroke-linecap:butt;stroke-linejoin:miter;stroke-miterlimit:4;stroke-dasharray:none;stroke-opacity:1" />
    <path
       id="use14167"
       d="M 353.89248,629.34466 L 405.91534,681.36751"
       style="fill:none;fill-rule:evenodd;stroke:#6c9eab;stroke-width:0.69999981;stroke-linecap:butt;stroke-linejoin:miter;stroke-miterlimit:4;stroke-dasharray:none;stroke-opacity:1" />
    <path
       id="use14169"
       d="M 358.84843,629.34466 L 410.87129,681.36751"
       style="fill:none;fill-rule:evenodd;stroke:#6c9eab;stroke-width:0.69999981;stroke-linecap:butt;stroke-linejoin:miter;stroke-miterlimit:4;stroke-dasharray:none;stroke-opacity:1" />
    <path
       id="use14171"
       d="M 363.80437,629.34466 L 415.82723,681.36751"
       style="fill:none;fill-rule:evenodd;stroke:#6c9eab;stroke-width:0.69999981;stroke-linecap:butt;stroke-linejoin:miter;stroke-miterlimit:4;stroke-dasharray:none;stroke-opacity:1" />
    <path
       id="use14173"
       d="M 368.76032,629.34466 L 420.78318,681.36751"
       style="fill:none;fill-rule:evenodd;stroke:#6c9eab;stroke-width:0.69999981;stroke-linecap:butt;stroke-linejoin:miter;stroke-miterlimit:4;stroke-dasharray:none;stroke-opacity:1" />
    <path
       id="use14175"
       d="M 373.71627,629.34466 L 425.73913,681.36751"
       style="fill:none;fill-rule:evenodd;stroke:#6c9eab;stroke-width:0.69999981;stroke-linecap:butt;stroke-linejoin:miter;stroke-miterlimit:4;stroke-dasharray:none;stroke-opacity:1" />
    <path
       id="use14177"
       d="M 378.67222,629.34466 L 430.69508,681.36751"
       style="fill:none;fill-rule:evenodd;stroke:#6c9eab;stroke-width:0.69999981;stroke-linecap:butt;stroke-linejoin:miter;stroke-miterlimit:4;stroke-dasharray:none;stroke-opacity:1" />
    <path
       id="use14179"
       d="M 383.62817,629.34466 L 435.65103,681.36751"
       style="fill:none;fill-rule:evenodd;stroke:#6c9eab;stroke-width:0.69999981;stroke-linecap:butt;stroke-linejoin:miter;stroke-miterlimit:4;stroke-dasharray:none;stroke-opacity:1" />
    <path
       id="use14181"
       d="M 388.58412,629.34466 L 440.60698,681.36751"
       style="fill:none;fill-rule:evenodd;stroke:#6c9eab;stroke-width:0.69999981;stroke-linecap:butt;stroke-linejoin:miter;stroke-miterlimit:4;stroke-dasharray:none;stroke-opacity:1" />
    <path
       id="use14183"
       d="M 393.54007,629.34466 L 445.56293,681.36751"
       style="fill:none;fill-rule:evenodd;stroke:#6c9eab;stroke-width:0.69999981;stroke-linecap:butt;stroke-linejoin:miter;stroke-miterlimit:4;stroke-dasharray:none;stroke-opacity:1" />
    <path
       id="use14185"
       d="M 398.49602,629.34466 L 450.51888,681.36751"
       style="fill:none;fill-rule:evenodd;stroke:#6c9eab;stroke-width:0.69999981;stroke-linecap:butt;stroke-linejoin:miter;stroke-miterlimit:4;stroke-dasharray:none;stroke-opacity:1" />
    <path
       id="use14187"
       d="M 403.45197,629.34466 L 455.47483,681.36751"
       style="fill:none;fill-rule:evenodd;stroke:#6c9eab;stroke-width:0.69999981;stroke-linecap:butt;stroke-linejoin:miter;stroke-miterlimit:4;stroke-dasharray:none;stroke-opacity:1" />
    <path
       id="use14189"
       d="M 408.40791,629.34466 L 460.43077,681.36751"
       style="fill:none;fill-rule:evenodd;stroke:#6c9eab;stroke-width:0.69999981;stroke-linecap:butt;stroke-linejoin:miter;stroke-miterlimit:4;stroke-dasharray:none;stroke-opacity:1" />
    <path
       id="use14191"
       d="M 413.36386,629.34466 L 465.38672,681.36751"
       style="fill:none;fill-rule:evenodd;stroke:#6c9eab;stroke-width:0.69999981;stroke-linecap:butt;stroke-linejoin:miter;stroke-miterlimit:4;stroke-dasharray:none;stroke-opacity:1" />
    <path
       id="use14193"
       d="M 418.31981,629.34466 L 470.34267,681.36751"
       style="fill:none;fill-rule:evenodd;stroke:#6c9eab;stroke-width:0.69999981;stroke-linecap:butt;stroke-linejoin:miter;stroke-miterlimit:4;stroke-dasharray:none;stroke-opacity:1" />
    <path
       id="use14195"
       d="M 423.27576,629.34466 L 475.29862,681.36751"
       style="fill:none;fill-rule:evenodd;stroke:#6c9eab;stroke-width:0.69999981;stroke-linecap:butt;stroke-linejoin:miter;stroke-miterlimit:4;stroke-dasharray:none;stroke-opacity:1" />
    <path
       id="use14197"
       d="M 428.23171,629.34466 L 480.25457,681.36751"
       style="fill:none;fill-rule:evenodd;stroke:#6c9eab;stroke-width:0.69999981;stroke-linecap:butt;stroke-linejoin:miter;stroke-miterlimit:4;stroke-dasharray:none;stroke-opacity:1" />
    <path
       id="use14199"
       d="M 433.18766,629.34466 L 485.21052,681.36751"
       style="fill:none;fill-rule:evenodd;stroke:#6c9eab;stroke-width:0.69999981;stroke-linecap:butt;stroke-linejoin:miter;stroke-miterlimit:4;stroke-dasharray:none;stroke-opacity:1" />
    <path
       id="use14201"
       d="M 438.14361,629.34466 L 490.16647,681.36751"
       style="fill:none;fill-rule:evenodd;stroke:#6c9eab;stroke-width:0.69999981;stroke-linecap:butt;stroke-linejoin:miter;stroke-miterlimit:4;stroke-dasharray:none;stroke-opacity:1" />
    <path
       id="use14203"
       d="M 443.09954,629.34463 L 492.404,678.64908"
       style="fill:none;fill-rule:evenodd;stroke:#6c9eab;stroke-width:0.69999981;stroke-linecap:butt;stroke-linejoin:miter;stroke-miterlimit:4;stroke-dasharray:none;stroke-opacity:1" />
    <path
       id="use14205"
       d="M 448.05551,629.34468 L 495.46891,676.75807"
       style="fill:none;fill-rule:evenodd;stroke:#6c9eab;stroke-width:0.69999981;stroke-linecap:butt;stroke-linejoin:miter;stroke-miterlimit:4;stroke-dasharray:none;stroke-opacity:1" />
    <path
       id="use14207"
       d="M 453.01147,629.34469 L 498.06104,674.39425"
       style="fill:none;fill-rule:evenodd;stroke:#6c9eab;stroke-width:0.69999987;stroke-linecap:butt;stroke-linejoin:miter;stroke-miterlimit:4;stroke-dasharray:none;stroke-opacity:1" />
    <path
       id="use14209"
       d="M 457.96741,629.34467 L 502.18964,673.5669"
       style="fill:none;fill-rule:evenodd;stroke:#6c9eab;stroke-width:0.69999981;stroke-linecap:butt;stroke-linejoin:miter;stroke-miterlimit:4;stroke-dasharray:none;stroke-opacity:1" />
    <path
       id="use14211"
       d="M 462.92335,629.34466 L 504.07261,670.49391"
       style="fill:none;fill-rule:evenodd;stroke:#6c9eab;stroke-width:0.69999981;stroke-linecap:butt;stroke-linejoin:miter;stroke-miterlimit:4;stroke-dasharray:none;stroke-opacity:1" />
    <path
       id="use14213"
       d="M 467.8793,629.34467 L 505.71921,667.18456"
       style="fill:none;fill-rule:evenodd;stroke:#6c9eab;stroke-width:0.69999981;stroke-linecap:butt;stroke-linejoin:miter;stroke-miterlimit:4;stroke-dasharray:none;stroke-opacity:1" />
    <path
       id="use14215"
       d="M 472.83527,629.34468 L 507.01124,663.52065"
       style="fill:none;fill-rule:evenodd;stroke:#6c9eab;stroke-width:0.69999987;stroke-linecap:butt;stroke-linejoin:miter;stroke-miterlimit:4;stroke-dasharray:none;stroke-opacity:1" />
    <path
       id="use14217"
       d="M 477.79119,629.34464 L 508.53961,660.09305"
       style="fill:none;fill-rule:evenodd;stroke:#6c9eab;stroke-width:0.69999975;stroke-linecap:butt;stroke-linejoin:miter;stroke-miterlimit:4;stroke-dasharray:none;stroke-opacity:1" />
    <path
       id="use14219"
       d="M 482.74713,629.34464 L 510.1862,656.7837"
       style="fill:none;fill-rule:evenodd;stroke:#6c9eab;stroke-width:0.69999975;stroke-linecap:butt;stroke-linejoin:miter;stroke-miterlimit:4;stroke-dasharray:none;stroke-opacity:1" />
    <path
       id="use14221"
       d="M 487.70311,629.34468 L 510.17815,651.81971"
       style="fill:none;fill-rule:evenodd;stroke:#6c9eab;stroke-width:0.69999981;stroke-linecap:butt;stroke-linejoin:miter;stroke-miterlimit:4;stroke-dasharray:none;stroke-opacity:1" />
    <path
       id="use14223"
       d="M 492.65904,629.34467 L 509.81547,646.50109"
       style="fill:none;fill-rule:evenodd;stroke:#6c9eab;stroke-width:0.69999987;stroke-linecap:butt;stroke-linejoin:miter;stroke-miterlimit:4;stroke-dasharray:none;stroke-opacity:1" />
    <path
       id="use14225"
       d="M 497.61501,629.34469 L 508.50729,640.23696"
       style="fill:none;fill-rule:evenodd;stroke:#6c9eab;stroke-width:0.69999993;stroke-linecap:butt;stroke-linejoin:miter;stroke-miterlimit:4;stroke-dasharray:none;stroke-opacity:1" />
    <path
       id="use14227"
       d="M 502.57094,629.34467 L 508.85377,635.62749"
       style="fill:none;fill-rule:evenodd;stroke:#6c9eab;stroke-width:0.69999987;stroke-linecap:butt;stroke-linejoin:miter;stroke-miterlimit:4;stroke-dasharray:none;stroke-opacity:1" />
    <path
       style="fill:none;fill-opacity:1;stroke:#ffffff;stroke-width:10.00000095;stroke-linejoin:miter;stroke-miterlimit:4;stroke-dasharray:none;stroke-opacity:1"
       d="M 293.67747,436.54916 L 509.35257,436.54916 L 509.23001,652.03395 C 509.23001,668.16379 496.27484,681.14919 480.18254,681.14919 L 264.67458,681.14919 L 264.63,465.66439 C 264.63,449.53456 277.58518,436.54916 293.67747,436.54916 z "
       id="rect6047"
       sodipodi:nodetypes="ccccccc" />
    <path
       style="fill:#ffffff;fill-opacity:1"
       d="M 400.78623,552.09825 L 416.60594,552.09825 L 408.55161,530.86084 L 400.78623,552.09825 M 382.5105,572.64942 L 382.5105,568.71256 L 384.96653,568.71256 C 386.62796,568.71256 387.86801,568.42361 388.68669,567.84572 C 389.50536,567.26784 390.23976,566.13614 390.88989,564.45063 L 406.85406,523.02323 L 413.06637,523.02323 L 428.88607,564.12556 C 429.58431,566.00371 430.35483,567.24376 431.19763,567.84572 C 432.06441,568.42361 433.34058,568.71256 435.02614,568.71256 L 437.12099,568.71256 L 437.12099,572.64942 L 413.57202,572.64942 L 413.57202,568.71256 L 417.58112,568.71256 C 419.36291,568.71256 420.51869,568.56809 421.04846,568.27914 C 421.60223,567.9902 421.87913,567.40027 421.87917,566.50935 C 421.87913,566.34081 421.83098,566.08798 421.7347,565.75087 C 421.63835,565.3897 421.50591,564.98036 421.3374,564.52286 L 418.23125,555.999 L 399.30539,555.999 L 396.56042,562.96979 C 396.15107,564.02926 395.87417,564.83589 395.72971,565.3897 C 395.6093,565.91943 395.54911,566.36489 395.54912,566.72606 C 395.54911,567.49659 395.83805,568.02632 396.41595,568.31526 C 396.99383,568.58013 398.28203,568.71256 400.28058,568.71256 L 403.96462,568.71256 L 403.96462,572.64942 L 382.5105,572.64942 M 461.82573,553.86804 C 460.57361,554.47002 459.39376,554.99976 458.28616,555.45723 C 457.20259,555.89067 456.15518,556.27593 455.14389,556.61301 L 452.29057,557.55208 C 449.83452,558.34669 448.0527,559.27372 446.9451,560.33317 C 445.86154,561.39264 445.31977,562.71697 445.31978,564.30615 C 445.31977,565.89535 445.83747,567.17152 446.87286,568.13467 C 447.93231,569.07374 449.34091,569.54327 451.09867,569.54327 C 454.49375,569.54327 457.13037,568.53197 459.00853,566.50935 C 460.88663,564.46267 461.8257,561.57323 461.82573,557.84102 L 461.82573,553.86804 M 462.25914,568.13467 C 460.30874,570.08504 458.25002,571.55384 456.08296,572.54107 C 453.91586,573.50421 451.64042,573.98579 449.25665,573.98579 C 445.95786,573.98579 443.29717,573.11896 441.27456,571.38529 C 439.27603,569.65163 438.27676,567.36415 438.27676,564.52286 C 438.27676,561.92237 439.16767,559.82753 440.9495,558.23832 C 442.7554,556.62506 445.88562,555.19238 450.34019,553.94027 L 456.19131,552.31496 C 458.43061,551.68894 459.92349,550.96658 460.66995,550.14788 C 461.44044,549.30515 461.8257,548.02898 461.82573,546.31937 C 461.8257,544.32086 461.07927,542.73167 459.58642,541.55179 C 458.09351,540.34788 456.09498,539.74592 453.59082,539.74588 C 451.97753,539.74592 450.49669,540.01078 449.14829,540.54048 C 447.79988,541.04616 446.55982,541.84076 445.42814,542.92427 C 446.48759,543.14101 447.30626,543.57443 447.88416,544.22452 C 448.48612,544.87467 448.7871,545.69335 448.78712,546.68055 C 448.7871,547.74004 448.40184,548.61891 447.63134,549.31716 C 446.86081,549.99139 445.89766,550.32849 444.74189,550.32847 C 443.44164,550.32849 442.3581,549.90712 441.49127,549.06434 C 440.64851,548.19753 440.22713,547.11399 440.22714,545.81371 C 440.22713,543.16509 441.5635,540.93781 444.23624,539.13188 C 446.90897,537.30193 450.27998,536.38694 454.34929,536.38691 C 456.42005,536.38694 458.35837,536.62773 460.1643,537.10927 C 461.97017,537.59087 463.40286,538.241 464.46234,539.05964 C 465.81072,540.07098 466.74979,541.19064 467.27956,542.41862 C 467.83333,543.64666 468.11024,545.60907 468.11027,548.30586 L 468.11027,565.53417 C 468.11024,567.14744 468.27879,568.27914 468.61592,568.92926 C 468.97707,569.57939 469.567,569.90445 470.38571,569.90445 C 471.56553,569.90445 472.39625,569.26637 472.87786,567.99019 C 473.35939,566.68995 473.62425,564.29412 473.67245,560.8027 L 477.13978,560.8027 L 477.13978,561.63342 C 477.13974,565.96759 476.51369,569.10986 475.26164,571.06023 C 474.03359,573.0106 472.0471,573.98579 469.30216,573.98579 C 467.39992,573.98579 465.87093,573.50421 464.71517,572.54107 C 463.55937,571.57792 462.7407,570.10912 462.25914,568.13467"
       id="flowRoot3453" />
    <path
       style="fill:#ffffff;fill-opacity:1;fill-rule:nonzero;stroke:none;stroke-width:5.80000019;stroke-linejoin:miter;stroke-miterlimit:4;stroke-opacity:1"
       d="M 315.39183,490.68163 C 322.25683,489.84947 328.66182,491.60963 334.79782,494.88568 L 317.96912,572.5675 C 311.30243,572.37776 304.81643,571.19952 298.56313,568.36346 L 315.39183,490.68163 z "
       id="rect3463"
       sodipodi:nodetypes="ccccc" />
    <path
       style="fill:#ffffff;fill-opacity:1;fill-rule:nonzero;stroke:none;stroke-width:5.80000019;stroke-linejoin:miter;stroke-miterlimit:4;stroke-opacity:1"
       d="M 334.24871,508.45333 C 342.64121,505.75838 351.25398,505.63327 360.1192,508.45333 L 360.1192,571.56749 C 351.57688,572.90693 342.94859,572.82777 334.24871,571.56749 L 334.24871,508.45333 z "
       id="rect3465"
       sodipodi:nodetypes="ccccc" />
    <path
       style="fill:#ffffff;fill-opacity:1;fill-rule:nonzero;stroke:none;stroke-width:5.80000019;stroke-linejoin:miter;stroke-miterlimit:4;stroke-opacity:1"
       d="M 362.24871,500.65271 C 367.45939,498.47447 373.2126,498.26292 379.68342,500.65271 L 379.68342,571.56749 C 373.91629,573.11134 368.09434,572.77259 362.24871,571.56749 L 362.24871,500.65271 z "
       id="rect3467"
       sodipodi:nodetypes="ccccc" />
  </g>
</svg>
