<?xml version="1.0" encoding="UTF-8" standalone="no"?>
<!-- Created with Inkscape (http://www.inkscape.org/) -->

<svg
   xmlns:dc="http://purl.org/dc/elements/1.1/"
   xmlns:cc="http://creativecommons.org/ns#"
   xmlns:rdf="http://www.w3.org/1999/02/22-rdf-syntax-ns#"
   xmlns:svg="http://www.w3.org/2000/svg"
   xmlns="http://www.w3.org/2000/svg"
   xmlns:xlink="http://www.w3.org/1999/xlink"
   xmlns:sodipodi="http://sodipodi.sourceforge.net/DTD/sodipodi-0.dtd"
   xmlns:inkscape="http://www.inkscape.org/namespaces/inkscape"
   width="256"
   height="256"
   id="svg17466"
   version="1.1"
   inkscape:version="0.47pre0 r21549"
   sodipodi:docname="Nouveau document 16"
   inkscape:output_extension="org.inkscape.output.svg.inkscape">
  <defs
     id="defs17468">
    <inkscape:perspective
       sodipodi:type="inkscape:persp3d"
       inkscape:vp_x="0 : 526.18109 : 1"
       inkscape:vp_y="0 : 1000 : 0"
       inkscape:vp_z="744.09448 : 526.18109 : 1"
       inkscape:persp3d-origin="372.04724 : 350.78739 : 1"
       id="perspective17474" />
    <inkscape:perspective
       id="perspective17514"
       inkscape:persp3d-origin="0.5 : 0.33333333 : 1"
       inkscape:vp_z="1 : 0.5 : 1"
       inkscape:vp_y="0 : 1000 : 0"
       inkscape:vp_x="0 : 0.5 : 1"
       sodipodi:type="inkscape:persp3d" />
    <radialGradient
       inkscape:collect="always"
       xlink:href="#linearGradient4824"
       id="radialGradient4830"
       cx="15.593588"
       cy="88.653885"
       fx="15.593588"
       fy="88.653885"
       r="114.76744"
       gradientUnits="userSpaceOnUse" />
    <linearGradient
       inkscape:collect="always"
       id="linearGradient4824">
      <stop
         style="stop-color:#ffffff;stop-opacity:1;"
         offset="0"
         id="stop4826" />
      <stop
         style="stop-color:#ffffff;stop-opacity:0;"
         offset="1"
         id="stop4828" />
    </linearGradient>
    <radialGradient
       inkscape:collect="always"
       xlink:href="#linearGradient4824"
       id="radialGradient4838"
       gradientUnits="userSpaceOnUse"
       cx="219.53087"
       cy="98.953751"
       fx="219.53087"
       fy="98.953751"
       r="114.76744" />
    <radialGradient
       inkscape:collect="always"
       xlink:href="#linearGradient4824"
       id="radialGradient4842"
       gradientUnits="userSpaceOnUse"
       cx="117.56223"
       cy="1.6960773"
       fx="117.56223"
       fy="1.6960773"
       r="114.76744"
       gradientTransform="matrix(1.439753,0,0,1,-51.698347,0)" />
    <linearGradient
       inkscape:collect="always"
       xlink:href="#linearGradient4936"
       id="linearGradient4942"
       x1="20.07143"
       y1="7.7857146"
       x2="20.214283"
       y2="35.92857"
       gradientUnits="userSpaceOnUse" />
    <linearGradient
       inkscape:collect="always"
       id="linearGradient4936">
      <stop
         style="stop-color: rgb(238, 238, 236);"
         offset="0"
         id="stop4938" />
      <stop
         style="stop-color: rgb(211, 215, 207);"
         offset="1"
         id="stop4940" />
    </linearGradient>
    <linearGradient
       inkscape:collect="always"
       xlink:href="#linearGradient2966"
       id="linearGradient2320"
       gradientUnits="userSpaceOnUse"
       gradientTransform="matrix(0.866025,-0.5,0.5,0.866025,-7.81832,19.0386)"
       x1="48.90625"
       y1="17.376184"
       x2="50.988335"
       y2="22.250591" />
    <linearGradient
       id="linearGradient2966">
      <stop
         style="stop-color: rgb(255, 209, 209); stop-opacity: 1;"
         offset="0"
         id="stop2968" />
      <stop
         id="stop3006"
         offset="0.5"
         style="stop-color: rgb(255, 29, 29); stop-opacity: 1;" />
      <stop
         style="stop-color: rgb(111, 0, 0); stop-opacity: 1;"
         offset="1"
         id="stop2970" />
    </linearGradient>
    <linearGradient
       inkscape:collect="always"
       xlink:href="#linearGradient2974"
       id="linearGradient2322"
       gradientUnits="userSpaceOnUse"
       gradientTransform="matrix(0.866025,-0.5,0.5,0.866025,-7.81832,19.0386)"
       x1="46"
       y1="19.8125"
       x2="47.6875"
       y2="22.625" />
    <linearGradient
       id="linearGradient2974">
      <stop
         style="stop-color: rgb(193, 193, 193); stop-opacity: 1;"
         offset="0"
         id="stop2976" />
      <stop
         style="stop-color: rgb(172, 172, 172); stop-opacity: 1;"
         offset="1"
         id="stop2978" />
    </linearGradient>
    <radialGradient
       inkscape:collect="always"
       xlink:href="#linearGradient2984"
       id="radialGradient2324"
       gradientUnits="userSpaceOnUse"
       gradientTransform="matrix(2.53188,-1.46178,1.01486,1.75779,-70.1591,22.8332)"
       cx="29.053354"
       cy="27.640751"
       fx="29.053354"
       fy="27.640751"
       r="3.2408545" />
    <linearGradient
       inkscape:collect="always"
       id="linearGradient2984">
      <stop
         style="stop-color: rgb(231, 226, 184); stop-opacity: 1;"
         offset="0"
         id="stop2986" />
      <stop
         style="stop-color: rgb(231, 226, 184); stop-opacity: 0;"
         offset="1"
         id="stop2988" />
    </linearGradient>
    <linearGradient
       inkscape:collect="always"
       xlink:href="#linearGradient2994"
       id="linearGradient2326"
       gradientUnits="userSpaceOnUse"
       gradientTransform="matrix(0.866025,-0.5,0.5,0.866025,-7.89114,19.225)"
       x1="25.71875"
       y1="31.046875"
       x2="25.514589"
       y2="30.703125" />
    <linearGradient
       id="linearGradient2994">
      <stop
         style="stop-color: rgb(0, 0, 0); stop-opacity: 1;"
         offset="0"
         id="stop2996" />
      <stop
         style="stop-color: rgb(201, 201, 201); stop-opacity: 1;"
         offset="1"
         id="stop2998" />
    </linearGradient>
    <linearGradient
       inkscape:collect="always"
       xlink:href="#linearGradient4859"
       id="linearGradient4865"
       x1="121.54688"
       y1="-8.986186"
       x2="121.54688"
       y2="143.39191"
       gradientUnits="userSpaceOnUse" />
    <linearGradient
       inkscape:collect="always"
       id="linearGradient4859">
      <stop
         style="stop-color:#ffffff;stop-opacity:1;"
         offset="0"
         id="stop4861" />
      <stop
         style="stop-color:#ffffff;stop-opacity:0;"
         offset="1"
         id="stop4863" />
    </linearGradient>
  </defs>
  <sodipodi:namedview
     id="base"
     pagecolor="#ffffff"
     bordercolor="#666666"
     borderopacity="1.0"
     inkscape:pageopacity="0.0"
     inkscape:pageshadow="2"
     inkscape:zoom="0.35"
     inkscape:cx="375"
     inkscape:cy="520"
     inkscape:document-units="px"
     inkscape:current-layer="layer1"
     showgrid="false"
     inkscape:window-width="780"
     inkscape:window-height="485"
     inkscape:window-x="884"
     inkscape:window-y="539"
     inkscape:window-maximized="0" />
  <metadata
     id="metadata17471">
    <rdf:RDF>
      <cc:Work
         rdf:about="">
        <dc:format>image/svg+xml</dc:format>
        <dc:type
           rdf:resource="http://purl.org/dc/dcmitype/StillImage" />
        <dc:title></dc:title>
      </cc:Work>
    </rdf:RDF>
  </metadata>
  <g
     inkscape:label="Calque 1"
     inkscape:groupmode="layer"
     id="layer1"
     transform="translate(0,-796.36218)">
    <g
       transform="translate(-3.1235624e-4,796.36192)"
       id="g17476">
      <path
         transform="matrix(1.15625,0,0,1.15625,-8.480688,-8.309014)"
         d="m 223.03862,116.46352 c 0,58.253 -47.22339,105.47638 -105.47639,105.47638 -58.252997,0 -105.476384,-47.22338 -105.476384,-105.47638 0,-58.253004 47.223387,-105.476391 105.476384,-105.476391 58.253,0 105.47639,47.223387 105.47639,105.476391 z"
         sodipodi:ry="105.47639"
         sodipodi:rx="105.47639"
         sodipodi:cy="116.46352"
         sodipodi:cx="117.56223"
         id="path4820"
         style="fill:#000000;fill-opacity:1;stroke:none"
         sodipodi:type="arc" />
      <path
         sodipodi:type="arc"
         style="fill:none;stroke:url(#radialGradient4830);stroke-width:18.58210373;stroke-miterlimit:4;stroke-opacity:1;stroke-dasharray:none"
         id="path4822"
         sodipodi:cx="117.56223"
         sodipodi:cy="116.46352"
         sodipodi:rx="105.47639"
         sodipodi:ry="105.47639"
         d="m 223.03862,116.46352 c 0,58.253 -47.22339,105.47638 -105.47639,105.47638 -58.252997,0 -105.476384,-47.22338 -105.476384,-105.47638 0,-58.253004 47.223387,-105.476391 105.476384,-105.476391 58.253,0 105.47639,47.223387 105.47639,105.476391 z"
         transform="matrix(1.0667253,0,0,1.0667253,2.0440348,2.1173465)" />
      <path
         transform="matrix(1.0667253,0,0,1.0667253,2.0440348,2.1173465)"
         d="m 223.03862,116.46352 c 0,58.253 -47.22339,105.47638 -105.47639,105.47638 -58.252997,0 -105.476384,-47.22338 -105.476384,-105.47638 0,-58.253004 47.223387,-105.476391 105.476384,-105.476391 58.253,0 105.47639,47.223387 105.47639,105.476391 z"
         sodipodi:ry="105.47639"
         sodipodi:rx="105.47639"
         sodipodi:cy="116.46352"
         sodipodi:cx="117.56223"
         id="path4836"
         style="fill:none;stroke:url(#radialGradient4838);stroke-width:18.58210373;stroke-miterlimit:4;stroke-opacity:1;stroke-dasharray:none"
         sodipodi:type="arc" />
      <path
         sodipodi:type="arc"
         style="fill:none;stroke:url(#radialGradient4842);stroke-width:18.58210373;stroke-miterlimit:4;stroke-opacity:1;stroke-dasharray:none"
         id="path4840"
         sodipodi:cx="117.56223"
         sodipodi:cy="116.46352"
         sodipodi:rx="105.47639"
         sodipodi:ry="105.47639"
         d="m 223.03862,116.46352 c 0,58.253 -47.22339,105.47638 -105.47639,105.47638 -58.252997,0 -105.476384,-47.22338 -105.476384,-105.47638 0,-58.253004 47.223387,-105.476391 105.476384,-105.476391 58.253,0 105.47639,47.223387 105.47639,105.476391 z"
         transform="matrix(1.0667253,0,0,1.0667253,2.0440348,2.1173465)" />
      <g
         id="g1640"
         transform="matrix(2.8874774,0,0,2.8874774,71.652156,54.510888)">
        <rect
           style="fill:url(#linearGradient4942);fill-opacity:1;stroke:#888a85;stroke-width:1;stroke-linecap:round;stroke-linejoin:round;stroke-miterlimit:4;stroke-opacity:1;stroke-dasharray:none;stroke-dashoffset:0"
           id="rect1315"
           width="27.979967"
           height="40.984352"
           x="5.5100136"
           y="3.5078206" />
        <rect
           style="fill:#729fcf;fill-opacity:1;stroke:#3465a4;stroke-width:1;stroke-linecap:round;stroke-linejoin:round;stroke-miterlimit:4;stroke-opacity:1;stroke-dasharray:none;stroke-dashoffset:0"
           id="rect1321"
           width="26.036121"
           height="7.0718627"
           x="6.4863005"
           y="12.465624" />
        <path
           sodipodi:type="arc"
           style="fill:#2e3436;fill-opacity:1;stroke:none"
           id="path1339"
           sodipodi:cx="8.4642859"
           sodipodi:cy="16.678572"
           sodipodi:rx="1.3928572"
           sodipodi:ry="1.3928572"
           d="m 9.857143,16.678572 c 0,0.769253 -0.6236034,1.392857 -1.3928571,1.392857 -0.7692538,0 -1.3928572,-0.623604 -1.3928572,-1.392857 0,-0.769254 0.6236034,-1.392857 1.3928572,-1.392857 0.7692537,0 1.3928571,0.623603 1.3928571,1.392857 z"
           transform="matrix(1.40197,0,0,1.40197,-1.91392,-15.3356)" />
        <path
           sodipodi:type="arc"
           style="fill:#2e3436;fill-opacity:1;stroke:none"
           id="path2214"
           sodipodi:cx="8.4642859"
           sodipodi:cy="16.678572"
           sodipodi:rx="1.3928572"
           sodipodi:ry="1.3928572"
           d="m 9.857143,16.678572 c 0,0.769253 -0.6236034,1.392857 -1.3928571,1.392857 -0.7692538,0 -1.3928572,-0.623604 -1.3928572,-1.392857 0,-0.769254 0.6236034,-1.392857 1.3928572,-1.392857 0.7692537,0 1.3928571,0.623603 1.3928571,1.392857 z"
           transform="matrix(1.40197,0,0,1.40197,-1.91392,-7.33562)" />
        <path
           sodipodi:type="arc"
           style="fill:#2e3436;fill-opacity:1;stroke:none"
           id="path2218"
           sodipodi:cx="8.4642859"
           sodipodi:cy="16.678572"
           sodipodi:rx="1.3928572"
           sodipodi:ry="1.3928572"
           d="m 9.857143,16.678572 c 0,0.769253 -0.6236034,1.392857 -1.3928571,1.392857 -0.7692538,0 -1.3928572,-0.623604 -1.3928572,-1.392857 0,-0.769254 0.6236034,-1.392857 1.3928572,-1.392857 0.7692537,0 1.3928571,0.623603 1.3928571,1.392857 z"
           transform="matrix(1.40197,0,0,1.40197,-1.91392,0.569872)" />
        <path
           sodipodi:type="arc"
           style="fill:#2e3436;fill-opacity:1;stroke:none"
           id="path2220"
           sodipodi:cx="8.4642859"
           sodipodi:cy="16.678572"
           sodipodi:rx="1.3928572"
           sodipodi:ry="1.3928572"
           d="m 9.857143,16.678572 c 0,0.769253 -0.6236034,1.392857 -1.3928571,1.392857 -0.7692538,0 -1.3928572,-0.623604 -1.3928572,-1.392857 0,-0.769254 0.6236034,-1.392857 1.3928572,-1.392857 0.7692537,0 1.3928571,0.623603 1.3928571,1.392857 z"
           transform="matrix(1.40197,0,0,1.40197,-1.91392,7.56987)" />
        <path
           sodipodi:type="arc"
           style="fill:#2e3436;fill-opacity:1;stroke:none"
           id="path2222"
           sodipodi:cx="8.4642859"
           sodipodi:cy="16.678572"
           sodipodi:rx="1.3928572"
           sodipodi:ry="1.3928572"
           d="m 9.857143,16.678572 c 0,0.769253 -0.6236034,1.392857 -1.3928571,1.392857 -0.7692538,0 -1.3928572,-0.623604 -1.3928572,-1.392857 0,-0.769254 0.6236034,-1.392857 1.3928572,-1.392857 0.7692537,0 1.3928571,0.623603 1.3928571,1.392857 z"
           transform="matrix(1.40197,0,0,1.40197,-1.91392,15.5699)" />
        <rect
           style="opacity:0.5;fill:none;stroke:#ffffff;stroke-width:1;stroke-linecap:round;stroke-linejoin:round;stroke-miterlimit:4;stroke-opacity:1;stroke-dasharray:none;stroke-dashoffset:0"
           id="rect2226"
           width="25.963591"
           height="38.975361"
           x="6.5220456"
           y="4.5096369" />
        <rect
           style="opacity:0.3;fill:#000000;fill-opacity:1;stroke:none"
           id="rect4952"
           width="18"
           height="2"
           x="13"
           y="30" />
        <rect
           style="opacity:0.3;fill:#000000;fill-opacity:1;stroke:#ffffff;stroke-width:1;stroke-linecap:round;stroke-linejoin:round;stroke-miterlimit:4;stroke-opacity:1;stroke-dasharray:none;stroke-dashoffset:0"
           id="rect4954"
           width="11.980886"
           height="2.9486477"
           x="13.499928"
           y="37.514267" />
        <g
           style="display:inline"
           id="g2311"
           transform="translate(-2.34852,3.04931)">
          <path
             sodipodi:nodetypes="cccccc"
             id="path2960"
             d="M 28.359316,35.679164 30.418209,27.995272 42.944906,9.504649 c 2.189583,-2.707531 6.180007,0.329086 4.502684,3.173877 l -12.660071,18.134613 -6.428203,4.866025 z"
             style="color:#000000;fill:#cb9022;fill-opacity:1;fill-rule:evenodd;stroke:#5c410c;stroke-width:1;stroke-linecap:butt;stroke-linejoin:miter;stroke-miterlimit:4;stroke-opacity:1;stroke-dasharray:none;stroke-dashoffset:0;marker:none;visibility:visible;display:inline;overflow:visible" />
          <path
             style="color:#000000;fill:url(#linearGradient2320);fill-opacity:1;fill-rule:evenodd;stroke:none;stroke-width:1;marker:none;visibility:visible;display:inline;overflow:visible"
             d="m 40.286798,14.359073 c 0,0 1.291786,-0.63756 2.403926,0.163721 1.145736,0.825488 1.328125,2.30038 1.328125,2.30038 l 3.122815,-4.653625 c 0,0 0.816813,-1.489302 -0.853546,-2.790884 C 44.640576,8.094862 43.38255,9.721073 43.38255,9.721073 l -3.095752,4.638 z"
             id="path2964"
             sodipodi:nodetypes="czcczcc" />
          <path
             sodipodi:nodetypes="czcczcc"
             id="path2962"
             d="m 40.286798,14.359073 c 0,0 1.291786,-0.63756 2.403926,0.163721 1.145736,0.825488 1.328125,2.30038 1.328125,2.30038 L 45.2509,14.957149 c 0,0 0.0568,-1.555688 -1.154307,-2.436818 -1.244391,-0.905348 -2.577744,-0.02728 -2.577744,-0.02728 l -1.232051,1.866026 z"
             style="color:#000000;fill:url(#linearGradient2322);fill-opacity:1;fill-rule:evenodd;stroke:none;stroke-width:1;marker:none;visibility:visible;display:inline;overflow:visible" />
          <path
             sodipodi:nodetypes="cccc"
             id="path2982"
             d="m 29.235801,34.343185 1.647114,-6.147115 c 1.705288,-0.04635 3.053746,0.726743 3.483173,2.283032 l -5.130287,3.864083 z"
             style="color:#000000;fill:url(#radialGradient2324);fill-opacity:1;fill-rule:evenodd;stroke:none;stroke-width:1;marker:none;visibility:visible;display:inline;overflow:visible" />
          <path
             sodipodi:nodetypes="cccc"
             id="path2992"
             d="m 29.696398,32.453461 -0.610417,2.192728 1.873497,-1.442508 c -0.169932,-0.73183 -0.693629,-0.826402 -1.26308,-0.75022 z"
             style="color:#000000;fill:url(#linearGradient2326);fill-opacity:1;fill-rule:evenodd;stroke:none;stroke-width:1;marker:none;visibility:visible;display:inline;overflow:visible" />
          <path
             sodipodi:nodetypes="ccccc"
             id="path3002"
             d="m 30.86729,28.169007 1.978165,0.301282 9.666492,-14.031824 c -0.812911,-0.51914 -1.6177,-0.318405 -2.229505,-0.05486 L 30.86729,28.169007 z"
             style="color:#000000;fill:#ffffff;fill-opacity:0.36363597;fill-rule:evenodd;stroke:none;stroke-width:1;marker:none;visibility:visible;display:inline;overflow:visible" />
          <path
             sodipodi:nodetypes="ccccc"
             id="path3004"
             d="M 34.397338,30.533229 34.184718,29.78996 43.810429,16 c 0,0 0.211412,0.586497 0.187718,0.756896 l -9.600809,13.776333 z"
             style="color:#000000;fill:#000000;fill-opacity:0.36363597;fill-rule:evenodd;stroke:none;stroke-width:1;marker:none;visibility:visible;display:inline;overflow:visible" />
        </g>
        <rect
           style="opacity:0.3;fill:#000000;fill-opacity:1;stroke:none"
           id="rect4946"
           width="18"
           height="2"
           x="13"
           y="7" />
        <rect
           style="opacity:0.3;fill:#000000;fill-opacity:1;stroke:none"
           id="rect4948"
           width="18"
           height="2"
           x="13"
           y="15" />
        <rect
           style="opacity:0.3;fill:#000000;fill-opacity:1;stroke:none"
           id="rect4950"
           width="18"
           height="2"
           x="13"
           y="23" />
      </g>
      <path
         id="path4852"
         d="m 127.84375,29.46875 c -53.526119,0 -96.982465,43.00013 -97.75,96.34375 10.009722,-5.92814 19.733937,-10.88682 25.9375,-13.75 14.283262,-6.59228 49.44541,-6.58732 61.53125,-1.09375 12.08584,5.49356 32.95038,9.88345 43.9375,1.09375 10.98712,-8.7897 8.80204,-16.486588 31.875,-26.375 5.67666,-2.432854 12.40919,-4.644697 19.625,-6.53125 -16.79408,-29.656481 -48.64174,-49.6875 -85.15625,-49.6875 z"
         style="fill:url(#linearGradient4865);fill-opacity:1;stroke:none" />
      <path
         style="fill:#ffffff;fill-opacity:0.75688076;fill-rule:nonzero;stroke:none"
         d="m 107.05404,59.212876 0,-4.176352 0,4.176352 z"
         id="path2276"
         sodipodi:nodetypes="ccc" />
    </g>
  </g>
</svg>
