<?xml version="1.0" encoding="UTF-8" standalone="no"?>
<!-- Created with Inkscape (http://www.inkscape.org/) -->

<svg
   xmlns:dc="http://purl.org/dc/elements/1.1/"
   xmlns:cc="http://creativecommons.org/ns#"
   xmlns:rdf="http://www.w3.org/1999/02/22-rdf-syntax-ns#"
   xmlns:svg="http://www.w3.org/2000/svg"
   xmlns="http://www.w3.org/2000/svg"
   xmlns:xlink="http://www.w3.org/1999/xlink"
   xmlns:sodipodi="http://sodipodi.sourceforge.net/DTD/sodipodi-0.dtd"
   xmlns:inkscape="http://www.inkscape.org/namespaces/inkscape"
   width="256"
   height="256"
   id="svg14209"
   version="1.1"
   inkscape:version="0.47pre0 r21549"
   sodipodi:docname="Nouveau document 11"
   inkscape:output_extension="org.inkscape.output.svg.inkscape">
  <defs
     id="defs14211">
    <inkscape:perspective
       sodipodi:type="inkscape:persp3d"
       inkscape:vp_x="0 : 526.18109 : 1"
       inkscape:vp_y="0 : 1000 : 0"
       inkscape:vp_z="744.09448 : 526.18109 : 1"
       inkscape:persp3d-origin="372.04724 : 350.78739 : 1"
       id="perspective14217" />
    <inkscape:perspective
       id="perspective14038"
       inkscape:persp3d-origin="0.5 : 0.33333333 : 1"
       inkscape:vp_z="1 : 0.5 : 1"
       inkscape:vp_y="0 : 1000 : 0"
       inkscape:vp_x="0 : 0.5 : 1"
       sodipodi:type="inkscape:persp3d" />
    <radialGradient
       inkscape:collect="always"
       xlink:href="#linearGradient4824"
       id="radialGradient4830"
       cx="15.593588"
       cy="88.653885"
       fx="15.593588"
       fy="88.653885"
       r="114.76744"
       gradientUnits="userSpaceOnUse" />
    <linearGradient
       inkscape:collect="always"
       id="linearGradient4824">
      <stop
         style="stop-color:#ffffff;stop-opacity:1;"
         offset="0"
         id="stop4826" />
      <stop
         style="stop-color:#ffffff;stop-opacity:0;"
         offset="1"
         id="stop4828" />
    </linearGradient>
    <radialGradient
       inkscape:collect="always"
       xlink:href="#linearGradient4824"
       id="radialGradient4838"
       gradientUnits="userSpaceOnUse"
       cx="219.53087"
       cy="98.953751"
       fx="219.53087"
       fy="98.953751"
       r="114.76744" />
    <radialGradient
       inkscape:collect="always"
       xlink:href="#linearGradient4824"
       id="radialGradient4842"
       gradientUnits="userSpaceOnUse"
       cx="117.56223"
       cy="1.6960773"
       fx="117.56223"
       fy="1.6960773"
       r="114.76744"
       gradientTransform="matrix(1.439753,0,0,1,-51.698347,0)" />
    <linearGradient
       inkscape:collect="always"
       xlink:href="#linearGradient3824"
       id="linearGradient1353"
       gradientUnits="userSpaceOnUse"
       gradientTransform="matrix(1.33835,0,0,1.33835,-33.47918,-20.70004)"
       x1="30.935921"
       y1="29.553486"
       x2="30.935921"
       y2="35.803486" />
    <linearGradient
       id="linearGradient3824">
      <stop
         id="stop3826-4"
         offset="0"
         style="stop-color:#ffffff;stop-opacity:1;" />
      <stop
         id="stop3828"
         offset="1.0000000"
         style="stop-color:#c9c9c9;stop-opacity:1.0000000;" />
    </linearGradient>
    <linearGradient
       inkscape:collect="always"
       xlink:href="#linearGradient4356"
       id="linearGradient1355"
       gradientUnits="userSpaceOnUse"
       gradientTransform="matrix(-1.308485,0.281154,0.281154,1.308485,39.09106,-26.21225)"
       x1="22.686766"
       y1="36.3904"
       x2="21.408455"
       y2="35.739632" />
    <linearGradient
       id="linearGradient4356"
       inkscape:collect="always">
      <stop
         id="stop4358"
         offset="0"
         style="stop-color:#000000;stop-opacity:1;" />
      <stop
         id="stop4360"
         offset="1"
         style="stop-color:#000000;stop-opacity:0;" />
    </linearGradient>
    <linearGradient
       inkscape:collect="always"
       xlink:href="#linearGradient1103"
       id="linearGradient1357"
       gradientUnits="userSpaceOnUse"
       x1="23.013975"
       y1="22.486383"
       x2="23.013975"
       y2="51.939011" />
    <linearGradient
       inkscape:collect="always"
       id="linearGradient1103">
      <stop
         style="stop-color:#000000;stop-opacity:1;"
         offset="0"
         id="stop1105" />
      <stop
         style="stop-color:#000000;stop-opacity:0;"
         offset="1"
         id="stop1107" />
    </linearGradient>
    <linearGradient
       inkscape:collect="always"
       xlink:href="#linearGradient1059"
       id="linearGradient1359"
       gradientUnits="userSpaceOnUse"
       x1="25.82148"
       y1="4.0444822"
       x2="25.82148"
       y2="14.109307" />
    <linearGradient
       inkscape:collect="always"
       id="linearGradient1059">
      <stop
         style="stop-color:#ffffff;stop-opacity:1;"
         offset="0"
         id="stop1061" />
      <stop
         style="stop-color:#ffffff;stop-opacity:0;"
         offset="1"
         id="stop1063" />
    </linearGradient>
    <linearGradient
       inkscape:collect="always"
       xlink:href="#linearGradient4356"
       id="linearGradient1361"
       gradientUnits="userSpaceOnUse"
       gradientTransform="matrix(-1.308485,0.281154,0.281154,1.308485,55.843962,-17.379233)"
       x1="23.60751"
       y1="35.652962"
       x2="21.997923"
       y2="35.612972" />
    <linearGradient
       inkscape:collect="always"
       xlink:href="#linearGradient4356"
       id="linearGradient1363"
       gradientUnits="userSpaceOnUse"
       gradientTransform="matrix(1.3161,0.243028,-0.243028,1.3161,-10.830127,-16.214693)"
       x1="21.207842"
       y1="35.870403"
       x2="22.626925"
       y2="36.217758" />
    <linearGradient
       inkscape:collect="always"
       xlink:href="#linearGradient1115"
       id="linearGradient1365"
       gradientUnits="userSpaceOnUse"
       x1="23.804176"
       y1="14.339222"
       x2="24.81292"
       y2="35.612171" />
    <linearGradient
       inkscape:collect="always"
       id="linearGradient1115">
      <stop
         style="stop-color:#ffffff;stop-opacity:1;"
         offset="0"
         id="stop1117" />
      <stop
         style="stop-color:#ffffff;stop-opacity:0;"
         offset="1"
         id="stop1119" />
    </linearGradient>
    <inkscape:path-effect
       effect="spiro"
       id="path-effect1113"
       is_visible="true"
       deactivate_knotholder="false" />
    <linearGradient
       inkscape:collect="always"
       xlink:href="#linearGradient3824"
       id="linearGradient1367"
       gradientUnits="userSpaceOnUse"
       gradientTransform="matrix(1.33835,0,0,1.33835,-33.47918,-20.70004)"
       x1="30.935921"
       y1="29.553486"
       x2="30.935921"
       y2="35.803486" />
    <linearGradient
       id="linearGradient14096">
      <stop
         id="stop14098"
         offset="0"
         style="stop-color:#ffffff;stop-opacity:1;" />
      <stop
         id="stop14100"
         offset="1.0000000"
         style="stop-color:#c9c9c9;stop-opacity:1.0000000;" />
    </linearGradient>
    <linearGradient
       inkscape:collect="always"
       xlink:href="#linearGradient4356"
       id="linearGradient1369"
       gradientUnits="userSpaceOnUse"
       gradientTransform="matrix(-1.308485,0.281154,0.281154,1.308485,39.09106,-26.21225)"
       x1="22.686766"
       y1="36.3904"
       x2="21.408455"
       y2="35.739632" />
    <linearGradient
       inkscape:collect="always"
       xlink:href="#linearGradient1103"
       id="linearGradient1371"
       gradientUnits="userSpaceOnUse"
       gradientTransform="translate(25.720615,2.3198986)"
       x1="23.013975"
       y1="22.486383"
       x2="23.013975"
       y2="51.939011" />
    <linearGradient
       inkscape:collect="always"
       xlink:href="#linearGradient1222"
       id="linearGradient1373"
       gradientUnits="userSpaceOnUse"
       x1="59.299984"
       y1="-0.11268026"
       x2="62.873299"
       y2="1.1985668" />
    <linearGradient
       id="linearGradient1222">
      <stop
         style="stop-color:#8c2223;stop-opacity:1;"
         offset="0"
         id="stop1224" />
      <stop
         style="stop-color:#000000;stop-opacity:1;"
         offset="1"
         id="stop1226" />
    </linearGradient>
    <inkscape:path-effect
       effect="spiro"
       id="path-effect1220"
       is_visible="true"
       deactivate_knotholder="false" />
    <filter
       inkscape:collect="always"
       id="filter1251"
       color-interpolation-filters="sRGB">
      <feGaussianBlur
         inkscape:collect="always"
         stdDeviation="0.065196747"
         id="feGaussianBlur1253" />
    </filter>
    <linearGradient
       inkscape:collect="always"
       xlink:href="#linearGradient1059"
       id="linearGradient1375"
       gradientUnits="userSpaceOnUse"
       x1="25.82148"
       y1="4.0444822"
       x2="25.82148"
       y2="14.109307" />
    <linearGradient
       inkscape:collect="always"
       xlink:href="#linearGradient4356"
       id="linearGradient1377"
       gradientUnits="userSpaceOnUse"
       gradientTransform="matrix(-1.308485,0.281154,0.281154,1.308485,81.564577,-15.059334)"
       x1="23.60751"
       y1="35.652962"
       x2="21.997923"
       y2="35.612972" />
    <linearGradient
       inkscape:collect="always"
       xlink:href="#linearGradient4356"
       id="linearGradient1379"
       gradientUnits="userSpaceOnUse"
       gradientTransform="matrix(1.3161,0.243028,-0.243028,1.3161,14.890488,-13.894794)"
       x1="21.207842"
       y1="35.870403"
       x2="22.626925"
       y2="36.217758" />
    <linearGradient
       inkscape:collect="always"
       xlink:href="#linearGradient1115"
       id="linearGradient1381"
       gradientUnits="userSpaceOnUse"
       gradientTransform="translate(25.720615,2.3198986)"
       x1="23.804176"
       y1="14.339222"
       x2="24.81292"
       y2="35.612171" />
    <inkscape:path-effect
       deactivate_knotholder="false"
       is_visible="true"
       id="path-effect1191"
       effect="spiro" />
    <linearGradient
       inkscape:collect="always"
       xlink:href="#linearGradient1222"
       id="linearGradient1383"
       gradientUnits="userSpaceOnUse"
       x1="59.299984"
       y1="-0.11268026"
       x2="62.873299"
       y2="1.1985668" />
    <linearGradient
       id="linearGradient14153">
      <stop
         style="stop-color:#8c2223;stop-opacity:1;"
         offset="0"
         id="stop14155" />
      <stop
         style="stop-color:#000000;stop-opacity:1;"
         offset="1"
         id="stop14157" />
    </linearGradient>
    <inkscape:path-effect
       effect="spiro"
       id="path-effect14159"
       is_visible="true"
       deactivate_knotholder="false" />
    <inkscape:path-effect
       effect="spiro"
       id="path-effect1216"
       is_visible="true"
       deactivate_knotholder="false" />
    <linearGradient
       inkscape:collect="always"
       xlink:href="#linearGradient4859"
       id="linearGradient4865"
       x1="121.54688"
       y1="-8.986186"
       x2="121.54688"
       y2="143.39191"
       gradientUnits="userSpaceOnUse" />
    <linearGradient
       inkscape:collect="always"
       id="linearGradient4859">
      <stop
         style="stop-color:#ffffff;stop-opacity:1;"
         offset="0"
         id="stop4861" />
      <stop
         style="stop-color:#ffffff;stop-opacity:0;"
         offset="1"
         id="stop4863" />
    </linearGradient>
  </defs>
  <sodipodi:namedview
     id="base"
     pagecolor="#ffffff"
     bordercolor="#666666"
     borderopacity="1.0"
     inkscape:pageopacity="0.0"
     inkscape:pageshadow="2"
     inkscape:zoom="0.35"
     inkscape:cx="375"
     inkscape:cy="520"
     inkscape:document-units="px"
     inkscape:current-layer="layer1"
     showgrid="false"
     inkscape:window-width="812"
     inkscape:window-height="485"
     inkscape:window-x="743"
     inkscape:window-y="378"
     inkscape:window-maximized="0" />
  <metadata
     id="metadata14214">
    <rdf:RDF>
      <cc:Work
         rdf:about="">
        <dc:format>image/svg+xml</dc:format>
        <dc:type
           rdf:resource="http://purl.org/dc/dcmitype/StillImage" />
        <dc:title></dc:title>
      </cc:Work>
    </rdf:RDF>
  </metadata>
  <g
     inkscape:label="Calque 1"
     inkscape:groupmode="layer"
     id="layer1"
     transform="translate(0,-796.36218)">
    <g
       transform="translate(-3.1235624e-4,796.36192)"
       id="g13990">
      <path
         transform="matrix(1.15625,0,0,1.15625,-8.480688,-8.309014)"
         d="m 223.03862,116.46352 c 0,58.253 -47.22339,105.47638 -105.47639,105.47638 -58.252997,0 -105.476384,-47.22338 -105.476384,-105.47638 0,-58.253004 47.223387,-105.476391 105.476384,-105.476391 58.253,0 105.47639,47.223387 105.47639,105.476391 z"
         sodipodi:ry="105.47639"
         sodipodi:rx="105.47639"
         sodipodi:cy="116.46352"
         sodipodi:cx="117.56223"
         id="path4820"
         style="fill:#000000;fill-opacity:1;stroke:none"
         sodipodi:type="arc" />
      <path
         sodipodi:type="arc"
         style="fill:none;stroke:url(#radialGradient4830);stroke-width:18.58210373;stroke-miterlimit:4;stroke-opacity:1;stroke-dasharray:none"
         id="path4822"
         sodipodi:cx="117.56223"
         sodipodi:cy="116.46352"
         sodipodi:rx="105.47639"
         sodipodi:ry="105.47639"
         d="m 223.03862,116.46352 c 0,58.253 -47.22339,105.47638 -105.47639,105.47638 -58.252997,0 -105.476384,-47.22338 -105.476384,-105.47638 0,-58.253004 47.223387,-105.476391 105.476384,-105.476391 58.253,0 105.47639,47.223387 105.47639,105.476391 z"
         transform="matrix(1.0667253,0,0,1.0667253,2.0440348,2.1173465)" />
      <path
         transform="matrix(1.0667253,0,0,1.0667253,2.0440348,2.1173465)"
         d="m 223.03862,116.46352 c 0,58.253 -47.22339,105.47638 -105.47639,105.47638 -58.252997,0 -105.476384,-47.22338 -105.476384,-105.47638 0,-58.253004 47.223387,-105.476391 105.476384,-105.476391 58.253,0 105.47639,47.223387 105.47639,105.476391 z"
         sodipodi:ry="105.47639"
         sodipodi:rx="105.47639"
         sodipodi:cy="116.46352"
         sodipodi:cx="117.56223"
         id="path4836"
         style="fill:none;stroke:url(#radialGradient4838);stroke-width:18.58210373;stroke-miterlimit:4;stroke-opacity:1;stroke-dasharray:none"
         sodipodi:type="arc" />
      <path
         sodipodi:type="arc"
         style="fill:none;stroke:url(#radialGradient4842);stroke-width:18.58210373;stroke-miterlimit:4;stroke-opacity:1;stroke-dasharray:none"
         id="path4840"
         sodipodi:cx="117.56223"
         sodipodi:cy="116.46352"
         sodipodi:rx="105.47639"
         sodipodi:ry="105.47639"
         d="m 223.03862,116.46352 c 0,58.253 -47.22339,105.47638 -105.47639,105.47638 -58.252997,0 -105.476384,-47.22338 -105.476384,-105.47638 0,-58.253004 47.223387,-105.476391 105.476384,-105.476391 58.253,0 105.47639,47.223387 105.47639,105.476391 z"
         transform="matrix(1.0667253,0,0,1.0667253,2.0440348,2.1173465)" />
      <g
         transform="matrix(3.5181844,0,0,3.5181844,45.711503,33.996203)"
         id="g1320">
        <g
           id="g1123"
           transform="matrix(0.71781668,0,0,0.71781668,0.07088795,7.1081013)">
          <g
             transform="translate(-1.5679977,-0.1407331)"
             style="display:inline"
             inkscape:label="cipek"
             id="g4916">
            <path
               id="path4173"
               d="m 13.365469,24.850231 5.678138,0 -3.312246,-3.075659 -0.709768,0.946357 -0.709768,-0.709767 -0.946356,2.839069 z"
               style="color:#000000;fill:url(#linearGradient1353);fill-opacity:1;fill-rule:evenodd;stroke:none;stroke-width:1px;marker:none;visibility:visible;display:inline;overflow:visible" />
            <path
               style="opacity:0.22784807;color:#000000;fill:url(#linearGradient1355);fill-opacity:1;fill-rule:evenodd;stroke:none;stroke-width:1px;marker:none;visibility:visible;display:inline;overflow:visible"
               d="m 19.882923,32.490544 c 1.647845,-0.777552 2.414892,-2.679807 2.414892,-2.679807 -1.283638,-5.410927 -5.321479,-9.158091 -5.321479,-9.158091 0,0 3.298488,8.488623 2.906587,11.837898 z"
               id="path4370"
               sodipodi:nodetypes="cccc" />
          </g>
          <path
             style="color:#000000;fill:#007dc7;fill-opacity:1;fill-rule:evenodd;stroke:url(#linearGradient1357);stroke-width:0.99999982px;stroke-linecap:round;stroke-linejoin:round;stroke-miterlimit:4;stroke-opacity:1;stroke-dasharray:none;stroke-dashoffset:0;marker:none;visibility:visible;display:inline;overflow:visible"
             d="m 16.35091,43.376273 14.195346,0 c 4.022015,0 8.003981,-1.47477 9.463562,-5.678138 1.386048,-3.991597 0.23659,-11.592866 -8.753795,-17.744182 l -16.797826,0 c -8.9903849,5.678137 -10.1138989,13.4435 -8.0440282,17.98077 2.1086975,4.62238 5.6781372,5.44155 9.9367412,5.44155 z"
             id="path4308"
             sodipodi:nodetypes="cczcczc" />
          <g
             transform="translate(0,-2)"
             id="g1067">
            <path
               transform="matrix(1.33835,0,0,1.33835,-18.427688,-12.347323)"
               d="m 39.774755,19.008621 c 0,4.783923 -3.878135,8.662058 -8.662057,8.662058 -4.783923,0 -8.662058,-3.878135 -8.662058,-8.662058 0,-4.783922 3.878135,-8.662058 8.662058,-8.662058 4.783922,0 8.662057,3.878136 8.662057,8.662058 z"
               sodipodi:ry="8.6620579"
               sodipodi:rx="8.6620579"
               sodipodi:cy="19.008621"
               sodipodi:cx="31.112698"
               id="path4320"
               style="color:#000000;fill:#3392bc;fill-opacity:1;fill-rule:evenodd;stroke:#000000;stroke-width:0.74718857px;stroke-linecap:round;stroke-linejoin:round;stroke-miterlimit:4;stroke-opacity:1;stroke-dasharray:none;stroke-dashoffset:0;marker:none;visibility:visible;display:inline;overflow:visible"
               sodipodi:type="arc" />
            <path
               transform="matrix(1.215123,0,0,1.215123,-14.593738,-10.004932)"
               sodipodi:type="arc"
               style="opacity:0.19620254;color:#000000;fill:none;stroke:#ffffff;stroke-width:0.82296228px;stroke-linecap:round;stroke-linejoin:round;stroke-miterlimit:4;stroke-opacity:1;stroke-dasharray:none;stroke-dashoffset:0;marker:none;visibility:visible;display:inline;overflow:visible"
               id="path4322"
               sodipodi:cx="31.112698"
               sodipodi:cy="19.008621"
               sodipodi:rx="8.6620579"
               sodipodi:ry="8.6620579"
               d="m 39.774755,19.008621 c 0,4.783923 -3.878135,8.662058 -8.662057,8.662058 -4.783923,0 -8.662058,-3.878135 -8.662058,-8.662058 0,-4.783922 3.878135,-8.662058 8.662058,-8.662058 4.783922,0 8.662057,3.878136 8.662057,8.662058 z" />
            <path
               sodipodi:type="arc"
               style="opacity:0.9818184;fill:url(#linearGradient1359);fill-opacity:1;stroke:none"
               id="path1057"
               sodipodi:cx="25.82148"
               sodipodi:cy="10.0747"
               sodipodi:rx="7.7666173"
               sodipodi:ry="4.0346065"
               d="m 33.588097,10.0747 c 0,2.228252 -3.477233,4.034607 -7.766617,4.034607 -4.289384,0 -7.766618,-1.806355 -7.766618,-4.034607 0,-2.2282513 3.477234,-4.0346061 7.766618,-4.0346061 4.289384,0 7.766617,1.8063548 7.766617,4.0346061 z"
               transform="matrix(1,0,0,1.1625,-2.4207638,-4.6126609)" />
          </g>
          <path
             sodipodi:nodetypes="cccc"
             id="path4364"
             d="m 36.635828,41.323559 c 1.647845,-0.777552 1.00278,-1.469424 1.00278,-1.469424 -1.283638,-5.410928 -9.456951,-18.538551 -9.456951,-18.538551 0,0 8.846072,16.6587 8.454171,20.007975 z"
             style="opacity:0.29120878;color:#000000;fill:url(#linearGradient1361);fill-opacity:1;fill-rule:evenodd;stroke:none;stroke-width:1px;marker:none;visibility:visible;display:inline;overflow:visible"
             inkscape:r_cx="true"
             inkscape:r_cy="true" />
          <path
             style="opacity:0.54945056;color:#000000;fill:url(#linearGradient1363);fill-opacity:1;fill-rule:evenodd;stroke:none;stroke-width:1px;marker:none;visibility:visible;display:inline;overflow:visible"
             d="M 10.074997,41.905392 C 9.6156441,41.377762 8.3640003,40.225287 8.3640003,40.225287 9.4899294,34.779358 16.065922,20.910198 16.065922,20.910198 c 0,0 -6.4799447,17.658715 -5.990925,20.995194 z"
             id="path4354"
             sodipodi:nodetypes="cccc"
             inkscape:r_cx="true"
             inkscape:r_cy="true" />
          <path
             sodipodi:nodetypes="csssssssssscsssssssc"
             inkscape:original-d="m 7.9683474,26.616587 c 0.605191,-0.403461 1.2103819,-1.210382 2.2190336,-1.512978 1.008651,-0.302595 1.815573,-0.302595 2.219033,0 0.403461,0.302596 0.706056,1.916438 1.008652,2.319899 0.302595,0.403461 1.512977,1.815573 1.613842,2.521629 0.100866,0.706056 1.916438,1.613842 2.622495,1.916438 0.706056,0.302595 2.017303,0.706056 3.73201,0.706056 1.714708,0 4.538933,0.20173 5.547584,-0.302595 1.008652,-0.504326 3.631146,-1.512978 3.933741,-2.3199 0.302596,-0.806921 0.403461,-2.723358 0.201731,-3.53028 -0.201731,-0.806921 0.100865,-1.412112 0.605191,-1.916438 0.504325,-0.504325 1.512977,-0.907786 1.512977,-0.907786 0,0 -2.219034,-3.12682 -2.622495,-2.824224 -0.40346,0.302595 -2.622493,1.815572 -3.328549,2.017303 -0.706057,0.20173 -3.025955,0.605191 -3.832876,0.605191 -0.806922,0 -2.219034,-0.100866 -3.025955,-0.302596 -0.806921,-0.20173 -2.017303,-0.706056 -2.92509,-1.311247 -0.907786,-0.605191 -1.714707,-1.512977 -2.420764,-1.311247 -0.706056,0.20173 -2.824224,1.311247 -3.12682,2.118168 -0.302595,0.806922 -3.8328754,4.236337 -3.9337406,4.034607 z"
             inkscape:path-effect="#path-effect1113"
             id="path1111"
             d="m 7.9683474,26.616587 c 0.6280688,-0.646471 1.3878061,-1.164473 2.2190336,-1.512978 0.356894,-0.149633 0.731718,-0.269272 1.118136,-0.290345 0.386418,-0.02107 0.787553,0.06324 1.100897,0.290345 0.348914,0.25289 0.558777,0.656883 0.689293,1.067566 0.130516,0.410682 0.193805,0.840106 0.319359,1.252333 0.2935,0.963639 0.915695,1.795452 1.613842,2.521629 0.755258,0.785581 1.624055,1.479778 2.622495,1.916438 1.166749,0.510268 2.45982,0.649399 3.73201,0.706056 1.85351,0.08255 3.717491,0.0025 5.547584,-0.302595 0.784676,-0.130807 1.57232,-0.306242 2.281964,-0.665731 0.709644,-0.359489 1.341525,-0.92166 1.651777,-1.654169 0.231699,-0.547043 0.273206,-1.155659 0.25849,-1.749565 -0.01472,-0.593906 -0.08248,-1.187184 -0.05676,-1.780715 0.02945,-0.679823 0.192565,-1.375358 0.605191,-1.916438 0.36532,-0.479047 0.918373,-0.810879 1.512977,-0.907786 0.166381,-0.736908 -0.05264,-1.549889 -0.566694,-2.103483 -0.514052,-0.553595 -1.308604,-0.832156 -2.055801,-0.720741 -0.648029,0.09663 -1.224478,0.459627 -1.74382,0.859081 -0.519341,0.399453 -1.008256,0.846842 -1.584729,1.158222 -1.151712,0.622093 -2.524325,0.638862 -3.832876,0.605191 -1.015124,-0.02612 -2.036454,-0.07446 -3.025955,-0.302596 -1.047966,-0.241615 -2.05017,-0.685847 -2.92509,-1.311247 -0.378907,-0.270846 -0.734046,-0.575147 -1.125931,-0.826849 -0.391885,-0.251703 -0.830199,-0.4521 -1.294833,-0.484398 -0.327423,-0.02276 -0.658006,0.03942 -0.963398,0.159672 -0.305392,0.120247 -0.586363,0.297502 -0.840882,0.504731 -0.509037,0.414459 -0.90989,0.94326 -1.32254,1.453765 -1.182465,1.462872 -2.5012682,2.815492 -3.9337406,4.034607 l 0,0"
             style="fill:url(#linearGradient1365);fill-opacity:1;stroke-width:1px" />
        </g>
        <g
           id="g1282"
           transform="matrix(0.71781668,0,0,0.71781668,-6.4530409,10.688762)">
          <g
             id="g1152"
             inkscape:label="cipek"
             style="display:inline"
             transform="translate(24.152617,2.1791655)">
            <path
               style="color:#000000;fill:url(#linearGradient1367);fill-opacity:1;fill-rule:evenodd;stroke:none;stroke-width:1px;marker:none;visibility:visible;display:inline;overflow:visible"
               d="m 13.365469,24.850231 5.678138,0 -3.312246,-3.075659 -0.709768,0.946357 -0.709768,-0.709767 -0.946356,2.839069 z"
               id="path1154" />
            <path
               sodipodi:nodetypes="cccc"
               id="path1156"
               d="m 19.882923,32.490544 c 1.647845,-0.777552 2.414892,-2.679807 2.414892,-2.679807 -1.283638,-5.410927 -5.321479,-9.158091 -5.321479,-9.158091 0,0 3.298488,8.488623 2.906587,11.837898 z"
               style="opacity:0.22784807;color:#000000;fill:url(#linearGradient1369);fill-opacity:1;fill-rule:evenodd;stroke:none;stroke-width:1px;marker:none;visibility:visible;display:inline;overflow:visible" />
          </g>
          <path
             sodipodi:nodetypes="cczcczc"
             id="path1158"
             d="m 42.071525,45.696172 14.195346,0 c 4.022015,0 8.003981,-1.47477 9.463562,-5.678138 1.386048,-3.991597 0.23659,-11.592866 -8.753795,-17.744182 l -16.797826,0 c -8.990385,5.678137 -10.113899,13.4435 -8.044028,17.98077 2.108697,4.62238 5.678137,5.44155 9.936741,5.44155 z"
             style="color:#000000;fill:#c6710d;fill-opacity:1;fill-rule:evenodd;stroke:url(#linearGradient1371);stroke-width:0.99999982px;stroke-linecap:round;stroke-linejoin:round;stroke-miterlimit:4;stroke-opacity:1;stroke-dasharray:none;stroke-dashoffset:0;marker:none;visibility:visible;display:inline;overflow:visible" />
          <path
             transform="matrix(1.1428571,0,0,1.3285714,19.795495,-10.303084)"
             d="m 33.588097,10.0747 c 0,2.228252 -3.477233,4.034607 -7.766617,4.034607 -4.289384,0 -7.766618,-1.806355 -7.766618,-4.034607 0,-2.2282513 3.477234,-4.0346061 7.766618,-4.0346061 4.289384,0 7.766617,1.8063548 7.766617,4.0346061 z"
             sodipodi:ry="4.0346065"
             sodipodi:rx="7.7666173"
             sodipodi:cy="10.0747"
             sodipodi:cx="25.82148"
             id="path1267"
             style="opacity:0.9818184;fill:#861f21;fill-opacity:1;stroke:none"
             sodipodi:type="arc" />
          <path
             transform="matrix(1.33835,0,0,1.33835,7.292927,-12.027424)"
             d="m 39.774755,19.008621 c 0,4.783923 -3.878135,8.662058 -8.662057,8.662058 -4.783923,0 -8.662058,-3.878135 -8.662058,-8.662058 0,-4.783922 3.878135,-8.662058 8.662058,-8.662058 4.783922,0 8.662057,3.878136 8.662057,8.662058 z"
             sodipodi:ry="8.6620579"
             sodipodi:rx="8.6620579"
             sodipodi:cy="19.008621"
             sodipodi:cx="31.112698"
             id="path1162"
             style="color:#000000;fill:#b56009;fill-opacity:1;fill-rule:evenodd;stroke:#000000;stroke-width:0.74718857px;stroke-linecap:round;stroke-linejoin:round;stroke-miterlimit:4;stroke-opacity:1;stroke-dasharray:none;stroke-dashoffset:0;marker:none;visibility:visible;display:inline;overflow:visible"
             sodipodi:type="arc" />
          <path
             transform="matrix(1.215123,0,0,1.215123,11.126877,-9.6850334)"
             sodipodi:type="arc"
             style="opacity:0.19620254;color:#000000;fill:none;stroke:#ffffff;stroke-width:0.82296228px;stroke-linecap:round;stroke-linejoin:round;stroke-miterlimit:4;stroke-opacity:1;stroke-dasharray:none;stroke-dashoffset:0;marker:none;visibility:visible;display:inline;overflow:visible"
             id="path1164"
             sodipodi:cx="31.112698"
             sodipodi:cy="19.008621"
             sodipodi:rx="8.6620579"
             sodipodi:ry="8.6620579"
             d="m 39.774755,19.008621 c 0,4.783923 -3.878135,8.662058 -8.662057,8.662058 -4.783923,0 -8.662058,-3.878135 -8.662058,-8.662058 0,-4.783922 3.878135,-8.662058 8.662058,-8.662058 4.783922,0 8.662057,3.878136 8.662057,8.662058 z" />
          <g
             id="g1255">
            <path
               style="fill:url(#linearGradient1373);fill-opacity:1;stroke-width:1px"
               d="m 55.733286,0.91223964 c -0.03435,0.49130256 0.06565,0.99133766 0.286327,1.43163516 0.237064,0.4730023 0.605706,0.8690754 1.010978,1.2092014 0.405271,0.3401259 0.849797,0.6297562 1.279637,0.9382499 0.49672,0.3564934 0.9748,0.7389571 1.431635,1.1453072 0.778301,-0.8181563 1.453409,-1.7343753 2.004288,-2.7201056 0.451479,-0.8078662 0.821787,-1.6692227 1.002144,-2.5769409 0.23623,-1.18892658 0.135918,-2.4428377 -0.286326,-3.5790865 l -1.717962,1.7179616 c -0.620949,0.62094895 -1.160192,1.33211751 -1.861125,1.8611249 -0.883446,0.666754 -2.087993,0.8857621 -3.149596,0.57265284"
               id="path1218"
               inkscape:path-effect="#path-effect1220"
               inkscape:original-d="m 55.733286,0.91223964 c 0,0 -0.715817,0.71581756 0.286327,1.43163516 1.002145,0.7158176 2.004289,1.4316337 2.290615,2.1474513 0.286328,0.7158176 1.431635,1.1453072 1.431635,1.1453072 0,0 1.431634,-2.1474513 2.004288,-2.7201056 0.572655,-0.5726529 1.145308,-1.2884705 1.002144,-2.5769409 -0.143163,-1.28847192 -0.286326,-3.5790865 -0.286326,-3.5790865 0,0 -0.715818,0.7158161 -1.717962,1.7179616 -1.002144,1.0021441 -0.429489,1.43163379 -1.861125,1.8611249 -1.431635,0.42948969 -3.29276,0.7158161 -3.149596,0.57265284 z" />
            <path
               sodipodi:type="arc"
               style="opacity:0.77727272;fill:#ffffff;fill-opacity:1;stroke:none;filter:url(#filter1251)"
               id="path1245"
               sodipodi:cx="21.282549"
               sodipodi:cy="13.050223"
               sodipodi:rx="2.9250896"
               sodipodi:ry="1.2608144"
               d="m 24.207639,13.050223 c 0,0.696329 -1.309608,1.260815 -2.92509,1.260815 -1.615482,0 -2.92509,-0.564486 -2.92509,-1.260815 0,-0.696328 1.309608,-1.260814 2.92509,-1.260814 1.615482,0 2.92509,0.564486 2.92509,1.260814 z"
               transform="matrix(0.23449691,-0.09081471,0.09081471,0.23449691,51.720757,0.92845273)" />
          </g>
          <path
             sodipodi:type="arc"
             style="opacity:0.9818184;fill:url(#linearGradient1375);fill-opacity:1;stroke:none"
             id="path1166"
             sodipodi:cx="25.82148"
             sodipodi:cy="10.0747"
             sodipodi:rx="7.7666173"
             sodipodi:ry="4.0346065"
             d="m 33.588097,10.0747 c 0,2.228252 -3.477233,4.034607 -7.766617,4.034607 -4.289384,0 -7.766618,-1.806355 -7.766618,-4.034607 0,-2.2282513 3.477234,-4.0346061 7.766618,-4.0346061 4.289384,0 7.766617,1.8063548 7.766617,4.0346061 z"
             transform="matrix(1,0,0,1.1625,23.299851,-4.2927623)" />
          <path
             inkscape:r_cy="true"
             inkscape:r_cx="true"
             style="opacity:0.29120878;color:#000000;fill:url(#linearGradient1377);fill-opacity:1;fill-rule:evenodd;stroke:none;stroke-width:1px;marker:none;visibility:visible;display:inline;overflow:visible"
             d="m 62.356443,43.643458 c 1.647845,-0.777552 1.00278,-1.469424 1.00278,-1.469424 -1.283638,-5.410928 -9.456951,-18.538551 -9.456951,-18.538551 0,0 8.846072,16.6587 8.454171,20.007975 z"
             id="path1168"
             sodipodi:nodetypes="cccc" />
          <path
             inkscape:r_cy="true"
             inkscape:r_cx="true"
             sodipodi:nodetypes="cccc"
             id="path1170"
             d="m 35.795612,44.225291 c -0.459353,-0.52763 -1.710997,-1.680105 -1.710997,-1.680105 1.125929,-5.445929 7.701922,-19.315089 7.701922,-19.315089 0,0 -6.479945,17.658715 -5.990925,20.995194 z"
             style="opacity:0.54945056;color:#000000;fill:url(#linearGradient1379);fill-opacity:1;fill-rule:evenodd;stroke:none;stroke-width:1px;marker:none;visibility:visible;display:inline;overflow:visible" />
          <path
             style="fill:url(#linearGradient1381);fill-opacity:1;stroke-width:1px"
             d="m 33.688962,28.936486 c 0.628069,-0.646471 1.387806,-1.164473 2.219034,-1.512978 0.356894,-0.149633 0.731718,-0.269272 1.118136,-0.290345 0.386418,-0.02107 0.787553,0.06324 1.100897,0.290345 0.348914,0.25289 0.558777,0.656883 0.689293,1.067566 0.130516,0.410682 0.193805,0.840106 0.319359,1.252333 0.2935,0.963639 0.915695,1.795452 1.613842,2.521629 0.755258,0.785581 1.624055,1.479778 2.622495,1.916438 1.166749,0.510268 2.45982,0.649399 3.73201,0.706056 1.85351,0.08255 3.717491,0.0025 5.547584,-0.302595 0.784676,-0.130807 1.57232,-0.306242 2.281964,-0.665731 0.709644,-0.359489 1.341525,-0.92166 1.651777,-1.654169 0.231699,-0.547043 0.273206,-1.155659 0.25849,-1.749565 -0.01472,-0.593906 -0.08248,-1.187184 -0.05676,-1.780715 0.02945,-0.679823 0.192565,-1.375358 0.605191,-1.916438 0.36532,-0.479047 0.918373,-0.810879 1.512977,-0.907786 0.166381,-0.736908 -0.05264,-1.549889 -0.566694,-2.103483 -0.514052,-0.553595 -1.308604,-0.832156 -2.055801,-0.720741 -0.648029,0.09663 -1.224478,0.459627 -1.74382,0.859081 -0.519341,0.399453 -1.008256,0.846842 -1.584729,1.158222 -1.151712,0.622093 -2.524325,0.638862 -3.832876,0.605191 -1.015124,-0.02612 -2.036454,-0.07446 -3.025955,-0.302596 -1.047966,-0.241615 -2.05017,-0.685847 -2.92509,-1.311247 -0.378907,-0.270846 -0.734046,-0.575147 -1.125931,-0.826849 -0.391885,-0.251703 -0.830199,-0.4521 -1.294833,-0.484398 -0.327423,-0.02276 -0.658006,0.03943 -0.963398,0.159672 -0.305392,0.120247 -0.586363,0.297502 -0.840882,0.504731 -0.509037,0.414459 -0.90989,0.94326 -1.32254,1.453765 -1.182465,1.462873 -2.501268,2.815492 -3.933741,4.034607 l 0,0"
             id="path1172"
             inkscape:path-effect="#path-effect1191"
             inkscape:original-d="m 33.688962,28.936486 c 0.605191,-0.403461 1.210382,-1.210382 2.219034,-1.512978 1.008651,-0.302595 1.815573,-0.302595 2.219033,0 0.403461,0.302596 0.706056,1.916438 1.008652,2.319899 0.302595,0.403461 1.512977,1.815573 1.613842,2.521629 0.100866,0.706056 1.916438,1.613842 2.622495,1.916438 0.706056,0.302595 2.017303,0.706056 3.73201,0.706056 1.714708,0 4.538933,0.20173 5.547584,-0.302595 1.008652,-0.504326 3.631146,-1.512978 3.933741,-2.3199 0.302596,-0.806921 0.403461,-2.723358 0.201731,-3.53028 -0.201731,-0.806921 0.100865,-1.412112 0.605191,-1.916438 0.504325,-0.504325 1.512977,-0.907786 1.512977,-0.907786 0,0 -2.219034,-3.12682 -2.622495,-2.824224 -0.40346,0.302595 -2.622493,1.815572 -3.328549,2.017303 -0.706057,0.20173 -3.025955,0.605191 -3.832876,0.605191 -0.806922,0 -2.219034,-0.100866 -3.025955,-0.302596 -0.806921,-0.20173 -2.017303,-0.706056 -2.92509,-1.311247 -0.907786,-0.605191 -1.714707,-1.512977 -2.420764,-1.311247 -0.706056,0.20173 -2.824224,1.311247 -3.12682,2.118168 -0.302595,0.806922 -3.832875,4.236337 -3.933741,4.034607 z"
             sodipodi:nodetypes="csssssssssscsssssssc" />
          <g
             transform="matrix(-1,0,0,1,98.729534,0)"
             id="g1259">
            <path
               inkscape:original-d="m 55.733286,0.91223964 c 0,0 -0.715817,0.71581756 0.286327,1.43163516 1.002145,0.7158176 2.004289,1.4316337 2.290615,2.1474513 0.286328,0.7158176 1.431635,1.1453072 1.431635,1.1453072 0,0 1.431634,-2.1474513 2.004288,-2.7201056 0.572655,-0.5726529 1.145308,-1.2884705 1.002144,-2.5769409 -0.143163,-1.28847192 -0.286326,-3.5790865 -0.286326,-3.5790865 0,0 -0.715818,0.7158161 -1.717962,1.7179616 -1.002144,1.0021441 -0.429489,1.43163379 -1.861125,1.8611249 -1.431635,0.42948969 -3.29276,0.7158161 -3.149596,0.57265284 z"
               inkscape:path-effect="#path-effect1220"
               id="path1261"
               d="m 55.733286,0.91223964 c -0.03435,0.49130256 0.06565,0.99133766 0.286327,1.43163516 0.237064,0.4730023 0.605706,0.8690754 1.010978,1.2092014 0.405271,0.3401259 0.849797,0.6297562 1.279637,0.9382499 0.49672,0.3564934 0.9748,0.7389571 1.431635,1.1453072 0.778301,-0.8181563 1.453409,-1.7343753 2.004288,-2.7201056 0.451479,-0.8078662 0.821787,-1.6692227 1.002144,-2.5769409 0.23623,-1.18892658 0.135918,-2.4428377 -0.286326,-3.5790865 l -1.717962,1.7179616 c -0.620949,0.62094895 -1.160192,1.33211751 -1.861125,1.8611249 -0.883446,0.666754 -2.087993,0.8857621 -3.149596,0.57265284"
               style="fill:url(#linearGradient1383);fill-opacity:1;stroke-width:1px" />
            <path
               transform="matrix(0.23449691,-0.09081471,0.09081471,0.23449691,51.720757,0.92845273)"
               d="m 24.207639,13.050223 c 0,0.696329 -1.309608,1.260815 -2.92509,1.260815 -1.615482,0 -2.92509,-0.564486 -2.92509,-1.260815 0,-0.696328 1.309608,-1.260814 2.92509,-1.260814 1.615482,0 2.92509,0.564486 2.92509,1.260814 z"
               sodipodi:ry="1.2608144"
               sodipodi:rx="2.9250896"
               sodipodi:cy="13.050223"
               sodipodi:cx="21.282549"
               id="path1263"
               style="opacity:0.77727272;fill:#ffffff;fill-opacity:1;stroke:none;filter:url(#filter1251)"
               sodipodi:type="arc" />
          </g>
          <path
             sodipodi:nodetypes="ccsssssssssssssssssc"
             inkscape:original-d="m 31.772526,18.809432 4.788612,-1.160073 c 0,0 1.970117,-1.781167 1.671338,-3.973925 -0.29878,-2.192759 0.803105,-2.537267 0.803105,-4.4863855 0,-1.9491189 3.286573,-6.3346383 6.871929,-6.5782778 3.585357,-0.2436396 2.987799,-0.7309211 5.975595,0 2.987797,0.7309186 4.45861,1.0527841 5.354948,2.7582659 0.896341,1.7054793 2.122176,3.433598 2.122176,4.8954374 0,1.461841 -0.306412,3.310095 0.589928,4.528295 0.896337,1.2182 3.723868,4.454781 5.516546,4.454781 1.792678,0 -8.416676,0.731324 -1.724755,-2.427437 2.091823,-0.987394 -2.596673,-2.270984 -2.297894,-4.220106 C 61.742833,10.650888 62.340393,9.9199696 61.145275,7.7272087 59.950157,5.5344503 60.547716,4.31625 58.755038,3.5853313 56.96236,2.8544102 56.387883,0.58342589 54.296426,0.58342589 c -2.091456,0 -5.401117,-1.13997436 -8.687694,-0.40905565 -3.286578,0.73092111 -4.711218,1.43277716 -5.906334,3.13825656 -1.195121,1.7054792 -2.244919,5.009152 -2.842476,6.7146312 -0.597563,1.70548 -0.81214,3.060031 -1.409698,4.034589 -0.597558,0.974561 -3.677698,4.991224 -3.677698,4.747585 z"
             inkscape:path-effect="#path-effect1216"
             id="path1214"
             d="m 31.772526,18.809432 4.788612,-1.160073 c 0.787771,-1.211019 1.356757,-2.563893 1.671338,-3.973925 0.331037,-1.483794 0.382437,-3.025472 0.803105,-4.4863855 0.459018,-1.5940964 1.358737,-3.0562842 2.561543,-4.1986928 1.202807,-1.1424086 2.704444,-1.9639042 4.310386,-2.379585 1.945545,-0.5035834 4.008828,-0.4130034 5.975595,0 1.999864,0.4199536 4.006947,1.2224566 5.354948,2.7582659 1.186455,1.3517555 1.748196,3.13616 2.122176,4.8954374 0.316866,1.490602 0.521694,3.005915 0.589928,4.528295 0.0426,0.950398 0.03237,1.906859 0.182774,2.846247 0.150404,0.939388 0.475756,1.876909 1.106213,2.589367 0.315229,0.356228 0.704302,0.650574 1.143499,0.833258 0.439198,0.182683 0.929052,0.250992 1.397795,0.170073 0.468743,-0.08092 0.913847,-0.314665 1.228146,-0.671714 0.314299,-0.357049 0.49099,-0.837911 0.458119,-1.31245 -0.03519,-0.508013 -0.299655,-0.975647 -0.630094,-1.363108 -0.330438,-0.38746 -0.728417,-0.71052 -1.094661,-1.064329 -1.171556,-1.131777 -2.025414,-2.614111 -2.297894,-4.220106 -0.272649,-1.606992 0.0325,-3.276862 -0.298779,-4.8727983 C 60.816897,6.1452606 59.879896,4.74511 58.755038,3.5853313 57.498047,2.2893174 55.978302,1.2399101 54.296426,0.58342589 51.555233,-0.48654003 48.478216,-0.47757309 45.608732,0.17437024 43.397875,0.67667439 41.194065,1.605252 39.702398,3.3126268 c -0.807053,0.9237593 -1.371502,2.0373393 -1.797801,3.187528 -0.4263,1.1501887 -0.721264,2.3438576 -1.044675,3.5271032 -0.376119,1.376086 -0.794164,2.747657 -1.409698,4.034589 -0.870305,1.819594 -2.133379,3.450113 -3.677698,4.747585"
             style="fill:#a17273;fill-opacity:1;stroke:#000000;stroke-width:0.40000001;stroke-miterlimit:4;stroke-opacity:1;stroke-dasharray:none" />
        </g>
      </g>
      <path
         id="path4852"
         d="m 127.84375,29.46875 c -53.526119,0 -96.982465,43.00013 -97.75,96.34375 10.009722,-5.92814 19.733937,-10.88682 25.9375,-13.75 14.283262,-6.59228 49.44541,-6.58732 61.53125,-1.09375 12.08584,5.49356 32.95038,9.88345 43.9375,1.09375 10.98712,-8.7897 8.80204,-16.486588 31.875,-26.375 5.67666,-2.432854 12.40919,-4.644697 19.625,-6.53125 -16.79408,-29.656481 -48.64174,-49.6875 -85.15625,-49.6875 z"
         style="fill:url(#linearGradient4865);fill-opacity:1;stroke:none" />
      <path
         style="fill:#ffffff;fill-opacity:0.75688076;fill-rule:nonzero;stroke:none"
         d="m 107.05404,59.212876 0,-4.176352 0,4.176352 z"
         id="path2276"
         sodipodi:nodetypes="ccc" />
    </g>
  </g>
</svg>
