<?xml version="1.0" encoding="UTF-8" standalone="no"?>
<!-- Created with Inkscape (http://www.inkscape.org/) -->

<svg
   xmlns:dc="http://purl.org/dc/elements/1.1/"
   xmlns:cc="http://creativecommons.org/ns#"
   xmlns:rdf="http://www.w3.org/1999/02/22-rdf-syntax-ns#"
   xmlns:svg="http://www.w3.org/2000/svg"
   xmlns="http://www.w3.org/2000/svg"
   xmlns:xlink="http://www.w3.org/1999/xlink"
   xmlns:sodipodi="http://sodipodi.sourceforge.net/DTD/sodipodi-0.dtd"
   xmlns:inkscape="http://www.inkscape.org/namespaces/inkscape"
   width="256"
   height="256"
   id="svg12457"
   version="1.1"
   inkscape:version="0.47pre0 r21549"
   sodipodi:docname="Nouveau document 7"
   inkscape:output_extension="org.inkscape.output.svg.inkscape">
  <defs
     id="defs12459">
    <inkscape:perspective
       sodipodi:type="inkscape:persp3d"
       inkscape:vp_x="0 : 526.18109 : 1"
       inkscape:vp_y="0 : 1000 : 0"
       inkscape:vp_z="744.09448 : 526.18109 : 1"
       inkscape:persp3d-origin="372.04724 : 350.78739 : 1"
       id="perspective12465" />
    <inkscape:perspective
       id="perspective12390"
       inkscape:persp3d-origin="0.5 : 0.33333333 : 1"
       inkscape:vp_z="1 : 0.5 : 1"
       inkscape:vp_y="0 : 1000 : 0"
       inkscape:vp_x="0 : 0.5 : 1"
       sodipodi:type="inkscape:persp3d" />
    <radialGradient
       inkscape:collect="always"
       xlink:href="#linearGradient4824"
       id="radialGradient4830"
       cx="15.593588"
       cy="88.653885"
       fx="15.593588"
       fy="88.653885"
       r="114.76744"
       gradientUnits="userSpaceOnUse" />
    <linearGradient
       inkscape:collect="always"
       id="linearGradient4824">
      <stop
         style="stop-color:#ffffff;stop-opacity:1;"
         offset="0"
         id="stop4826" />
      <stop
         style="stop-color:#ffffff;stop-opacity:0;"
         offset="1"
         id="stop4828" />
    </linearGradient>
    <radialGradient
       inkscape:collect="always"
       xlink:href="#linearGradient4824"
       id="radialGradient4838"
       gradientUnits="userSpaceOnUse"
       cx="219.53087"
       cy="98.953751"
       fx="219.53087"
       fy="98.953751"
       r="114.76744" />
    <radialGradient
       inkscape:collect="always"
       xlink:href="#linearGradient4824"
       id="radialGradient4842"
       gradientUnits="userSpaceOnUse"
       cx="117.56223"
       cy="1.6960773"
       fx="117.56223"
       fy="1.6960773"
       r="114.76744"
       gradientTransform="matrix(1.439753,0,0,1,-51.698347,0)" />
    <linearGradient
       inkscape:collect="always"
       xlink:href="#linearGradient3476"
       id="linearGradient15089"
       gradientUnits="userSpaceOnUse"
       gradientTransform="matrix(0.23431767,0,0,0.23431767,41.657665,34.905924)"
       x1="121.33498"
       y1="67.36161"
       x2="601.85876"
       y2="502.87607" />
    <linearGradient
       inkscape:collect="always"
       id="linearGradient3476">
      <stop
         style="stop-color:#e4c678;stop-opacity:1;"
         offset="0"
         id="stop3478" />
      <stop
         style="stop-color:#e4c678;stop-opacity:0;"
         offset="1"
         id="stop3480" />
    </linearGradient>
    <linearGradient
       inkscape:collect="always"
       xlink:href="#linearGradient3484"
       id="linearGradient4101"
       gradientUnits="userSpaceOnUse"
       gradientTransform="matrix(0.23431767,0,0,0.23431767,41.657665,34.905924)"
       x1="286.02008"
       y1="67.36161"
       x2="311.11841"
       y2="242.63292" />
    <linearGradient
       inkscape:collect="always"
       id="linearGradient3484">
      <stop
         style="stop-color:#000000;stop-opacity:1;"
         offset="0"
         id="stop3486" />
      <stop
         style="stop-color:#000000;stop-opacity:0;"
         offset="1"
         id="stop3488" />
    </linearGradient>
    <radialGradient
       inkscape:collect="always"
       xlink:href="#linearGradient3252"
       id="radialGradient4103"
       gradientUnits="userSpaceOnUse"
       gradientTransform="matrix(0.66986719,0.1601285,-0.05378336,0.22499248,-91.372202,-19.390325)"
       cx="337.7081"
       cy="397.64944"
       fx="337.7081"
       fy="397.64944"
       r="313.56647" />
    <linearGradient
       inkscape:collect="always"
       id="linearGradient3252">
      <stop
         style="stop-color:#916818;stop-opacity:1;"
         offset="0"
         id="stop3254" />
      <stop
         style="stop-color:#916818;stop-opacity:0;"
         offset="1"
         id="stop3256" />
    </linearGradient>
    <linearGradient
       inkscape:collect="always"
       xlink:href="#linearGradient3476"
       id="linearGradient4105"
       gradientUnits="userSpaceOnUse"
       gradientTransform="matrix(0.23431767,0,0,0.23431767,41.657665,34.905924)"
       x1="121.33498"
       y1="67.36161"
       x2="601.85876"
       y2="502.87607" />
    <linearGradient
       inkscape:collect="always"
       xlink:href="#linearGradient3484"
       id="linearGradient4107"
       gradientUnits="userSpaceOnUse"
       gradientTransform="matrix(0.23431767,0,0,0.23431767,41.657665,34.905924)"
       x1="286.02008"
       y1="67.36161"
       x2="311.11841"
       y2="242.63292" />
    <linearGradient
       inkscape:collect="always"
       xlink:href="#linearGradient4859"
       id="linearGradient4865"
       x1="121.54688"
       y1="-8.986186"
       x2="121.54688"
       y2="143.39191"
       gradientUnits="userSpaceOnUse" />
    <linearGradient
       inkscape:collect="always"
       id="linearGradient4859">
      <stop
         style="stop-color:#ffffff;stop-opacity:1;"
         offset="0"
         id="stop4861" />
      <stop
         style="stop-color:#ffffff;stop-opacity:0;"
         offset="1"
         id="stop4863" />
    </linearGradient>
  </defs>
  <sodipodi:namedview
     id="base"
     pagecolor="#ffffff"
     bordercolor="#666666"
     borderopacity="1.0"
     inkscape:pageopacity="0.0"
     inkscape:pageshadow="2"
     inkscape:zoom="0.35"
     inkscape:cx="375"
     inkscape:cy="520"
     inkscape:document-units="px"
     inkscape:current-layer="layer1"
     showgrid="false"
     inkscape:window-width="953"
     inkscape:window-height="485"
     inkscape:window-x="711"
     inkscape:window-y="539"
     inkscape:window-maximized="0" />
  <metadata
     id="metadata12462">
    <rdf:RDF>
      <cc:Work
         rdf:about="">
        <dc:format>image/svg+xml</dc:format>
        <dc:type
           rdf:resource="http://purl.org/dc/dcmitype/StillImage" />
        <dc:title></dc:title>
      </cc:Work>
    </rdf:RDF>
  </metadata>
  <g
     inkscape:label="Calque 1"
     inkscape:groupmode="layer"
     id="layer1"
     transform="translate(0,-796.36218)">
    <g
       transform="translate(-3.1235624e-4,796.36192)"
       id="g12366">
      <path
         transform="matrix(1.15625,0,0,1.15625,-8.480688,-8.309014)"
         d="m 223.03862,116.46352 c 0,58.253 -47.22339,105.47638 -105.47639,105.47638 -58.252997,0 -105.476384,-47.22338 -105.476384,-105.47638 0,-58.253004 47.223387,-105.476391 105.476384,-105.476391 58.253,0 105.47639,47.223387 105.47639,105.476391 z"
         sodipodi:ry="105.47639"
         sodipodi:rx="105.47639"
         sodipodi:cy="116.46352"
         sodipodi:cx="117.56223"
         id="path4820"
         style="fill:#000000;fill-opacity:1;stroke:none"
         sodipodi:type="arc" />
      <path
         sodipodi:type="arc"
         style="fill:none;stroke:url(#radialGradient4830);stroke-width:18.58210373;stroke-miterlimit:4;stroke-opacity:1;stroke-dasharray:none"
         id="path4822"
         sodipodi:cx="117.56223"
         sodipodi:cy="116.46352"
         sodipodi:rx="105.47639"
         sodipodi:ry="105.47639"
         d="m 223.03862,116.46352 c 0,58.253 -47.22339,105.47638 -105.47639,105.47638 -58.252997,0 -105.476384,-47.22338 -105.476384,-105.47638 0,-58.253004 47.223387,-105.476391 105.476384,-105.476391 58.253,0 105.47639,47.223387 105.47639,105.476391 z"
         transform="matrix(1.0667253,0,0,1.0667253,2.0440348,2.1173465)" />
      <path
         transform="matrix(1.0667253,0,0,1.0667253,2.0440348,2.1173465)"
         d="m 223.03862,116.46352 c 0,58.253 -47.22339,105.47638 -105.47639,105.47638 -58.252997,0 -105.476384,-47.22338 -105.476384,-105.47638 0,-58.253004 47.223387,-105.476391 105.476384,-105.476391 58.253,0 105.47639,47.223387 105.47639,105.476391 z"
         sodipodi:ry="105.47639"
         sodipodi:rx="105.47639"
         sodipodi:cy="116.46352"
         sodipodi:cx="117.56223"
         id="path4836"
         style="fill:none;stroke:url(#radialGradient4838);stroke-width:18.58210373;stroke-miterlimit:4;stroke-opacity:1;stroke-dasharray:none"
         sodipodi:type="arc" />
      <path
         sodipodi:type="arc"
         style="fill:none;stroke:url(#radialGradient4842);stroke-width:18.58210373;stroke-miterlimit:4;stroke-opacity:1;stroke-dasharray:none"
         id="path4840"
         sodipodi:cx="117.56223"
         sodipodi:cy="116.46352"
         sodipodi:rx="105.47639"
         sodipodi:ry="105.47639"
         d="m 223.03862,116.46352 c 0,58.253 -47.22339,105.47638 -105.47639,105.47638 -58.252997,0 -105.476384,-47.22338 -105.476384,-105.47638 0,-58.253004 47.223387,-105.476391 105.476384,-105.476391 58.253,0 105.47639,47.223387 105.47639,105.476391 z"
         transform="matrix(1.0667253,0,0,1.0667253,2.0440348,2.1173465)" />
      <g
         id="g4109">
        <path
           style="fill:#000000;stroke:url(#linearGradient15089);stroke-width:1.85350478;stroke-miterlimit:4;stroke-opacity:1;stroke-dasharray:none"
           d="m 161.01431,192.10499 c 11.61745,-6.99062 15.33426,-10.16803 23.01688,-19.67666 7.7852,-9.6356 14.71591,-23.44992 17.85493,-35.58856 2.9602,-11.44711 2.7803,-12.10864 -4.71298,-17.32998 -8.49948,-5.92245 -21.91766,-17.61723 -22.76135,-19.837916 -0.44197,-1.16332 -1.24128,-1.310633 -2.56634,-0.473005 -3.03377,1.917781 -4.33153,1.458361 -2.41241,-0.854027 1.56291,-1.883179 1.42468,-2.006256 -1.28674,-1.145692 -1.95268,0.61976 -2.7497,0.498065 -2.23132,-0.340694 1.36621,-2.210589 -0.61944,-5.385948 -3.36802,-5.385948 -1.4346,0 -3.33133,-0.988698 -4.21494,-2.19711 -1.42161,-1.944161 -1.86976,-1.981096 -3.89269,-0.320791 -2.08885,1.714399 -2.22193,1.627165 -1.54216,-1.010813 0.81687,-3.17002 -0.23138,-3.724576 -2.58724,-1.368713 -2.19288,2.192876 -3.5312,0.213712 -1.50576,-2.226786 1.9301,-2.325631 1.65774,-2.604211 -7.02435,-7.184853 -4.59288,-2.423188 -5.17955,-2.476149 -6.5573,-0.591952 -1.88459,2.577323 -3.15497,2.651756 -3.15497,0.184856 0,-1.147915 -0.75231,-1.595795 -1.92475,-1.145884 -1.33559,0.51251 -1.92476,-0.08898 -1.92476,-1.965025 0,-1.486992 -0.75207,-2.70362 -1.67126,-2.70362 -0.91921,0 -2.71134,-2.892298 -3.98251,-6.427328 -1.27118,-3.535028 -3.8393,-7.63221 -5.70695,-9.10485 l -3.39571,-2.677524 -0.76632,6.859305 c -0.94525,8.460991 -2.22434,12.633564 -3.87278,12.633564 -2.22622,0 -7.60062,-6.852107 -11.320583,-14.43322 -3.061696,-6.239599 -3.864975,-7.079673 -5.214608,-5.453465 -1.297866,1.563836 -1.232744,1.92233 0.349201,1.92233 2.103533,0 3.502322,2.604336 3.502322,6.520787 0,3.920089 -2.371004,2.85221 -3.79428,-1.708908 -1.297866,-4.159223 -1.299891,-4.160073 -0.759865,-0.320792 1.039782,7.392455 3.930223,16.863627 6.194758,20.298525 2.245625,3.406206 2.232815,3.484208 -0.799004,4.865597 -5.505309,2.508387 -12.276315,13.083826 -16.274327,25.418422 -4.328049,13.35276 -8.693715,22.54133 -14.760213,31.06634 -8.487636,11.92734 -10.148546,17.11144 -5.592194,17.45466 3.157339,0.23783 7.555426,3.85973 7.555426,6.222 0,0.898 -1.521447,2.82951 -3.380977,4.29221 -3.030867,2.38409 -3.115712,2.65948 -0.81951,2.65948 2.036875,0 2.436475,0.65367 1.951261,3.19195 -0.916383,4.79367 2.691947,5.44238 7.547297,1.35686 2.845951,-2.3947 4.456448,-3.00658 5.408256,-2.05476 0.951821,0.95182 0.896924,1.81398 -0.184344,2.89526 -1.197627,1.1976 -1.539802,1.14792 -1.539802,-0.22368 0,-1.18164 -1.017013,-0.80804 -3.082356,1.13222 -4.223354,3.96765 -8.971592,3.22602 -9.51377,-1.48597 -0.223358,-1.94116 -1.199555,-3.52872 -2.169828,-3.52872 -2.342187,0 -3.552638,-2.1461 -4.70421,-8.34059 -0.80793,-4.34603 -0.871013,-4.08124 -0.411557,1.7278 0.849641,10.74227 4.726308,15.84834 14.174775,18.66999 1.533614,0.45803 3.677446,-0.0476 5.132668,-1.21069 2.432522,-1.94407 2.422186,-1.97607 -0.388104,-1.20271 -1.587923,0.43695 -2.88713,0.29362 -2.88713,-0.31851 0,-1.98065 2.830544,-4.0107 4.629617,-3.32033 1.062467,0.40772 2.249449,-0.64043 3.019804,-2.6666 0.698082,-1.8361 1.634021,-3.33836 2.079871,-3.33836 0.445836,0 0.478257,0.86615 0.07208,1.92475 -0.820139,2.13725 1.139168,2.6635 2.388786,0.64157 0.43617,-0.70573 2.635598,-1.28637 4.887604,-1.2903 6.244388,-0.0112 13.418846,-2.23882 23.691556,-7.35695 l 9.33164,-4.64926 5.19424,5.04429 c 2.85683,2.77438 9.01179,10.67421 13.6777,17.55521 4.66589,6.88099 9.1343,12.5109 9.9298,12.5109 0.79548,0 4.87693,-2.06432 9.06986,-4.58733 z M 86.543355,122.58934 c 0.519437,-1.23505 1.05491,-3.30221 1.189945,-4.59368 0.335609,-3.21001 3.026704,-4.66631 8.665959,-4.68964 5.620761,-0.0232 11.288091,2.28858 11.288091,4.60466 0,2.93673 -5.14344,5.47794 -9.617808,4.75185 -2.314697,-0.37561 -5.283949,-0.0581 -6.59834,0.70568 -3.746102,2.17675 -6.019773,1.81739 -4.927847,-0.77887 z m 4.462804,-0.34226 c 1.058626,-0.67232 4.090108,-1.23124 6.736643,-1.24205 4.694288,-0.0191 6.682978,-2.5613 3.528708,-4.51073 -0.70574,-0.43618 -1.28317,-0.18155 -1.28317,0.56584 0,1.91289 -4.791555,1.70005 -5.517113,-0.24505 -0.419603,-1.12489 -1.454929,-0.78156 -3.466339,1.14951 -3.183405,3.05624 -3.182441,6.30445 0.0012,4.28248 z M 112.21139,88.969892 c -2.48219,-4.800028 -2.49907,-12.321524 -0.0433,-19.282001 1.05294,-2.984347 2.0419,-7.098926 2.1977,-9.143506 0.39061,-5.126374 1.76029,-4.659662 5.09485,1.736046 1.92996,3.701658 2.8433,7.720506 2.8433,12.510889 0,7.053578 -4.19728,17.964359 -6.91074,17.964359 -0.67327,0 -2.10509,-1.703598 -3.18184,-3.785787 z m 4.90127,-7.762731 c -0.43785,-2.470098 -1.3192,-5.357227 -1.95858,-6.415841 -1.51335,-2.505629 0.0982,6.316833 1.64072,8.982177 0.69331,1.197966 0.81332,0.228917 0.31786,-2.566336 z m -20.37233,-9.21951 c -0.494377,-2.926145 -0.3222,-5.687905 0.399601,-6.409699 2.134362,-2.134359 5.414749,4.129467 5.414749,10.33934 0,5.534672 -0.0665,5.627441 -2.47285,3.449717 -1.36008,-1.230849 -2.863745,-4.551558 -3.3415,-7.379358 z M 64.48735,167.60717 c 1.449914,-1.44991 0.944264,-6.84359 -0.641578,-6.84359 -0.823352,0 -1.148933,0.34812 -0.723504,0.77354 0.425428,0.42543 0.247258,2.15771 -0.395955,3.84952 -1.10081,2.89531 -0.13354,4.11505 1.761037,2.22053 z"
           id="path2470" />
        <g
           id="g4024"
           transform="translate(0.54935622,-1.0987124)">
          <path
             style="fill:none;stroke:url(#linearGradient4101);stroke-width:1.85350478;stroke-miterlimit:4;stroke-opacity:1;stroke-dasharray:none"
             d="m 161.01431,192.10499 c 11.61745,-6.99062 15.33426,-10.16803 23.01688,-19.67666 7.7852,-9.6356 14.71591,-23.44992 17.85493,-35.58856 2.9602,-11.44711 2.7803,-12.10864 -4.71298,-17.32998 -8.49948,-5.92245 -21.91766,-17.61723 -22.76135,-19.837916 -0.44197,-1.16332 -1.24128,-1.310633 -2.56634,-0.473005 -3.03377,1.917781 -4.33153,1.458361 -2.41241,-0.854027 1.56291,-1.883179 1.42468,-2.006256 -1.28674,-1.145692 -1.95268,0.61976 -2.7497,0.498065 -2.23132,-0.340694 1.36621,-2.210589 -0.61944,-5.385948 -3.36802,-5.385948 -1.4346,0 -3.33133,-0.988698 -4.21494,-2.19711 -1.42161,-1.944161 -1.86976,-1.981096 -3.89269,-0.320791 -2.08885,1.714399 -2.22193,1.627165 -1.54216,-1.010813 0.81687,-3.17002 -0.23138,-3.724576 -2.58724,-1.368713 -2.19288,2.192876 -3.5312,0.213712 -1.50576,-2.226786 1.9301,-2.325631 1.65774,-2.604211 -7.02435,-7.184853 -4.59288,-2.423188 -5.17955,-2.476149 -6.5573,-0.591952 -1.88459,2.577323 -3.15497,2.651756 -3.15497,0.184856 0,-1.147915 -0.75231,-1.595795 -1.92475,-1.145884 -1.33559,0.51251 -1.92476,-0.08898 -1.92476,-1.965025 0,-1.486992 -0.75207,-2.70362 -1.67126,-2.70362 -0.91921,0 -2.71134,-2.892298 -3.98251,-6.427328 -1.27118,-3.535028 -3.8393,-7.63221 -5.70695,-9.10485 l -3.39571,-2.677524 -0.76632,6.859305 c -0.94525,8.460991 -2.22434,12.633564 -3.87278,12.633564 -2.22622,0 -7.60062,-6.852107 -11.320583,-14.43322 -3.061696,-6.239599 -3.864975,-7.079673 -5.214608,-5.453465 -1.297866,1.563836 -1.232744,1.92233 0.349201,1.92233 2.103533,0 3.502322,2.604336 3.502322,6.520787 0,3.920089 -2.371004,2.85221 -3.79428,-1.708908 -1.297866,-4.159223 -1.299891,-4.160073 -0.759865,-0.320792 1.039782,7.392455 3.930223,16.863627 6.194758,20.298525 2.245625,3.406206 2.232815,3.484208 -0.799004,4.865597 -5.505309,2.508387 -12.276315,13.083826 -16.274327,25.418422 -4.328049,13.35276 -8.693715,22.54133 -14.760213,31.06634 -8.487636,11.92734 -10.148546,17.11144 -5.592194,17.45466 3.157339,0.23783 7.555426,3.85973 7.555426,6.222 0,0.898 -1.521447,2.82951 -3.380977,4.29221 -3.030867,2.38409 -3.115712,2.65948 -0.81951,2.65948 2.036875,0 2.436475,0.65367 1.951261,3.19195 -0.916383,4.79367 2.691947,5.44238 7.547297,1.35686 2.845951,-2.3947 4.456448,-3.00658 5.408256,-2.05476 0.951821,0.95182 0.896924,1.81398 -0.184344,2.89526 -1.197627,1.1976 -1.539802,1.14792 -1.539802,-0.22368 0,-1.18164 -1.017013,-0.80804 -3.082356,1.13222 -4.223354,3.96765 -8.971592,3.22602 -9.51377,-1.48597 -0.223358,-1.94116 -1.199555,-3.52872 -2.169828,-3.52872 -2.342187,0 -3.552638,-2.1461 -4.70421,-8.34059 -0.80793,-4.34603 -0.871013,-4.08124 -0.411557,1.7278 0.849641,10.74227 4.726308,15.84834 14.174775,18.66999 1.533614,0.45803 3.677446,-0.0476 5.132668,-1.21069 2.432522,-1.94407 2.422186,-1.97607 -0.388104,-1.20271 -1.587923,0.43695 -2.88713,0.29362 -2.88713,-0.31851 0,-1.98065 2.830544,-4.0107 4.629617,-3.32033 1.062467,0.40772 2.249449,-0.64043 3.019804,-2.6666 0.698082,-1.8361 1.634021,-3.33836 2.079871,-3.33836 0.445836,0 0.478257,0.86615 0.07208,1.92475 -0.820139,2.13725 1.139168,2.6635 2.388786,0.64157 0.43617,-0.70573 2.635598,-1.28637 4.887604,-1.2903 6.244388,-0.0112 13.418846,-2.23882 23.691556,-7.35695 l 9.33164,-4.64926 5.19424,5.04429 c 2.85683,2.77438 9.01179,10.67421 13.6777,17.55521 4.66589,6.88099 9.1343,12.5109 9.9298,12.5109 0.79548,0 4.87693,-2.06432 9.06986,-4.58733 z M 86.543355,122.58934 c 0.519437,-1.23505 1.05491,-3.30221 1.189945,-4.59368 0.335609,-3.21001 3.026704,-4.66631 8.665959,-4.68964 5.620761,-0.0232 11.288091,2.28858 11.288091,4.60466 0,2.93673 -5.14344,5.47794 -9.617808,4.75185 -2.314697,-0.37561 -5.283949,-0.0581 -6.59834,0.70568 -3.746102,2.17675 -6.019773,1.81739 -4.927847,-0.77887 z m 4.462804,-0.34226 c 1.058626,-0.67232 4.090108,-1.23124 6.736643,-1.24205 4.694288,-0.0191 6.682978,-2.5613 3.528708,-4.51073 -0.70574,-0.43618 -1.28317,-0.18155 -1.28317,0.56584 0,1.91289 -4.791555,1.70005 -5.517113,-0.24505 -0.419603,-1.12489 -1.454929,-0.78156 -3.466339,1.14951 -3.183405,3.05624 -3.182441,6.30445 0.0012,4.28248 z M 112.21139,88.969892 c -2.48219,-4.800028 -2.49907,-12.321524 -0.0433,-19.282001 1.05294,-2.984347 2.0419,-7.098926 2.1977,-9.143506 0.39061,-5.126374 1.76029,-4.659662 5.09485,1.736046 1.92996,3.701658 2.8433,7.720506 2.8433,12.510889 0,7.053578 -4.19728,17.964359 -6.91074,17.964359 -0.67327,0 -2.10509,-1.703598 -3.18184,-3.785787 z m 4.90127,-7.762731 c -0.43785,-2.470098 -1.3192,-5.357227 -1.95858,-6.415841 -1.51335,-2.505629 0.0982,6.316833 1.64072,8.982177 0.69331,1.197966 0.81332,0.228917 0.31786,-2.566336 z m -20.37233,-9.21951 c -0.494377,-2.926145 -0.3222,-5.687905 0.399601,-6.409699 2.134362,-2.134359 5.414749,4.129467 5.414749,10.33934 0,5.534672 -0.0665,5.627441 -2.47285,3.449717 -1.36008,-1.230849 -2.863745,-4.551558 -3.3415,-7.379358 z M 64.48735,167.60717 c 1.449914,-1.44991 0.944264,-6.84359 -0.641578,-6.84359 -0.823352,0 -1.148933,0.34812 -0.723504,0.77354 0.425428,0.42543 0.247258,2.15771 -0.395955,3.84952 -1.10081,2.89531 -0.13354,4.11505 1.761037,2.22053 z"
             id="path3480" />
          <g
             id="g4014">
            <path
               id="path2472"
               d="m 161.01431,192.10499 c 11.61745,-6.99062 15.33426,-10.16803 23.01688,-19.67666 7.7852,-9.6356 14.71591,-23.44992 17.85493,-35.58856 2.9602,-11.44711 2.7803,-12.10864 -4.71298,-17.32998 -8.49948,-5.92245 -21.91766,-17.61723 -22.76135,-19.837916 -0.44197,-1.16332 -1.24128,-1.310633 -2.56634,-0.473005 -3.03377,1.917781 -4.33153,1.458361 -2.41241,-0.854027 1.56291,-1.883179 1.42468,-2.006256 -1.28674,-1.145692 -1.95268,0.61976 -2.7497,0.498065 -2.23132,-0.340694 1.36621,-2.210589 -0.61944,-5.385948 -3.36802,-5.385948 -1.4346,0 -3.33133,-0.988698 -4.21494,-2.19711 -1.42161,-1.944161 -1.86976,-1.981096 -3.89269,-0.320791 -2.08885,1.714399 -2.22193,1.627165 -1.54216,-1.010813 0.81687,-3.17002 -0.23138,-3.724576 -2.58724,-1.368713 -2.19288,2.192876 -3.5312,0.213712 -1.50576,-2.226786 1.9301,-2.325631 1.65774,-2.604211 -7.02435,-7.184853 -4.59288,-2.423188 -5.17955,-2.476149 -6.5573,-0.591952 -1.88459,2.577323 -3.15497,2.651756 -3.15497,0.184856 0,-1.147915 -0.75231,-1.595795 -1.92475,-1.145884 -1.33559,0.51251 -1.92476,-0.08898 -1.92476,-1.965025 0,-1.486992 -0.75207,-2.70362 -1.67126,-2.70362 -0.91921,0 -2.71134,-2.892298 -3.98251,-6.427328 -1.27118,-3.535028 -3.8393,-7.63221 -5.70695,-9.10485 l -3.39571,-2.677524 -0.76632,6.859305 c -0.94525,8.460991 -2.22434,12.633564 -3.87278,12.633564 -2.22622,0 -7.60062,-6.852107 -11.320583,-14.43322 -3.061696,-6.239599 -3.864975,-7.079673 -5.214608,-5.453465 -1.297866,1.563836 -1.232744,1.92233 0.349201,1.92233 2.103533,0 3.502322,2.604336 3.502322,6.520787 0,3.920089 -2.371004,2.85221 -3.79428,-1.708908 -1.297866,-4.159223 -1.299891,-4.160073 -0.759865,-0.320792 1.039782,7.392455 3.930223,16.863627 6.194758,20.298525 2.245625,3.406206 2.232815,3.484208 -0.799004,4.865597 -5.505309,2.508387 -12.276315,13.083826 -16.274327,25.418422 -4.328049,13.35276 -8.693715,22.54133 -14.760213,31.06634 -8.487636,11.92734 -10.148546,17.11144 -5.592194,17.45466 3.157339,0.23783 7.555426,3.85973 7.555426,6.222 0,0.898 -1.521447,2.82951 -3.380977,4.29221 -3.030867,2.38409 -3.115712,2.65948 -0.81951,2.65948 2.036875,0 2.436475,0.65367 1.951261,3.19195 -0.916383,4.79367 2.691947,5.44238 7.547297,1.35686 2.845951,-2.3947 4.456448,-3.00658 5.408256,-2.05476 0.951821,0.95182 0.896924,1.81398 -0.184344,2.89526 -1.197627,1.1976 -1.539802,1.14792 -1.539802,-0.22368 0,-1.18164 -1.017013,-0.80804 -3.082356,1.13222 -4.223354,3.96765 -8.971592,3.22602 -9.51377,-1.48597 -0.223358,-1.94116 -1.199555,-3.52872 -2.169828,-3.52872 -2.342187,0 -3.552638,-2.1461 -4.70421,-8.34059 -0.80793,-4.34603 -0.871013,-4.08124 -0.411557,1.7278 0.849641,10.74227 4.726308,15.84834 14.174775,18.66999 1.533614,0.45803 3.677446,-0.0476 5.132668,-1.21069 2.432522,-1.94407 2.422186,-1.97607 -0.388104,-1.20271 -1.587923,0.43695 -2.88713,0.29362 -2.88713,-0.31851 0,-1.98065 2.830544,-4.0107 4.629617,-3.32033 1.062467,0.40772 2.249449,-0.64043 3.019804,-2.6666 0.698082,-1.8361 1.634021,-3.33836 2.079871,-3.33836 0.445836,0 0.478257,0.86615 0.07208,1.92475 -0.820139,2.13725 1.139168,2.6635 2.388786,0.64157 0.43617,-0.70573 2.635598,-1.28637 4.887604,-1.2903 6.244388,-0.0112 13.418846,-2.23882 23.691556,-7.35695 l 9.33164,-4.64926 5.19424,5.04429 c 2.85683,2.77438 9.01179,10.67421 13.6777,17.55521 4.66589,6.88099 9.1343,12.5109 9.9298,12.5109 0.79548,0 4.87693,-2.06432 9.06986,-4.58733 z M 86.543355,122.58934 c 0.519437,-1.23505 1.05491,-3.30221 1.189945,-4.59368 0.335609,-3.21001 3.026704,-4.66631 8.665959,-4.68964 5.620761,-0.0232 11.288091,2.28858 11.288091,4.60466 0,2.93673 -5.14344,5.47794 -9.617808,4.75185 -2.314697,-0.37561 -5.283949,-0.0581 -6.59834,0.70568 -3.746102,2.17675 -6.019773,1.81739 -4.927847,-0.77887 z m 4.462804,-0.34226 c 1.058626,-0.67232 4.090108,-1.23124 6.736643,-1.24205 4.694288,-0.0191 6.682978,-2.5613 3.528708,-4.51073 -0.70574,-0.43618 -1.28317,-0.18155 -1.28317,0.56584 0,1.91289 -4.791555,1.70005 -5.517113,-0.24505 -0.419603,-1.12489 -1.454929,-0.78156 -3.466339,1.14951 -3.183405,3.05624 -3.182441,6.30445 0.0012,4.28248 z M 112.21139,88.969892 c -2.48219,-4.800028 -2.49907,-12.321524 -0.0433,-19.282001 1.05294,-2.984347 2.0419,-7.098926 2.1977,-9.143506 0.39061,-5.126374 1.76029,-4.659662 5.09485,1.736046 1.92996,3.701658 2.8433,7.720506 2.8433,12.510889 0,7.053578 -4.19728,17.964359 -6.91074,17.964359 -0.67327,0 -2.10509,-1.703598 -3.18184,-3.785787 z m 4.90127,-7.762731 c -0.43785,-2.470098 -1.3192,-5.357227 -1.95858,-6.415841 -1.51335,-2.505629 0.0982,6.316833 1.64072,8.982177 0.69331,1.197966 0.81332,0.228917 0.31786,-2.566336 z m -20.37233,-9.21951 c -0.494377,-2.926145 -0.3222,-5.687905 0.399601,-6.409699 2.134362,-2.134359 5.414749,4.129467 5.414749,10.33934 0,5.534672 -0.0665,5.627441 -2.47285,3.449717 -1.36008,-1.230849 -2.863745,-4.551558 -3.3415,-7.379358 z M 64.48735,167.60717 c 1.449914,-1.44991 0.944264,-6.84359 -0.641578,-6.84359 -0.823352,0 -1.148933,0.34812 -0.723504,0.77354 0.425428,0.42543 0.247258,2.15771 -0.395955,3.84952 -1.10081,2.89531 -0.13354,4.11505 1.761037,2.22053 z"
               style="fill:url(#radialGradient4103);fill-opacity:1;stroke:url(#linearGradient4105);stroke-width:1.85350478;stroke-miterlimit:4;stroke-opacity:1;stroke-dasharray:none" />
            <path
               style="fill:none;stroke:url(#linearGradient4107);stroke-width:1.85350478;stroke-miterlimit:4;stroke-opacity:1;stroke-dasharray:none"
               d="m 161.01431,192.10499 c 11.61745,-6.99062 15.33426,-10.16803 23.01688,-19.67666 7.7852,-9.6356 14.71591,-23.44992 17.85493,-35.58856 2.9602,-11.44711 2.7803,-12.10864 -4.71298,-17.32998 -8.49948,-5.92245 -21.91766,-17.61723 -22.76135,-19.837916 -0.44197,-1.16332 -1.24128,-1.310633 -2.56634,-0.473005 -3.03377,1.917781 -4.33153,1.458361 -2.41241,-0.854027 1.56291,-1.883179 1.42468,-2.006256 -1.28674,-1.145692 -1.95268,0.61976 -2.7497,0.498065 -2.23132,-0.340694 1.36621,-2.210589 -0.61944,-5.385948 -3.36802,-5.385948 -1.4346,0 -3.33133,-0.988698 -4.21494,-2.19711 -1.42161,-1.944161 -1.86976,-1.981096 -3.89269,-0.320791 -2.08885,1.714399 -2.22193,1.627165 -1.54216,-1.010813 0.81687,-3.17002 -0.23138,-3.724576 -2.58724,-1.368713 -2.19288,2.192876 -3.5312,0.213712 -1.50576,-2.226786 1.9301,-2.325631 1.65774,-2.604211 -7.02435,-7.184853 -4.59288,-2.423188 -5.17955,-2.476149 -6.5573,-0.591952 -1.88459,2.577323 -3.15497,2.651756 -3.15497,0.184856 0,-1.147915 -0.75231,-1.595795 -1.92475,-1.145884 -1.33559,0.51251 -1.92476,-0.08898 -1.92476,-1.965025 0,-1.486992 -0.75207,-2.70362 -1.67126,-2.70362 -0.91921,0 -2.71134,-2.892298 -3.98251,-6.427328 -1.27118,-3.535028 -3.8393,-7.63221 -5.70695,-9.10485 l -3.39571,-2.677524 -0.76632,6.859305 c -0.94525,8.460991 -2.22434,12.633564 -3.87278,12.633564 -2.22622,0 -7.60062,-6.852107 -11.320583,-14.43322 -3.061696,-6.239599 -3.864975,-7.079673 -5.214608,-5.453465 -1.297866,1.563836 -1.232744,1.92233 0.349201,1.92233 2.103533,0 3.502322,2.604336 3.502322,6.520787 0,3.920089 -2.371004,2.85221 -3.79428,-1.708908 -1.297866,-4.159223 -1.299891,-4.160073 -0.759865,-0.320792 1.039782,7.392455 3.930223,16.863627 6.194758,20.298525 2.245625,3.406206 2.232815,3.484208 -0.799004,4.865597 -5.505309,2.508387 -12.276315,13.083826 -16.274327,25.418422 -4.328049,13.35276 -8.693715,22.54133 -14.760213,31.06634 -8.487636,11.92734 -10.148546,17.11144 -5.592194,17.45466 3.157339,0.23783 7.555426,3.85973 7.555426,6.222 0,0.898 -1.521447,2.82951 -3.380977,4.29221 -3.030867,2.38409 -3.115712,2.65948 -0.81951,2.65948 2.036875,0 2.436475,0.65367 1.951261,3.19195 -0.916383,4.79367 2.691947,5.44238 7.547297,1.35686 2.845951,-2.3947 4.456448,-3.00658 5.408256,-2.05476 0.951821,0.95182 0.896924,1.81398 -0.184344,2.89526 -1.197627,1.1976 -1.539802,1.14792 -1.539802,-0.22368 0,-1.18164 -1.017013,-0.80804 -3.082356,1.13222 -4.223354,3.96765 -8.971592,3.22602 -9.51377,-1.48597 -0.223358,-1.94116 -1.199555,-3.52872 -2.169828,-3.52872 -2.342187,0 -3.552638,-2.1461 -4.70421,-8.34059 -0.80793,-4.34603 -0.871013,-4.08124 -0.411557,1.7278 0.849641,10.74227 4.726308,15.84834 14.174775,18.66999 1.533614,0.45803 3.677446,-0.0476 5.132668,-1.21069 2.432522,-1.94407 2.422186,-1.97607 -0.388104,-1.20271 -1.587923,0.43695 -2.88713,0.29362 -2.88713,-0.31851 0,-1.98065 2.830544,-4.0107 4.629617,-3.32033 1.062467,0.40772 2.249449,-0.64043 3.019804,-2.6666 0.698082,-1.8361 1.634021,-3.33836 2.079871,-3.33836 0.445836,0 0.478257,0.86615 0.07208,1.92475 -0.820139,2.13725 1.139168,2.6635 2.388786,0.64157 0.43617,-0.70573 2.635598,-1.28637 4.887604,-1.2903 6.244388,-0.0112 13.418846,-2.23882 23.691556,-7.35695 l 9.33164,-4.64926 5.19424,5.04429 c 2.85683,2.77438 9.01179,10.67421 13.6777,17.55521 4.66589,6.88099 9.1343,12.5109 9.9298,12.5109 0.79548,0 4.87693,-2.06432 9.06986,-4.58733 z M 86.543355,122.58934 c 0.519437,-1.23505 1.05491,-3.30221 1.189945,-4.59368 0.335609,-3.21001 3.026704,-4.66631 8.665959,-4.68964 5.620761,-0.0232 11.288091,2.28858 11.288091,4.60466 0,2.93673 -5.14344,5.47794 -9.617808,4.75185 -2.314697,-0.37561 -5.283949,-0.0581 -6.59834,0.70568 -3.746102,2.17675 -6.019773,1.81739 -4.927847,-0.77887 z m 4.462804,-0.34226 c 1.058626,-0.67232 4.090108,-1.23124 6.736643,-1.24205 4.694288,-0.0191 6.682978,-2.5613 3.528708,-4.51073 -0.70574,-0.43618 -1.28317,-0.18155 -1.28317,0.56584 0,1.91289 -4.791555,1.70005 -5.517113,-0.24505 -0.419603,-1.12489 -1.454929,-0.78156 -3.466339,1.14951 -3.183405,3.05624 -3.182441,6.30445 0.0012,4.28248 z M 112.21139,88.969892 c -2.48219,-4.800028 -2.49907,-12.321524 -0.0433,-19.282001 1.05294,-2.984347 2.0419,-7.098926 2.1977,-9.143506 0.39061,-5.126374 1.76029,-4.659662 5.09485,1.736046 1.92996,3.701658 2.8433,7.720506 2.8433,12.510889 0,7.053578 -4.19728,17.964359 -6.91074,17.964359 -0.67327,0 -2.10509,-1.703598 -3.18184,-3.785787 z m 4.90127,-7.762731 c -0.43785,-2.470098 -1.3192,-5.357227 -1.95858,-6.415841 -1.51335,-2.505629 0.0982,6.316833 1.64072,8.982177 0.69331,1.197966 0.81332,0.228917 0.31786,-2.566336 z m -20.37233,-9.21951 c -0.494377,-2.926145 -0.3222,-5.687905 0.399601,-6.409699 2.134362,-2.134359 5.414749,4.129467 5.414749,10.33934 0,5.534672 -0.0665,5.627441 -2.47285,3.449717 -1.36008,-1.230849 -2.863745,-4.551558 -3.3415,-7.379358 z M 64.48735,167.60717 c 1.449914,-1.44991 0.944264,-6.84359 -0.641578,-6.84359 -0.823352,0 -1.148933,0.34812 -0.723504,0.77354 0.425428,0.42543 0.247258,2.15771 -0.395955,3.84952 -1.10081,2.89531 -0.13354,4.11505 1.761037,2.22053 z"
               id="path3482" />
          </g>
        </g>
      </g>
      <path
         id="path4852"
         d="m 127.84375,29.46875 c -53.526119,0 -96.982465,43.00013 -97.75,96.34375 10.009722,-5.92814 19.733937,-10.88682 25.9375,-13.75 14.283262,-6.59228 49.44541,-6.58732 61.53125,-1.09375 12.08584,5.49356 32.95038,9.88345 43.9375,1.09375 10.98712,-8.7897 8.80204,-16.486588 31.875,-26.375 5.67666,-2.432854 12.40919,-4.644697 19.625,-6.53125 -16.79408,-29.656481 -48.64174,-49.6875 -85.15625,-49.6875 z"
         style="fill:url(#linearGradient4865);fill-opacity:1;stroke:none" />
      <path
         transform="matrix(0.92675242,0,0,0.92675242,8.7147193,28.602557)"
         d="m 99.726909,96.385544 c 0,0.993669 -2.071358,1.799197 -4.626506,1.799197 -2.555149,0 -4.626506,-0.805528 -4.626506,-1.799197 0,-0.993669 2.071357,-1.799197 4.626506,-1.799197 2.555148,0 4.626506,0.805528 4.626506,1.799197 z"
         sodipodi:ry="1.7991968"
         sodipodi:rx="4.6265059"
         sodipodi:cy="96.385544"
         sodipodi:cx="95.100403"
         id="path3494"
         style="opacity:0.82407406;fill:#000000;fill-opacity:1;stroke:#000000;stroke-width:2;stroke-linecap:round;stroke-linejoin:round;stroke-miterlimit:4;stroke-opacity:1;stroke-dasharray:none"
         sodipodi:type="arc" />
      <path
         style="fill:#ffffff;fill-opacity:0.75688076;fill-rule:nonzero;stroke:none"
         d="m 107.05404,59.212876 0,-4.176352 0,4.176352 z"
         id="path2276"
         sodipodi:nodetypes="ccc" />
    </g>
  </g>
</svg>
