<?xml version="1.0" encoding="UTF-8" standalone="no"?>
<!-- Created with Inkscape (http://www.inkscape.org/) -->

<svg
   xmlns:dc="http://purl.org/dc/elements/1.1/"
   xmlns:cc="http://creativecommons.org/ns#"
   xmlns:rdf="http://www.w3.org/1999/02/22-rdf-syntax-ns#"
   xmlns:svg="http://www.w3.org/2000/svg"
   xmlns="http://www.w3.org/2000/svg"
   xmlns:xlink="http://www.w3.org/1999/xlink"
   xmlns:sodipodi="http://sodipodi.sourceforge.net/DTD/sodipodi-0.dtd"
   xmlns:inkscape="http://www.inkscape.org/namespaces/inkscape"
   width="256"
   height="256"
   id="svg29213"
   version="1.1"
   inkscape:version="0.47pre0 r21549"
   sodipodi:docname="Nouveau document 29"
   inkscape:output_extension="org.inkscape.output.svg.inkscape">
  <defs
     id="defs29215">
    <inkscape:perspective
       sodipodi:type="inkscape:persp3d"
       inkscape:vp_x="0 : 526.18109 : 1"
       inkscape:vp_y="0 : 1000 : 0"
       inkscape:vp_z="744.09448 : 526.18109 : 1"
       inkscape:persp3d-origin="372.04724 : 350.78739 : 1"
       id="perspective29221" />
    <inkscape:perspective
       id="perspective29146"
       inkscape:persp3d-origin="0.5 : 0.33333333 : 1"
       inkscape:vp_z="1 : 0.5 : 1"
       inkscape:vp_y="0 : 1000 : 0"
       inkscape:vp_x="0 : 0.5 : 1"
       sodipodi:type="inkscape:persp3d" />
    <radialGradient
       inkscape:collect="always"
       xlink:href="#linearGradient4824"
       id="radialGradient4830"
       cx="15.593588"
       cy="88.653885"
       fx="15.593588"
       fy="88.653885"
       r="114.76744"
       gradientUnits="userSpaceOnUse" />
    <linearGradient
       inkscape:collect="always"
       id="linearGradient4824">
      <stop
         style="stop-color:#ffffff;stop-opacity:1;"
         offset="0"
         id="stop4826" />
      <stop
         style="stop-color:#ffffff;stop-opacity:0;"
         offset="1"
         id="stop4828" />
    </linearGradient>
    <radialGradient
       inkscape:collect="always"
       xlink:href="#linearGradient4824"
       id="radialGradient4838"
       gradientUnits="userSpaceOnUse"
       cx="219.53087"
       cy="98.953751"
       fx="219.53087"
       fy="98.953751"
       r="114.76744" />
    <linearGradient
       inkscape:collect="always"
       xlink:href="#linearGradient6699"
       id="linearGradient6562"
       gradientUnits="userSpaceOnUse"
       x1="-22.976406"
       y1="18.516047"
       x2="-14.360273"
       y2="33.016045"
       gradientTransform="matrix(6.2729471,0,0,6.2729471,244.00826,-39.926124)" />
    <linearGradient
       id="linearGradient6699">
      <stop
         style="stop-color: rgb(255, 113, 113); stop-opacity: 1;"
         offset="0.0000000"
         id="stop6701" />
      <stop
         style="stop-color: rgb(204, 0, 0); stop-opacity: 1;"
         offset="1.0000000"
         id="stop6703" />
    </linearGradient>
    <linearGradient
       inkscape:collect="always"
       xlink:href="#linearGradient6711"
       id="linearGradient6558"
       gradientUnits="userSpaceOnUse"
       x1="-16.387411"
       y1="24.453547"
       x2="-9.7352734"
       y2="28.195539"
       gradientTransform="matrix(6.2729471,0,0,6.2729471,244.00826,-39.926124)" />
    <linearGradient
       id="linearGradient6711">
      <stop
         style="stop-color: rgb(91, 140, 203); stop-opacity: 1;"
         offset="0.0000000"
         id="stop6713" />
      <stop
         style="stop-color: rgb(52, 101, 164); stop-opacity: 1;"
         offset="1.0000000"
         id="stop6715" />
    </linearGradient>
    <linearGradient
       inkscape:collect="always"
       xlink:href="#linearGradient6719"
       id="linearGradient6554"
       gradientUnits="userSpaceOnUse"
       x1="-17.863041"
       y1="30.827509"
       x2="-20.821646"
       y2="25.015009"
       gradientTransform="matrix(6.2729471,0,0,6.2729471,244.00826,-39.926124)" />
    <linearGradient
       id="linearGradient6719">
      <stop
         style="stop-color: rgb(115, 210, 22); stop-opacity: 1;"
         offset="0"
         id="stop6721" />
      <stop
         style="stop-color: rgb(213, 247, 179); stop-opacity: 1;"
         offset="1.0000000"
         id="stop6723" />
    </linearGradient>
    <linearGradient
       inkscape:collect="always"
       xlink:href="#linearGradient6687"
       id="linearGradient6581"
       gradientUnits="userSpaceOnUse"
       x1="-26.186516"
       y1="24.375"
       x2="-10.649858"
       y2="10.088343" />
    <linearGradient
       inkscape:collect="always"
       id="linearGradient6687">
      <stop
         style="stop-color: rgb(255, 255, 255); stop-opacity: 1;"
         offset="0"
         id="stop6689" />
      <stop
         style="stop-color: rgb(255, 255, 255); stop-opacity: 0;"
         offset="1"
         id="stop6691" />
    </linearGradient>
    <linearGradient
       inkscape:collect="always"
       xlink:href="#linearGradient6687"
       id="linearGradient6583"
       gradientUnits="userSpaceOnUse"
       x1="-20.75"
       y1="29"
       x2="-19.5"
       y2="18.75" />
    <radialGradient
       inkscape:collect="always"
       xlink:href="#linearGradient4824"
       id="radialGradient4842"
       gradientUnits="userSpaceOnUse"
       cx="117.56223"
       cy="1.6960773"
       fx="117.56223"
       fy="1.6960773"
       r="114.76744"
       gradientTransform="matrix(1.439753,0,0,1,-51.698347,0)" />
    <linearGradient
       inkscape:collect="always"
       xlink:href="#linearGradient4859"
       id="linearGradient4865"
       x1="121.54688"
       y1="-8.986186"
       x2="121.54688"
       y2="143.39191"
       gradientUnits="userSpaceOnUse" />
    <linearGradient
       inkscape:collect="always"
       id="linearGradient4859">
      <stop
         style="stop-color:#ffffff;stop-opacity:1;"
         offset="0"
         id="stop4861" />
      <stop
         style="stop-color:#ffffff;stop-opacity:0;"
         offset="1"
         id="stop4863" />
    </linearGradient>
    <linearGradient
       y2="143.39191"
       x2="121.54688"
       y1="-8.986186"
       x1="121.54688"
       gradientUnits="userSpaceOnUse"
       id="linearGradient29211"
       xlink:href="#linearGradient4859"
       inkscape:collect="always" />
  </defs>
  <sodipodi:namedview
     id="base"
     pagecolor="#ffffff"
     bordercolor="#666666"
     borderopacity="1.0"
     inkscape:pageopacity="0.0"
     inkscape:pageshadow="2"
     inkscape:zoom="0.35"
     inkscape:cx="375"
     inkscape:cy="520"
     inkscape:document-units="px"
     inkscape:current-layer="layer1"
     showgrid="false"
     inkscape:window-width="688"
     inkscape:window-height="485"
     inkscape:window-x="976"
     inkscape:window-y="539"
     inkscape:window-maximized="0" />
  <metadata
     id="metadata29218">
    <rdf:RDF>
      <cc:Work
         rdf:about="">
        <dc:format>image/svg+xml</dc:format>
        <dc:type
           rdf:resource="http://purl.org/dc/dcmitype/StillImage" />
        <dc:title></dc:title>
      </cc:Work>
    </rdf:RDF>
  </metadata>
  <g
     inkscape:label="Calque 1"
     inkscape:groupmode="layer"
     id="layer1"
     transform="translate(0,-796.36218)">
    <g
       transform="translate(-3.1235624e-4,796.36192)"
       id="g29121">
      <path
         transform="matrix(1.15625,0,0,1.15625,-8.480688,-8.309014)"
         d="m 223.03862,116.46352 c 0,58.253 -47.22339,105.47638 -105.47639,105.47638 -58.252997,0 -105.476384,-47.22338 -105.476384,-105.47638 0,-58.253004 47.223387,-105.476391 105.476384,-105.476391 58.253,0 105.47639,47.223387 105.47639,105.476391 z"
         sodipodi:ry="105.47639"
         sodipodi:rx="105.47639"
         sodipodi:cy="116.46352"
         sodipodi:cx="117.56223"
         id="path4820"
         style="fill:#000000;fill-opacity:1;stroke:none"
         sodipodi:type="arc" />
      <path
         sodipodi:type="arc"
         style="fill:none;stroke:url(#radialGradient4830);stroke-width:18.58210373;stroke-miterlimit:4;stroke-opacity:1;stroke-dasharray:none"
         id="path4822"
         sodipodi:cx="117.56223"
         sodipodi:cy="116.46352"
         sodipodi:rx="105.47639"
         sodipodi:ry="105.47639"
         d="m 223.03862,116.46352 c 0,58.253 -47.22339,105.47638 -105.47639,105.47638 -58.252997,0 -105.476384,-47.22338 -105.476384,-105.47638 0,-58.253004 47.223387,-105.476391 105.476384,-105.476391 58.253,0 105.47639,47.223387 105.47639,105.476391 z"
         transform="matrix(1.0667253,0,0,1.0667253,2.0440348,2.1173465)" />
      <path
         transform="matrix(1.0667253,0,0,1.0667253,2.0440348,2.1173465)"
         d="m 223.03862,116.46352 c 0,58.253 -47.22339,105.47638 -105.47639,105.47638 -58.252997,0 -105.476384,-47.22338 -105.476384,-105.47638 0,-58.253004 47.223387,-105.476391 105.476384,-105.476391 58.253,0 105.47639,47.223387 105.47639,105.476391 z"
         sodipodi:ry="105.47639"
         sodipodi:rx="105.47639"
         sodipodi:cy="116.46352"
         sodipodi:cx="117.56223"
         id="path4836"
         style="fill:none;stroke:url(#radialGradient4838);stroke-width:18.58210373;stroke-miterlimit:4;stroke-opacity:1;stroke-dasharray:none"
         sodipodi:type="arc" />
      <g
         id="g6592">
        <path
           inkscape:r_cy="true"
           inkscape:r_cx="true"
           style="fill:#a40000;fill-rule:nonzero;stroke:none"
           d="M 199.94441,113.46968 C 191.29662,92.226071 161.97389,76.584239 127.1008,76.584239 c -34.8731,0 -64.195822,15.641832 -72.843613,36.885441 l -2.601987,0 0,12.9848 c 0,27.53926 33.781551,49.86176 75.4456,49.86176 41.66807,0 75.44157,-22.3225 75.44157,-49.86176 l 0,-12.9848 -2.59796,0 0,0 z"
           id="path3933" />
        <path
           inkscape:r_cy="true"
           inkscape:r_cx="true"
           style="fill:url(#linearGradient6562);fill-opacity:1;fill-rule:nonzero;stroke:none"
           d="m 202.54237,113.46968 c 0,27.5435 -33.7735,49.86601 -75.44157,49.86601 -41.668076,0 -75.4456,-22.32251 -75.4456,-49.86601 0,-27.543498 33.781551,-49.866 75.4456,-49.866 41.66807,0 75.44157,22.322502 75.44157,49.866 l 0,0 z"
           id="path3935" />
        <path
           inkscape:r_cy="true"
           inkscape:r_cx="true"
           style="fill:#204a87;fill-rule:nonzero;stroke:none"
           d="m 202.54237,128.39648 -0.0967,-13.58982 c -8.18055,28.23314 -26.57573,40.19405 -49.70363,46.04969 l 0,12.51092 c 25.03306,-6.29566 47.43595,-20.63012 49.8003,-44.97079 l 0,0 z"
           id="path3937" />
        <path
           inkscape:r_cy="true"
           inkscape:r_cx="true"
           style="fill:url(#linearGradient6558);fill-opacity:1;fill-rule:nonzero;stroke:none"
           d="m 202.54237,113.46968 c -1.72795,31.8633 -41.1364,46.39239 -49.94127,46.94664 l -25.50433,-46.94664 75.44157,0 0.004,0 z"
           id="path3939" />
        <path
           inkscape:r_cy="true"
           inkscape:r_cx="true"
           style="fill:#4e9a06;fill-rule:nonzero;stroke:none"
           d="m 111.30761,175.22466 0,-12.98056 c 14.19816,1.84892 27.22422,2.17471 41.29349,-1.34121 l 0.14095,12.46861 c -11.7895,3.86709 -30.23302,4.04902 -41.43446,1.85739 l 0,-0.004 z"
           id="path3941" />
        <path
           inkscape:r_cy="true"
           inkscape:r_cx="true"
           style="fill:url(#linearGradient6554);fill-opacity:1;fill-rule:nonzero;stroke:none"
           d="m 127.09677,113.47391 25.50433,46.94241 c -15.61597,5.95296 -41.29349,1.82778 -41.29349,1.82778 l 15.78916,-48.77019 z"
           id="path3943" />
        <path
           inkscape:r_cy="true"
           inkscape:r_cx="true"
           sodipodi:type="arc"
           style="opacity:0.94090911;color:#000000;fill:none;stroke:url(#linearGradient6581);stroke-width:0.16273582;stroke-linecap:butt;stroke-linejoin:miter;stroke-miterlimit:4;stroke-opacity:1;stroke-dasharray:none;stroke-dashoffset:0;marker:none;visibility:visible;display:block;overflow:visible"
           id="path5959"
           sodipodi:cx="-18.625"
           sodipodi:cy="24.375"
           sodipodi:rx="11.75"
           sodipodi:ry="7.75"
           d="m -6.875,24.375 c 0,4.280207 -5.260654,7.75 -11.75,7.75 -6.489346,0 -11.75,-3.469793 -11.75,-7.75 0,-4.280207 5.260654,-7.75 11.75,-7.75 6.489346,0 11.75,3.469793 11.75,7.75 z"
           transform="matrix(6.1449288,0,0,6.1449288,241.6239,-36.805653)" />
        <path
           inkscape:r_cy="true"
           inkscape:r_cx="true"
           transform="matrix(6.1449288,0,0,6.1449288,243.95462,-18.821403)"
           d="m -6.875,24.375 c 0,4.280207 -5.260654,7.75 -11.75,7.75 -6.489346,0 -11.75,-3.469793 -11.75,-7.75 0,-4.280207 5.260654,-7.75 11.75,-7.75 6.489346,0 11.75,3.469793 11.75,7.75 z"
           sodipodi:ry="7.75"
           sodipodi:rx="11.75"
           sodipodi:cy="24.375"
           sodipodi:cx="-18.625"
           id="path6707"
           style="opacity:0.13333297;color:#000000;fill:none;stroke:url(#linearGradient6583);stroke-width:1.02083004;stroke-linecap:butt;stroke-linejoin:miter;stroke-miterlimit:4;stroke-opacity:1;stroke-dasharray:none;stroke-dashoffset:0;marker:none;visibility:visible;display:block;overflow:visible"
           sodipodi:type="arc" />
        <path
           style="opacity:0.35909095;color:#000000;fill:#000000;fill-opacity:1;stroke:none;stroke-width:1.02083004;marker:none;visibility:visible;display:block;overflow:visible"
           d="m 54.194561,122.79523 c -0.54496,2.27865 -0.8125,4.62559 -0.8125,7 0,25.67817 33.02632,46.5 73.781249,46.5 40.75493,0 73.8125,-20.82183 73.8125,-46.5 0,-2.37441 -0.26754,-4.72135 -0.8125,-7 -5.34767,22.36458 -36.01289,39.5 -73,39.5 -36.987099,0 -67.621079,-17.13542 -72.968749,-39.5 z"
           id="path6585" />
      </g>
      <path
         sodipodi:type="arc"
         style="fill:none;stroke:url(#radialGradient4842);stroke-width:18.58210373;stroke-miterlimit:4;stroke-opacity:1;stroke-dasharray:none"
         id="path4840"
         sodipodi:cx="117.56223"
         sodipodi:cy="116.46352"
         sodipodi:rx="105.47639"
         sodipodi:ry="105.47639"
         d="m 223.03862,116.46352 c 0,58.253 -47.22339,105.47638 -105.47639,105.47638 -58.252997,0 -105.476384,-47.22338 -105.476384,-105.47638 0,-58.253004 47.223387,-105.476391 105.476384,-105.476391 58.253,0 105.47639,47.223387 105.47639,105.476391 z"
         transform="matrix(1.0667253,0,0,1.0667253,2.0440348,2.1173465)" />
      <path
         id="path4852"
         d="m 127.84375,29.46875 c -53.526119,0 -96.982465,43.00013 -97.75,96.34375 10.009722,-5.92814 19.733937,-10.88682 25.9375,-13.75 14.283262,-6.59228 49.44541,-6.58732 61.53125,-1.09375 12.08584,5.49356 32.95038,9.88345 43.9375,1.09375 10.98712,-8.7897 8.80204,-16.486588 31.875,-26.375 5.67666,-2.432854 12.40919,-4.644697 19.625,-6.53125 -16.79408,-29.656481 -48.64174,-49.6875 -85.15625,-49.6875 z"
         style="fill:url(#linearGradient29211);fill-opacity:1;stroke:none" />
    </g>
  </g>
</svg>
