<?xml version="1.0" encoding="UTF-8" standalone="no"?>
<!-- Created with Inkscape (http://www.inkscape.org/) -->

<svg
   xmlns:dc="http://purl.org/dc/elements/1.1/"
   xmlns:cc="http://creativecommons.org/ns#"
   xmlns:rdf="http://www.w3.org/1999/02/22-rdf-syntax-ns#"
   xmlns:svg="http://www.w3.org/2000/svg"
   xmlns="http://www.w3.org/2000/svg"
   xmlns:xlink="http://www.w3.org/1999/xlink"
   xmlns:sodipodi="http://sodipodi.sourceforge.net/DTD/sodipodi-0.dtd"
   xmlns:inkscape="http://www.inkscape.org/namespaces/inkscape"
   width="256"
   height="256"
   id="svg4220"
   version="1.1"
   inkscape:version="0.47pre0 r21549"
   sodipodi:docname="empty (copie).svg"
   inkscape:output_extension="org.inkscape.output.svg.inkscape">
  <defs
     id="defs4222">
    <inkscape:perspective
       sodipodi:type="inkscape:persp3d"
       inkscape:vp_x="0 : 526.18109 : 1"
       inkscape:vp_y="0 : 1000 : 0"
       inkscape:vp_z="744.09448 : 526.18109 : 1"
       inkscape:persp3d-origin="372.04724 : 350.78739 : 1"
       id="perspective4228" />
    <inkscape:perspective
       id="perspective4188"
       inkscape:persp3d-origin="0.5 : 0.33333333 : 1"
       inkscape:vp_z="1 : 0.5 : 1"
       inkscape:vp_y="0 : 1000 : 0"
       inkscape:vp_x="0 : 0.5 : 1"
       sodipodi:type="inkscape:persp3d" />
    <radialGradient
       inkscape:collect="always"
       xlink:href="#linearGradient4824"
       id="radialGradient4830"
       cx="15.593588"
       cy="88.653885"
       fx="15.593588"
       fy="88.653885"
       r="114.76744"
       gradientUnits="userSpaceOnUse" />
    <linearGradient
       inkscape:collect="always"
       id="linearGradient4824">
      <stop
         style="stop-color:#ffffff;stop-opacity:1;"
         offset="0"
         id="stop4826" />
      <stop
         style="stop-color:#ffffff;stop-opacity:0;"
         offset="1"
         id="stop4828" />
    </linearGradient>
    <radialGradient
       inkscape:collect="always"
       xlink:href="#linearGradient4824"
       id="radialGradient4838"
       gradientUnits="userSpaceOnUse"
       cx="219.53087"
       cy="98.953751"
       fx="219.53087"
       fy="98.953751"
       r="114.76744" />
    <radialGradient
       inkscape:collect="always"
       xlink:href="#linearGradient4824"
       id="radialGradient4842"
       gradientUnits="userSpaceOnUse"
       cx="117.56223"
       cy="1.6960773"
       fx="117.56223"
       fy="1.6960773"
       r="114.76744"
       gradientTransform="matrix(1.439753,0,0,1,-51.698347,0)" />
    <linearGradient
       gradientTransform="translate(-3.1751248e-4,796.36192)"
       inkscape:collect="always"
       xlink:href="#linearGradient4859"
       id="linearGradient4865"
       x1="121.54688"
       y1="-8.986186"
       x2="121.54688"
       y2="143.39191"
       gradientUnits="userSpaceOnUse" />
    <linearGradient
       inkscape:collect="always"
       id="linearGradient4859">
      <stop
         style="stop-color:#ffffff;stop-opacity:1;"
         offset="0"
         id="stop4861" />
      <stop
         style="stop-color:#ffffff;stop-opacity:0;"
         offset="1"
         id="stop4863" />
    </linearGradient>
    <inkscape:perspective
       id="perspective29092"
       inkscape:persp3d-origin="0.5 : 0.33333333 : 1"
       inkscape:vp_z="1 : 0.5 : 1"
       inkscape:vp_y="0 : 1000 : 0"
       inkscape:vp_x="0 : 0.5 : 1"
       sodipodi:type="inkscape:persp3d" />
    <radialGradient
       inkscape:collect="always"
       xlink:href="#linearGradient35488"
       id="radialGradient35494"
       cx="28.019106"
       cy="38.98439"
       fx="28.019106"
       fy="38.98439"
       r="15.467961"
       gradientTransform="matrix(1,0,0,0.342857,0,25.6183)"
       gradientUnits="userSpaceOnUse" />
    <linearGradient
       inkscape:collect="always"
       id="linearGradient35488">
      <stop
         style="stop-color: black; stop-opacity: 1;"
         offset="0"
         id="stop35490" />
      <stop
         style="stop-color: black; stop-opacity: 0;"
         offset="1"
         id="stop35492" />
    </linearGradient>
    <linearGradient
       inkscape:collect="always"
       xlink:href="#linearGradient39155"
       id="linearGradient39161"
       x1="31.1875"
       y1="18.875"
       x2="29.875"
       y2="34.375"
       gradientUnits="userSpaceOnUse" />
    <linearGradient
       id="linearGradient39155">
      <stop
         style="stop-color: white; stop-opacity: 1;"
         offset="0"
         id="stop39157" />
      <stop
         style="stop-color: rgb(218, 218, 218); stop-opacity: 1;"
         offset="1"
         id="stop39159" />
    </linearGradient>
    <linearGradient
       inkscape:collect="always"
       xlink:href="#linearGradient3564"
       id="linearGradient34576"
       gradientUnits="userSpaceOnUse"
       x1="185.9903"
       y1="193.33229"
       x2="190.46461"
       y2="-458.05771"
       gradientTransform="matrix(0.0681885,0,0,0.0681885,22.5111,27.0289)" />
    <linearGradient
       inkscape:collect="always"
       id="linearGradient3564">
      <stop
         style="stop-color: white; stop-opacity: 1;"
         offset="0"
         id="stop3566-8" />
      <stop
         style="stop-color: white; stop-opacity: 0;"
         offset="1"
         id="stop3568" />
    </linearGradient>
    <radialGradient
       r="20.278975"
       fy="19.668886"
       fx="26.109201"
       cy="19.668886"
       cx="26.109201"
       gradientTransform="matrix(1.64722,0,0,1.26792,-15.4741,-5.79794)"
       gradientUnits="userSpaceOnUse"
       id="radialGradient5033"
       xlink:href="#linearGradient39171"
       inkscape:collect="always" />
    <linearGradient
       inkscape:collect="always"
       id="linearGradient39171">
      <stop
         style="stop-color: white; stop-opacity: 1;"
         offset="0"
         id="stop39173" />
      <stop
         style="stop-color: white; stop-opacity: 0;"
         offset="1"
         id="stop39175" />
    </linearGradient>
    <radialGradient
       r="20.278975"
       fy="19.668886"
       fx="26.109201"
       cy="19.668886"
       cx="26.109201"
       gradientTransform="matrix(1.64722,0,0,1.26792,-15.4741,-5.79794)"
       gradientUnits="userSpaceOnUse"
       id="radialGradient29119"
       xlink:href="#linearGradient39171"
       inkscape:collect="always" />
  </defs>
  <sodipodi:namedview
     id="base"
     pagecolor="#ffffff"
     bordercolor="#666666"
     borderopacity="1.0"
     inkscape:pageopacity="0.0"
     inkscape:pageshadow="2"
     inkscape:zoom="0.7"
     inkscape:cx="293.07756"
     inkscape:cy="154.83204"
     inkscape:document-units="px"
     inkscape:current-layer="layer1"
     showgrid="false"
     inkscape:window-width="727"
     inkscape:window-height="485"
     inkscape:window-x="791"
     inkscape:window-y="335"
     inkscape:window-maximized="0" />
  <metadata
     id="metadata4225">
    <rdf:RDF>
      <cc:Work
         rdf:about="">
        <dc:format>image/svg+xml</dc:format>
        <dc:type
           rdf:resource="http://purl.org/dc/dcmitype/StillImage" />
        <dc:title />
      </cc:Work>
    </rdf:RDF>
  </metadata>
  <g
     inkscape:label="Calque 1"
     inkscape:groupmode="layer"
     id="layer1"
     transform="translate(0,-796.36218)">
    <path
       sodipodi:type="arc"
       style="fill:#000000;fill-opacity:1;stroke:none"
       id="path4820"
       sodipodi:cx="117.56223"
       sodipodi:cy="116.46352"
       sodipodi:rx="105.47639"
       sodipodi:ry="105.47639"
       d="m 223.03862,116.46352 c 0,58.253 -47.22339,105.47638 -105.47639,105.47638 -58.252997,0 -105.476384,-47.22338 -105.476384,-105.47638 0,-58.253004 47.223387,-105.476391 105.476384,-105.476391 58.253,0 105.47639,47.223387 105.47639,105.476391 z"
       transform="matrix(1.15625,0,0,1.15625,-8.4810076,788.05291)" />
    <path
       transform="matrix(1.0667253,0,0,1.0667253,2.0437224,798.47927)"
       d="m 223.03862,116.46352 c 0,58.253 -47.22339,105.47638 -105.47639,105.47638 -58.252997,0 -105.476384,-47.22338 -105.476384,-105.47638 0,-58.253004 47.223387,-105.476391 105.476384,-105.476391 58.253,0 105.47639,47.223387 105.47639,105.476391 z"
       sodipodi:ry="105.47639"
       sodipodi:rx="105.47639"
       sodipodi:cy="116.46352"
       sodipodi:cx="117.56223"
       id="path4822"
       style="fill:none;stroke:url(#radialGradient4830);stroke-width:18.58210373;stroke-miterlimit:4;stroke-opacity:1;stroke-dasharray:none"
       sodipodi:type="arc" />
    <path
       sodipodi:type="arc"
       style="fill:none;stroke:url(#radialGradient4838);stroke-width:18.58210373;stroke-miterlimit:4;stroke-opacity:1;stroke-dasharray:none"
       id="path4836"
       sodipodi:cx="117.56223"
       sodipodi:cy="116.46352"
       sodipodi:rx="105.47639"
       sodipodi:ry="105.47639"
       d="m 223.03862,116.46352 c 0,58.253 -47.22339,105.47638 -105.47639,105.47638 -58.252997,0 -105.476384,-47.22338 -105.476384,-105.47638 0,-58.253004 47.223387,-105.476391 105.476384,-105.476391 58.253,0 105.47639,47.223387 105.47639,105.476391 z"
       transform="matrix(1.0667253,0,0,1.0667253,2.0437224,798.47927)" />
    <path
       transform="matrix(1.0667253,0,0,1.0667253,2.0437224,798.47927)"
       d="m 223.03862,116.46352 c 0,58.253 -47.22339,105.47638 -105.47639,105.47638 -58.252997,0 -105.476384,-47.22338 -105.476384,-105.47638 0,-58.253004 47.223387,-105.476391 105.476384,-105.476391 58.253,0 105.47639,47.223387 105.47639,105.476391 z"
       sodipodi:ry="105.47639"
       sodipodi:rx="105.47639"
       sodipodi:cy="116.46352"
       sodipodi:cx="117.56223"
       id="path4840"
       style="fill:none;stroke:url(#radialGradient4842);stroke-width:18.58210373;stroke-miterlimit:4;stroke-opacity:1;stroke-dasharray:none"
       sodipodi:type="arc" />
    <path
       sodipodi:nodetypes="ccc"
       id="path2276"
       d="m 107.05372,855.5748 0,-4.17635 0,4.17635 z"
       style="fill:#ffffff;fill-opacity:0.75688076;fill-rule:nonzero;stroke:none" />
    <g
       transform="matrix(3.7553676,0,0,3.7553676,31.129209,827.42909)"
       id="g4998">
      <path
         transform="matrix(1.27429,0,0,1.37712,-7.56912,-16.7019)"
         d="m 43.487067,38.98439 c 0,2.928932 -6.925242,5.303301 -15.467961,5.303301 -8.542719,0 -15.467961,-2.374369 -15.467961,-5.303301 0,-2.928932 6.925242,-5.303301 15.467961,-5.303301 8.542719,0 15.467961,2.374369 15.467961,5.303301 z"
         sodipodi:ry="5.3033009"
         sodipodi:rx="15.467961"
         sodipodi:cy="38.98439"
         sodipodi:cx="28.019106"
         id="path35486"
         style="opacity:0.548571;color:#000000;fill:url(#radialGradient35494);fill-opacity:1;fill-rule:nonzero;stroke:none;stroke-width:1;marker:none;visibility:visible;display:inline;overflow:visible"
         sodipodi:type="arc" />
      <path
         sodipodi:nodetypes="csssssssssscccsscccscccssccc"
         d="m 16.048489,28.093447 c 0.0098,0.576682 0.196474,1.697902 0.471116,2.577425 0.581566,1.854137 1.56684,3.572658 2.939126,5.086496 1.407488,1.553118 3.138519,2.803227 5.139315,3.68976 2.105357,0.931573 4.384795,1.407488 6.750134,1.403741 2.365339,-0.005 4.644601,-0.488686 6.74896,-1.427017 2.00002,-0.895288 3.731043,-2.148391 5.13754,-3.705517 1.369207,-1.519844 2.352576,-3.241114 2.934089,-5.096258 0.294262,-0.938353 0.476921,-1.889392 0.553238,-2.845308 0.07331,-0.939306 0.04204,-1.883511 -0.09183,-2.823792 -0.259981,-1.835599 -0.896294,-3.556847 -1.872652,-5.12758 -0.895541,-1.441699 -2.047808,-2.70454 -3.417268,-3.766975 0,0 0.002,-0.002 0.002,-0.002 0,0 -13.828458,-10.6197195 -13.828458,-10.6197195 -0.01176,-0.00978 -0.02252,-0.019551 -0.03529,-0.028344 -0.909003,-0.6959264 -2.434775,-0.6939758 -3.431728,0.00488 -1.01067,0.7057021 -1.091821,1.8092613 -0.195527,2.5482146 1.899775,1.4997633 3.792068,3.0680399 5.702368,4.5676189 0,0 -17.551681,-0.01171 -17.551681,-0.01171 -1.994685,0 -3.1682604,0.947915 -3.4153942,2.333683 -0.2180771,1.222836 0.7479213,2.738129 2.4800212,2.738129 2.956573,0.0039 5.942111,-0.0069 8.909215,-0.01272 0,0 -15.901723,11.764162 -15.901723,11.764162 -0.020527,0.01564 -0.041053,0.02933 -0.06158,0.04497 -1.4974197,1.148389 -1.9831951,3.059322 -1.0399808,4.268393 0.9598323,1.22959 2.9977653,1.230588 4.5147288,0.006 0,0 8.677593,-7.102098 8.677593,-7.102098 0,0 -0.12511,0.959824 -0.116333,1.535532 z"
         id="path2482"
         style="fill:#f57900;fill-rule:evenodd;stroke:#ce5c00;stroke-width:1;stroke-linecap:butt;stroke-linejoin:miter;stroke-miterlimit:4;stroke-dasharray:none" />
      <path
         transform="matrix(0.821621,0,0,0.839506,5.87569,3.88272)"
         d="m 42.75,25.75 c 0,5.591883 -5.176708,10.125 -11.5625,10.125 -6.385792,0 -11.5625,-4.533117 -11.5625,-10.125 0,-5.591883 5.176708,-10.125 11.5625,-10.125 6.385792,0 11.5625,4.533117 11.5625,10.125 z"
         sodipodi:ry="10.125"
         sodipodi:rx="11.5625"
         sodipodi:cy="25.75"
         sodipodi:cx="31.1875"
         id="path39153"
         style="color:#000000;fill:url(#linearGradient39161);fill-opacity:1;fill-rule:nonzero;stroke:none;stroke-width:1;marker:none;visibility:visible;display:inline;overflow:visible"
         sodipodi:type="arc" />
      <path
         sodipodi:nodetypes="cssssscscczccsccssssccscccccscssc"
         id="path3562"
         d="m 25.796988,6.0267804 c -0.404852,5.53e-4 -0.818619,0.1256944 -1.095272,0.3196267 -7.14e-4,7.142e-4 -0.0014,0.00143 -0.0021,0.00213 -0.280209,0.1956525 -0.336859,0.3680061 -0.345206,0.4602725 -0.0083,0.092266 -0.01324,0.1672776 0.189655,0.3345475 0.01899,0.015735 0.03747,0.032076 0.0554,0.049009 0.124258,0.1010285 5.704394,4.6389489 5.704394,4.6389489 0.373658,0.304091 0.51584,0.810232 0.355197,1.264415 -0.160635,0.454191 -0.589422,0.382732 -1.071174,0.384283 -5.634142,0.05114 -17.60967,0.01918 -17.60967,0.01918 -0.952967,6.38e-4 -2.3472795,0.516793 -2.4135719,1.585761 -0.063562,1.024947 0.9093059,1.457499 1.5782589,1.457499 0,0 8.830403,-0.01705 8.830403,-0.01705 0.488364,-5.91e-4 0.922857,0.221532 1.080466,0.683755 0.15761,0.462231 0.0033,0.53156 -0.383664,0.829439 0,0 -15.9006939,12.205735 -15.9006939,12.205735 -0.00142,0.0014 -0.00284,0.0028 -0.00426,0.0043 -0.064038,0.04879 -0.084772,0.06226 -0.061795,0.04476 -0.5536756,0.424618 -0.8961097,0.98072 -1.0185711,1.476701 -0.1224537,0.495981 -0.04659,0.882548 0.1875202,1.182646 0.4788333,0.613413 1.7693735,0.732111 2.8980115,-0.178996 0,0 8.6727243,-7.09799 8.6727243,-7.09799 0.361955,-0.295752 0.867758,-0.340606 1.276111,-0.113169 0.408345,0.227437 0.636512,0.681082 0.575631,1.144518 0,0 -0.112502,0.980045 -0.10655,1.370159 0.192357,2.636407 1.448328,4.914995 3.115366,6.91474 2.877746,3.172809 6.84939,4.556285 11.042271,4.719919 4.20342,-0.04394 8.185784,-1.662428 11.042264,-4.758277 5.218918,-6.385867 3.941737,-13.3639 -1.747326,-17.993227 C 36.14442,13.301598 31.42752,9.8792062 26.81986,6.3400589 c -0.0043,-0.00352 -0.0086,-0.00707 -0.01279,-0.010651 -0.0072,-0.00489 -0.01427,-0.00987 -0.02131,-0.014921 -0.210578,-0.1612288 -0.584681,-0.288267 -0.988772,-0.2877065 z"
         style="opacity:0.485714;fill:none;stroke:url(#linearGradient34576);stroke-width:1;stroke-linecap:butt;stroke-linejoin:miter;stroke-miterlimit:4;stroke-opacity:1;stroke-dasharray:none" />
      <path
         d="m 26.007076,24.754048 c 0.07447,-1.361157 0.739293,-2.562655 1.738705,-3.413271 0.983518,-0.836183 2.304215,-1.346747 3.746876,-1.346747 1.441743,0 2.762441,0.510564 3.745729,1.346747 1.000515,0.850616 1.664539,2.051213 1.739875,3.41237 0.07718,1.400852 -0.4828,2.701576 -1.46425,3.66495 -1.000516,0.981409 -2.427099,1.597503 -4.021354,1.597503 -1.595172,0 -3.021756,-0.616094 -4.022225,-1.597503 -0.982461,-0.963374 -1.540507,-2.264098 -1.463356,-3.664049 z"
         id="path2478"
         style="fill:#3465a4;fill-rule:evenodd;stroke:none" />
      <path
         sodipodi:nodetypes="csssscsccsscsccssssscsscccsssc"
         id="path39166"
         d="m 25.8125,6.03125 c -0.404852,5.528e-4 -0.848347,0.1185677 -1.125,0.3125 -0.280209,0.1956523 -0.335403,0.3764836 -0.34375,0.46875 -0.0083,0.092267 -0.01539,0.1764801 0.1875,0.34375 0.01899,0.015735 0.04457,0.014317 0.0625,0.03125 0.124258,0.1010283 5.71875,4.65625 5.71875,4.65625 0.373658,0.304091 0.504393,0.795817 0.34375,1.25 -0.160635,0.454191 -0.580748,0.373449 -1.0625,0.375 -5.634142,0.05114 -17.625,0.03125 -17.625,0.03125 -0.952967,6.38e-4 -2.3399576,0.524782 -2.40625,1.59375 -0.063562,1.024947 0.924797,1.4375 1.59375,1.4375 0,-1e-6 8.8125,0 8.8125,0 0.488364,-5.92e-4 0.936141,0.225277 1.09375,0.6875 0.157609,0.462231 -0.01926,0.514621 -0.40625,0.8125 0,0 -15.875,12.21875 -15.875,12.21875 -0.00142,0.0014 -0.029829,-0.0014 -0.03125,0 -0.064037,0.04879 -0.054226,0.04875 -0.03125,0.03125 -0.5536758,0.424619 -0.9087886,1.004019 -1.03125,1.5 -0.1224536,0.495981 -0.04661,0.856152 0.1875,1.15625 0.4788333,0.613413 1.777612,0.754857 2.90625,-0.15625 1e-7,10e-7 8.65625,-7.09375 8.65625,-7.09375 0.361955,-0.295753 0.872897,-0.352437 1.28125,-0.125 0.408345,0.227436 0.623381,0.692814 0.5625,1.15625 0,-1e-6 -0.0997,0.953636 -0.09375,1.34375 0.09498,1.301756 0.451616,2.521825 0.989039,3.664234 C 20.799917,36.321089 27.770982,19.392853 44.1875,21.03125 43.339652,19.54368 42.151282,18.185293 40.65625,16.96875 36.159865,13.309932 31.42016,9.8828973 26.8125,6.34375 26.805335,6.3388584 26.788292,6.317553 26.78125,6.3125 26.570707,6.1513121 26.216591,6.0306895 25.8125,6.03125 z"
         style="opacity:0.51999996;fill:url(#radialGradient29119);fill-opacity:1;fill-rule:evenodd;stroke:none" />
    </g>
    <path
       style="fill:url(#linearGradient4865);fill-opacity:1;stroke:none"
       d="m 127.84343,825.83068 c -53.526118,0 -96.982458,43.00013 -97.749998,96.34374 10.00972,-5.92814 19.73394,-10.88682 25.9375,-13.75 14.28326,-6.59228 49.445408,-6.58732 61.531248,-1.09375 12.08584,5.49356 32.95038,9.88345 43.9375,1.09375 10.98712,-8.78969 8.80204,-16.48658 31.875,-26.37499 5.67666,-2.43286 12.40919,-4.6447 19.625,-6.53125 -16.79408,-29.65649 -48.64174,-49.6875 -85.15625,-49.6875 z"
       id="path4852" />
  </g>
</svg>
