<?xml version="1.0" encoding="UTF-8" standalone="no"?>
<!-- Created with Inkscape (http://www.inkscape.org/) -->

<svg
   xmlns:dc="http://purl.org/dc/elements/1.1/"
   xmlns:cc="http://creativecommons.org/ns#"
   xmlns:rdf="http://www.w3.org/1999/02/22-rdf-syntax-ns#"
   xmlns:svg="http://www.w3.org/2000/svg"
   xmlns="http://www.w3.org/2000/svg"
   xmlns:xlink="http://www.w3.org/1999/xlink"
   xmlns:sodipodi="http://sodipodi.sourceforge.net/DTD/sodipodi-0.dtd"
   xmlns:inkscape="http://www.inkscape.org/namespaces/inkscape"
   width="256"
   height="256"
   id="svg27350"
   version="1.1"
   inkscape:version="0.47pre0 r21549"
   sodipodi:docname="Nouveau document 22"
   inkscape:output_extension="org.inkscape.output.svg.inkscape">
  <defs
     id="defs27352">
    <inkscape:perspective
       sodipodi:type="inkscape:persp3d"
       inkscape:vp_x="0 : 526.18109 : 1"
       inkscape:vp_y="0 : 1000 : 0"
       inkscape:vp_z="744.09448 : 526.18109 : 1"
       inkscape:persp3d-origin="372.04724 : 350.78739 : 1"
       id="perspective27358" />
    <inkscape:perspective
       id="perspective27204"
       inkscape:persp3d-origin="0.5 : 0.33333333 : 1"
       inkscape:vp_z="1 : 0.5 : 1"
       inkscape:vp_y="0 : 1000 : 0"
       inkscape:vp_x="0 : 0.5 : 1"
       sodipodi:type="inkscape:persp3d" />
    <radialGradient
       inkscape:collect="always"
       xlink:href="#linearGradient4824"
       id="radialGradient4830"
       cx="15.593588"
       cy="88.653885"
       fx="15.593588"
       fy="88.653885"
       r="114.76744"
       gradientUnits="userSpaceOnUse" />
    <linearGradient
       inkscape:collect="always"
       id="linearGradient4824">
      <stop
         style="stop-color:#ffffff;stop-opacity:1;"
         offset="0"
         id="stop4826" />
      <stop
         style="stop-color:#ffffff;stop-opacity:0;"
         offset="1"
         id="stop4828" />
    </linearGradient>
    <radialGradient
       inkscape:collect="always"
       xlink:href="#linearGradient4824"
       id="radialGradient4838"
       gradientUnits="userSpaceOnUse"
       cx="219.53087"
       cy="98.953751"
       fx="219.53087"
       fy="98.953751"
       r="114.76744" />
    <radialGradient
       inkscape:collect="always"
       xlink:href="#linearGradient4824"
       id="radialGradient4842"
       gradientUnits="userSpaceOnUse"
       cx="117.56223"
       cy="1.6960773"
       fx="117.56223"
       fy="1.6960773"
       r="114.76744"
       gradientTransform="matrix(1.439753,0,0,1,-51.698347,0)" />
    <linearGradient
       inkscape:collect="always"
       xlink:href="#linearGradient3920-809"
       id="linearGradient2117"
       gradientUnits="userSpaceOnUse"
       x1="-736.93536"
       y1="410.93362"
       x2="-588.77887"
       y2="410.93362" />
    <linearGradient
       inkscape:collect="always"
       id="linearGradient3920-809">
      <stop
         style="stop-color:#737471;stop-opacity:1;"
         offset="0"
         id="stop4578" />
      <stop
         style="stop-color:#737471;stop-opacity:0;"
         offset="1"
         id="stop4580" />
    </linearGradient>
    <linearGradient
       inkscape:collect="always"
       xlink:href="#linearGradient3651-27"
       id="linearGradient2119"
       gradientUnits="userSpaceOnUse"
       x1="-60.296066"
       y1="497.17868"
       x2="796.88208"
       y2="449.75574" />
    <linearGradient
       inkscape:collect="always"
       id="linearGradient3651-27">
      <stop
         style="stop-color:#86888d;stop-opacity:1;"
         offset="0"
         id="stop4584" />
      <stop
         style="stop-color:#86888d;stop-opacity:0;"
         offset="1"
         id="stop4586" />
    </linearGradient>
    <radialGradient
       inkscape:collect="always"
       xlink:href="#linearGradient3275"
       id="radialGradient2121"
       gradientUnits="userSpaceOnUse"
       gradientTransform="matrix(0.7150425,0.1084891,-0.2502275,1.5772245,219.48874,-319.69498)"
       cx="272.40131"
       cy="499.36295"
       fx="272.40131"
       fy="499.36295"
       r="185.71428" />
    <linearGradient
       inkscape:collect="always"
       id="linearGradient3275">
      <stop
         style="stop-color:#0b0c08;stop-opacity:1;"
         offset="0"
         id="stop3277" />
      <stop
         style="stop-color:#0b0c08;stop-opacity:0.2962963"
         offset="1"
         id="stop3279" />
    </linearGradient>
    <filter
       color-interpolation-filters="sRGB"
       inkscape:collect="always"
       id="filter3271"
       x="-0.59353036"
       width="2.1870606"
       y="-0.57021672"
       height="2.1404335">
      <feGaussianBlur
         inkscape:collect="always"
         stdDeviation="9.9443573"
         id="feGaussianBlur3273" />
    </filter>
    <radialGradient
       inkscape:collect="always"
       xlink:href="#linearGradient3956-485-5"
       id="radialGradient2123"
       gradientUnits="userSpaceOnUse"
       gradientTransform="matrix(0.5651935,-0.00119752,-0.00130538,0.9364556,214.62469,27.887266)"
       cx="535.8233"
       cy="510.30014"
       fx="535.8233"
       fy="510.30014"
       r="185.71428" />
    <linearGradient
       inkscape:collect="always"
       id="linearGradient3956-485-5">
      <stop
         style="stop-color:#cfcfcf;stop-opacity:1;"
         offset="0"
         id="stop4596-4" />
      <stop
         style="stop-color:#cfcfcf;stop-opacity:0;"
         offset="1"
         id="stop4598-8" />
    </linearGradient>
    <filter
       color-interpolation-filters="sRGB"
       inkscape:collect="always"
       id="filter3988"
       x="-0.19698875"
       width="1.3939775"
       y="-0.1484981"
       height="1.2969962">
      <feGaussianBlur
         inkscape:collect="always"
         stdDeviation="30.898605"
         id="feGaussianBlur3990" />
    </filter>
    <linearGradient
       inkscape:collect="always"
       xlink:href="#linearGradient2780"
       id="linearGradient2125"
       gradientUnits="userSpaceOnUse"
       gradientTransform="matrix(0.3488509,0,0,0.5207252,10.906303,10.813853)"
       x1="35.995708"
       y1="1.624638"
       x2="35.995708"
       y2="11.710631" />
    <linearGradient
       id="linearGradient2780">
      <stop
         id="stop2782"
         offset="0.00000000"
         style="stop-color:#ffffff;stop-opacity:1.0000000;" />
      <stop
         id="stop2784"
         offset="1.0000000"
         style="stop-color:#ffffff;stop-opacity:0.00000000;" />
    </linearGradient>
    <linearGradient
       inkscape:collect="always"
       xlink:href="#linearGradient2780"
       id="linearGradient2127"
       gradientUnits="userSpaceOnUse"
       gradientTransform="matrix(0.3500297,0,0,0.5288644,10.906303,10.38153)"
       x1="38.362892"
       y1="11.170151"
       x2="39.723621"
       y2="6.0918369" />
    <linearGradient
       id="linearGradient27251">
      <stop
         id="stop27253"
         offset="0.00000000"
         style="stop-color:#ffffff;stop-opacity:1.0000000;" />
      <stop
         id="stop27255"
         offset="1.0000000"
         style="stop-color:#ffffff;stop-opacity:0.00000000;" />
    </linearGradient>
    <radialGradient
       inkscape:collect="always"
       xlink:href="#linearGradient2834"
       id="radialGradient2129"
       gradientUnits="userSpaceOnUse"
       gradientTransform="matrix(0.5058668,0,0,0.3690521,10.830836,10.38153)"
       cx="21.595108"
       cy="8.9813547"
       fx="21.595108"
       fy="8.9813547"
       r="6.0678878" />
    <linearGradient
       id="linearGradient2834">
      <stop
         id="stop2836"
         offset="0.00000000"
         style="stop-color:#ffe19c;stop-opacity:1.0000000;" />
      <stop
         id="stop2838"
         offset="1.0000000"
         style="stop-color:#b79e4f;stop-opacity:0.00000000;" />
    </linearGradient>
    <radialGradient
       inkscape:collect="always"
       xlink:href="#linearGradient2834"
       id="radialGradient2131"
       gradientUnits="userSpaceOnUse"
       gradientTransform="matrix(-0.5058668,0,0,0.3690521,38.517999,10.360134)"
       cx="21.595108"
       cy="8.9813547"
       fx="21.595108"
       fy="8.9813547"
       r="6.0678878" />
    <linearGradient
       id="linearGradient27262">
      <stop
         id="stop27264"
         offset="0.00000000"
         style="stop-color:#ffe19c;stop-opacity:1.0000000;" />
      <stop
         id="stop27266"
         offset="1.0000000"
         style="stop-color:#b79e4f;stop-opacity:0.00000000;" />
    </linearGradient>
    <linearGradient
       inkscape:collect="always"
       xlink:href="#linearGradient2780"
       id="linearGradient2133"
       gradientUnits="userSpaceOnUse"
       gradientTransform="matrix(0.3488509,0,0,0.5306512,10.906303,10.38153)"
       x1="38.781849"
       y1="9.5745525"
       x2="38.781849"
       y2="7.5863166" />
    <linearGradient
       id="linearGradient27269">
      <stop
         id="stop27271"
         offset="0.00000000"
         style="stop-color:#ffffff;stop-opacity:1.0000000;" />
      <stop
         id="stop27273"
         offset="1.0000000"
         style="stop-color:#ffffff;stop-opacity:0.00000000;" />
    </linearGradient>
    <linearGradient
       inkscape:collect="always"
       xlink:href="#linearGradient2780"
       id="linearGradient2135"
       gradientUnits="userSpaceOnUse"
       gradientTransform="matrix(0.4724482,0,0,0.4198773,10.593244,9.9201385)"
       x1="33.184048"
       y1="24.384579"
       x2="33.184048"
       y2="-13.170087" />
    <linearGradient
       id="linearGradient27276">
      <stop
         id="stop27278"
         offset="0.00000000"
         style="stop-color:#ffffff;stop-opacity:1.0000000;" />
      <stop
         id="stop27280"
         offset="1.0000000"
         style="stop-color:#ffffff;stop-opacity:0.00000000;" />
    </linearGradient>
    <radialGradient
       inkscape:collect="always"
       xlink:href="#linearGradient3057"
       id="radialGradient2137"
       gradientUnits="userSpaceOnUse"
       gradientTransform="matrix(1.6098614,0,0,0.11499,11.76681,10.38153)"
       cx="8.0178375"
       cy="231.98276"
       fx="8.0178375"
       fy="231.98276"
       r="7.483315" />
    <linearGradient
       id="linearGradient3057">
      <stop
         id="stop3059"
         offset="0.00000000"
         style="stop-color:#282828;stop-opacity:1.0000000;" />
      <stop
         id="stop3061"
         offset="1.0000000"
         style="stop-color:#282828;stop-opacity:0.00000000;" />
    </linearGradient>
    <radialGradient
       inkscape:collect="always"
       xlink:href="#linearGradient3057"
       id="radialGradient2139"
       gradientUnits="userSpaceOnUse"
       gradientTransform="matrix(1.6098614,0,0,0.1437375,11.76681,3.0672182)"
       cx="8.0178375"
       cy="231.98276"
       fx="8.0178375"
       fy="231.98276"
       r="7.483315" />
    <linearGradient
       id="linearGradient27287">
      <stop
         id="stop27289"
         offset="0.00000000"
         style="stop-color:#282828;stop-opacity:1.0000000;" />
      <stop
         id="stop27291"
         offset="1.0000000"
         style="stop-color:#282828;stop-opacity:0.00000000;" />
    </linearGradient>
    <radialGradient
       inkscape:collect="always"
       xlink:href="#linearGradient3057"
       id="radialGradient2141"
       gradientUnits="userSpaceOnUse"
       gradientTransform="matrix(1.6098614,0,0,0.11499,11.76681,9.9512767)"
       cx="8.0178375"
       cy="231.98276"
       fx="8.0178375"
       fy="231.98276"
       r="7.483315" />
    <linearGradient
       id="linearGradient27294">
      <stop
         id="stop27296"
         offset="0.00000000"
         style="stop-color:#282828;stop-opacity:1.0000000;" />
      <stop
         id="stop27298"
         offset="1.0000000"
         style="stop-color:#282828;stop-opacity:0.00000000;" />
    </linearGradient>
    <linearGradient
       inkscape:collect="always"
       xlink:href="#linearGradient2701"
       id="linearGradient2143"
       gradientUnits="userSpaceOnUse"
       gradientTransform="matrix(0.4599604,0,0,0.3785298,10.906303,11.314503)"
       spreadMethod="reflect"
       x1="29.613848"
       y1="52.608921"
       x2="44.723549"
       y2="52.608921" />
    <linearGradient
       id="linearGradient2701">
      <stop
         id="stop2703"
         offset="0.00000000"
         style="stop-color:#a47c44;stop-opacity:1.0000000;" />
      <stop
         id="stop2770"
         offset="0.75000000"
         style="stop-color:#baa363;stop-opacity:1.0000000;" />
      <stop
         id="stop2705"
         offset="1.0000000"
         style="stop-color:#d6c795;stop-opacity:1.0000000;" />
    </linearGradient>
    <linearGradient
       inkscape:collect="always"
       xlink:href="#linearGradient2780"
       id="linearGradient2145"
       gradientUnits="userSpaceOnUse"
       gradientTransform="matrix(0.4566076,0,0,0.3903144,11.419317,10.167774)"
       spreadMethod="pad"
       x1="26.974447"
       y1="68.680031"
       x2="26.974447"
       y2="44.981197" />
    <linearGradient
       id="linearGradient27306">
      <stop
         id="stop27308"
         offset="0.00000000"
         style="stop-color:#ffffff;stop-opacity:1.0000000;" />
      <stop
         id="stop27310"
         offset="1.0000000"
         style="stop-color:#ffffff;stop-opacity:0.00000000;" />
    </linearGradient>
    <linearGradient
       inkscape:collect="always"
       xlink:href="#linearGradient4859"
       id="linearGradient4865"
       x1="121.54688"
       y1="-8.986186"
       x2="121.54688"
       y2="143.39191"
       gradientUnits="userSpaceOnUse" />
    <linearGradient
       inkscape:collect="always"
       id="linearGradient4859">
      <stop
         style="stop-color:#ffffff;stop-opacity:1;"
         offset="0"
         id="stop4861" />
      <stop
         style="stop-color:#ffffff;stop-opacity:0;"
         offset="1"
         id="stop4863" />
    </linearGradient>
  </defs>
  <sodipodi:namedview
     id="base"
     pagecolor="#ffffff"
     bordercolor="#666666"
     borderopacity="1.0"
     inkscape:pageopacity="0.0"
     inkscape:pageshadow="2"
     inkscape:zoom="0.35"
     inkscape:cx="375"
     inkscape:cy="520"
     inkscape:document-units="px"
     inkscape:current-layer="layer1"
     showgrid="false"
     inkscape:window-width="946"
     inkscape:window-height="485"
     inkscape:window-x="718"
     inkscape:window-y="539"
     inkscape:window-maximized="0" />
  <metadata
     id="metadata27355">
    <rdf:RDF>
      <cc:Work
         rdf:about="">
        <dc:format>image/svg+xml</dc:format>
        <dc:type
           rdf:resource="http://purl.org/dc/dcmitype/StillImage" />
        <dc:title></dc:title>
      </cc:Work>
    </rdf:RDF>
  </metadata>
  <g
     inkscape:label="Calque 1"
     inkscape:groupmode="layer"
     id="layer1"
     transform="translate(0,-796.36218)">
    <g
       transform="translate(-3.1235624e-4,796.36192)"
       id="g27161">
      <path
         transform="matrix(1.15625,0,0,1.15625,-8.480688,-8.309014)"
         d="m 223.03862,116.46352 c 0,58.253 -47.22339,105.47638 -105.47639,105.47638 -58.252997,0 -105.476384,-47.22338 -105.476384,-105.47638 0,-58.253004 47.223387,-105.476391 105.476384,-105.476391 58.253,0 105.47639,47.223387 105.47639,105.476391 z"
         sodipodi:ry="105.47639"
         sodipodi:rx="105.47639"
         sodipodi:cy="116.46352"
         sodipodi:cx="117.56223"
         id="path4820"
         style="fill:#000000;fill-opacity:1;stroke:none"
         sodipodi:type="arc" />
      <path
         sodipodi:type="arc"
         style="fill:none;stroke:url(#radialGradient4830);stroke-width:18.58210373;stroke-miterlimit:4;stroke-opacity:1;stroke-dasharray:none"
         id="path4822"
         sodipodi:cx="117.56223"
         sodipodi:cy="116.46352"
         sodipodi:rx="105.47639"
         sodipodi:ry="105.47639"
         d="m 223.03862,116.46352 c 0,58.253 -47.22339,105.47638 -105.47639,105.47638 -58.252997,0 -105.476384,-47.22338 -105.476384,-105.47638 0,-58.253004 47.223387,-105.476391 105.476384,-105.476391 58.253,0 105.47639,47.223387 105.47639,105.476391 z"
         transform="matrix(1.0667253,0,0,1.0667253,2.0440348,2.1173465)" />
      <path
         transform="matrix(1.0667253,0,0,1.0667253,2.0440348,2.1173465)"
         d="m 223.03862,116.46352 c 0,58.253 -47.22339,105.47638 -105.47639,105.47638 -58.252997,0 -105.476384,-47.22338 -105.476384,-105.47638 0,-58.253004 47.223387,-105.476391 105.476384,-105.476391 58.253,0 105.47639,47.223387 105.47639,105.476391 z"
         sodipodi:ry="105.47639"
         sodipodi:rx="105.47639"
         sodipodi:cy="116.46352"
         sodipodi:cx="117.56223"
         id="path4836"
         style="fill:none;stroke:url(#radialGradient4838);stroke-width:18.58210373;stroke-miterlimit:4;stroke-opacity:1;stroke-dasharray:none"
         sodipodi:type="arc" />
      <path
         sodipodi:type="arc"
         style="fill:none;stroke:url(#radialGradient4842);stroke-width:18.58210373;stroke-miterlimit:4;stroke-opacity:1;stroke-dasharray:none"
         id="path4840"
         sodipodi:cx="117.56223"
         sodipodi:cy="116.46352"
         sodipodi:rx="105.47639"
         sodipodi:ry="105.47639"
         d="m 223.03862,116.46352 c 0,58.253 -47.22339,105.47638 -105.47639,105.47638 -58.252997,0 -105.476384,-47.22338 -105.476384,-105.47638 0,-58.253004 47.223387,-105.476391 105.476384,-105.476391 58.253,0 105.47639,47.223387 105.47639,105.476391 z"
         transform="matrix(1.0667253,0,0,1.0667253,2.0440348,2.1173465)" />
      <g
         transform="matrix(0.29585436,0,0,0.29585436,58.238844,47.138622)"
         id="g1964">
        <path
           sodipodi:type="arc"
           style="fill:url(#linearGradient2117);fill-opacity:1;stroke:#130c07;stroke-width:5.29940796;stroke-linecap:round;stroke-linejoin:round;stroke-miterlimit:10;stroke-opacity:1;stroke-dasharray:none"
           id="path3918"
           sodipodi:cx="-662.85712"
           sodipodi:cy="410.93362"
           sodipodi:rx="71.428574"
           sodipodi:ry="112.85714"
           d="m -591.42854,410.93362 c 0,62.32928 -31.97966,112.85714 -71.42858,112.85714 -39.44891,0 -71.42857,-50.52786 -71.42857,-112.85714 0,-62.32927 31.97966,-112.85714 71.42857,-112.85714 39.44892,0 71.42858,50.52787 71.42858,112.85714 z"
           transform="matrix(0.7855657,0.179442,-0.1763918,0.7991495,668.34602,25.76631)" />
        <path
           transform="matrix(0.8962446,0.00816866,-0.04112372,0.8210516,713.8384,-80.763745)"
           d="m -591.42854,410.93362 c 0,62.32928 -31.97966,112.85714 -71.42858,112.85714 -39.44891,0 -71.42857,-50.52786 -71.42857,-112.85714 0,-62.32927 31.97966,-112.85714 71.42857,-112.85714 39.44892,0 71.42858,50.52787 71.42858,112.85714 z"
           sodipodi:ry="112.85714"
           sodipodi:rx="71.428574"
           sodipodi:cy="410.93362"
           sodipodi:cx="-662.85712"
           id="path3928"
           style="fill:#342b34;fill-opacity:1;stroke:#e6e6e6;stroke-width:3.66774511;stroke-linecap:round;stroke-linejoin:round;stroke-miterlimit:10;stroke-opacity:1;stroke-dasharray:none"
           sodipodi:type="arc" />
        <path
           style="fill:#1e1e17;fill-opacity:1;stroke:none"
           d="M 263.66072,19.14731 C 169.16971,19.00172 81.9999,117.78657 64.06697,250.33481 44.93852,391.7196 111.81343,518.24019 213.34822,532.77231 314.883,547.30444 412.81351,444.3446 431.94197,302.95981 451.07042,161.57502 384.19551,35.05443 282.66072,20.52231 c -6.34593,-0.90826 -12.7006,-1.36529 -19,-1.375 z m -26.1875,48.5625 c 4.95341,0.0076 9.91625,0.37956 14.90625,1.09375 C 332.21935,80.23062 384.827,179.72217 369.78572,290.89731 354.74444,402.07245 277.71935,483.04311 197.87947,471.61606 118.03958,460.18901 65.46319,360.6662 80.50447,249.49106 94.60567,145.26435 163.17207,67.59532 237.47322,67.70981 z"
           id="path3669" />
        <path
           transform="matrix(0.9904453,0.1417571,-0.1378244,1.0187063,-87.232949,-294.48481)"
           d="m 594.28572,503.79074 c 0,138.86017 -83.14711,251.42857 -185.71428,251.42857 -102.56716,0 -185.71428,-112.5684 -185.71428,-251.42857 0,-138.86017 83.14712,-251.42857 185.71428,-251.42857 102.56717,0 185.71428,112.5684 185.71428,251.42857 z"
           sodipodi:ry="251.42857"
           sodipodi:rx="185.71428"
           sodipodi:cy="503.79074"
           sodipodi:cx="408.57144"
           id="path3665"
           style="fill:none;stroke:url(#linearGradient2119);stroke-width:16.3722496;stroke-linecap:round;stroke-linejoin:round;stroke-miterlimit:10;stroke-opacity:1;stroke-dasharray:none"
           sodipodi:type="arc" />
        <path
           sodipodi:type="arc"
           style="fill:none;stroke:#8c9395;stroke-width:16.3722496;stroke-linecap:round;stroke-linejoin:round;stroke-miterlimit:10;stroke-opacity:1;stroke-dasharray:none"
           id="path2879"
           sodipodi:cx="408.57144"
           sodipodi:cy="503.79074"
           sodipodi:rx="185.71428"
           sodipodi:ry="251.42857"
           d="m 594.28572,503.79074 c 0,138.86017 -83.14711,251.42857 -185.71428,251.42857 -102.56716,0 -185.71428,-112.5684 -185.71428,-251.42857 0,-138.86017 83.14712,-251.42857 185.71428,-251.42857 102.56717,0 185.71428,112.5684 185.71428,251.42857 z"
           transform="matrix(0.9904453,0.1417571,-0.1378244,1.0187063,-90.090091,-300.1991)" />
        <path
           sodipodi:type="arc"
           style="fill:#77797b;fill-opacity:1;stroke:none"
           id="path3686"
           sodipodi:cx="408.57144"
           sodipodi:cy="503.79074"
           sodipodi:rx="185.71428"
           sodipodi:ry="251.42857"
           d="m 594.28572,503.79074 c 0,138.86017 -83.14711,251.42857 -185.71428,251.42857 -102.56716,0 -185.71428,-112.5684 -185.71428,-251.42857 0,-138.86017 83.14712,-251.42857 185.71428,-251.42857 102.56717,0 185.71428,112.5684 185.71428,251.42857 z"
           transform="matrix(0.793759,0.1484388,-0.146804,0.8109902,-21.2935,-200.79641)" />
        <path
           transform="matrix(0.8847575,0.1484388,-0.163634,0.8109902,-37.376091,-203.19984)"
           d="m 594.28572,503.79074 c 0,138.86017 -83.14711,251.42857 -185.71428,251.42857 -102.56716,0 -185.71428,-112.5684 -185.71428,-251.42857 0,-138.86017 83.14712,-251.42857 185.71428,-251.42857 102.56717,0 185.71428,112.5684 185.71428,251.42857 z"
           sodipodi:ry="251.42857"
           sodipodi:rx="185.71428"
           sodipodi:cy="503.79074"
           sodipodi:cx="408.57144"
           id="path3992"
           style="fill:url(#radialGradient2121);fill-opacity:1;stroke:none"
           sodipodi:type="arc" />
        <path
           sodipodi:type="arc"
           style="fill:#000200;fill-opacity:1;stroke:none"
           id="path3698"
           sodipodi:cx="-521.42859"
           sodipodi:cy="446.64789"
           sodipodi:rx="67.14286"
           sodipodi:ry="97.14286"
           d="m -454.28573,446.64789 c 0,53.65052 -30.06088,97.14286 -67.14286,97.14286 -37.08198,0 -67.14286,-43.49234 -67.14286,-97.14286 0,-53.65052 30.06088,-97.14286 67.14286,-97.14286 37.08198,0 67.14286,43.49234 67.14286,97.14286 z"
           transform="matrix(1.0855334,0.1842435,-0.203486,0.9828806,836.34331,-81.998163)" />
        <path
           sodipodi:type="arc"
           style="fill:#2b2932;fill-opacity:1;stroke:none"
           id="path3700"
           sodipodi:cx="-494.28571"
           sodipodi:cy="463.79074"
           sodipodi:rx="60"
           sodipodi:ry="60"
           d="m -434.28571,463.79074 c 0,33.13709 -26.86291,60 -60,60 -33.13708,0 -60,-26.86291 -60,-60 0,-33.13708 26.86292,-60 60,-60 33.13709,0 60,26.86292 60,60 z"
           transform="matrix(0.9047619,0,0,1,638.06803,-202.85715)" />
        <path
           sodipodi:type="arc"
           style="fill:#e6e6e6;fill-opacity:1;stroke:none;filter:url(#filter3271)"
           id="path3702"
           sodipodi:cx="-495.71429"
           sodipodi:cy="353.79074"
           sodipodi:rx="21.428572"
           sodipodi:ry="18.571428"
           d="m -474.28572,353.79074 c 0,10.25672 -9.5939,18.57143 -21.42857,18.57143 -11.83468,0 -21.42858,-8.31471 -21.42858,-18.57143 0,-10.25672 9.5939,-18.57143 21.42858,-18.57143 11.83467,0 21.42857,8.31471 21.42857,18.57143 z"
           transform="matrix(0.9573576,0.5094699,-0.3866252,0.7464761,780.65391,231.3432)" />
        <path
           transform="matrix(0.793759,0.1484388,-0.146804,0.8109902,-29.999828,-226.5107)"
           d="m 594.28572,503.79074 c 0,138.86017 -83.14711,251.42857 -185.71428,251.42857 -102.56716,0 -185.71428,-112.5684 -185.71428,-251.42857 0,-138.86017 83.14712,-251.42857 185.71428,-251.42857 102.56717,0 185.71428,112.5684 185.71428,251.42857 z"
           sodipodi:ry="251.42857"
           sodipodi:rx="185.71428"
           sodipodi:cy="503.79074"
           sodipodi:cx="408.57144"
           id="path3954"
           style="fill:url(#radialGradient2123);fill-opacity:1;stroke:none;filter:url(#filter3988)"
           sodipodi:type="arc" />
        <g
           id="g2975"
           transform="matrix(10.088473,0,0,10.088473,34.811482,127.3297)">
          <path
             d="m 24.674418,10.811784 c -4.290489,0 -7.744565,3.454076 -7.744565,7.744565 l 0,8.605072 2.151268,0 0,-8.605072 c 0,-3.098687 2.494611,-5.593297 5.593297,-5.593297 3.098687,0 5.593297,2.49461 5.593297,5.593297 l 0,8.605072 2.151268,0 0,-8.605072 c 0,-4.290489 -3.454076,-7.744565 -7.744565,-7.744565 z"
             id="rect2723"
             style="fill:#282828;fill-opacity:1;fill-rule:evenodd;stroke:none" />
          <path
             d="m 24.674418,11.373803 c -4.052128,0 -7.314311,3.485625 -7.314311,7.461958 l 0,8.02191 c 0,3.011651 1.876006,5.568275 4.544554,6.636547 -1.912029,-0.870603 -3.253793,-2.736045 -3.253793,-4.947725 l 0,-10.132937 c 0,-3.040726 2.49461,-5.690421 5.593297,-5.690421 l 0.860507,0 c 3.098686,0 5.593297,2.649695 5.593297,5.690421 l 0,10.132937 c 0,2.21168 -1.341765,4.077122 -3.253793,4.947725 2.668548,-1.068272 4.544554,-3.624896 4.544554,-6.636547 l 0,-8.02191 c 0,-3.976333 -3.262183,-7.461958 -7.314312,-7.461958 z"
             id="path3082"
             style="opacity:0.65;fill:url(#linearGradient2125);fill-opacity:1;fill-rule:evenodd;stroke:none" />
          <path
             d="m 24.674418,10.994319 c -4.170385,0 -7.527771,3.334814 -7.527771,7.477162 l 0,8.356828 c 0,3.13739 1.930755,5.800757 4.677181,6.913626 -1.967829,-0.906949 -3.348751,-2.850275 -3.348751,-5.154293 l 0,-10.555994 c 0,-3.167677 2.567414,-6.21651 5.756531,-6.21651 l 0.88562,0 c 3.189118,0 5.756531,3.048833 5.756531,6.21651 l 0,10.555994 c 0,2.304018 -1.380922,4.247344 -3.348751,5.154293 2.746427,-1.112869 4.677181,-3.776236 4.677181,-6.913626 l 0,-8.356828 c 0,-4.142348 -3.357386,-7.477162 -7.527771,-7.477162 z"
             id="path2931"
             style="opacity:0.5;fill:url(#linearGradient2127);fill-opacity:1;fill-rule:evenodd;stroke:none" />
          <path
             d="m 21.491915,12.950028 c -1.162489,0.727893 -1.816652,1.968721 -1.688568,2.382342 0.13801,0.445671 0.954776,-1.546219 3.266871,-2.163085 1.782846,-0.475662 -1.05e-4,-1.207444 -1.578303,-0.219257 z"
             id="path2861"
             style="opacity:0.8;fill:url(#radialGradient2129);fill-opacity:1;fill-rule:evenodd;stroke:none" />
          <path
             d="m 27.856921,12.928632 c 1.16249,0.727892 1.816653,1.96872 1.688568,2.382341 -0.138009,0.445672 -0.954775,-1.546219 -3.266871,-2.163084 -1.782846,-0.475662 1.06e-4,-1.207445 1.578303,-0.219257 z"
             id="path2871"
             style="opacity:0.8;fill:url(#radialGradient2131);fill-opacity:1;fill-rule:evenodd;stroke:none" />
          <path
             d="m 24.674418,11.726532 c -4.052128,0 -7.314311,2.777689 -7.314311,6.829817 l 0,8.174819 c 0,3.069058 1.876006,5.674416 4.544554,6.76305 -1.912029,-0.887199 -3.253793,-2.788198 -3.253793,-5.042036 l 0,-10.326086 c 0,-3.098687 2.49461,-5.596622 5.593297,-5.596622 l 0.860507,0 c 3.098686,0 5.593297,2.497935 5.593297,5.596622 l 0,10.326086 c 0,2.253838 -1.341765,4.154837 -3.253793,5.042036 2.668548,-1.088634 4.544554,-3.693992 4.544554,-6.76305 l 0,-8.174819 c 0,-4.052128 -3.262183,-6.829817 -7.314312,-6.829817 z"
             id="rect2875"
             style="opacity:0.5;fill:url(#linearGradient2133);fill-opacity:1;fill-rule:evenodd;stroke:none" />
          <path
             d="m 24.674418,11.247619 c -5.720477,0 -7.040586,4.983775 -7.040586,7.237794 0,6.76206 0.440036,6.76206 0.440036,0 0,-4.958843 3.518989,-6.916033 6.60055,-6.916033 3.081562,0 6.600551,2.159488 6.600551,6.916033 0,6.76206 0.440036,6.76206 0.440036,0 0,-2.254019 -1.32011,-7.237794 -7.040587,-7.237794 z"
             id="path2933"
             style="opacity:0.8;fill:url(#linearGradient2135);fill-opacity:1;fill-rule:evenodd;stroke:none" />
          <path
             d="m 36.721519,37.057253 c 0,0.475245 -5.393671,0.860507 -12.047101,0.860507 -6.65343,0 -12.047101,-0.385262 -12.047101,-0.860507 0,-0.475245 5.393671,-0.860507 12.047101,-0.860507 6.65343,0 12.047101,0.385262 12.047101,0.860507 l 0,0 z"
             id="path3055"
             style="opacity:0.4;fill:url(#radialGradient2137);fill-opacity:1;fill-rule:evenodd;stroke:none" />
          <path
             d="m 36.721519,36.411866 c 0,0.594056 -5.393671,1.075634 -12.047101,1.075634 -6.65343,0 -12.047101,-0.481578 -12.047101,-1.075634 0,-0.594056 5.393671,-1.075634 12.047101,-1.075634 6.65343,0 12.047101,0.481578 12.047101,1.075634 l 0,0 z"
             id="path3065"
             style="opacity:0.4;fill:url(#radialGradient2139);fill-opacity:1;fill-rule:evenodd;stroke:none" />
          <path
             d="m 36.721519,36.627 c 0,0.475245 -5.393671,0.860507 -12.047101,0.860507 -6.65343,0 -12.047101,-0.385262 -12.047101,-0.860507 0,-0.475245 5.393671,-0.860507 12.047101,-0.860507 6.65343,0 12.047101,0.385262 12.047101,0.860507 l 0,0 z"
             id="path3067"
             style="opacity:0.4;fill:url(#radialGradient2141);fill-opacity:1;fill-rule:evenodd;stroke:none" />
          <rect
             height="14.163282"
             id="rect1941"
             rx="0.10687799"
             ry="0.106878"
             style="fill:url(#linearGradient2143);fill-opacity:1;fill-rule:evenodd;stroke:none"
             width="17.210146"
             x="16.069345"
             y="22.64513" />
          <path
             d="m 16.607163,22.645129 c 0.386918,0.453516 3.878672,0.809331 8.262825,0.809331 4.323979,0 7.757901,-0.352089 8.226157,-0.796685 -0.0066,-6.88e-4 -0.0055,-0.01265 -0.01223,-0.01265 l -16.476757,0 z"
             id="path2727"
             style="opacity:0.5;fill:#ffffff;fill-opacity:1;fill-rule:evenodd;stroke:none" />
          <path
             d="m 32.958856,34.907356 0,1.685928 c 0,0.11918 -0.09237,0.215126 -0.207111,0.215126 l -16.154654,0 c -0.114739,0 -0.207111,-0.09595 -0.207111,-0.215126 l 0,-5.988463 c 0,6.30933 16.568876,-4.46301 16.568876,4.302535 z"
             id="rect3077"
             style="opacity:0.24999994;fill:url(#linearGradient2145);fill-opacity:1;fill-rule:evenodd;stroke:none" />
          <path
             d="m 16.39937,36.808413 c 0.386918,-0.453516 3.878671,-0.809332 8.262825,-0.809332 4.323979,0 7.757902,0.352088 8.226155,0.796686 -0.0066,6.88e-4 -0.0055,0.01265 -0.01222,0.01265 l -16.476758,0 z"
             id="path2768"
             style="opacity:0.5;fill:#000000;fill-opacity:1;fill-rule:evenodd;stroke:none" />
        </g>
      </g>
      <path
         id="path4852"
         d="m 127.84375,29.46875 c -53.526119,0 -96.982465,43.00013 -97.75,96.34375 10.009722,-5.92814 19.733937,-10.88682 25.9375,-13.75 14.283262,-6.59228 49.44541,-6.58732 61.53125,-1.09375 12.08584,5.49356 32.95038,9.88345 43.9375,1.09375 10.98712,-8.7897 8.80204,-16.486588 31.875,-26.375 5.67666,-2.432854 12.40919,-4.644697 19.625,-6.53125 -16.79408,-29.656481 -48.64174,-49.6875 -85.15625,-49.6875 z"
         style="fill:url(#linearGradient4865);fill-opacity:1;stroke:none" />
      <path
         style="fill:#ffffff;fill-opacity:0.75688076;fill-rule:nonzero;stroke:none"
         d="m 107.05404,59.212876 0,-4.176352 0,4.176352 z"
         id="path2276"
         sodipodi:nodetypes="ccc" />
    </g>
  </g>
</svg>
