<?xml version="1.0" encoding="UTF-8" standalone="no"?>
<!-- Created with Inkscape (http://www.inkscape.org/) -->

<svg
   xmlns:dc="http://purl.org/dc/elements/1.1/"
   xmlns:cc="http://creativecommons.org/ns#"
   xmlns:rdf="http://www.w3.org/1999/02/22-rdf-syntax-ns#"
   xmlns:svg="http://www.w3.org/2000/svg"
   xmlns="http://www.w3.org/2000/svg"
   xmlns:xlink="http://www.w3.org/1999/xlink"
   xmlns:sodipodi="http://sodipodi.sourceforge.net/DTD/sodipodi-0.dtd"
   xmlns:inkscape="http://www.inkscape.org/namespaces/inkscape"
   width="256"
   height="256"
   id="svg24071"
   version="1.1"
   inkscape:version="0.47pre0 r21549"
   sodipodi:docname="Nouveau document 16"
   inkscape:output_extension="org.inkscape.output.svg.inkscape">
  <defs
     id="defs24073">
    <inkscape:perspective
       sodipodi:type="inkscape:persp3d"
       inkscape:vp_x="0 : 526.18109 : 1"
       inkscape:vp_y="0 : 1000 : 0"
       inkscape:vp_z="744.09448 : 526.18109 : 1"
       inkscape:persp3d-origin="372.04724 : 350.78739 : 1"
       id="perspective24079" />
    <inkscape:perspective
       id="perspective24023"
       inkscape:persp3d-origin="0.5 : 0.33333333 : 1"
       inkscape:vp_z="1 : 0.5 : 1"
       inkscape:vp_y="0 : 1000 : 0"
       inkscape:vp_x="0 : 0.5 : 1"
       sodipodi:type="inkscape:persp3d" />
    <radialGradient
       inkscape:collect="always"
       xlink:href="#linearGradient4824"
       id="radialGradient4830"
       cx="15.593588"
       cy="88.653885"
       fx="15.593588"
       fy="88.653885"
       r="114.76744"
       gradientUnits="userSpaceOnUse" />
    <linearGradient
       inkscape:collect="always"
       id="linearGradient4824">
      <stop
         style="stop-color:#ffffff;stop-opacity:1;"
         offset="0"
         id="stop4826" />
      <stop
         style="stop-color:#ffffff;stop-opacity:0;"
         offset="1"
         id="stop4828" />
    </linearGradient>
    <radialGradient
       inkscape:collect="always"
       xlink:href="#linearGradient4824"
       id="radialGradient4838"
       gradientUnits="userSpaceOnUse"
       cx="219.53087"
       cy="98.953751"
       fx="219.53087"
       fy="98.953751"
       r="114.76744" />
    <radialGradient
       inkscape:collect="always"
       xlink:href="#linearGradient4824"
       id="radialGradient4842"
       gradientUnits="userSpaceOnUse"
       cx="117.56223"
       cy="1.6960773"
       fx="117.56223"
       fy="1.6960773"
       r="114.76744"
       gradientTransform="matrix(1.439753,0,0,1,-51.698347,0)" />
    <radialGradient
       inkscape:collect="always"
       xlink:href="#linearGradient7774"
       id="radialGradient9741"
       gradientUnits="userSpaceOnUse"
       gradientTransform="matrix(1,0,0,1.181868,20,-0.818355)"
       cx="14.893086"
       cy="3.5636892"
       fx="14.893086"
       fy="3.5636892"
       r="5.5" />
    <linearGradient
       inkscape:collect="always"
       id="linearGradient7774">
      <stop
         style="stop-color:#ffffff;stop-opacity:1;"
         offset="0"
         id="stop7776" />
      <stop
         style="stop-color:#ffffff;stop-opacity:0;"
         offset="1"
         id="stop7778" />
    </linearGradient>
    <radialGradient
       inkscape:collect="always"
       xlink:href="#linearGradient9686"
       id="radialGradient9743"
       gradientUnits="userSpaceOnUse"
       gradientTransform="matrix(0.741224,0,0,0.856531,-8.40312,3.628545)"
       cx="44.814384"
       cy="20.096273"
       fx="44.814384"
       fy="20.096273"
       r="11.375441" />
    <linearGradient
       id="linearGradient9686">
      <stop
         style="stop-color:#ffffff;stop-opacity:0.74901962;"
         offset="0"
         id="stop9688" />
      <stop
         style="stop-color:#ffffff;stop-opacity:0;"
         offset="1"
         id="stop9690" />
    </linearGradient>
    <linearGradient
       inkscape:collect="always"
       xlink:href="#linearGradient4859"
       id="linearGradient4865"
       x1="121.54688"
       y1="-8.986186"
       x2="121.54688"
       y2="143.39191"
       gradientUnits="userSpaceOnUse" />
    <linearGradient
       inkscape:collect="always"
       id="linearGradient4859">
      <stop
         style="stop-color:#ffffff;stop-opacity:1;"
         offset="0"
         id="stop4861" />
      <stop
         style="stop-color:#ffffff;stop-opacity:0;"
         offset="1"
         id="stop4863" />
    </linearGradient>
  </defs>
  <sodipodi:namedview
     id="base"
     pagecolor="#ffffff"
     bordercolor="#666666"
     borderopacity="1.0"
     inkscape:pageopacity="0.0"
     inkscape:pageshadow="2"
     inkscape:zoom="0.35"
     inkscape:cx="375"
     inkscape:cy="520"
     inkscape:document-units="px"
     inkscape:current-layer="layer1"
     showgrid="false"
     inkscape:window-width="741"
     inkscape:window-height="485"
     inkscape:window-x="923"
     inkscape:window-y="539"
     inkscape:window-maximized="0" />
  <metadata
     id="metadata24076">
    <rdf:RDF>
      <cc:Work
         rdf:about="">
        <dc:format>image/svg+xml</dc:format>
        <dc:type
           rdf:resource="http://purl.org/dc/dcmitype/StillImage" />
        <dc:title></dc:title>
      </cc:Work>
    </rdf:RDF>
  </metadata>
  <g
     inkscape:label="Calque 1"
     inkscape:groupmode="layer"
     id="layer1"
     transform="translate(0,-796.36218)">
    <g
       transform="translate(-3.1235624e-4,796.36192)"
       id="g24000">
      <path
         transform="matrix(1.15625,0,0,1.15625,-8.480688,-8.309014)"
         d="m 223.03862,116.46352 c 0,58.253 -47.22339,105.47638 -105.47639,105.47638 -58.252997,0 -105.476384,-47.22338 -105.476384,-105.47638 0,-58.253004 47.223387,-105.476391 105.476384,-105.476391 58.253,0 105.47639,47.223387 105.47639,105.476391 z"
         sodipodi:ry="105.47639"
         sodipodi:rx="105.47639"
         sodipodi:cy="116.46352"
         sodipodi:cx="117.56223"
         id="path4820"
         style="fill:#000000;fill-opacity:1;stroke:none"
         sodipodi:type="arc" />
      <path
         sodipodi:type="arc"
         style="fill:none;stroke:url(#radialGradient4830);stroke-width:18.58210373;stroke-miterlimit:4;stroke-opacity:1;stroke-dasharray:none"
         id="path4822"
         sodipodi:cx="117.56223"
         sodipodi:cy="116.46352"
         sodipodi:rx="105.47639"
         sodipodi:ry="105.47639"
         d="m 223.03862,116.46352 c 0,58.253 -47.22339,105.47638 -105.47639,105.47638 -58.252997,0 -105.476384,-47.22338 -105.476384,-105.47638 0,-58.253004 47.223387,-105.476391 105.476384,-105.476391 58.253,0 105.47639,47.223387 105.47639,105.476391 z"
         transform="matrix(1.0667253,0,0,1.0667253,2.0440348,2.1173465)" />
      <path
         transform="matrix(1.0667253,0,0,1.0667253,2.0440348,2.1173465)"
         d="m 223.03862,116.46352 c 0,58.253 -47.22339,105.47638 -105.47639,105.47638 -58.252997,0 -105.476384,-47.22338 -105.476384,-105.47638 0,-58.253004 47.223387,-105.476391 105.476384,-105.476391 58.253,0 105.47639,47.223387 105.47639,105.476391 z"
         sodipodi:ry="105.47639"
         sodipodi:rx="105.47639"
         sodipodi:cy="116.46352"
         sodipodi:cx="117.56223"
         id="path4836"
         style="fill:none;stroke:url(#radialGradient4838);stroke-width:18.58210373;stroke-miterlimit:4;stroke-opacity:1;stroke-dasharray:none"
         sodipodi:type="arc" />
      <path
         sodipodi:type="arc"
         style="fill:none;stroke:url(#radialGradient4842);stroke-width:18.58210373;stroke-miterlimit:4;stroke-opacity:1;stroke-dasharray:none"
         id="path4840"
         sodipodi:cx="117.56223"
         sodipodi:cy="116.46352"
         sodipodi:rx="105.47639"
         sodipodi:ry="105.47639"
         d="m 223.03862,116.46352 c 0,58.253 -47.22339,105.47638 -105.47639,105.47638 -58.252997,0 -105.476384,-47.22338 -105.476384,-105.47638 0,-58.253004 47.223387,-105.476391 105.476384,-105.476391 58.253,0 105.47639,47.223387 105.47639,105.476391 z"
         transform="matrix(1.0667253,0,0,1.0667253,2.0440348,2.1173465)" />
      <g
         transform="matrix(2.4242351,-0.88234867,0.88234867,2.4242351,68.024586,59.716673)"
         id="g9733">
        <g
           id="g7786"
           transform="translate(-20,0)">
          <path
             sodipodi:type="arc"
             style="fill:#92cf44;fill-opacity:1;fill-rule:nonzero;stroke:none"
             id="path7763"
             sodipodi:cx="24.336786"
             sodipodi:cy="4.0272045"
             sodipodi:rx="6.7795334"
             sodipodi:ry="6.7795334"
             d="m 31.11632,4.0272045 c 0,3.7442329 -3.035301,6.7795335 -6.779534,6.7795335 -3.744233,0 -6.779533,-3.0353006 -6.779533,-6.7795335 0,-3.74423289 3.0353,-6.7795334 6.779533,-6.7795334 3.744233,0 6.779534,3.03530051 6.779534,6.7795334 z"
             transform="matrix(1.327525,0,0,1.327525,-2.30769,0.653785)" />
          <path
             style="fill:url(#radialGradient9741);fill-opacity:1;fill-rule:nonzero;stroke:none"
             d="M 34.09375,-2 C 30.699935,-1.7846653 28,1.0521567 28,4.5 c 0,3.5879997 2.912,6.5 6.5,6.5 1.338492,0 2.590739,-0.39934 3.625,-1.09375 0.0047,-0.00984 -0.0047,-0.021394 0,-0.03125 C 38.685118,8.7021842 39,7.3856063 39,6 c 0,-3.4698375 -1.964843,-6.49818479 -4.84375,-8 -0.02768,0.0014 -0.03491,-0.00175 -0.0625,0 z"
             id="path7782" />
        </g>
        <g
           id="g9704">
          <path
             sodipodi:nodetypes="ccccccccccccccssssccc"
             style="fill:#0a51a1;fill-opacity:1;fill-rule:nonzero;stroke:none"
             d="m 16.5,14.625 0,4.90625 -12,0 0,-4.65625 c -8.367562,2.353607 -14.889805,9.137805 -16.875,17.65625 l 4.8125,0 0,12 -4.53125,0 C -9.73548,52.875124 -2.990869,59.385652 5.5,61.375 l 0,-4.90625 12,0 0,4.625 C 25.84996,58.745072 32.346682,51.995248 34.34375,43.5 L 24.25,43.5 C 22.089105,48.689318 16.963663,52.34375 11,52.34375 3.089649,52.34375 -3.34375,45.910351 -3.34375,38 c -1e-6,-7.848551 6.331102,-14.24452 14.15625,-14.34375 0.06161,-7.81e-4 0.1257,0 0.1875,0 5.160267,0 9.691464,2.744195 12.21875,6.84375 l 10.59375,0 C 31.221251,22.621606 24.663891,16.536097 16.5,14.625 z"
             id="path8810" />
          <path
             style="fill:url(#radialGradient9743);fill-opacity:1;fill-rule:nonzero;stroke:none"
             d="m 16.5,14.625 0,4.90625 -5.40625,0 c -0.02506,0.380295 -0.03125,0.76901 -0.03125,1.15625 0,1.013752 0.08627,2.001144 0.25,2.96875 5.034873,0.104582 9.428325,2.824264 11.90625,6.84375 l 10.59375,0 c -0.003,-0.0092 0.003,-0.02202 0,-0.03125 C 33.78943,30.3991 33.77369,30.319367 33.75,30.25 33.7427,30.22856 33.72611,30.20892 33.71875,30.1875 33.66981,30.04534 33.614028,29.922192 33.5625,29.78125 33.55142,29.75092 33.54245,29.71777 33.53125,29.6875 33.52185,29.66202 33.50953,29.61919 33.5,29.59375 33.4921,29.5726 33.47673,29.55237 33.46875,29.53125 33.45239,29.4879 33.4541,29.44948 33.4375,29.40625 33.42209,29.36612 33.39061,29.32128 33.375,29.28125 33.32109,29.143283 33.27513,29.011716 33.21875,28.875 c -0.01307,-0.03173 -0.0493,-0.06209 -0.0625,-0.09375 -0.0069,-0.01639 0.0069,-0.04612 0,-0.0625 C 33.14381,28.6891 33.13756,28.65459 33.125,28.625 33.10695,28.5825 33.08079,28.54237 33.0625,28.5 33.04305,28.45488 33.01972,28.41998 33,28.375 32.9944,28.36232 32.97433,28.35641 32.96875,28.34375 32.93941,28.27716 32.93618,28.191277 32.90625,28.125 32.88156,28.07041 32.83759,28.023123 32.8125,27.96875 32.79679,27.9346 32.79712,27.90907 32.78125,27.875 32.77155,27.85413 32.75979,27.83334 32.75,27.8125 32.7409,27.79316 32.72788,27.76931 32.71875,27.75 32.69905,27.7084 32.67618,27.66647 32.65625,27.625 32.63507,27.58083 32.6152,27.54402 32.59375,27.5 32.58775,27.4876 32.56857,27.48114 32.5625,27.46875 32.54843,27.44 32.54544,27.40369 32.53125,27.375 32.51698,27.34615 32.51438,27.31003 32.5,27.28125 32.4933,27.26778 32.4755,27.26345 32.46875,27.25 32.44813,27.20893 32.4271,27.16594 32.40625,27.125 32.38689,27.08701 32.3633,27.03787 32.34375,27 c -0.04215,-0.08161 -0.08194,-0.13769 -0.125,-0.21875 -0.06423,-0.121208 -0.121268,-0.255032 -0.1875,-0.375 -0.05716,-0.103534 -0.128865,-0.209905 -0.1875,-0.3125 C 31.83635,26.08072 31.81997,26.07551 31.8125,26.0625 31.78963,26.02281 31.77309,25.97705 31.75,25.9375 31.72547,25.89537 31.71227,25.85447 31.6875,25.8125 31.6805,25.80068 31.66326,25.79306 31.65625,25.78125 31.63905,25.75223 31.64232,25.71644 31.625,25.6875 31.61182,25.66552 31.57574,25.64694 31.5625,25.625 31.55153,25.60682 31.54227,25.58065 31.53125,25.5625 31.43627,25.406051 31.348426,25.279086 31.25,25.125 31.22387,25.08395 31.21387,25.04087 31.1875,25 31.1806,24.98926 31.16322,24.97948 31.15625,24.96875 31.14303,24.94834 31.13828,24.92662 31.125,24.90625 31.10264,24.87199 31.08503,24.84664 31.0625,24.8125 31.0548,24.80085 31.03895,24.79289 31.03125,24.78125 31.00601,24.74318 30.96296,24.69417 30.9375,24.65625 30.88856,24.58327 30.86222,24.509914 30.8125,24.4375 30.78145,24.39237 30.7501,24.32616 30.71875,24.28125 30.69481,24.24694 30.64911,24.22168 30.625,24.1875 30.60777,24.16308 30.57982,24.14935 30.5625,24.125 30.50516,24.04447 30.46455,23.954794 30.40625,23.875 30.34573,23.79203 30.280306,23.707155 30.21875,23.625 30.20671,23.60896 30.19958,23.57851 30.1875,23.5625 30.1791,23.55138 30.16465,23.54236 30.15625,23.53125 30.12323,23.48763 30.09581,23.44964 30.0625,23.40625 30.04085,23.378 30.02177,23.34065 30,23.3125 29.98139,23.28848 29.9562,23.27394 29.9375,23.25 c -0.0092,-0.01177 -0.02206,-0.01949 -0.03125,-0.03125 -0.02812,-0.03586 -0.06543,-0.0893 -0.09375,-0.125 -0.03776,-0.0476 -0.05564,-0.0777 -0.09375,-0.125 -0.01745,-0.02169 -0.04497,-0.04087 -0.0625,-0.0625 -0.02068,-0.02546 -0.04172,-0.06837 -0.0625,-0.09375 -0.0088,-0.01077 -0.02242,-0.02049 -0.03125,-0.03125 -0.03354,-0.04083 -0.05995,-0.08439 -0.09375,-0.125 C 29.43837,22.61968 29.4056,22.59888 29.375,22.5625 29.36373,22.54909 29.35505,22.54463 29.34375,22.53125 29.32979,22.51471 29.32651,22.48525 29.3125,22.46875 29.283,22.43405 29.24844,22.40953 29.21875,22.375 29.18654,22.33746 29.15743,22.28734 29.125,22.25 c -0.01,-0.01145 -0.02127,-0.01982 -0.03125,-0.03125 -0.02082,-0.02388 -0.04159,-0.0387 -0.0625,-0.0625 -0.02005,-0.02279 -0.04237,-0.03979 -0.0625,-0.0625 -0.0092,-0.01041 -0.02201,-0.02085 -0.03125,-0.03125 -0.116018,-0.130378 -0.224959,-0.278435 -0.34375,-0.40625 -0.0054,-0.0058 -0.02586,0.0058 -0.03125,0 -0.03619,-0.03887 -0.05731,-0.08637 -0.09375,-0.125 -0.05727,-0.0607 -0.129608,-0.127401 -0.1875,-0.1875 C 28.20757,21.26726 28.137179,21.200512 28.0625,21.125 28.04295,21.10523 28.01962,21.0822 28,21.0625 c -0.02677,-0.02687 -0.0356,-0.06701 -0.0625,-0.09375 -0.0056,-0.0056 -0.02563,0.0056 -0.03125,0 -0.03769,-0.0374 -0.05581,-0.08785 -0.09375,-0.125 -0.02538,-0.02487 -0.06826,-0.03774 -0.09375,-0.0625 -0.02178,-0.02113 -0.04064,-0.04145 -0.0625,-0.0625 C 27.64485,20.70776 27.63642,20.69847 27.625,20.6875 27.59215,20.65599 27.56428,20.62507 27.53125,20.59375 27.4954,20.55971 27.44231,20.53382 27.40625,20.5 27.34538,20.44291 27.31146,20.368961 27.25,20.3125 c -0.0057,-0.0052 -0.02556,0.0052 -0.03125,0 -0.04474,-0.04102 -0.07995,-0.08431 -0.125,-0.125 -0.02348,-0.02126 -0.03894,-0.04133 -0.0625,-0.0625 -0.01899,-0.01702 -0.04346,-0.04554 -0.0625,-0.0625 -0.01615,-0.0144 -0.04631,-0.0169 -0.0625,-0.03125 -0.03408,-0.0302 -0.0595,-0.06374 -0.09375,-0.09375 -0.03572,-0.03134 -0.05784,-0.06262 -0.09375,-0.09375 -0.01033,-0.0089 -0.02091,-0.02232 -0.03125,-0.03125 -0.05286,-0.04563 -0.102994,-0.07982 -0.15625,-0.125 -0.0059,-0.005 -0.02536,0.005 -0.03125,0 -0.04449,-0.03767 -0.08023,-0.08765 -0.125,-0.125 C 26.34461,19.53708 26.31177,19.52527 26.28125,19.5 26.2637,19.48548 26.26759,19.45197 26.25,19.4375 26.23128,19.4221 26.20626,19.4216 26.1875,19.40625 26.15224,19.3774 26.12918,19.3724 26.09375,19.34375 26.0553,19.3126 26.0074,19.28091 25.96875,19.25 25.95688,19.2405 25.94938,19.22821 25.9375,19.21875 25.9127,19.19899 25.89988,19.17591 25.875,19.15625 25.85497,19.14043 25.83258,19.10951 25.8125,19.09375 25.79546,19.08039 25.76708,19.07582 25.75,19.0625 25.67815,19.00639 25.603748,18.961554 25.53125,18.90625 25.51917,18.89705 25.5121,18.88419 25.5,18.875 25.47781,18.85816 25.45975,18.82926 25.4375,18.8125 25.40837,18.79054 25.37298,18.77183 25.34375,18.75 c -0.0062,-0.0046 -0.02504,0.0046 -0.03125,0 -0.04754,-0.03542 -0.07719,-0.08992 -0.125,-0.125 -0.02709,-0.01989 -0.06658,-0.01147 -0.09375,-0.03125 -0.02459,-0.01789 -0.03784,-0.0447 -0.0625,-0.0625 C 25.019952,18.52309 25.011313,18.508141 25,18.5 24.96295,18.47337 24.9122,18.43268 24.875,18.40625 24.84302,18.38354 24.81334,18.36631 24.78125,18.34375 24.76481,18.33221 24.73522,18.324 24.71875,18.3125 24.69589,18.29653 24.67917,18.26589 24.65625,18.25 24.62624,18.22919 24.59261,18.20818 24.5625,18.1875 c -0.0077,-0.0053 -0.02354,0.0053 -0.03125,0 C 24.51242,18.1746 24.51887,18.13785 24.5,18.125 c -0.02008,-0.01368 -0.04238,-0.01763 -0.0625,-0.03125 -0.0076,-0.0051 -0.02368,0.0051 -0.03125,0 -0.01799,-0.01214 -0.04448,-0.01916 -0.0625,-0.03125 -0.04056,-0.02721 -0.05302,-0.06678 -0.09375,-0.09375 -0.0078,-0.0052 -0.02345,0.0052 -0.03125,0 -0.03813,-0.02518 -0.08672,-0.06879 -0.125,-0.09375 -0.04073,-0.02657 -0.0841,-0.03617 -0.125,-0.0625 -0.01076,-0.0069 -0.02048,-0.02434 -0.03125,-0.03125 -0.03005,-0.01926 -0.06361,-0.04337 -0.09375,-0.0625 -0.02968,-0.01888 -0.03274,-0.04375 -0.0625,-0.0625 -0.0079,-0.005 -0.02332,0.005 -0.03125,0 C 23.67254,17.6076 23.578045,17.547786 23.5,17.5 c -0.02401,-0.0147 -0.03843,-0.01663 -0.0625,-0.03125 -0.01281,-0.0078 -0.01843,-0.02349 -0.03125,-0.03125 -0.03917,-0.02368 -0.08569,-0.03904 -0.125,-0.0625 -0.04183,-0.02497 -0.083,-0.03778 -0.125,-0.0625 -0.01105,-0.0065 -0.02019,-0.02476 -0.03125,-0.03125 -0.03396,-0.01991 -0.05968,-0.04276 -0.09375,-0.0625 -0.0198,-0.01151 -0.04266,-0.01979 -0.0625,-0.03125 -0.01842,-0.0106 -0.04405,-0.0207 -0.0625,-0.03125 -0.04769,-0.02736 -0.0771,-0.03546 -0.125,-0.0625 -0.0343,-0.01938 -0.05934,-0.04329 -0.09375,-0.0625 C 22.66749,17.02007 22.64505,17.01112 22.625,17 c -0.02134,-0.01183 -0.04112,-0.01948 -0.0625,-0.03125 -0.03213,-0.01771 -0.06153,-0.04493 -0.09375,-0.0625 -0.0075,-0.0041 -0.02377,0.0041 -0.03125,0 C 22.38591,16.8782 22.333069,16.84018 22.28125,16.8125 22.24644,16.79393 22.22241,16.76841 22.1875,16.75 22.16721,16.73927 22.14533,16.72942 22.125,16.71875 22.10613,16.70885 22.0814,16.69733 22.0625,16.6875 22.02178,16.66626 21.97836,16.64601 21.9375,16.625 21.90236,16.60697 21.87899,16.58036 21.84375,16.5625 21.82325,16.55211 21.80178,16.54158 21.78125,16.53125 21.76125,16.52119 21.73878,16.51001 21.71875,16.5 21.64619,16.46375 21.572974,16.44178 21.5,16.40625 c -0.0085,-0.0041 -0.02278,0.0041 -0.03125,0 -0.01242,-0.006 -0.01882,-0.02524 -0.03125,-0.03125 -0.02691,-0.013 -0.06678,-0.01835 -0.09375,-0.03125 -0.03322,-0.01589 -0.06045,-0.04676 -0.09375,-0.0625 -0.01,-0.0047 -0.02126,0.0047 -0.03125,0 -0.04165,-0.01963 -0.08322,-0.0431 -0.125,-0.0625 -0.03878,-0.01797 -0.0861,-0.04473 -0.125,-0.0625 -0.02096,-0.0096 -0.04151,-0.02173 -0.0625,-0.03125 -0.01947,-0.0088 -0.043,-0.02247 -0.0625,-0.03125 -0.04204,-0.01893 -0.08283,-0.0438 -0.125,-0.0625 C 20.67424,16.01149 20.6384,16.0195 20.59375,16 20.58354,15.9955 20.57272,15.97319 20.5625,15.96875 20.5242,15.95212 20.4759,15.95394 20.4375,15.9375 20.41629,15.9284 20.39624,15.9153 20.375,15.90625 20.35528,15.89785 20.33225,15.88333 20.3125,15.875 20.26995,15.85702 20.23017,15.83024 20.1875,15.8125 20.14243,15.79379 20.10771,15.7997 20.0625,15.78125 20.04966,15.77595 20.0441,15.75523 20.03125,15.75 20.00143,15.7379 19.96738,15.73073 19.9375,15.71875 19.90746,15.70666 19.87385,15.69947 19.84375,15.6875 19.83177,15.6828 19.82449,15.66098 19.8125,15.65625 19.78972,15.64725 19.77282,15.63395 19.75,15.625 c -0.016,-0.0063 -0.04648,0.0062 -0.0625,0 -0.01295,-0.005 -0.01829,-0.02624 -0.03125,-0.03125 -0.03006,-0.01163 -0.06363,-0.01974 -0.09375,-0.03125 -0.03309,-0.01265 -0.06058,-0.01874 -0.09375,-0.03125 -0.01041,-0.0039 -0.02084,0.0039 -0.03125,0 -0.03591,-0.01349 -0.089,-0.04918 -0.125,-0.0625 -0.0091,-0.0033 -0.02216,0.0033 -0.03125,0 -0.02176,-0.008 -0.04071,-0.02328 -0.0625,-0.03125 -0.02125,-0.0077 -0.04123,-0.02358 -0.0625,-0.03125 -0.01027,-0.0037 -0.02098,0.0037 -0.03125,0 C 19.09459,15.39533 19.06171,15.3858 19.03125,15.375 19.00062,15.36411 18.96818,15.35452 18.9375,15.34375 18.92529,15.33945 18.91847,15.31675 18.90625,15.3125 18.85395,15.29424 18.802464,15.29916 18.75,15.28125 18.71018,15.26768 18.66492,15.26337 18.625,15.25 18.60295,15.2426 18.58458,15.2261 18.5625,15.21875 18.54098,15.21165 18.52155,15.19458 18.5,15.1875 c -0.04421,-0.01457 -0.08068,-0.01693 -0.125,-0.03125 -0.0432,-0.01394 -0.0817,-0.0488 -0.125,-0.0625 -0.01709,-0.0054 -0.04539,0.0054 -0.0625,0 C 18.15654,15.08405 18.12477,15.07209 18.09375,15.0625 18.05969,15.05194 18.03413,15.04167 18,15.03125 c -0.0093,-0.0028 -0.02192,0.0028 -0.03125,0 C 17.94642,15.02445 17.9286,15.00672 17.90625,15 c -0.02179,-0.0065 -0.04069,-0.02477 -0.0625,-0.03125 -0.0086,-0.0026 -0.02264,0.0025 -0.03125,0 -0.04053,-0.01199 -0.08438,-0.01947 -0.125,-0.03125 -0.02375,-0.0069 -0.03872,-0.02441 -0.0625,-0.03125 -0.02029,-0.0058 -0.04219,0.0058 -0.0625,0 C 17.51752,14.89345 17.48258,14.88754 17.4375,14.875 17.38728,14.86104 17.3316,14.85739 17.28125,14.84375 17.26769,14.84005 17.26357,14.81616 17.25,14.8125 17.21766,14.8038 17.18864,14.78982 17.15625,14.78125 17.11294,14.76979 17.07465,14.76122 17.03125,14.75 16.98585,14.73823 16.9205,14.73026 16.875,14.71875 16.8338,14.70839 16.79128,14.69765 16.75,14.6875 c -0.02414,-0.006 -0.03833,-0.02537 -0.0625,-0.03125 -0.02062,-0.005 -0.04186,0.005 -0.0625,0 C 16.58808,14.64735 16.53698,14.6337 16.5,14.625 z"
             id="path9694" />
        </g>
      </g>
      <path
         id="path4852"
         d="m 127.84375,29.46875 c -53.526119,0 -96.982465,43.00013 -97.75,96.34375 10.009722,-5.92814 19.733937,-10.88682 25.9375,-13.75 14.283262,-6.59228 49.44541,-6.58732 61.53125,-1.09375 12.08584,5.49356 32.95038,9.88345 43.9375,1.09375 10.98712,-8.7897 8.80204,-16.486588 31.875,-26.375 5.67666,-2.432854 12.40919,-4.644697 19.625,-6.53125 -16.79408,-29.656481 -48.64174,-49.6875 -85.15625,-49.6875 z"
         style="fill:url(#linearGradient4865);fill-opacity:1;stroke:none" />
      <path
         style="fill:#ffffff;fill-opacity:0.75688076;fill-rule:nonzero;stroke:none"
         d="m 107.05404,59.212876 0,-4.176352 0,4.176352 z"
         id="path2276"
         sodipodi:nodetypes="ccc" />
    </g>
  </g>
</svg>
