<?xml version="1.0" encoding="UTF-8" standalone="no"?>
<!-- Created with Inkscape (http://www.inkscape.org/) -->

<svg
   xmlns:dc="http://purl.org/dc/elements/1.1/"
   xmlns:cc="http://creativecommons.org/ns#"
   xmlns:rdf="http://www.w3.org/1999/02/22-rdf-syntax-ns#"
   xmlns:svg="http://www.w3.org/2000/svg"
   xmlns="http://www.w3.org/2000/svg"
   xmlns:xlink="http://www.w3.org/1999/xlink"
   xmlns:sodipodi="http://sodipodi.sourceforge.net/DTD/sodipodi-0.dtd"
   xmlns:inkscape="http://www.inkscape.org/namespaces/inkscape"
   width="256"
   height="256"
   id="svg4153"
   version="1.1"
   inkscape:version="0.47pre0 r21549"
   sodipodi:docname="Nouveau document 2"
   inkscape:output_extension="org.inkscape.output.svg.inkscape">
  <defs
     id="defs4155">
    <inkscape:perspective
       sodipodi:type="inkscape:persp3d"
       inkscape:vp_x="0 : 526.18109 : 1"
       inkscape:vp_y="0 : 1000 : 0"
       inkscape:vp_z="744.09448 : 526.18109 : 1"
       inkscape:persp3d-origin="372.04724 : 350.78739 : 1"
       id="perspective4161" />
    <inkscape:perspective
       id="perspective4087"
       inkscape:persp3d-origin="0.5 : 0.33333333 : 1"
       inkscape:vp_z="1 : 0.5 : 1"
       inkscape:vp_y="0 : 1000 : 0"
       inkscape:vp_x="0 : 0.5 : 1"
       sodipodi:type="inkscape:persp3d" />
    <radialGradient
       inkscape:collect="always"
       xlink:href="#linearGradient4824"
       id="radialGradient4830"
       cx="15.593588"
       cy="88.653885"
       fx="15.593588"
       fy="88.653885"
       r="114.76744"
       gradientUnits="userSpaceOnUse" />
    <linearGradient
       inkscape:collect="always"
       id="linearGradient4824">
      <stop
         style="stop-color:#ffffff;stop-opacity:1;"
         offset="0"
         id="stop4826" />
      <stop
         style="stop-color:#ffffff;stop-opacity:0;"
         offset="1"
         id="stop4828" />
    </linearGradient>
    <radialGradient
       inkscape:collect="always"
       xlink:href="#linearGradient4824"
       id="radialGradient4838"
       gradientUnits="userSpaceOnUse"
       cx="219.53087"
       cy="98.953751"
       fx="219.53087"
       fy="98.953751"
       r="114.76744" />
    <radialGradient
       inkscape:collect="always"
       xlink:href="#linearGradient4824"
       id="radialGradient4842"
       gradientUnits="userSpaceOnUse"
       cx="117.56223"
       cy="1.6960773"
       fx="117.56223"
       fy="1.6960773"
       r="114.76744"
       gradientTransform="matrix(1.439753,0,0,1,-51.698347,0)" />
    <linearGradient
       xlink:href="#linearGradient3920-809"
       y2="410.93362"
       x2="-588.77887"
       y1="410.93362"
       x1="-736.93536"
       gradientUnits="userSpaceOnUse"
       id="linearGradient3088"
       inkscape:collect="always" />
    <linearGradient
       inkscape:collect="always"
       id="linearGradient3920-809">
      <stop
         style="stop-color:#737471;stop-opacity:1;"
         offset="0"
         id="stop4578" />
      <stop
         style="stop-color:#737471;stop-opacity:0;"
         offset="1"
         id="stop4580" />
    </linearGradient>
    <linearGradient
       xlink:href="#linearGradient3651-27"
       y2="449.75574"
       x2="796.88208"
       y1="497.17868"
       x1="-60.296066"
       gradientUnits="userSpaceOnUse"
       id="linearGradient3090"
       inkscape:collect="always" />
    <linearGradient
       inkscape:collect="always"
       id="linearGradient3651-27">
      <stop
         style="stop-color:#86888d;stop-opacity:1;"
         offset="0"
         id="stop4584" />
      <stop
         style="stop-color:#86888d;stop-opacity:0;"
         offset="1"
         id="stop4586" />
    </linearGradient>
    <radialGradient
       xlink:href="#linearGradient3275"
       r="185.71428"
       fy="499.36295"
       fx="272.40131"
       cy="499.36295"
       cx="272.40131"
       gradientTransform="matrix(0.7150425,0.1084891,-0.2502275,1.5772245,219.48874,-319.69498)"
       gradientUnits="userSpaceOnUse"
       id="radialGradient3092"
       inkscape:collect="always" />
    <linearGradient
       inkscape:collect="always"
       id="linearGradient3275">
      <stop
         style="stop-color:#0b0c08;stop-opacity:1;"
         offset="0"
         id="stop3277" />
      <stop
         style="stop-color:#0b0c08;stop-opacity:0.2962963"
         offset="1"
         id="stop3279" />
    </linearGradient>
    <filter
       color-interpolation-filters="sRGB"
       inkscape:collect="always"
       id="filter3271"
       x="-0.59353036"
       width="2.1870606"
       y="-0.57021672"
       height="2.1404335">
      <feGaussianBlur
         inkscape:collect="always"
         stdDeviation="9.9443573"
         id="feGaussianBlur3273" />
    </filter>
    <radialGradient
       r="185.71428"
       fy="510.30014"
       fx="535.8233"
       cy="510.30014"
       cx="535.8233"
       gradientTransform="matrix(0.5651935,-0.00119752,-0.00130538,0.9364556,214.62469,27.887266)"
       gradientUnits="userSpaceOnUse"
       id="radialGradient37455"
       xlink:href="#linearGradient3956-485-0"
       inkscape:collect="always" />
    <linearGradient
       inkscape:collect="always"
       id="linearGradient3956-485-0">
      <stop
         style="stop-color:#cfcfcf;stop-opacity:1;"
         offset="0"
         id="stop4596-3" />
      <stop
         style="stop-color:#cfcfcf;stop-opacity:0;"
         offset="1"
         id="stop4598-1" />
    </linearGradient>
    <filter
       color-interpolation-filters="sRGB"
       inkscape:collect="always"
       id="filter3988"
       x="-0.19698875"
       width="1.3939775"
       y="-0.1484981"
       height="1.2969962">
      <feGaussianBlur
         inkscape:collect="always"
         stdDeviation="30.898605"
         id="feGaussianBlur3990" />
    </filter>
    <linearGradient
       inkscape:collect="always"
       xlink:href="#linearGradient4859"
       id="linearGradient4865"
       x1="121.54688"
       y1="-8.986186"
       x2="121.54688"
       y2="143.39191"
       gradientUnits="userSpaceOnUse" />
    <linearGradient
       inkscape:collect="always"
       id="linearGradient4859">
      <stop
         style="stop-color:#ffffff;stop-opacity:1;"
         offset="0"
         id="stop4861" />
      <stop
         style="stop-color:#ffffff;stop-opacity:0;"
         offset="1"
         id="stop4863" />
    </linearGradient>
  </defs>
  <sodipodi:namedview
     id="base"
     pagecolor="#ffffff"
     bordercolor="#666666"
     borderopacity="1.0"
     inkscape:pageopacity="0.0"
     inkscape:pageshadow="2"
     inkscape:zoom="0.22425786"
     inkscape:cx="128"
     inkscape:cy="526.17999"
     inkscape:document-units="px"
     inkscape:current-layer="layer1"
     showgrid="false"
     inkscape:window-width="846"
     inkscape:window-height="485"
     inkscape:window-x="818"
     inkscape:window-y="539"
     inkscape:window-maximized="0" />
  <metadata
     id="metadata4158">
    <rdf:RDF>
      <cc:Work
         rdf:about="">
        <dc:format>image/svg+xml</dc:format>
        <dc:type
           rdf:resource="http://purl.org/dc/dcmitype/StillImage" />
        <dc:title></dc:title>
      </cc:Work>
    </rdf:RDF>
  </metadata>
  <g
     inkscape:label="Calque 1"
     inkscape:groupmode="layer"
     id="layer1"
     transform="translate(0,-796.36217)">
    <g
       transform="translate(-3.1235624e-4,796.36191)"
       id="g4058">
      <path
         transform="matrix(1.15625,0,0,1.15625,-8.480688,-8.309014)"
         d="m 223.03862,116.46352 c 0,58.253 -47.22339,105.47638 -105.47639,105.47638 -58.252997,0 -105.476384,-47.22338 -105.476384,-105.47638 0,-58.253004 47.223387,-105.476391 105.476384,-105.476391 58.253,0 105.47639,47.223387 105.47639,105.476391 z"
         sodipodi:ry="105.47639"
         sodipodi:rx="105.47639"
         sodipodi:cy="116.46352"
         sodipodi:cx="117.56223"
         id="path4820"
         style="fill:#000000;fill-opacity:1;stroke:none"
         sodipodi:type="arc" />
      <path
         sodipodi:type="arc"
         style="fill:none;stroke:url(#radialGradient4830);stroke-width:18.58210373;stroke-miterlimit:4;stroke-opacity:1;stroke-dasharray:none"
         id="path4822"
         sodipodi:cx="117.56223"
         sodipodi:cy="116.46352"
         sodipodi:rx="105.47639"
         sodipodi:ry="105.47639"
         d="m 223.03862,116.46352 c 0,58.253 -47.22339,105.47638 -105.47639,105.47638 -58.252997,0 -105.476384,-47.22338 -105.476384,-105.47638 0,-58.253004 47.223387,-105.476391 105.476384,-105.476391 58.253,0 105.47639,47.223387 105.47639,105.476391 z"
         transform="matrix(1.0667253,0,0,1.0667253,2.0440348,2.1173465)" />
      <path
         transform="matrix(1.0667253,0,0,1.0667253,2.0440348,2.1173465)"
         d="m 223.03862,116.46352 c 0,58.253 -47.22339,105.47638 -105.47639,105.47638 -58.252997,0 -105.476384,-47.22338 -105.476384,-105.47638 0,-58.253004 47.223387,-105.476391 105.476384,-105.476391 58.253,0 105.47639,47.223387 105.47639,105.476391 z"
         sodipodi:ry="105.47639"
         sodipodi:rx="105.47639"
         sodipodi:cy="116.46352"
         sodipodi:cx="117.56223"
         id="path4836"
         style="fill:none;stroke:url(#radialGradient4838);stroke-width:18.58210373;stroke-miterlimit:4;stroke-opacity:1;stroke-dasharray:none"
         sodipodi:type="arc" />
      <path
         sodipodi:type="arc"
         style="fill:none;stroke:url(#radialGradient4842);stroke-width:18.58210373;stroke-miterlimit:4;stroke-opacity:1;stroke-dasharray:none"
         id="path4840"
         sodipodi:cx="117.56223"
         sodipodi:cy="116.46352"
         sodipodi:rx="105.47639"
         sodipodi:ry="105.47639"
         d="m 223.03862,116.46352 c 0,58.253 -47.22339,105.47638 -105.47639,105.47638 -58.252997,0 -105.476384,-47.22338 -105.476384,-105.47638 0,-58.253004 47.223387,-105.476391 105.476384,-105.476391 58.253,0 105.47639,47.223387 105.47639,105.476391 z"
         transform="matrix(1.0667253,0,0,1.0667253,2.0440348,2.1173465)" />
      <g
         transform="matrix(0.89539463,0,0,0.89539463,-224.88383,16.596843)"
         id="g3074">
        <g
           id="g3060">
          <path
             transform="matrix(0.26552586,0.06065246,-0.05962147,0.27011726,541.10893,41.600129)"
             d="m -591.42854,410.93362 c 0,62.32928 -31.97966,112.85714 -71.42858,112.85714 -39.44891,0 -71.42857,-50.52786 -71.42857,-112.85714 0,-62.32927 31.97966,-112.85714 71.42857,-112.85714 39.44892,0 71.42858,50.52787 71.42858,112.85714 z"
             sodipodi:ry="112.85714"
             sodipodi:rx="71.428574"
             sodipodi:cy="410.93362"
             sodipodi:cx="-662.85712"
             id="path3918"
             style="fill:url(#linearGradient3088);fill-opacity:1;stroke:#130c07;stroke-width:5.29940796;stroke-linecap:round;stroke-linejoin:round;stroke-miterlimit:10;stroke-opacity:1;stroke-dasharray:none"
             sodipodi:type="arc" />
          <path
             sodipodi:type="arc"
             style="fill:#342b34;fill-opacity:1;stroke:#e6e6e6;stroke-width:3.66774511;stroke-linecap:round;stroke-linejoin:round;stroke-miterlimit:10;stroke-opacity:1;stroke-dasharray:none"
             id="path3928"
             sodipodi:cx="-662.85712"
             sodipodi:cy="410.93362"
             sodipodi:rx="71.428574"
             sodipodi:ry="112.85714"
             d="m -591.42854,410.93362 c 0,62.32928 -31.97966,112.85714 -71.42858,112.85714 -39.44891,0 -71.42857,-50.52786 -71.42857,-112.85714 0,-62.32927 31.97966,-112.85714 71.42857,-112.85714 39.44892,0 71.42858,50.52787 71.42858,112.85714 z"
             transform="matrix(0.30293598,0.00276106,-0.01390006,0.2775203,556.48563,5.5923401)" />
          <path
             id="path3669"
             d="m 404.3229,39.362868 c -31.93852,-0.04921 -61.40243,33.340654 -67.46386,78.142742 -6.46553,47.7889 16.13858,90.55361 50.45794,95.46555 34.31936,4.91194 67.42045,-29.88909 73.88598,-77.67799 6.46553,-47.788893 -16.13858,-90.553601 -50.45794,-95.465544 -2.14497,-0.306997 -4.29288,-0.461476 -6.42212,-0.464758 z m -8.85153,16.414413 c 1.67429,0.0026 3.35176,0.128293 5.0384,0.369694 26.98636,3.862414 44.76805,37.491146 39.68401,75.069005 -5.08404,37.57785 -31.11898,64.94641 -58.10533,61.084 -26.98635,-3.86241 -44.75748,-37.50171 -39.67344,-75.07956 4.76629,-35.229246 27.94214,-61.481838 53.05636,-61.443139 z"
             style="fill:#1e1e17;fill-opacity:1;stroke:none" />
          <path
             sodipodi:type="arc"
             style="fill:none;stroke:url(#linearGradient3090);stroke-width:16.3722496;stroke-linecap:round;stroke-linejoin:round;stroke-miterlimit:10;stroke-opacity:1;stroke-dasharray:none"
             id="path3665"
             sodipodi:cx="408.57144"
             sodipodi:cy="503.79074"
             sodipodi:rx="185.71428"
             sodipodi:ry="251.42857"
             d="m 594.28572,503.79074 c 0,138.86017 -83.14711,251.42857 -185.71428,251.42857 -102.56716,0 -185.71428,-112.5684 -185.71428,-251.42857 0,-138.86017 83.14712,-251.42857 185.71428,-251.42857 102.56717,0 185.71428,112.5684 185.71428,251.42857 z"
             transform="matrix(0.33477637,0.04791474,-0.04658546,0.34432876,285.71877,-66.646645)" />
          <path
             transform="matrix(0.33477637,0.04791474,-0.04658546,0.34432876,284.75304,-68.578109)"
             d="m 594.28572,503.79074 c 0,138.86017 -83.14711,251.42857 -185.71428,251.42857 -102.56716,0 -185.71428,-112.5684 -185.71428,-251.42857 0,-138.86017 83.14712,-251.42857 185.71428,-251.42857 102.56717,0 185.71428,112.5684 185.71428,251.42857 z"
             sodipodi:ry="251.42857"
             sodipodi:rx="185.71428"
             sodipodi:cy="503.79074"
             sodipodi:cx="408.57144"
             id="path2879"
             style="fill:none;stroke:#8c9395;stroke-width:16.3722496;stroke-linecap:round;stroke-linejoin:round;stroke-miterlimit:10;stroke-opacity:1;stroke-dasharray:none"
             sodipodi:type="arc" />
          <path
             transform="matrix(0.26829524,0.05017319,-0.04962062,0.27411949,308.00669,-34.979411)"
             d="m 594.28572,503.79074 c 0,138.86017 -83.14711,251.42857 -185.71428,251.42857 -102.56716,0 -185.71428,-112.5684 -185.71428,-251.42857 0,-138.86017 83.14712,-251.42857 185.71428,-251.42857 102.56717,0 185.71428,112.5684 185.71428,251.42857 z"
             sodipodi:ry="251.42857"
             sodipodi:rx="185.71428"
             sodipodi:cy="503.79074"
             sodipodi:cx="408.57144"
             id="path3686"
             style="fill:#77797b;fill-opacity:1;stroke:none"
             sodipodi:type="arc" />
          <path
             sodipodi:type="arc"
             style="fill:url(#radialGradient3092);fill-opacity:1;stroke:none"
             id="path3992"
             sodipodi:cx="408.57144"
             sodipodi:cy="503.79074"
             sodipodi:rx="185.71428"
             sodipodi:ry="251.42857"
             d="m 594.28572,503.79074 c 0,138.86017 -83.14711,251.42857 -185.71428,251.42857 -102.56716,0 -185.71428,-112.5684 -185.71428,-251.42857 0,-138.86017 83.14712,-251.42857 185.71428,-251.42857 102.56717,0 185.71428,112.5684 185.71428,251.42857 z"
             transform="matrix(0.29905327,0.05017319,-0.05530926,0.27411949,302.57068,-35.791785)" />
          <path
             transform="matrix(0.36691672,0.06227539,-0.06877947,0.33221946,597.89301,5.1750995)"
             d="m -454.28573,446.64789 c 0,53.65052 -30.06088,97.14286 -67.14286,97.14286 -37.08198,0 -67.14286,-43.49234 -67.14286,-97.14286 0,-53.65052 30.06088,-97.14286 67.14286,-97.14286 37.08198,0 67.14286,43.49234 67.14286,97.14286 z"
             sodipodi:ry="97.14286"
             sodipodi:rx="67.14286"
             sodipodi:cy="446.64789"
             sodipodi:cx="-521.42859"
             id="path3698"
             style="fill:#000200;fill-opacity:1;stroke:none"
             sodipodi:type="arc" />
          <path
             transform="matrix(0.30581488,0,0,0.33800592,530.87479,-35.675954)"
             d="m -434.28571,463.79074 c 0,33.13709 -26.86291,60 -60,60 -33.13708,0 -60,-26.86291 -60,-60 0,-33.13708 26.86292,-60 60,-60 33.13709,0 60,26.86292 60,60 z"
             sodipodi:ry="60"
             sodipodi:rx="60"
             sodipodi:cy="463.79074"
             sodipodi:cx="-494.28571"
             id="path3700"
             style="fill:#2b2932;fill-opacity:1;stroke:none"
             sodipodi:type="arc" />
          <path
             transform="matrix(0.32359254,0.17220384,-0.13068161,0.25231334,579.06966,111.08634)"
             d="m -474.28572,353.79074 c 0,10.25672 -9.5939,18.57143 -21.42857,18.57143 -11.83468,0 -21.42858,-8.31471 -21.42858,-18.57143 0,-10.25672 9.5939,-18.57143 21.42858,-18.57143 11.83467,0 21.42857,8.31471 21.42857,18.57143 z"
             sodipodi:ry="18.571428"
             sodipodi:rx="21.428572"
             sodipodi:cy="353.79074"
             sodipodi:cx="-495.71429"
             id="path3702"
             style="fill:#e6e6e6;fill-opacity:1;stroke:none;filter:url(#filter3271)"
             sodipodi:type="arc" />
        </g>
        <path
           transform="matrix(0.26829524,0.05017319,-0.04962062,0.27411949,305.0639,-43.670994)"
           d="m 594.28572,503.79074 c 0,138.86017 -83.14711,251.42857 -185.71428,251.42857 -102.56716,0 -185.71428,-112.5684 -185.71428,-251.42857 0,-138.86017 83.14712,-251.42857 185.71428,-251.42857 102.56717,0 185.71428,112.5684 185.71428,251.42857 z"
           sodipodi:ry="251.42857"
           sodipodi:rx="185.71428"
           sodipodi:cy="503.79074"
           sodipodi:cx="408.57144"
           id="path3954"
           style="fill:url(#radialGradient37455);fill-opacity:1;stroke:none;filter:url(#filter3988)"
           sodipodi:type="arc" />
      </g>
      <path
         id="path4852"
         d="m 127.84375,29.46875 c -53.526119,0 -96.982465,43.00013 -97.75,96.34375 10.009722,-5.92814 19.733937,-10.88682 25.9375,-13.75 14.283262,-6.59228 49.44541,-6.58732 61.53125,-1.09375 12.08584,5.49356 32.95038,9.88345 43.9375,1.09375 10.98712,-8.7897 8.80204,-16.486588 31.875,-26.375 5.67666,-2.432854 12.40919,-4.644697 19.625,-6.53125 -16.79408,-29.656481 -48.64174,-49.6875 -85.15625,-49.6875 z"
         style="fill:url(#linearGradient4865);fill-opacity:1;stroke:none" />
      <path
         style="fill:#ffffff;fill-opacity:0.75688076;fill-rule:nonzero;stroke:none"
         d="m 107.05404,59.212876 0,-4.176352 0,4.176352 z"
         id="path2276"
         sodipodi:nodetypes="ccc" />
    </g>
  </g>
</svg>
