<?xml version="1.0" encoding="UTF-8" standalone="no"?>
<!-- Created with Inkscape (http://www.inkscape.org/) -->

<svg
   xmlns:dc="http://purl.org/dc/elements/1.1/"
   xmlns:cc="http://creativecommons.org/ns#"
   xmlns:rdf="http://www.w3.org/1999/02/22-rdf-syntax-ns#"
   xmlns:svg="http://www.w3.org/2000/svg"
   xmlns="http://www.w3.org/2000/svg"
   xmlns:xlink="http://www.w3.org/1999/xlink"
   xmlns:sodipodi="http://sodipodi.sourceforge.net/DTD/sodipodi-0.dtd"
   xmlns:inkscape="http://www.inkscape.org/namespaces/inkscape"
   width="256"
   height="256"
   id="svg12976"
   version="1.1"
   inkscape:version="0.47pre0 r21549"
   sodipodi:docname="Nouveau document 9"
   inkscape:output_extension="org.inkscape.output.svg.inkscape">
  <defs
     id="defs12978">
    <inkscape:perspective
       sodipodi:type="inkscape:persp3d"
       inkscape:vp_x="0 : 526.18109 : 1"
       inkscape:vp_y="0 : 1000 : 0"
       inkscape:vp_z="744.09448 : 526.18109 : 1"
       inkscape:persp3d-origin="372.04724 : 350.78739 : 1"
       id="perspective12984" />
    <inkscape:perspective
       id="perspective12834"
       inkscape:persp3d-origin="0.5 : 0.33333333 : 1"
       inkscape:vp_z="1 : 0.5 : 1"
       inkscape:vp_y="0 : 1000 : 0"
       inkscape:vp_x="0 : 0.5 : 1"
       sodipodi:type="inkscape:persp3d" />
    <radialGradient
       inkscape:collect="always"
       xlink:href="#linearGradient4824"
       id="radialGradient4830"
       cx="15.593588"
       cy="88.653885"
       fx="15.593588"
       fy="88.653885"
       r="114.76744"
       gradientUnits="userSpaceOnUse" />
    <linearGradient
       inkscape:collect="always"
       id="linearGradient4824">
      <stop
         style="stop-color:#ffffff;stop-opacity:1;"
         offset="0"
         id="stop4826" />
      <stop
         style="stop-color:#ffffff;stop-opacity:0;"
         offset="1"
         id="stop4828" />
    </linearGradient>
    <radialGradient
       inkscape:collect="always"
       xlink:href="#linearGradient4824"
       id="radialGradient4838"
       gradientUnits="userSpaceOnUse"
       cx="219.53087"
       cy="98.953751"
       fx="219.53087"
       fy="98.953751"
       r="114.76744" />
    <radialGradient
       inkscape:collect="always"
       xlink:href="#linearGradient4824"
       id="radialGradient4842"
       gradientUnits="userSpaceOnUse"
       cx="117.56223"
       cy="1.6960773"
       fx="117.56223"
       fy="1.6960773"
       r="114.76744"
       gradientTransform="matrix(1.439753,0,0,1,-51.698347,0)" />
    <linearGradient
       inkscape:collect="always"
       xlink:href="#linearGradient4859"
       id="linearGradient4865"
       x1="121.54688"
       y1="-8.986186"
       x2="121.54688"
       y2="143.39191"
       gradientUnits="userSpaceOnUse" />
    <linearGradient
       inkscape:collect="always"
       id="linearGradient4859">
      <stop
         style="stop-color:#ffffff;stop-opacity:1;"
         offset="0"
         id="stop4861" />
      <stop
         style="stop-color:#ffffff;stop-opacity:0;"
         offset="1"
         id="stop4863" />
    </linearGradient>
    <linearGradient
       inkscape:collect="always"
       xlink:href="#linearGradient5784"
       id="linearGradient5794"
       x1="6.8423514"
       y1="3.3025436"
       x2="-0.22672471"
       y2="13.118932"
       gradientUnits="userSpaceOnUse" />
    <linearGradient
       inkscape:collect="always"
       id="linearGradient5784">
      <stop
         style="stop-color:#ff0000;stop-opacity:1;"
         offset="0"
         id="stop5786" />
      <stop
         style="stop-color:#ff0000;stop-opacity:0;"
         offset="1"
         id="stop5788" />
    </linearGradient>
    <linearGradient
       inkscape:collect="always"
       xlink:href="#linearGradient5784"
       id="linearGradient12864"
       x1="6.8423514"
       y1="3.3025436"
       x2="-0.22672471"
       y2="13.118932"
       gradientUnits="userSpaceOnUse" />
    <linearGradient
       inkscape:collect="always"
       xlink:href="#linearGradient5784"
       id="linearGradient12872"
       x1="6.8423514"
       y1="3.3025436"
       x2="-0.22672471"
       y2="13.118932"
       gradientUnits="userSpaceOnUse" />
    <linearGradient
       inkscape:collect="always"
       xlink:href="#linearGradient5784"
       id="linearGradient12880"
       x1="6.8423514"
       y1="3.3025436"
       x2="-0.22672471"
       y2="13.118932"
       gradientUnits="userSpaceOnUse" />
    <radialGradient
       inkscape:collect="always"
       xlink:href="#linearGradient5798"
       id="radialGradient5806"
       cx="7.2169476"
       cy="0.10652268"
       fx="7.2169476"
       fy="0.10652268"
       r="7.4038286"
       gradientTransform="matrix(1,0,0,1.0166152,0,-0.12481175)"
       gradientUnits="userSpaceOnUse" />
    <linearGradient
       inkscape:collect="always"
       id="linearGradient5798">
      <stop
         style="stop-color:#fff51d;stop-opacity:1;"
         offset="0"
         id="stop5800" />
      <stop
         style="stop-color:#fff51d;stop-opacity:0;"
         offset="1"
         id="stop5802" />
    </linearGradient>
    <radialGradient
       inkscape:collect="always"
       xlink:href="#linearGradient5798"
       id="radialGradient5810"
       gradientUnits="userSpaceOnUse"
       gradientTransform="matrix(1,0,0,1.0166152,0,-0.12481175)"
       cx="7.2169476"
       cy="14.917249"
       fx="7.2169476"
       fy="14.917249"
       r="7.4038286" />
    <radialGradient
       inkscape:collect="always"
       xlink:href="#linearGradient5798"
       id="radialGradient5814"
       gradientUnits="userSpaceOnUse"
       gradientTransform="matrix(1,0,0,1.0166152,0,-0.12481175)"
       cx="14.619229"
       cy="7.5118861"
       fx="14.619229"
       fy="7.5118861"
       r="7.4038286" />
    <radialGradient
       inkscape:collect="always"
       xlink:href="#linearGradient5798"
       id="radialGradient5818"
       gradientUnits="userSpaceOnUse"
       gradientTransform="matrix(1,0,0,1.0166152,0,-0.12481175)"
       cx="-0.18533403"
       cy="7.5118861"
       fx="-0.18533403"
       fy="7.5118861"
       r="7.4038286" />
    <linearGradient
       inkscape:collect="always"
       xlink:href="#linearGradient5822"
       id="linearGradient5828"
       x1="124.40369"
       y1="86.321907"
       x2="124.40369"
       y2="222.28064"
       gradientUnits="userSpaceOnUse" />
    <linearGradient
       inkscape:collect="always"
       id="linearGradient5822">
      <stop
         style="stop-color:#e201ff;stop-opacity:1;"
         offset="0"
         id="stop5824" />
      <stop
         style="stop-color:#e201ff;stop-opacity:0;"
         offset="1"
         id="stop5826" />
    </linearGradient>
    <radialGradient
       inkscape:collect="always"
       xlink:href="#linearGradient9200"
       id="radialGradient9206"
       cx="18.627844"
       cy="11.901631"
       fx="18.627844"
       fy="11.901631"
       r="0.75130093"
       gradientUnits="userSpaceOnUse" />
    <linearGradient
       inkscape:collect="always"
       id="linearGradient9200">
      <stop
         style="stop-color: rgb(255, 232, 74); stop-opacity: 1;"
         offset="0"
         id="stop9202" />
      <stop
         style="stop-color: rgb(255, 232, 74); stop-opacity: 0;"
         offset="1"
         id="stop9204" />
    </linearGradient>
    <linearGradient
       inkscape:collect="always"
       xlink:href="#linearGradient5822"
       id="linearGradient12921"
       x1="124.40369"
       y1="86.321907"
       x2="124.40369"
       y2="222.28064"
       gradientUnits="userSpaceOnUse" />
    <radialGradient
       inkscape:collect="always"
       xlink:href="#linearGradient9200"
       id="radialGradient12929"
       cx="18.627844"
       cy="11.901631"
       fx="18.627844"
       fy="11.901631"
       r="0.75130093"
       gradientUnits="userSpaceOnUse" />
    <linearGradient
       y2="13.118932"
       x2="-0.22672471"
       y1="3.3025436"
       x1="6.8423514"
       gradientUnits="userSpaceOnUse"
       id="linearGradient12964"
       xlink:href="#linearGradient5784"
       inkscape:collect="always" />
    <linearGradient
       y2="13.118932"
       x2="-0.22672471"
       y1="3.3025436"
       x1="6.8423514"
       gradientUnits="userSpaceOnUse"
       id="linearGradient12966"
       xlink:href="#linearGradient5784"
       inkscape:collect="always" />
    <linearGradient
       y2="13.118932"
       x2="-0.22672471"
       y1="3.3025436"
       x1="6.8423514"
       gradientUnits="userSpaceOnUse"
       id="linearGradient12968"
       xlink:href="#linearGradient5784"
       inkscape:collect="always" />
    <linearGradient
       y2="222.28064"
       x2="124.40369"
       y1="86.321907"
       x1="124.40369"
       gradientUnits="userSpaceOnUse"
       id="linearGradient12970"
       xlink:href="#linearGradient5822"
       inkscape:collect="always" />
    <radialGradient
       r="0.75130093"
       fy="11.901631"
       fx="18.627844"
       cy="11.901631"
       cx="18.627844"
       gradientUnits="userSpaceOnUse"
       id="radialGradient12972"
       xlink:href="#linearGradient9200"
       inkscape:collect="always" />
    <radialGradient
       r="0.75130093"
       fy="11.901631"
       fx="18.627844"
       cy="11.901631"
       cx="18.627844"
       gradientUnits="userSpaceOnUse"
       id="radialGradient12974"
       xlink:href="#linearGradient9200"
       inkscape:collect="always" />
    <linearGradient
       inkscape:collect="always"
       xlink:href="#linearGradient5822"
       id="linearGradient13189"
       gradientUnits="userSpaceOnUse"
       x1="124.40369"
       y1="86.321907"
       x2="124.40369"
       y2="222.28064"
       gradientTransform="translate(-3.1235624e-4,796.36192)" />
    <linearGradient
       inkscape:collect="always"
       xlink:href="#linearGradient5822"
       id="linearGradient13193"
       gradientUnits="userSpaceOnUse"
       x1="124.40369"
       y1="86.321907"
       x2="124.40369"
       y2="222.28064"
       gradientTransform="translate(-3.1235624e-4,796.36192)" />
    <linearGradient
       inkscape:collect="always"
       xlink:href="#linearGradient4859"
       id="linearGradient13213"
       gradientUnits="userSpaceOnUse"
       x1="121.54688"
       y1="-8.986186"
       x2="121.54688"
       y2="143.39191"
       gradientTransform="translate(-3.1235624e-4,796.36192)" />
  </defs>
  <sodipodi:namedview
     id="base"
     pagecolor="#ffffff"
     bordercolor="#666666"
     borderopacity="1.0"
     inkscape:pageopacity="0.0"
     inkscape:pageshadow="2"
     inkscape:zoom="0.98994949"
     inkscape:cx="262.29238"
     inkscape:cy="201.06875"
     inkscape:document-units="px"
     inkscape:current-layer="layer1"
     showgrid="false"
     inkscape:window-width="990"
     inkscape:window-height="485"
     inkscape:window-x="674"
     inkscape:window-y="539"
     inkscape:window-maximized="0" />
  <metadata
     id="metadata12981">
    <rdf:RDF>
      <cc:Work
         rdf:about="">
        <dc:format>image/svg+xml</dc:format>
        <dc:type
           rdf:resource="http://purl.org/dc/dcmitype/StillImage" />
        <dc:title></dc:title>
      </cc:Work>
    </rdf:RDF>
  </metadata>
  <g
     inkscape:label="Calque 1"
     inkscape:groupmode="layer"
     id="layer1"
     transform="translate(0,-796.36218)">
    <path
       sodipodi:type="arc"
       style="fill:#000000;fill-opacity:1;stroke:none"
       id="path4820"
       sodipodi:cx="117.56223"
       sodipodi:cy="116.46352"
       sodipodi:rx="105.47639"
       sodipodi:ry="105.47639"
       d="m 223.03862,116.46352 a 105.47639,105.47639 0 1 1 -210.952774,0 105.47639,105.47639 0 1 1 210.952774,0 z"
       transform="matrix(1.15625,0,0,1.15625,-8.4810004,788.05291)" />
    <path
       transform="matrix(1.0667253,0,0,1.0667253,2.0437224,798.47927)"
       d="m 223.03862,116.46352 a 105.47639,105.47639 0 1 1 -210.952774,0 105.47639,105.47639 0 1 1 210.952774,0 z"
       sodipodi:ry="105.47639"
       sodipodi:rx="105.47639"
       sodipodi:cy="116.46352"
       sodipodi:cx="117.56223"
       id="path4822"
       style="fill:none;stroke:url(#radialGradient4830);stroke-width:18.58210373;stroke-miterlimit:4;stroke-opacity:1;stroke-dasharray:none"
       sodipodi:type="arc" />
    <path
       sodipodi:type="arc"
       style="fill:none;stroke:url(#radialGradient4838);stroke-width:18.58210373;stroke-miterlimit:4;stroke-opacity:1;stroke-dasharray:none"
       id="path4836"
       sodipodi:cx="117.56223"
       sodipodi:cy="116.46352"
       sodipodi:rx="105.47639"
       sodipodi:ry="105.47639"
       d="m 223.03862,116.46352 a 105.47639,105.47639 0 1 1 -210.952774,0 105.47639,105.47639 0 1 1 210.952774,0 z"
       transform="matrix(1.0667253,0,0,1.0667253,2.0437224,798.47927)" />
    <path
       transform="matrix(1.0667253,0,0,1.0667253,2.0437224,798.47927)"
       d="m 223.03862,116.46352 a 105.47639,105.47639 0 1 1 -210.952774,0 105.47639,105.47639 0 1 1 210.952774,0 z"
       sodipodi:ry="105.47639"
       sodipodi:rx="105.47639"
       sodipodi:cy="116.46352"
       sodipodi:cx="117.56223"
       id="path4840"
       style="fill:none;stroke:url(#radialGradient4842);stroke-width:18.58210373;stroke-miterlimit:4;stroke-opacity:1;stroke-dasharray:none"
       sodipodi:type="arc" />
    <path
       sodipodi:nodetypes="ccc"
       id="path2276"
       d="m 107.05373,855.5748 0,-4.17636 0,4.17636 z"
       style="fill:#ffffff;fill-opacity:0.75688076;fill-rule:nonzero;stroke:none" />
    <path
       sodipodi:type="arc"
       style="fill:none;stroke:#000000;stroke-width:0.37376201;stroke-linecap:round;stroke-linejoin:round;stroke-miterlimit:4;stroke-opacity:1;stroke-dasharray:none;stroke-dashoffset:0"
       id="path7014"
       sodipodi:cx="7.2169476"
       sodipodi:cy="7.5118856"
       sodipodi:rx="7.2169476"
       sodipodi:ry="7.3399639"
       d="m 14.433895,7.5118856 a 7.2169476,7.3399639 0 1 1 -3.7e-5,-0.023421"
       sodipodi:start="0"
       sodipodi:end="6.2799944"
       sodipodi:open="true"
       transform="matrix(10.147627,0,0,9.9803202,54.838989,847.64742)" />
    <g
       id="g9460"
       transform="matrix(10.598168,0,0,10.598168,58.559732,838.0001)"
       style="fill:#000000;fill-opacity:1">
      <path
         sodipodi:nodetypes="ccczccz"
         id="path7707"
         d="m 9.4516821,8.5573773 c -1.361048,5.5950807 -3.65625,4.4687497 -3.65625,4.4687497 -0.375464,-0.308536 -0.238119,-2.20461 0.125,-2.6875 0.482858,0.02124 0.88728,0.277255 1.65625,-2.0937497 0.759806,-2.3427472 0.216036,-2.6670399 -0.3125,-2.9375 -0.030879,-0.9892126 0.708848,-2.114069 1.25,-2.375 0,0 2.2913699,0.059428 0.9375,5.625 z"
         style="fill:#000000;fill-opacity:1;fill-rule:evenodd;stroke:none" />
      <path
         sodipodi:nodetypes="cczc"
         id="path8582"
         d="m 7.6134826,2.5599675 c -0.5878379,0.6629012 -0.9639905,1.5265221 -1.21875,2.4375 0,0 -1.0251698,-0.7267779 -0.4825248,-1.8426399 0.554688,-1.140625 1.7012748,-0.5948601 1.7012748,-0.5948601 z"
         style="fill:#000000;fill-opacity:1;fill-rule:evenodd;stroke:none" />
      <path
         style="fill:#000000;fill-opacity:1;fill-rule:evenodd;stroke:none"
         d="m 5.1155026,10.157887 c -0.421843,0.790913 -0.477403,1.697615 -0.166681,2.720106 0,0 -1.080454,0.09726 -1.1417338,-1.450788 -0.061244,-1.5471355 1.3084148,-1.269318 1.3084148,-1.269318 z"
         id="path9458"
         sodipodi:nodetypes="cczc" />
    </g>
    <path
       sodipodi:nodetypes="czzzzzzzzzzzzz"
       id="path7020"
       d="m 71.813862,929.56199 c 1.481585,-6.37358 1.406909,-27.65132 5.926324,-25.49433 4.519409,2.15699 7.880916,31.32477 12.151312,34.12229 4.270397,2.79751 2.15325,-16.24226 4.930279,-22.93223 2.77701,-6.68996 2.659606,1.27133 6.177783,-3.82759 3.51816,-5.09893 4.00439,-22.8728 7.89487,-16.56809 3.89046,6.30471 3.4376,33.90665 7.667,41.78695 4.2294,7.88031 4.88367,-9.96982 9.2506,-10.26573 4.36693,-0.29591 5.69327,11.23905 8.2171,9.08207 2.52383,-2.15699 0.25494,-8.56411 1.87821,-17.71002 1.62328,-9.14593 0.19623,-23.22159 4.61494,-18.87366 4.4187,4.34793 7.87472,30.75226 13.0599,36.26535 5.18519,5.51309 1.82813,-12.70321 7.68082,-14.21299 5.85268,-1.50978 11.79742,6.13041 15.72991,8.17387"
       style="fill:none;stroke:#000000;stroke-width:3.76140356;stroke-linecap:round;stroke-linejoin:round;stroke-miterlimit:4;stroke-opacity:1;stroke-dasharray:none" />
    <path
       sodipodi:nodetypes="cccccccccccccccccccccccccccccc"
       id="path7022"
       d="m 178.23957,924.19029 -5.55108,-24.43383 4.2155,24.8852 -6.60197,-17.7241 5.25026,18.38019 -17.55884,-12.31954 15.9566,13.78575 -23.93312,2.11433 23.11897,-0.60182 -14.00448,5.35703 14.36743,-3.6058 -14.78947,8.4999 15.43519,-6.22714 2.13172,1.38014 -4.48709,17.19487 6.87358,-17.45961 5.2422,16.70707 -3.10243,-16.47055 9.13201,9.17189 -7.43348,-11.32021 14.60237,3.18848 -14.00076,-5.39904 12.49605,-9.24723 -12.64453,7.9452 16.11369,-21.6619 -17.02608,19.78049 6.39747,-12.7475 -8.17427,11.29719 0.53753,-11.53588 -2.56297,11.06642 z"
       style="fill:#ffea53;fill-opacity:1;fill-rule:evenodd;stroke:none" />
    <path
       transform="matrix(7.3433506,0,0,7.3450433,41.320768,841.72335)"
       sodipodi:open="true"
       sodipodi:end="6.2799944"
       sodipodi:start="0"
       d="m 19.379145,11.901631 a 0.75130093,0.75130093 0 1 1 -4e-6,-0.0024"
       sodipodi:ry="0.75130093"
       sodipodi:rx="0.75130093"
       sodipodi:cy="11.901631"
       sodipodi:cx="18.627844"
       id="path7024"
       style="fill:#fcf5c7;fill-opacity:1;fill-rule:nonzero;stroke:none"
       sodipodi:type="arc" />
    <g
       style="fill:url(#linearGradient5794);fill-opacity:1"
       transform="matrix(10.598168,0,0,10.598168,58.559732,838.0001)"
       id="g5776">
      <path
         style="fill:url(#linearGradient12964);fill-opacity:1;fill-rule:evenodd;stroke:none"
         d="m 9.4516821,8.5573773 c -1.361048,5.5950807 -3.65625,4.4687497 -3.65625,4.4687497 -0.375464,-0.308536 -0.238119,-2.20461 0.125,-2.6875 0.482858,0.02124 0.88728,0.277255 1.65625,-2.0937497 0.759806,-2.3427472 0.216036,-2.6670399 -0.3125,-2.9375 -0.030879,-0.9892126 0.708848,-2.114069 1.25,-2.375 0,0 2.2913699,0.059428 0.9375,5.625 z"
         id="path5778"
         sodipodi:nodetypes="ccczccz" />
      <path
         style="fill:url(#linearGradient12966);fill-opacity:1;fill-rule:evenodd;stroke:none"
         d="m 7.6134826,2.5599675 c -0.5878379,0.6629012 -0.9639905,1.5265221 -1.21875,2.4375 0,0 -1.0251698,-0.7267779 -0.4825248,-1.8426399 0.554688,-1.140625 1.7012748,-0.5948601 1.7012748,-0.5948601 z"
         id="path5780"
         sodipodi:nodetypes="cczc" />
      <path
         sodipodi:nodetypes="cczc"
         id="path5782"
         d="m 5.1155026,10.157887 c -0.421843,0.790913 -0.477403,1.697615 -0.166681,2.720106 0,0 -1.080454,0.09726 -1.1417338,-1.450788 -0.061244,-1.5471355 1.3084148,-1.269318 1.3084148,-1.269318 z"
         style="fill:url(#linearGradient12968);fill-opacity:1;fill-rule:evenodd;stroke:none" />
    </g>
    <path
       transform="matrix(10.147627,0,0,9.9803202,54.838989,847.64742)"
       sodipodi:open="true"
       sodipodi:end="6.2799944"
       sodipodi:start="0"
       d="m 14.433895,7.5118856 a 7.2169476,7.3399639 0 1 1 -3.7e-5,-0.023421"
       sodipodi:ry="7.3399639"
       sodipodi:rx="7.2169476"
       sodipodi:cy="7.5118856"
       sodipodi:cx="7.2169476"
       id="path5796"
       style="fill:none;stroke:url(#radialGradient5806);stroke-width:0.37376201;stroke-linecap:round;stroke-linejoin:round;stroke-miterlimit:4;stroke-opacity:1;stroke-dasharray:none;stroke-dashoffset:0"
       sodipodi:type="arc" />
    <path
       sodipodi:type="arc"
       style="fill:none;stroke:url(#radialGradient5810);stroke-width:0.37376201;stroke-linecap:round;stroke-linejoin:round;stroke-miterlimit:4;stroke-opacity:1;stroke-dasharray:none;stroke-dashoffset:0"
       id="path5808"
       sodipodi:cx="7.2169476"
       sodipodi:cy="7.5118856"
       sodipodi:rx="7.2169476"
       sodipodi:ry="7.3399639"
       d="m 14.433895,7.5118856 a 7.2169476,7.3399639 0 1 1 -3.7e-5,-0.023421"
       sodipodi:start="0"
       sodipodi:end="6.2799944"
       sodipodi:open="true"
       transform="matrix(10.147627,0,0,9.9803202,54.838989,847.64742)" />
    <path
       transform="matrix(10.147627,0,0,9.9803202,54.838989,847.64742)"
       sodipodi:open="true"
       sodipodi:end="6.2799944"
       sodipodi:start="0"
       d="m 14.433895,7.5118856 a 7.2169476,7.3399639 0 1 1 -3.7e-5,-0.023421"
       sodipodi:ry="7.3399639"
       sodipodi:rx="7.2169476"
       sodipodi:cy="7.5118856"
       sodipodi:cx="7.2169476"
       id="path5812"
       style="fill:none;stroke:url(#radialGradient5814);stroke-width:0.37376201;stroke-linecap:round;stroke-linejoin:round;stroke-miterlimit:4;stroke-opacity:1;stroke-dasharray:none;stroke-dashoffset:0"
       sodipodi:type="arc" />
    <path
       sodipodi:type="arc"
       style="fill:none;stroke:url(#radialGradient5818);stroke-width:0.37376201;stroke-linecap:round;stroke-linejoin:round;stroke-miterlimit:4;stroke-opacity:1;stroke-dasharray:none;stroke-dashoffset:0"
       id="path5816"
       sodipodi:cx="7.2169476"
       sodipodi:cy="7.5118856"
       sodipodi:rx="7.2169476"
       sodipodi:ry="7.3399639"
       d="m 14.433895,7.5118856 a 7.2169476,7.3399639 0 1 1 -3.7e-5,-0.023421"
       sodipodi:start="0"
       sodipodi:end="6.2799944"
       sodipodi:open="true"
       transform="matrix(10.147627,0,0,9.9803202,54.838989,847.64742)" />
    <path
       style="fill:none;stroke:url(#linearGradient13193);stroke-width:3.76140356;stroke-linecap:round;stroke-linejoin:round;stroke-miterlimit:4;stroke-opacity:1;stroke-dasharray:none"
       d="m 71.813862,929.56199 c 1.481585,-6.37358 1.406909,-27.65132 5.926324,-25.49433 4.519409,2.15699 7.880916,31.32477 12.151312,34.12229 4.270397,2.79751 2.15325,-16.24226 4.930279,-22.93223 2.77701,-6.68996 2.659606,1.27133 6.177783,-3.82759 3.51816,-5.09893 4.00439,-22.8728 7.89487,-16.56809 3.89046,6.30471 3.4376,33.90665 7.667,41.78695 4.2294,7.88031 4.88367,-9.96982 9.2506,-10.26573 4.36693,-0.29591 5.69327,11.23905 8.2171,9.08207 2.52383,-2.15699 0.25494,-8.56411 1.87821,-17.71002 1.62328,-9.14593 0.19623,-23.22159 4.61494,-18.87366 4.4187,4.34793 7.87472,30.75226 13.0599,36.26535 5.18519,5.51309 1.82813,-12.70321 7.68082,-14.21299 5.85268,-1.50978 11.79742,6.13041 15.72991,8.17387"
       id="path5820"
       sodipodi:nodetypes="czzzzzzzzzzzzz" />
    <path
       sodipodi:type="arc"
       style="fill:url(#radialGradient12972);fill-opacity:1;fill-rule:nonzero;stroke:none"
       id="path8325"
       sodipodi:cx="18.627844"
       sodipodi:cy="11.901631"
       sodipodi:rx="0.75130093"
       sodipodi:ry="0.75130093"
       d="m 19.379145,11.901631 a 0.75130093,0.75130093 0 1 1 -4e-6,-0.0024"
       sodipodi:start="0"
       sodipodi:end="6.2799944"
       sodipodi:open="true"
       transform="matrix(18.514456,0,0,18.518744,-166.77317,708.73792)" />
    <path
       sodipodi:nodetypes="czzzzzzzzzzzzz"
       id="path5830"
       d="m 71.813862,929.56199 c 1.481585,-6.37358 1.406909,-27.65132 5.926324,-25.49433 4.519409,2.15699 7.880916,31.32477 12.151312,34.12229 4.270397,2.79751 2.15325,-16.24226 4.930279,-22.93223 2.77701,-6.68996 2.659606,1.27133 6.177783,-3.82759 3.51816,-5.09893 4.00439,-22.8728 7.89487,-16.56809 3.89046,6.30471 3.4376,33.90665 7.667,41.78695 4.2294,7.88031 4.88367,-9.96982 9.2506,-10.26573 4.36693,-0.29591 5.69327,11.23905 8.2171,9.08207 2.52383,-2.15699 0.25494,-8.56411 1.87821,-17.71002 1.62328,-9.14593 0.19623,-23.22159 4.61494,-18.87366 4.4187,4.34793 7.87472,30.75226 13.0599,36.26535 5.18519,5.51309 1.82813,-12.70321 7.68082,-14.21299 5.85268,-1.50978 11.79742,6.13041 15.72991,8.17387"
       style="fill:none;stroke:url(#linearGradient13189);stroke-width:3.76140356;stroke-linecap:round;stroke-linejoin:round;stroke-miterlimit:4;stroke-opacity:1;stroke-dasharray:none" />
    <path
       transform="matrix(18.514456,0,0,18.518744,-166.77317,708.73792)"
       sodipodi:open="true"
       sodipodi:end="6.2799944"
       sodipodi:start="0"
       d="m 19.379145,11.901631 a 0.75130093,0.75130093 0 1 1 -4e-6,-0.0024"
       sodipodi:ry="0.75130093"
       sodipodi:rx="0.75130093"
       sodipodi:cy="11.901631"
       sodipodi:cx="18.627844"
       id="path5832"
       style="fill:url(#radialGradient12974);fill-opacity:1;fill-rule:nonzero;stroke:none"
       sodipodi:type="arc" />
    <path
       style="fill:url(#linearGradient13213);fill-opacity:1;stroke:none"
       d="m 127.84344,825.83067 c -53.526121,0 -96.982467,43.00013 -97.750002,96.34375 10.009722,-5.92814 19.733937,-10.88682 25.9375,-13.75 14.283262,-6.59228 49.445412,-6.58732 61.531252,-1.09375 12.08584,5.49356 32.95038,9.88345 43.9375,1.09375 10.98712,-8.7897 8.80204,-16.48659 31.875,-26.375 5.67666,-2.43285 12.40919,-4.6447 19.625,-6.53125 -16.79408,-29.65648 -48.64174,-49.6875 -85.15625,-49.6875 z"
       id="path4852" />
  </g>
</svg>
