<?xml version="1.0" encoding="UTF-8" standalone="no"?>
<!-- Created with Inkscape (http://www.inkscape.org/) -->

<svg
   xmlns:dc="http://purl.org/dc/elements/1.1/"
   xmlns:cc="http://creativecommons.org/ns#"
   xmlns:rdf="http://www.w3.org/1999/02/22-rdf-syntax-ns#"
   xmlns:svg="http://www.w3.org/2000/svg"
   xmlns="http://www.w3.org/2000/svg"
   xmlns:xlink="http://www.w3.org/1999/xlink"
   xmlns:sodipodi="http://sodipodi.sourceforge.net/DTD/sodipodi-0.dtd"
   xmlns:inkscape="http://www.inkscape.org/namespaces/inkscape"
   width="256"
   height="256"
   id="svg10785"
   version="1.1"
   inkscape:version="0.47pre0 r21549"
   sodipodi:docname="Nouveau document 4"
   inkscape:output_extension="org.inkscape.output.svg.inkscape">
  <defs
     id="defs10787">
    <inkscape:perspective
       sodipodi:type="inkscape:persp3d"
       inkscape:vp_x="0 : 526.18109 : 1"
       inkscape:vp_y="0 : 1000 : 0"
       inkscape:vp_z="744.09448 : 526.18109 : 1"
       inkscape:persp3d-origin="372.04724 : 350.78739 : 1"
       id="perspective10793" />
    <inkscape:perspective
       id="perspective10803"
       inkscape:persp3d-origin="0.5 : 0.33333333 : 1"
       inkscape:vp_z="1 : 0.5 : 1"
       inkscape:vp_y="0 : 1000 : 0"
       inkscape:vp_x="0 : 0.5 : 1"
       sodipodi:type="inkscape:persp3d" />
    <radialGradient
       inkscape:collect="always"
       xlink:href="#linearGradient4824"
       id="radialGradient4830"
       cx="15.593588"
       cy="88.653885"
       fx="15.593588"
       fy="88.653885"
       r="114.76744"
       gradientUnits="userSpaceOnUse" />
    <linearGradient
       inkscape:collect="always"
       id="linearGradient4824">
      <stop
         style="stop-color:#ffffff;stop-opacity:1;"
         offset="0"
         id="stop4826" />
      <stop
         style="stop-color:#ffffff;stop-opacity:0;"
         offset="1"
         id="stop4828" />
    </linearGradient>
    <radialGradient
       inkscape:collect="always"
       xlink:href="#linearGradient4824"
       id="radialGradient4838"
       gradientUnits="userSpaceOnUse"
       cx="219.53087"
       cy="98.953751"
       fx="219.53087"
       fy="98.953751"
       r="114.76744" />
    <radialGradient
       inkscape:collect="always"
       xlink:href="#linearGradient4824"
       id="radialGradient4842"
       gradientUnits="userSpaceOnUse"
       cx="117.56223"
       cy="1.6960773"
       fx="117.56223"
       fy="1.6960773"
       r="114.76744"
       gradientTransform="matrix(1.439753,0,0,1,-51.698347,0)" />
    <linearGradient
       inkscape:collect="always"
       xlink:href="#linearGradient4859"
       id="linearGradient4865"
       x1="121.54688"
       y1="-8.986186"
       x2="121.54688"
       y2="143.39191"
       gradientUnits="userSpaceOnUse" />
    <linearGradient
       inkscape:collect="always"
       id="linearGradient4859">
      <stop
         style="stop-color:#ffffff;stop-opacity:1;"
         offset="0"
         id="stop4861" />
      <stop
         style="stop-color:#ffffff;stop-opacity:0;"
         offset="1"
         id="stop4863" />
    </linearGradient>
    <linearGradient
       inkscape:collect="always"
       xlink:href="#linearGradient6176"
       id="linearGradient6571"
       gradientUnits="userSpaceOnUse"
       x1="79.223267"
       y1="17.296555"
       x2="64.689232"
       y2="32.928822" />
    <linearGradient
       id="linearGradient6176">
      <stop
         style="stop-color: rgb(79, 159, 79); stop-opacity: 1;"
         offset="0"
         id="stop6178" />
      <stop
         style="stop-color: rgb(40, 121, 40); stop-opacity: 1;"
         offset="1"
         id="stop6180" />
    </linearGradient>
    <linearGradient
       inkscape:collect="always"
       xlink:href="#linearGradient6176"
       id="linearGradient6573"
       gradientUnits="userSpaceOnUse"
       x1="56.919456"
       y1="17.834959"
       x2="53.723083"
       y2="32.215332" />
    <linearGradient
       id="linearGradient10834">
      <stop
         style="stop-color: rgb(79, 159, 79); stop-opacity: 1;"
         offset="0"
         id="stop10836" />
      <stop
         style="stop-color: rgb(40, 121, 40); stop-opacity: 1;"
         offset="1"
         id="stop10838" />
    </linearGradient>
    <linearGradient
       inkscape:collect="always"
       xlink:href="#linearGradient6176"
       id="linearGradient6575"
       gradientUnits="userSpaceOnUse"
       x1="33.668209"
       y1="29.721798"
       x2="37.919281"
       y2="40.956154" />
    <linearGradient
       id="linearGradient10841">
      <stop
         style="stop-color: rgb(79, 159, 79); stop-opacity: 1;"
         offset="0"
         id="stop10843" />
      <stop
         style="stop-color: rgb(40, 121, 40); stop-opacity: 1;"
         offset="1"
         id="stop10845" />
    </linearGradient>
    <linearGradient
       inkscape:collect="always"
       xlink:href="#linearGradient6176"
       id="linearGradient6577"
       gradientUnits="userSpaceOnUse"
       x1="43.908318"
       y1="21.606606"
       x2="45.326817"
       y2="35.130184" />
    <linearGradient
       id="linearGradient10848">
      <stop
         style="stop-color: rgb(79, 159, 79); stop-opacity: 1;"
         offset="0"
         id="stop10850" />
      <stop
         style="stop-color: rgb(40, 121, 40); stop-opacity: 1;"
         offset="1"
         id="stop10852" />
    </linearGradient>
    <radialGradient
       r="17.894423"
       fy="53.898556"
       fx="58.629101"
       cy="53.898556"
       cx="58.629101"
       gradientTransform="matrix(1.2152,0,0,1.14062,-12.3302,-7.69427)"
       gradientUnits="userSpaceOnUse"
       id="radialGradient3056"
       xlink:href="#linearGradient6168"
       inkscape:collect="always" />
    <linearGradient
       id="linearGradient6168">
      <stop
         style="stop-color: rgb(136, 164, 191); stop-opacity: 1;"
         offset="0"
         id="stop6170" />
      <stop
         style="stop-color: rgb(55, 84, 113); stop-opacity: 1;"
         offset="1"
         id="stop6172" />
    </linearGradient>
  </defs>
  <sodipodi:namedview
     id="base"
     pagecolor="#ffffff"
     bordercolor="#666666"
     borderopacity="1.0"
     inkscape:pageopacity="0.0"
     inkscape:pageshadow="2"
     inkscape:zoom="0.35"
     inkscape:cx="375"
     inkscape:cy="177.14286"
     inkscape:document-units="px"
     inkscape:current-layer="layer1"
     showgrid="false"
     inkscape:window-width="767"
     inkscape:window-height="485"
     inkscape:window-x="897"
     inkscape:window-y="24"
     inkscape:window-maximized="0" />
  <metadata
     id="metadata10790">
    <rdf:RDF>
      <cc:Work
         rdf:about="">
        <dc:format>image/svg+xml</dc:format>
        <dc:type
           rdf:resource="http://purl.org/dc/dcmitype/StillImage" />
        <dc:title></dc:title>
      </cc:Work>
    </rdf:RDF>
  </metadata>
  <g
     inkscape:label="Calque 1"
     inkscape:groupmode="layer"
     id="layer1"
     transform="translate(0,-796.36218)">
    <g
       transform="translate(-3.1235624e-4,796.36192)"
       id="g10716">
      <path
         transform="matrix(1.15625,0,0,1.15625,-8.480688,-8.309014)"
         d="m 223.03862,116.46352 c 0,58.253 -47.22339,105.47638 -105.47639,105.47638 -58.252997,0 -105.476384,-47.22338 -105.476384,-105.47638 0,-58.253004 47.223387,-105.476391 105.476384,-105.476391 58.253,0 105.47639,47.223387 105.47639,105.476391 z"
         sodipodi:ry="105.47639"
         sodipodi:rx="105.47639"
         sodipodi:cy="116.46352"
         sodipodi:cx="117.56223"
         id="path4820"
         style="fill:#000000;fill-opacity:1;stroke:none"
         sodipodi:type="arc" />
      <path
         sodipodi:type="arc"
         style="fill:none;stroke:url(#radialGradient4830);stroke-width:18.58210373;stroke-miterlimit:4;stroke-opacity:1;stroke-dasharray:none"
         id="path4822"
         sodipodi:cx="117.56223"
         sodipodi:cy="116.46352"
         sodipodi:rx="105.47639"
         sodipodi:ry="105.47639"
         d="m 223.03862,116.46352 c 0,58.253 -47.22339,105.47638 -105.47639,105.47638 -58.252997,0 -105.476384,-47.22338 -105.476384,-105.47638 0,-58.253004 47.223387,-105.476391 105.476384,-105.476391 58.253,0 105.47639,47.223387 105.47639,105.476391 z"
         transform="matrix(1.0667253,0,0,1.0667253,2.0440348,2.1173465)" />
      <path
         transform="matrix(1.0667253,0,0,1.0667253,2.0440348,2.1173465)"
         d="m 223.03862,116.46352 c 0,58.253 -47.22339,105.47638 -105.47639,105.47638 -58.252997,0 -105.476384,-47.22338 -105.476384,-105.47638 0,-58.253004 47.223387,-105.476391 105.476384,-105.476391 58.253,0 105.47639,47.223387 105.47639,105.476391 z"
         sodipodi:ry="105.47639"
         sodipodi:rx="105.47639"
         sodipodi:cy="116.46352"
         sodipodi:cx="117.56223"
         id="path4836"
         style="fill:none;stroke:url(#radialGradient4838);stroke-width:18.58210373;stroke-miterlimit:4;stroke-opacity:1;stroke-dasharray:none"
         sodipodi:type="arc" />
      <path
         sodipodi:type="arc"
         style="fill:none;stroke:url(#radialGradient4842);stroke-width:18.58210373;stroke-miterlimit:4;stroke-opacity:1;stroke-dasharray:none"
         id="path4840"
         sodipodi:cx="117.56223"
         sodipodi:cy="116.46352"
         sodipodi:rx="105.47639"
         sodipodi:ry="105.47639"
         d="m 223.03862,116.46352 c 0,58.253 -47.22339,105.47638 -105.47639,105.47638 -58.252997,0 -105.476384,-47.22338 -105.476384,-105.47638 0,-58.253004 47.223387,-105.476391 105.476384,-105.476391 58.253,0 105.47639,47.223387 105.47639,105.476391 z"
         transform="matrix(1.0667253,0,0,1.0667253,2.0440348,2.1173465)" />
      <path
         id="path4852"
         d="m 127.84375,29.46875 c -53.526119,0 -96.982465,43.00013 -97.75,96.34375 10.009722,-5.92814 19.733937,-10.88682 25.9375,-13.75 14.283262,-6.59228 49.44541,-6.58732 61.53125,-1.09375 12.08584,5.49356 32.95038,9.88345 43.9375,1.09375 10.98712,-8.7897 8.80204,-16.486588 31.875,-26.375 5.67666,-2.432854 12.40919,-4.644697 19.625,-6.53125 -16.79408,-29.656481 -48.64174,-49.6875 -85.15625,-49.6875 z"
         style="fill:url(#linearGradient4865);fill-opacity:1;stroke:none" />
      <path
         style="fill:#ffffff;fill-opacity:0.75688076;fill-rule:nonzero;stroke:none"
         d="m 107.05404,59.212876 0,-4.176352 0,4.176352 z"
         id="path2276"
         sodipodi:nodetypes="ccc" />
      <g
         transform="matrix(2.3871829,0,0,2.3871829,-7.7187718,13.322845)"
         id="g6509"
         style="display:inline">
        <g
           id="g5837"
           transform="translate(0.746611,0.0497741)"
           style="opacity:0.900312">
          <path
             style="opacity:0.1;fill:#000000;fill-opacity:1;stroke:none"
             d="m 58.75,37.875 c -9.313478,0.164533 -22.397985,5.901048 -21.15625,17.0625 1.794495,10.610647 12.848603,20.963676 24,18.0625 4.633314,-1.686397 9.783692,-6.663569 9.1875,-11.6875 -2.845577,-1.579964 -9.676327,-0.873821 -8.6875,3.59375 -0.807214,5.173564 -7.885238,4.476955 -10.03125,0.625 C 48.381758,60.712718 55.202012,56.569729 58.75,54.5625 63.086123,51.588903 71.661417,47.917315 69.4375,41.28125 67.170605,37.993899 62.363841,37.857021 58.75,37.875 z m -2.625,4.25 c 4.268976,-0.817974 6.697581,4.115104 4.09375,7.25 C 57.220426,54.678146 48.946968,58.287649 43.65625,54.5 40.619633,47.767648 50.424064,41.741423 56.125,42.125 z"
             id="path5839" />
          <path
             style="opacity:0.1;fill:#000000;fill-opacity:1;stroke:none"
             d="m 58.75,37.625 c -9.176248,0.446215 -20.786041,4.953486 -21.53125,15.46875 0.523489,11.445213 12.389508,22.844972 24,20.3125 4.983006,-1.693543 10.248596,-6.656608 9.875,-12.125 -2.621019,-1.812123 -7.521185,-1.099811 -9.21875,1.5 1.167537,4.380358 -4.291416,7.479461 -7.53125,4.53125 C 50.739652,65.607872 50.188543,60.598117 53.625,58.40625 58.915908,53.523882 68.274122,51.501414 70.1875,43.75 70.446781,38.090637 62.798192,37.505037 58.75,37.625 z m -2.625,4.75 c 3.807312,-0.779286 6.347389,3.482675 4.09375,6.5 -2.814762,5.393246 -10.559521,8.822992 -16.125,5.78125 -2.796506,-4.423495 2.368783,-9.474387 6.25,-11.0625 1.794364,-0.828682 3.792729,-1.210245 5.78125,-1.21875 z"
             id="path5844" />
          <path
             style="opacity:0.1;fill:#000000;fill-opacity:1;stroke:none"
             d="m 58.75,37.40625 c -8.995175,0.390773 -20.336728,4.746112 -21.6875,14.6875 -0.328343,10.190562 8.100132,19.307416 17.71875,21.71875 7.629083,1.904938 16.135576,-4.458923 16.71875,-12.28125 -2.213707,-2.654516 -6.910317,-1.392538 -9.40625,0.375 -0.966756,1.611986 0.115173,4.288727 -2,5.5 C 56.244244,70.124108 49.702153,65.008281 52,60.6875 56.808171,53.997046 67.651146,52.74694 70.375,44.28125 71.321831,38.211998 63.146397,37.132068 58.75,37.40625 z m -2.625,5.1875 C 59.256015,42.005746 62.035258,45.159825 60.34375,48 57.951669,53.700033 50.495655,57.096501 44.6875,54.78125 41.884584,52.319067 44.526615,48.097964 46.65625,46.25 49.223582,43.931897 52.633777,42.625127 56.125,42.59375 z"
             id="path5849" />
          <path
             style="opacity:0.1;fill:#000000;fill-opacity:1;stroke:none"
             d="m 58.71875,37.15625 c -8.096527,0.436661 -17.059207,3.551104 -20.9375,11.15625 -2.936429,6.854751 0.978082,14.506882 5.768545,19.299795 4.633013,4.67729 11.673084,8.291096 18.325205,6.075205 4.984793,-1.871028 9.404493,-6.462629 9.90625,-11.96875 -0.932906,-2.545525 -4.684782,-1.930492 -6.914267,-1.459039 -1.798821,0.401898 -4.114285,1.588628 -3.398233,3.802789 0.128692,3.121335 -3.652992,4.999389 -6.09375,3.28125 -2.346753,-1.069684 -4.978771,-4.207466 -2.96875,-6.84375 4.555847,-5.49835 12.547323,-7.337504 16.8125,-13.09375 2.255382,-2.610287 1.870257,-7.207355 -1.4375,-8.625 -2.742124,-1.478399 -5.967723,-1.722006 -9.0625,-1.625 z m -2.59375,5.6875 c 2.224001,-0.238432 5.038417,1.201477 4.375,3.78125 -1.5961,6.360526 -9.281815,10.039565 -15.40625,8.15625 -2.626494,-1.647468 -0.991553,-5.501655 0.6875,-7.25 2.549433,-2.962831 6.418569,-4.669726 10.34375,-4.6875 z"
             id="path5854" />
          <path
             style="opacity:0.1;fill:#000000;fill-opacity:1;stroke:none"
             d="m 58.71875,36.90625 c -4.786281,0.188997 -9.612673,1.500421 -13.748086,3.774136 -3.847498,2.163485 -7.304836,5.603323 -8.211938,10.064743 -0.694264,3.353573 0.111708,6.836405 1.553774,9.879871 0.952081,2.131046 2.419319,4.256097 4.004335,6.045367 2.493921,2.751006 5.521359,5.135343 8.921182,6.517009 3.667159,1.551563 8.053951,2.114527 11.735589,0.291957 2.685613,-1.131107 5.075214,-3.213004 6.776394,-5.635583 1.13396,-1.648126 1.90047,-3.499689 2.28125,-5.5 0.192441,-1.189887 -0.748881,-2.134387 -1.78125,-2.40625 -2.532761,-0.750315 -5.465296,-0.171644 -7.67214,0.979343 -0.829133,0.479849 -1.698326,1.34576 -1.35911,2.395657 0.181448,1.832819 -0.779429,3.875074 -2.65625,4.3125 -1.377537,0.315222 -2.825644,-0.164533 -3.84544,-0.951352 C 53.215518,65.614048 51.582136,64.015313 52,62 c 0.593029,-2.096241 2.498324,-3.409897 4.21875,-4.625 4.510456,-3.17337 9.864451,-5.452465 13.286547,-9.914195 1.092881,-1.549344 1.706858,-3.514704 1.259263,-5.450503 -0.59203,-2.553725 -3.194264,-3.891833 -5.555524,-4.482809 -2.100863,-0.561181 -4.3216,-0.729962 -6.490286,-0.621243 z m -2.125,6.21875 c 1.502363,-0.01165 3.341305,0.555799 3.65625,2.1875 0.333,2.084287 -1.011554,3.924618 -2.21875,5.46875 -2.344703,2.570801 -5.690511,4.084168 -9.1715,4.23825 -1.568831,0.02889 -3.597934,0.157634 -4.54725,-1.30075 -0.706432,-1.485045 -0.219998,-3.344876 0.655334,-4.636823 1.476472,-2.46129 3.964769,-4.216195 6.598767,-5.197877 1.60238,-0.573804 3.3276,-0.844266 5.027149,-0.75905 z"
             id="path5859" />
          <path
             style="opacity:0.1;fill:#000000;fill-opacity:1;stroke:none"
             d="m 58.71875,36.65625 c -4.328068,0.166412 -8.627018,1.225666 -12.53125,3.09375 -3.477808,1.787955 -6.854127,4.295743 -8.601478,7.921707 -1.971455,3.683922 -1.562041,8.277677 0.03898,12.047043 2.261641,5.268692 6.289559,9.821631 11.329403,12.624294 3.27028,1.877573 7.235399,2.958422 11.034798,2.356598 C 63.205244,74.123287 66.044466,72.289524 68.3125,70 c 1.991544,-2.18821 3.616983,-4.854505 3.96875,-7.84375 0.13206,-1.731644 -1.722716,-2.642331 -3.238835,-2.732979 -2.248232,-0.249945 -4.722174,0.220513 -6.589555,1.306072 -1.009708,0.513471 -1.831559,1.55701 -1.48411,2.736629 0.113737,1.489494 -0.57224,3.178182 -1.96875,3.752778 -1.543957,0.634267 -3.317933,-0.009 -4.470439,-0.982602 -1.318376,-1.029188 -2.723863,-2.474147 -2.244441,-4.290716 0.518015,-1.785307 2.186763,-2.988685 3.655454,-4.10488 4.239905,-3.030638 9.159459,-5.209372 12.781008,-9.026148 1.577516,-1.746377 2.819249,-4.04913 2.349429,-6.487803 -0.27321,-2.209932 -2.186023,-3.681134 -4.117718,-4.490579 -2.589635,-1.029543 -5.461048,-1.302538 -8.234543,-1.179772 z m -2.125,6.71875 c 1.419765,-0.0096 3.265104,0.543128 3.43022,2.119849 0.201183,1.359644 -0.514736,2.627419 -1.123017,3.731846 -1.915638,2.875981 -4.988286,4.821244 -8.387197,5.33613 -1.710895,0.273553 -3.689852,0.441505 -5.240451,-0.255622 -1.315839,-0.696635 -1.176408,-2.493693 -0.762786,-3.703317 0.78899,-2.319505 2.77365,-4.125423 4.8488,-5.439795 2.196069,-1.210545 4.703042,-1.925737 7.234431,-1.789091 z"
             id="path5864" />
          <path
             style="opacity:0.1;fill:#000000;fill-opacity:1;stroke:none"
             d="m 58.71875,36.40625 c -8.048802,0.454099 -17.044613,3.50573 -21.1875,10.84375 -3.547807,6.44637 -0.317069,14.301105 4.15625,19.4375 4.693777,5.430762 12.250684,9.883133 19.63454,7.933114 5.710296,-1.747906 10.694547,-6.858609 11.20921,-12.964364 -0.876,-3.13434 -5.286851,-2.814022 -7.851767,-2.084039 -2.117676,0.440016 -4.675576,1.885979 -3.960733,4.459039 0.168057,2.562553 -3.000207,4.119788 -5.03125,2.65625 -2.153177,-0.952433 -4.49832,-3.915146 -2.4375,-6.125 5.147378,-5.572871 14.147737,-7.453856 17.65625,-14.65625 1.583661,-3.387335 -0.519177,-7.284206 -3.9375,-8.34375 -2.629969,-0.963898 -5.443261,-1.311777 -8.25,-1.15625 z m -2.59375,7.1875 c 2.048157,-0.334079 4.504472,1.178969 3.53125,3.4375 -1.913724,5.55561 -8.617085,8.654458 -14.1875,7.09375 -2.141983,-1.381601 -0.447505,-4.657179 0.84375,-6.125 2.48082,-2.754844 6.001298,-4.421606 9.8125,-4.40625 z"
             id="path5869" />
          <path
             style="opacity:0.1;fill:#000000;fill-opacity:1;stroke:none"
             d="M 58.6875,36.15625 C 49.405175,36.637748 38.072993,40.996436 35.96875,51 c -1.232281,10.555064 7.318273,20.330017 16.875,23.5625 8.844156,3.32929 19.246607,-3.88024 19.90625,-13.03125 -1.348305,-3.8203 -6.953566,-2.881021 -9.875,-1.5625 -2.570905,0.634422 -2.491013,3.165996 -2.625,5.15625 -1.859927,4.739386 -9.943445,-0.823682 -6.84375,-4.34375 5.361292,-6.064965 15.934219,-7.825352 18.15625,-16.375 1.049005,-5.798291 -5.732299,-8.258965 -10.422556,-8.254636 -0.815794,-0.05911 -1.636144,-0.02667 -2.452444,0.0046 z m -2.5625,7.6875 c 2.497941,-0.611499 4.519582,1.884311 2.9375,4 -2.263971,4.911249 -9.095926,8.004641 -14,5.6875 -1.378219,-4.350878 3.691801,-8.073203 7.5,-9.1875 1.177298,-0.383414 2.348754,-0.479159 3.5625,-0.5 z"
             id="path5874" />
          <path
             style="opacity:0.1;fill:#000000;fill-opacity:1;stroke:none"
             d="M 58.6875,35.9375 C 48.684732,36.276352 36.052264,41.713578 35.53125,53.03125 36.034034,65.29911 47.972593,76.981424 60.5,75.34375 c 6.336564,-1.485513 12.797726,-7.514055 12.3125,-14.375 -2.451223,-3.961844 -9.618676,-2.639526 -12.28125,0.59375 -0.478371,1.94231 -0.09232,5.628215 -3.25,5.15625 C 54.252741,66.391915 51.07902,62.227035 54.4375,60 60.093875,54.603857 71.03897,52.269601 71.875,43.25 71.82449,36.87418 63.602842,35.682437 58.6875,35.9375 z m -2.59375,8.125 c 3.460188,-0.781613 4.010909,3.035942 2.03125,5 -2.65142,3.805439 -8.847381,6.58926 -13.03125,4.09375 -0.75226,-5.374999 6.35431,-9.169628 11,-9.09375 z"
             id="path5879" />
          <path
             style="opacity:0.1;fill:#000000;fill-opacity:1;stroke:none"
             d="m 58.6875,35.6875 c -10.278483,0.189945 -23.867577,6.453847 -23.375,18.40625 1.218831,12.087573 13.298665,23.60744 25.84375,21.34375 6.187023,-1.723759 13.046099,-8.151766 11.6875,-15 -3.139997,-3.647989 -11.068543,-2.442212 -12.90625,1.96875 1.153729,3.103473 -2.45774,5.549694 -4.71875,3.125 -3.898816,-1.929491 -1.147186,-5.977197 1.6875,-7.15625 5.73316,-4.27138 16.361914,-7.889214 15.03125,-16.78125 -1.648608,-5.301453 -8.515156,-6.068488 -13.25,-5.90625 z m -2.5625,8.625 c 4.611596,-0.654575 2.697524,4.796774 0.375,6.28125 -2.660522,2.429175 -8.562674,4.919952 -11.28125,2.0625 0.07682,-5.092769 6.376489,-8.386965 10.90625,-8.34375 z"
             id="path5884" />
        </g>
        <g
           id="g5889"
           transform="translate(0.746611,0.0497741)"
           style="opacity:0.900312">
          <path
             style="opacity:0.1;fill:#000000;fill-opacity:1"
             d="m 43.96875,25.15625 c -4.345539,0.854598 -1.9974,8.682844 1.28125,8.6875 1.243012,-1.925612 1.836129,-8.450879 -1.28125,-8.6875 z"
             id="path5891" />
          <path
             style="opacity:0.1;fill:#000000;fill-opacity:1"
             d="m 43.875,24.90625 c -4.538872,1.025632 -2.230095,9.094139 1.375,9.25 1.5672,-1.966267 2.239787,-9.131878 -1.375,-9.25 z"
             id="path5896" />
          <path
             style="opacity:0.1;fill:#000000;fill-opacity:1"
             d="m 44.03125,24.625 c -4.753571,1.03998 -2.984993,7.870252 0.28125,9.75 2.248963,0.63292 2.335216,-3.23705 2.375,-4.65625 0.0096,-1.693976 -0.342349,-5.181338 -2.65625,-5.09375 z"
             id="path5901" />
          <path
             style="opacity:0.1;fill:#000000;fill-opacity:1"
             d="m 44,24.40625 c -3.124337,0.296137 -3.816344,4.253638 -2.53125,6.6875 0.688693,1.605392 2.11127,4.213226 4.0625,3.46875 1.950184,-2.54763 1.861685,-6.61029 0.28125,-9.375 C 45.356527,24.649591 44.722568,24.291419 44,24.40625 z"
             id="path5906" />
          <path
             style="opacity:0.1;fill:#000000;fill-opacity:1"
             d="m 43.96875,24.15625 c -1.814216,0.184139 -3.212636,1.747917 -3.31582,3.554488 -0.137681,2.61974 1.043875,5.359743 3.12832,6.945512 0.669717,0.43686 1.792556,0.519462 2.297848,-0.297848 1.26413,-2.153796 1.357504,-4.893217 0.795902,-7.295902 -0.267913,-1.203392 -0.881146,-2.474357 -2.088599,-2.86772 -0.267893,-0.03461 -0.551047,-0.09495 -0.817651,-0.03853 z"
             id="path5911" />
          <path
             style="opacity:0.1;fill:#000000;fill-opacity:1"
             d="m 43.90625,23.90625 c -1.879828,0.235475 -3.372326,1.847588 -3.501057,3.7423 -0.182341,2.623689 0.997811,5.224761 2.907307,6.97645 0.789919,0.672495 2.160723,0.938947 2.861734,0.0018 1.377244,-2.013093 1.454835,-4.722565 1.075766,-7.095518 -0.289443,-1.715971 -1.305125,-3.890746 -3.34375,-3.625 z"
             id="path5916" />
          <path
             style="opacity:0.1;fill:#000000;fill-opacity:1"
             d="m 43.875,23.65625 c -3.854221,0.473694 -4.57217,5.28083 -2.90625,8.1875 0.838041,1.781121 2.804294,4.584497 5.03125,3.28125 2.277037,-2.652722 2.151392,-7.048623 0.59375,-10.0625 -0.57862,-0.903387 -1.600296,-1.591771 -2.71875,-1.40625 z"
             id="path5921" />
          <path
             style="opacity:0.1;fill:#000000;fill-opacity:1"
             d="m 44.0625,23.40625 c -4.855197,0.410357 -5.083093,6.831117 -2.5625,9.90625 0.950762,2.204964 4.737527,3.666231 5.65625,0.59375 1.266613,-2.995054 1.449992,-10.383474 -3.09375,-10.5 z"
             id="path5926" />
          <path
             style="opacity:0.1;fill:#000000;fill-opacity:1"
             d="m 44.03125,23.15625 c -5.612026,0.542278 -5.276499,8.42643 -1.8125,11.40625 1.779388,2.686888 5.648827,1.081976 5.65625,-2.03125 0.640092,-3.13342 0.506609,-9.303664 -3.84375,-9.375 z"
             id="path5931" />
          <path
             style="opacity:0.1;fill:#000000;fill-opacity:1"
             d="m 44,22.90625 c -7.531531,0.784583 -4.845711,13.767473 1.75,13.1875 3.980711,-2.083057 3.799697,-13.224479 -1.75,-13.1875 z"
             id="path5936" />
        </g>
        <g
           id="g5941"
           transform="translate(0.746611,0.0497741)"
           style="opacity:0.900312">
          <path
             style="opacity:0.1;fill:#000000;fill-opacity:1"
             d="m 35.1875,32.375 c -3.660073,1.456926 -0.204668,7.88072 2.59375,7.1875 0.530875,-2.156864 0.119908,-6.857368 -2.59375,-7.1875 z"
             id="path5943" />
          <path
             style="opacity:0.1;fill:#000000;fill-opacity:1"
             d="m 35.34375,32.09375 c -4.28432,1.22451 -0.753179,8.479063 2.53125,7.78125 0.854871,-2.296558 0.253427,-7.168678 -2.53125,-7.78125 z"
             id="path5948" />
          <path
             style="opacity:0.1;fill:#000000;fill-opacity:1"
             d="m 35.1875,31.875 c -4.275173,1.63055 -1.118451,8.131808 2.4375,8.4375 1.891533,-1.821706 0.579261,-5.67826 -0.71875,-7.625 -0.404374,-0.522878 -1.024673,-0.998547 -1.71875,-0.8125 z"
             id="path5953" />
          <path
             style="opacity:0.1;fill:#000000;fill-opacity:1"
             d="m 35.25,31.625 c -2.665458,0.469841 -3.010619,4.130161 -1.46875,6.03125 0.891958,1.429395 2.662531,3.629412 4.4375,2.59375 1.121552,-2.642481 0.386106,-6.147498 -1.625,-8.21875 C 36.285909,31.732624 35.748072,31.526341 35.25,31.625 z"
             id="path5958" />
          <path
             style="opacity:0.1;fill:#000000;fill-opacity:1"
             d="m 35.21875,31.375 c -1.84145,0.36241 -2.99536,2.306036 -2.535017,4.119092 0.435032,2.16335 1.871758,4.152012 3.838467,5.138308 0.823386,0.428921 1.96466,0.167529 2.20395,-0.81085 0.643917,-2.382917 0.03542,-5.066943 -1.16365,-7.1028 -0.531104,-0.745082 -1.34494,-1.515926 -2.34375,-1.34375 z"
             id="path5963" />
          <path
             style="opacity:0.1;fill:#000000;fill-opacity:1"
             d="m 35.15625,31.125 c -1.70082,0.382331 -3.012013,2.079918 -2.8125,3.875 0.235069,2.047657 1.426171,3.910816 3,5.1875 0.850159,0.70766 2.33029,1.373531 3.21875,0.40625 0.998724,-1.474224 0.713988,-3.465575 0.378214,-5.143396 -0.405118,-1.67838 -1.175818,-3.576132 -2.846964,-4.262854 -0.309781,-0.05839 -0.622886,-0.145924 -0.9375,-0.0625 z"
             id="path5968" />
          <path
             style="opacity:0.1;fill:#000000;fill-opacity:1"
             d="m 35.125,30.875 c -2.957557,0.569845 -3.86647,4.37641 -2.1875,6.75 1.036344,1.896104 3.22254,4.495221 5.5625,3.375 1.884118,-2.389407 0.857491,-6.131215 -0.5625,-8.5625 -0.604174,-0.947105 -1.609084,-1.74077 -2.8125,-1.5625 z"
             id="path5973" />
          <path
             style="opacity:0.1;fill:#000000;fill-opacity:1"
             d="m 35.28125,30.625 c -4.183895,0.620173 -4.204978,6.248673 -1.53125,8.65625 1.115036,2.191504 5.470462,3.558031 5.8125,0.125 0.549979,-2.950172 -0.53285,-8.672242 -4.28125,-8.78125 z"
             id="path5978" />
          <path
             style="opacity:0.1;fill:#000000;fill-opacity:1"
             d="m 35.03125,30.40625 c -5.266687,1.274121 -3.598733,8.584042 0.25,10.625 2.792166,2.446115 5.569061,-1.117799 4.65625,-4 -0.272055,-2.649675 -1.519983,-6.917613 -4.90625,-6.625 z"
             id="path5983" />
          <path
             style="opacity:0.1;fill:#000000;fill-opacity:1"
             d="M 35,30.15625 C 27.938854,31.824182 32.655398,43.532246 38.71875,41.75 41.908554,39.078164 39.805654,29.767645 35,30.15625 z"
             id="path5988" />
        </g>
        <g
           id="g5993"
           transform="translate(0.746611,0.0497741)"
           style="opacity:0.900312">
          <path
             style="opacity:0.1;fill:#000000;fill-opacity:1"
             d="M 55.65625,20.5 C 50.665645,20.719391 51.041157,29.945214 54.875,31 57.022364,29.460925 59.980264,20.734903 55.65625,20.5 z"
             id="path5995" />
          <path
             style="opacity:0.1;fill:#000000;fill-opacity:1"
             d="m 55.625,20.25 c -5.173188,0.321338 -4.938201,9.606134 -0.9375,11.0625 2.868765,-1.992216 4.751518,-7.931986 2.125,-10.875 C 56.449223,20.258926 56.026527,20.209416 55.625,20.25 z"
             id="path6000" />
          <path
             style="opacity:0.1;fill:#000000;fill-opacity:1"
             d="m 55.59375,20 c -5.203663,0.516645 -4.926186,8.298345 -2,11.15625 2.312601,1.687598 3.745789,-2.94266 4.25,-4.53125 0.518315,-2.094446 1.185349,-6.825871 -2.25,-6.625 z"
             id="path6005" />
          <path
             style="opacity:0.1;fill:#000000;fill-opacity:1"
             d="m 55.5625,19.78125 c -3.561173,0.01941 -4.825556,4.389196 -4.09375,7.375 0.315422,1.764346 1.339931,5.200774 3.6875,4.53125 2.790101,-2.351809 3.751608,-6.551731 3.125,-10 -0.372676,-1.265004 -1.361324,-2.112508 -2.71875,-1.90625 z"
             id="path6010" />
          <path
             style="opacity:0.1;fill:#000000;fill-opacity:1"
             d="m 55.53125,19.53125 c -1.850824,0.03644 -3.518866,1.391467 -4.011177,3.090441 -0.88306,2.610861 -0.413114,5.599826 0.917427,7.972059 0.600865,0.944068 1.800615,1.966968 2.9375,1.25 1.679254,-1.242294 2.367408,-3.235869 2.96147,-5.182349 0.457458,-2.065381 0.812875,-4.551756 -0.46147,-6.317651 -0.594591,-0.627651 -1.433781,-0.905737 -2.34375,-0.8125 z"
             id="path6015" />
          <path
             style="opacity:0.1;fill:#000000;fill-opacity:1"
             d="m 55.53125,19.28125 c -2.258485,0.03369 -4.102024,1.891475 -4.496744,4.056473 -0.536652,2.80584 -0.03317,5.993626 1.837591,8.181539 0.720711,0.877004 2.143886,1.141603 2.971653,0.261988 1.491864,-1.315113 2.25897,-3.269429 2.766689,-5.177197 0.443357,-2.156463 0.851213,-4.797438 -0.704189,-6.572803 -0.637348,-0.611508 -1.48494,-0.831796 -2.375,-0.75 z"
             id="path6020" />
          <path
             style="opacity:0.1;fill:#000000;fill-opacity:1"
             d="m 55.53125,19.03125 c -4.386832,0.108719 -5.807272,5.552196 -4.576709,9.170435 0.380262,2.054277 2.260199,5.429359 4.701709,4.017065 2.98196,-2.447316 4.100634,-7.11137 3.3125,-10.84375 -0.469706,-1.524299 -1.797219,-2.544508 -3.4375,-2.34375 z"
             id="path6025" />
          <path
             style="opacity:0.1;fill:#000000;fill-opacity:1"
             d="m 55.75,18.78125 c -5.203286,-0.04193 -6.566887,6.811829 -4.625,10.75 0.46021,2.698358 4.15858,4.695481 5.8125,1.84375 2.208848,-3.242701 4.106195,-8.940955 0.875,-12.03125 -0.587704,-0.453091 -1.363839,-0.546118 -2.0625,-0.5625 z"
             id="path6030" />
          <path
             style="opacity:0.1;fill:#000000;fill-opacity:1"
             d="m 55.71875,18.53125 c -7.268798,0.135138 -7.440599,12.538186 -1.375,14.53125 4.714042,-0.967451 5.875431,-7.656889 5.09375,-11.8125 -0.477361,-1.631836 -1.960125,-2.843543 -3.71875,-2.71875 z"
             id="path6035" />
          <path
             style="opacity:0.1;fill:#000000;fill-opacity:1"
             d="m 55.53125,18.3125 c -7.44331,0.279214 -7.52972,13.252086 -1.09375,15 4.935153,-1.17048 6.353329,-8.350542 5,-12.65625 -0.549416,-1.56534 -2.260416,-2.554666 -3.90625,-2.34375 z"
             id="path6040" />
        </g>
        <g
           id="g6045"
           transform="translate(0.746611,0.0497741)"
           style="opacity:0.900312">
          <path
             style="opacity:0.1;fill:#000000;fill-opacity:1"
             d="m 73.8125,18.40625 c -6.712748,-0.16358 -12.455025,9.12334 -8.15625,14.53125 5.37102,0.980318 9.364297,-5.129233 11.71875,-9.125 1.794865,-3.199183 0.43384,-5.947226 -3.5625,-5.40625 z"
             id="path6047" />
          <path
             style="opacity:0.1;fill:#000000;fill-opacity:1"
             d="M 73.8125,18.15625 C 66.918751,18.037942 61.193012,27.2811 65.3125,33 c 4.562481,1.686707 8.673877,-3.736409 11.03125,-6.90625 2.129249,-2.133586 3.505323,-7.973765 -1.125,-7.90625 -0.468488,-0.01883 -0.937748,-0.111088 -1.40625,-0.03125 z"
             id="path6052" />
          <path
             style="opacity:0.1;fill:#000000;fill-opacity:1"
             d="m 73.78125,17.9375 c -6.961316,-0.07172 -12.475202,8.767736 -9,14.84375 3.061781,2.732348 7.237853,-1.415513 9.40625,-3.5625 2.169889,-2.582761 6.075266,-6.950317 3.59375,-10.375 -1.117542,-0.881442 -2.635964,-0.985189 -4,-0.90625 z"
             id="path6057" />
          <path
             style="opacity:0.1;fill:#000000;fill-opacity:1"
             d="m 73.78125,17.6875 c -6.972961,0.0049 -12.038592,8.107511 -9.75,14.40625 1.345782,3.029425 5.140719,1.724755 7.113499,0.13436 3.5591,-2.775491 7.490472,-6.781472 7.699001,-11.63436 -0.102959,-2.532468 -2.891203,-3.04406 -5.0625,-2.90625 z"
             id="path6062" />
          <path
             style="opacity:0.1;fill:#000000;fill-opacity:1"
             d="m 73.75,17.4375 c -2.927755,0.12045 -5.681936,1.422499 -7.550512,3.653347 -1.57474,1.792204 -2.470294,3.991529 -2.855738,6.346653 -0.330713,2.261393 -0.141573,5.017733 1.875,6.375 1.721781,0.895652 3.716127,0.03588 5.207288,-0.817055 2.380507,-1.469267 4.380997,-3.527008 6.049782,-5.752185 1.427146,-2.072712 2.89263,-4.495017 2.557037,-7.111833 C 78.830256,18.958868 77.87272,18.036481 76.739023,17.760213 75.776109,17.469925 74.752298,17.369122 73.75,17.4375 z"
             id="path6067" />
          <path
             style="opacity:0.1;fill:#000000;fill-opacity:1"
             d="m 73.75,17.1875 c -3.775037,0.08677 -7.279857,2.349474 -9.060668,5.648646 -1.440723,2.443209 -2.104096,5.517547 -1.497962,8.343422 0.381353,1.738196 1.816592,3.424589 3.743352,3.257932 2.456893,-0.127199 4.492633,-1.729153 6.304635,-3.248897 2.44871,-2.182842 4.514126,-4.903677 5.681693,-7.951753 0.63802,-1.685231 0.732013,-4.003565 -0.8898,-5.11185 C 76.833973,17.249176 75.209336,17.128002 73.75,17.1875 z"
             id="path6072" />
          <path
             style="opacity:0.1;fill:#000000;fill-opacity:1"
             d="m 73.71875,16.9375 c -7.451776,0.108225 -12.886784,8.624699 -10.34375,15.46875 1.197584,3.023232 5.190986,2.63798 7.404683,0.930667 4.151137,-2.77993 8.033472,-7.011992 8.814067,-12.086917 0.364158,-3.348534 -3.078901,-4.586173 -5.875,-4.3125 z"
             id="path6077" />
          <path
             style="opacity:0.1;fill:#000000;fill-opacity:1"
             d="M 73.71875,16.6875 C 65.85042,16.6929 59.823919,26.522491 63.6875,33.40625 66.807804,36.997314 71.854957,33.35466 74.375,30.8125 77.2199,27.701033 81.425027,22.926583 79.125,18.5 77.899789,16.876171 75.609407,16.625842 73.71875,16.6875 z"
             id="path6082" />
          <path
             style="opacity:0.1;fill:#000000;fill-opacity:1"
             d="M 73.6875,16.46875 C 65.520666,16.336711 58.982593,27.346075 63.9375,34 c 4.472607,3.494109 9.855535,-1.98947 12.65625,-5.28125 2.689972,-2.931182 5.826421,-9.714237 0.71875,-11.8125 -1.146669,-0.402609 -2.404218,-0.520134 -3.625,-0.4375 z"
             id="path6087" />
          <path
             style="opacity:0.1;fill:#000000;fill-opacity:1"
             d="M 73.6875,16.21875 C 65.228573,16.023502 58.294945,27.859412 64.09375,34.5 69.606893,37.631966 75.072925,31.151224 78,27.1875 80.987686,24.024579 81.647674,16.751119 75.96875,16.3125 75.215062,16.218574 74.446904,16.146804 73.6875,16.21875 z"
             id="path6092" />
        </g>
        <path
           d="m 74.294172,17.296555 c -11.953772,0 -14.196137,17.025938 -7.471472,17.025938 6.723694,0 19.425732,-17.025938 7.471472,-17.025938 z"
           id="path3226"
           style="fill:url(#linearGradient6571);fill-opacity:1;display:inline" />
        <path
           d="m 54.445235,32.212775 c 3.580496,0.218649 7.508886,-13.664091 0.779362,-12.790954 -6.727095,0.873138 -4.361315,12.572306 -0.779362,12.790954 z"
           id="path3228"
           style="fill:url(#linearGradient6573);fill-opacity:1;display:inline" />
        <path
           d="m 38.035887,40.839199 c 2.546529,-1.120939 0.327973,-12.084962 -4.002245,-9.094818 -4.328274,2.99063 1.455715,10.215272 4.002245,9.094818 z"
           id="path3230"
           style="fill:url(#linearGradient6575);fill-opacity:1;display:inline" />
        <path
           d="m 45.210968,35.100397 c 3.031444,-0.618047 3.197617,-13.052847 -2.208353,-10.822143 -5.406941,2.231189 -0.820661,11.441162 2.208353,10.822143 l 0,0 z"
           id="path3232"
           style="fill:url(#linearGradient6577);fill-opacity:1;display:inline" />
        <path
           style="fill:url(#radialGradient3056);fill-opacity:1;stroke:none;display:inline"
           d="m 59.572947,36.753198 c -9.18361,0.08147 -20.877053,4.734855 -22.912355,13.849595 -2.260833,10.116637 9.31021,24.15426 21.379625,24.15426 5.937532,-3e-6 12.788399,-5.360083 14.069679,-12.151802 0.978579,-5.179058 -11.516059,-3.104688 -11.0671,0.322267 0.537877,4.10768 -3.014517,6.13799 -6.492489,3.489909 C 43.478416,57.987788 72.884792,53.779642 70.946593,42.263167 70.318168,38.529055 65.459877,36.700976 59.572947,36.753198 z m -3.458469,6.476768 c 2.722834,0 4.079419,0.913615 4.079422,2.782496 0,2.501116 -3.799185,8.905554 -12.246124,8.905557 -3.907343,0 -3.835759,-1.794757 -3.835756,-2.923979 0,-3.273223 4.91097,-8.764071 12.002458,-8.764074 z"
           id="path3234" />
      </g>
    </g>
  </g>
</svg>
