<?xml version="1.0" encoding="UTF-8" standalone="no"?>
<!-- Created with Inkscape (http://www.inkscape.org/) -->

<svg
   xmlns:dc="http://purl.org/dc/elements/1.1/"
   xmlns:cc="http://creativecommons.org/ns#"
   xmlns:rdf="http://www.w3.org/1999/02/22-rdf-syntax-ns#"
   xmlns:svg="http://www.w3.org/2000/svg"
   xmlns="http://www.w3.org/2000/svg"
   xmlns:xlink="http://www.w3.org/1999/xlink"
   xmlns:sodipodi="http://sodipodi.sourceforge.net/DTD/sodipodi-0.dtd"
   xmlns:inkscape="http://www.inkscape.org/namespaces/inkscape"
   width="256"
   height="256"
   id="svg9253"
   version="1.1"
   inkscape:version="0.47pre0 r21549"
   sodipodi:docname="Nouveau document 2"
   inkscape:output_extension="org.inkscape.output.svg.inkscape">
  <defs
     id="defs9255">
    <inkscape:perspective
       sodipodi:type="inkscape:persp3d"
       inkscape:vp_x="0 : 526.18109 : 1"
       inkscape:vp_y="0 : 1000 : 0"
       inkscape:vp_z="744.09448 : 526.18109 : 1"
       inkscape:persp3d-origin="372.04724 : 350.78739 : 1"
       id="perspective9261" />
    <inkscape:perspective
       id="perspective9190"
       inkscape:persp3d-origin="0.5 : 0.33333333 : 1"
       inkscape:vp_z="1 : 0.5 : 1"
       inkscape:vp_y="0 : 1000 : 0"
       inkscape:vp_x="0 : 0.5 : 1"
       sodipodi:type="inkscape:persp3d" />
    <radialGradient
       inkscape:collect="always"
       xlink:href="#linearGradient4824"
       id="radialGradient4830"
       cx="15.593588"
       cy="88.653885"
       fx="15.593588"
       fy="88.653885"
       r="114.76744"
       gradientUnits="userSpaceOnUse" />
    <linearGradient
       inkscape:collect="always"
       id="linearGradient4824">
      <stop
         style="stop-color:#ffffff;stop-opacity:1;"
         offset="0"
         id="stop4826" />
      <stop
         style="stop-color:#ffffff;stop-opacity:0;"
         offset="1"
         id="stop4828" />
    </linearGradient>
    <radialGradient
       inkscape:collect="always"
       xlink:href="#linearGradient4824"
       id="radialGradient4838"
       gradientUnits="userSpaceOnUse"
       cx="219.53087"
       cy="98.953751"
       fx="219.53087"
       fy="98.953751"
       r="114.76744" />
    <radialGradient
       inkscape:collect="always"
       xlink:href="#linearGradient4824"
       id="radialGradient4842"
       gradientUnits="userSpaceOnUse"
       cx="117.56223"
       cy="1.6960773"
       fx="117.56223"
       fy="1.6960773"
       r="114.76744"
       gradientTransform="matrix(1.439753,0,0,1,-51.698347,0)" />
    <radialGradient
       inkscape:collect="always"
       xlink:href="#linearGradient4980"
       id="radialGradient2354"
       gradientUnits="userSpaceOnUse"
       spreadMethod="reflect"
       cx="275"
       cy="110.36218"
       fx="275"
       fy="110.36218"
       r="95.5" />
    <linearGradient
       id="linearGradient4980">
      <stop
         id="stop4982"
         offset="0"
         style="stop-color:#74c332;stop-opacity:1;" />
      <stop
         id="stop4984"
         offset="1"
         style="stop-color:#9ecd5e;stop-opacity:1;" />
    </linearGradient>
    <radialGradient
       inkscape:collect="always"
       xlink:href="#linearGradient4803"
       id="radialGradient63594"
       gradientUnits="userSpaceOnUse"
       gradientTransform="matrix(1.0174276,-2.2832269e-6,1.7806128e-6,0.79006608,-246.1227,-34.123747)"
       cx="370.5"
       cy="205.86218"
       fx="370.49969"
       fy="276.16208"
       r="95.5" />
    <linearGradient
       id="linearGradient4803">
      <stop
         id="stop4805"
         offset="0"
         style="stop-color:#c9df18;stop-opacity:1;" />
      <stop
         id="stop4807"
         offset="1"
         style="stop-color:#e88524;stop-opacity:0;" />
    </linearGradient>
    <radialGradient
       inkscape:collect="always"
       xlink:href="#linearGradient4873"
       id="radialGradient2358"
       gradientUnits="userSpaceOnUse"
       gradientTransform="matrix(1.287812,-2.889916e-6,2.253816e-6,0.999999,-106.6348,0.00113868)"
       cx="370.5"
       cy="205.86218"
       fx="370.49969"
       fy="276.16208"
       r="95.5" />
    <linearGradient
       id="linearGradient4873">
      <stop
         style="stop-color:#ffe957;stop-opacity:1;"
         offset="0"
         id="stop4875" />
      <stop
         style="stop-color:#f9ff81;stop-opacity:0;"
         offset="1"
         id="stop4877" />
    </linearGradient>
    <linearGradient
       inkscape:collect="always"
       xlink:href="#linearGradient4787"
       id="linearGradient2360"
       gradientUnits="userSpaceOnUse"
       x1="378.33893"
       y1="156.19418"
       x2="378.33893"
       y2="274.39832" />
    <linearGradient
       id="linearGradient4787"
       inkscape:collect="always">
      <stop
         id="stop4789"
         offset="0"
         style="stop-color:white;stop-opacity:1;" />
      <stop
         id="stop4791"
         offset="1"
         style="stop-color:white;stop-opacity:0;" />
    </linearGradient>
    <linearGradient
       inkscape:collect="always"
       xlink:href="#linearGradient4787"
       id="linearGradient63589"
       gradientUnits="userSpaceOnUse"
       x1="376.3555"
       y1="120.19418"
       x2="376.3555"
       y2="323.39832"
       gradientTransform="matrix(0.79004357,0,0,0.79006687,-161.87656,-34.114489)" />
    <linearGradient
       inkscape:collect="always"
       xlink:href="#linearGradient4859"
       id="linearGradient4865"
       x1="121.54688"
       y1="-8.986186"
       x2="121.54688"
       y2="143.39191"
       gradientUnits="userSpaceOnUse" />
    <linearGradient
       inkscape:collect="always"
       id="linearGradient4859">
      <stop
         style="stop-color:#ffffff;stop-opacity:1;"
         offset="0"
         id="stop4861" />
      <stop
         style="stop-color:#ffffff;stop-opacity:0;"
         offset="1"
         id="stop4863" />
    </linearGradient>
  </defs>
  <sodipodi:namedview
     id="base"
     pagecolor="#ffffff"
     bordercolor="#666666"
     borderopacity="1.0"
     inkscape:pageopacity="0.0"
     inkscape:pageshadow="2"
     inkscape:zoom="0.35"
     inkscape:cx="375"
     inkscape:cy="520"
     inkscape:document-units="px"
     inkscape:current-layer="layer1"
     showgrid="false"
     inkscape:window-width="706"
     inkscape:window-height="485"
     inkscape:window-x="958"
     inkscape:window-y="24"
     inkscape:window-maximized="0" />
  <metadata
     id="metadata9258">
    <rdf:RDF>
      <cc:Work
         rdf:about="">
        <dc:format>image/svg+xml</dc:format>
        <dc:type
           rdf:resource="http://purl.org/dc/dcmitype/StillImage" />
        <dc:title></dc:title>
      </cc:Work>
    </rdf:RDF>
  </metadata>
  <g
     inkscape:label="Calque 1"
     inkscape:groupmode="layer"
     id="layer1"
     transform="translate(0,-796.36218)">
    <g
       transform="translate(-3.1235624e-4,796.36192)"
       id="g9167">
      <path
         transform="matrix(1.15625,0,0,1.15625,-8.480688,-8.309014)"
         d="m 223.03862,116.46352 c 0,58.253 -47.22339,105.47638 -105.47639,105.47638 -58.252997,0 -105.476384,-47.22338 -105.476384,-105.47638 0,-58.253004 47.223387,-105.476391 105.476384,-105.476391 58.253,0 105.47639,47.223387 105.47639,105.476391 z"
         sodipodi:ry="105.47639"
         sodipodi:rx="105.47639"
         sodipodi:cy="116.46352"
         sodipodi:cx="117.56223"
         id="path4820"
         style="fill:#000000;fill-opacity:1;stroke:none"
         sodipodi:type="arc" />
      <path
         sodipodi:type="arc"
         style="fill:none;stroke:url(#radialGradient4830);stroke-width:18.58210373;stroke-miterlimit:4;stroke-opacity:1;stroke-dasharray:none"
         id="path4822"
         sodipodi:cx="117.56223"
         sodipodi:cy="116.46352"
         sodipodi:rx="105.47639"
         sodipodi:ry="105.47639"
         d="m 223.03862,116.46352 c 0,58.253 -47.22339,105.47638 -105.47639,105.47638 -58.252997,0 -105.476384,-47.22338 -105.476384,-105.47638 0,-58.253004 47.223387,-105.476391 105.476384,-105.476391 58.253,0 105.47639,47.223387 105.47639,105.476391 z"
         transform="matrix(1.0667253,0,0,1.0667253,2.0440348,2.1173465)" />
      <path
         transform="matrix(1.0667253,0,0,1.0667253,2.0440348,2.1173465)"
         d="m 223.03862,116.46352 c 0,58.253 -47.22339,105.47638 -105.47639,105.47638 -58.252997,0 -105.476384,-47.22338 -105.476384,-105.47638 0,-58.253004 47.223387,-105.476391 105.476384,-105.476391 58.253,0 105.47639,47.223387 105.47639,105.476391 z"
         sodipodi:ry="105.47639"
         sodipodi:rx="105.47639"
         sodipodi:cy="116.46352"
         sodipodi:cx="117.56223"
         id="path4836"
         style="fill:none;stroke:url(#radialGradient4838);stroke-width:18.58210373;stroke-miterlimit:4;stroke-opacity:1;stroke-dasharray:none"
         sodipodi:type="arc" />
      <path
         sodipodi:type="arc"
         style="fill:none;stroke:url(#radialGradient4842);stroke-width:18.58210373;stroke-miterlimit:4;stroke-opacity:1;stroke-dasharray:none"
         id="path4840"
         sodipodi:cx="117.56223"
         sodipodi:cy="116.46352"
         sodipodi:rx="105.47639"
         sodipodi:ry="105.47639"
         d="m 223.03862,116.46352 c 0,58.253 -47.22339,105.47638 -105.47639,105.47638 -58.252997,0 -105.476384,-47.22338 -105.476384,-105.47638 0,-58.253004 47.223387,-105.476391 105.476384,-105.476391 58.253,0 105.47639,47.223387 105.47639,105.476391 z"
         transform="matrix(1.0667253,0,0,1.0667253,2.0440348,2.1173465)" />
      <g
         id="g63616"
         transform="translate(2.7819258,12.673084)">
        <path
           sodipodi:type="arc"
           style="fill:url(#radialGradient2354);fill-opacity:1;fill-rule:evenodd;stroke:none"
           id="path2592"
           sodipodi:cx="370.5"
           sodipodi:cy="205.86218"
           sodipodi:rx="95.5"
           sodipodi:ry="95.5"
           d="m 466,205.86218 c 0,52.7432 -42.75681,95.5 -95.5,95.5 -52.74319,0 -95.5,-42.7568 -95.5,-95.5 0,-52.74319 42.75681,-95.5 95.5,-95.5 52.74319,0 95.5,42.75681 95.5,95.5 z"
           transform="matrix(0.79004357,0,0,0.79006687,-167.30341,-48.730726)" />
        <path
           style="opacity:0.4;fill:url(#radialGradient63594);fill-opacity:1;fill-rule:evenodd;stroke:none"
           d="m 98.763752,108.16149 c -18.889926,-0.0651 -35.060617,2.29144 -48.80988,6.02426 0.148489,41.52278 33.892972,75.1798 75.449158,75.1798 37.37944,0 68.43844,-27.24155 74.41223,-62.93377 -4.57501,-1.10457 -9.26128,-2.36885 -14.07265,-3.82688 -33.90974,-10.27598 -62.69181,-14.35971 -86.978858,-14.44341 z m 101.076198,18.0234 c 0.82385,-6.96665 1.08093,-6.91063 0,0 z"
           id="path2594"
           sodipodi:nodetypes="ccscsccc" />
        <path
           sodipodi:type="arc"
           style="opacity:0.3;fill:url(#radialGradient2358);fill-opacity:1;fill-rule:evenodd;stroke:none"
           id="path2596"
           sodipodi:cx="370.5"
           sodipodi:cy="205.86218"
           sodipodi:rx="95.5"
           sodipodi:ry="95.5"
           d="m 466,205.86218 c 0,52.7432 -42.75681,95.5 -95.5,95.5 -52.74319,0 -95.5,-42.7568 -95.5,-95.5 0,-52.74319 42.75681,-95.5 95.5,-95.5 52.74319,0 95.5,42.75681 95.5,95.5 z"
           transform="matrix(0.79004357,0,0,0.79006687,-167.30341,-48.730726)" />
        <path
           sodipodi:type="star"
           style="fill:url(#linearGradient2360);fill-opacity:1;fill-rule:evenodd;stroke:none"
           id="path2598"
           sodipodi:sides="3"
           sodipodi:cx="367"
           sodipodi:cy="169.36218"
           sodipodi:r1="58.523499"
           sodipodi:r2="29.261749"
           sodipodi:arg1="2.0943951"
           sodipodi:arg2="3.1415927"
           inkscape:flatsided="true"
           inkscape:rounded="0.1"
           inkscape:randomized="0"
           d="m 337.73825,220.04502 c -8.77852,-5.06828 -8.77852,-96.29739 0,-101.36567 8.77853,-5.06829 87.78525,40.54627 87.78525,50.68283 0,10.13657 -79.00672,55.75112 -87.78525,50.68284 z"
           transform="matrix(0.79004357,0,0,-0.79006687,-168.7563,247.72164)" />
        <path
           style="fill:url(#linearGradient63589);fill-opacity:1;fill-rule:evenodd;stroke:none"
           d="m 99.405662,73.556812 c -0.556775,0.01872 -1.008104,0.13326 -1.333199,0.320964 -3.120624,1.801748 -4.822939,17.380026 -5.135283,34.343224 20.67267,-0.4853 44.77131,1.98683 72.7087,8.86356 1.12772,-1.29118 1.7776,-2.36045 1.7776,-3.16027 0,-7.63317 -56.69668,-40.748583 -68.017818,-40.367478 z"
           id="path2600" />
        <path
           transform="matrix(0.79004357,0,0,0.79006687,-167.30341,-48.730726)"
           d="m 466,205.86218 c 0,52.7432 -42.75681,95.5 -95.5,95.5 -52.74319,0 -95.5,-42.7568 -95.5,-95.5 0,-52.74319 42.75681,-95.5 95.5,-95.5 52.74319,0 95.5,42.75681 95.5,95.5 z"
           sodipodi:ry="95.5"
           sodipodi:rx="95.5"
           sodipodi:cy="205.86218"
           sodipodi:cx="370.5"
           id="path2604"
           style="opacity:0.5;fill:none;stroke:#ffffff;stroke-width:6;stroke-miterlimit:4;stroke-opacity:1;stroke-dasharray:none"
           sodipodi:type="arc" />
      </g>
      <path
         id="path4852"
         d="m 127.84375,29.46875 c -53.526119,0 -96.982465,43.00013 -97.75,96.34375 10.009722,-5.92814 19.733937,-10.88682 25.9375,-13.75 14.283262,-6.59228 49.44541,-6.58732 61.53125,-1.09375 12.08584,5.49356 32.95038,9.88345 43.9375,1.09375 10.98712,-8.7897 8.80204,-16.486588 31.875,-26.375 5.67666,-2.432854 12.40919,-4.644697 19.625,-6.53125 -16.79408,-29.656481 -48.64174,-49.6875 -85.15625,-49.6875 z"
         style="fill:url(#linearGradient4865);fill-opacity:1;stroke:none" />
      <path
         style="fill:#ffffff;fill-opacity:0.75688076;fill-rule:nonzero;stroke:none"
         d="m 107.05404,59.212876 0,-4.176352 0,4.176352 z"
         id="path2276"
         sodipodi:nodetypes="ccc" />
    </g>
  </g>
</svg>
