<?xml version="1.0" encoding="UTF-8" standalone="no"?>
<!-- Created with Inkscape (http://www.inkscape.org/) -->

<svg
   xmlns:dc="http://purl.org/dc/elements/1.1/"
   xmlns:cc="http://creativecommons.org/ns#"
   xmlns:rdf="http://www.w3.org/1999/02/22-rdf-syntax-ns#"
   xmlns:svg="http://www.w3.org/2000/svg"
   xmlns="http://www.w3.org/2000/svg"
   xmlns:xlink="http://www.w3.org/1999/xlink"
   xmlns:sodipodi="http://sodipodi.sourceforge.net/DTD/sodipodi-0.dtd"
   xmlns:inkscape="http://www.inkscape.org/namespaces/inkscape"
   width="256"
   height="256"
   id="svg88599"
   version="1.1"
   inkscape:version="0.47pre0 r21549"
   sodipodi:docname="Nouveau document 52"
   inkscape:output_extension="org.inkscape.output.svg.inkscape">
  <defs
     id="defs88601">
    <inkscape:perspective
       sodipodi:type="inkscape:persp3d"
       inkscape:vp_x="0 : 526.18109 : 1"
       inkscape:vp_y="0 : 1000 : 0"
       inkscape:vp_z="744.09448 : 526.18109 : 1"
       inkscape:persp3d-origin="372.04724 : 350.78739 : 1"
       id="perspective88607" />
    <inkscape:perspective
       id="perspective88548"
       inkscape:persp3d-origin="0.5 : 0.33333333 : 1"
       inkscape:vp_z="1 : 0.5 : 1"
       inkscape:vp_y="0 : 1000 : 0"
       inkscape:vp_x="0 : 0.5 : 1"
       sodipodi:type="inkscape:persp3d" />
    <linearGradient
       gradientTransform="translate(247.54936,406.01026)"
       inkscape:collect="always"
       xlink:href="#linearGradient4859"
       id="linearGradient4865"
       x1="121.54688"
       y1="-8.986186"
       x2="121.54688"
       y2="143.39191"
       gradientUnits="userSpaceOnUse" />
    <linearGradient
       inkscape:collect="always"
       id="linearGradient4859">
      <stop
         style="stop-color:#ffffff;stop-opacity:1;"
         offset="0"
         id="stop4861" />
      <stop
         style="stop-color:#ffffff;stop-opacity:0;"
         offset="1"
         id="stop4863" />
    </linearGradient>
    <inkscape:path-effect
       id="path-effect73933"
       effect="spiro"
       is_visible="true"
       deactivate_knotholder="false" />
    <linearGradient
       inkscape:collect="always"
       xlink:href="#linearGradient3697-3"
       id="linearGradient73930"
       gradientUnits="userSpaceOnUse"
       gradientTransform="matrix(0.89733576,0,0,0.89238658,0.95672388,5.5706176)"
       x1="139.06874"
       y1="73.598183"
       x2="159.06831"
       y2="105.95296" />
    <linearGradient
       id="linearGradient3697-3">
      <stop
         style="stop-color:#3c51f8;stop-opacity:1;"
         offset="0"
         id="stop3699-7" />
      <stop
         id="stop3705"
         offset="0.33267981"
         style="stop-color:#9ca6fb;stop-opacity:1;" />
      <stop
         style="stop-color:#1313c7;stop-opacity:1;"
         offset="1"
         id="stop3701" />
    </linearGradient>
    <inkscape:path-effect
       deactivate_knotholder="false"
       is_visible="true"
       effect="spiro"
       id="path-effect3695" />
    <inkscape:path-effect
       id="path-effect73927"
       effect="spiro"
       is_visible="true"
       deactivate_knotholder="false" />
    <linearGradient
       y2="179.37048"
       x2="192.99333"
       y1="141.33943"
       x1="162.34146"
       gradientTransform="matrix(0.69437883,0,0,0.69437883,17.085898,28.49622)"
       gradientUnits="userSpaceOnUse"
       id="linearGradient74087"
       xlink:href="#linearGradient3711"
       inkscape:collect="always" />
    <linearGradient
       id="linearGradient3711">
      <stop
         style="stop-color:#f8d33c;stop-opacity:1;"
         offset="0"
         id="stop3713" />
      <stop
         id="stop3719"
         offset="0.5"
         style="stop-color:#f1dd8e;stop-opacity:1;" />
      <stop
         style="stop-color:#c1a432;stop-opacity:1;"
         offset="1"
         id="stop3715" />
    </linearGradient>
    <inkscape:path-effect
       deactivate_knotholder="false"
       is_visible="true"
       effect="spiro"
       id="path-effect3709" />
    <radialGradient
       inkscape:collect="always"
       xlink:href="#linearGradient4824"
       id="radialGradient4842"
       gradientUnits="userSpaceOnUse"
       cx="117.56223"
       cy="1.6960773"
       fx="117.56223"
       fy="1.6960773"
       r="114.76744"
       gradientTransform="matrix(1.439753,0,0,1,-51.698347,0)" />
    <linearGradient
       inkscape:collect="always"
       id="linearGradient4824">
      <stop
         style="stop-color:#ffffff;stop-opacity:1;"
         offset="0"
         id="stop4826" />
      <stop
         style="stop-color:#ffffff;stop-opacity:0;"
         offset="1"
         id="stop4828" />
    </linearGradient>
    <radialGradient
       inkscape:collect="always"
       xlink:href="#linearGradient4824"
       id="radialGradient4838"
       gradientUnits="userSpaceOnUse"
       cx="219.53087"
       cy="98.953751"
       fx="219.53087"
       fy="98.953751"
       r="114.76744" />
    <radialGradient
       inkscape:collect="always"
       xlink:href="#linearGradient4824"
       id="radialGradient4830"
       cx="15.593588"
       cy="88.653885"
       fx="15.593588"
       fy="88.653885"
       r="114.76744"
       gradientUnits="userSpaceOnUse" />
    <radialGradient
       inkscape:collect="always"
       xlink:href="#linearGradient4824"
       id="radialGradient88711"
       gradientUnits="userSpaceOnUse"
       cx="15.593588"
       cy="88.653885"
       fx="15.593588"
       fy="88.653885"
       r="114.76744" />
    <radialGradient
       inkscape:collect="always"
       xlink:href="#linearGradient4824"
       id="radialGradient88713"
       gradientUnits="userSpaceOnUse"
       cx="219.53087"
       cy="98.953751"
       fx="219.53087"
       fy="98.953751"
       r="114.76744" />
    <radialGradient
       inkscape:collect="always"
       xlink:href="#linearGradient4824"
       id="radialGradient88715"
       gradientUnits="userSpaceOnUse"
       gradientTransform="matrix(1.439753,0,0,1,-51.698347,0)"
       cx="117.56223"
       cy="1.6960773"
       fx="117.56223"
       fy="1.6960773"
       r="114.76744" />
    <linearGradient
       inkscape:collect="always"
       xlink:href="#linearGradient3697-3"
       id="linearGradient88717"
       gradientUnits="userSpaceOnUse"
       gradientTransform="matrix(0.89733576,0,0,0.89238658,0.95672388,5.5706176)"
       x1="139.06874"
       y1="73.598183"
       x2="159.06831"
       y2="105.95296" />
    <linearGradient
       inkscape:collect="always"
       xlink:href="#linearGradient3711"
       id="linearGradient88719"
       gradientUnits="userSpaceOnUse"
       gradientTransform="matrix(0.69437883,0,0,0.69437883,17.085898,28.49622)"
       x1="162.34146"
       y1="141.33943"
       x2="192.99333"
       y2="179.37048" />
    <linearGradient
       inkscape:collect="always"
       xlink:href="#linearGradient4859"
       id="linearGradient88721"
       gradientUnits="userSpaceOnUse"
       gradientTransform="translate(247.54936,406.01026)"
       x1="121.54688"
       y1="-8.986186"
       x2="121.54688"
       y2="143.39191" />
  </defs>
  <sodipodi:namedview
     id="base"
     pagecolor="#ffffff"
     bordercolor="#666666"
     borderopacity="1.0"
     inkscape:pageopacity="0.0"
     inkscape:pageshadow="2"
     inkscape:zoom="0.35"
     inkscape:cx="375"
     inkscape:cy="520"
     inkscape:document-units="px"
     inkscape:current-layer="layer1"
     showgrid="false"
     inkscape:window-width="822"
     inkscape:window-height="485"
     inkscape:window-x="842"
     inkscape:window-y="539"
     inkscape:window-maximized="0" />
  <metadata
     id="metadata88604">
    <rdf:RDF>
      <cc:Work
         rdf:about="">
        <dc:format>image/svg+xml</dc:format>
        <dc:type
           rdf:resource="http://purl.org/dc/dcmitype/StillImage" />
        <dc:title></dc:title>
      </cc:Work>
    </rdf:RDF>
  </metadata>
  <g
     inkscape:label="Calque 1"
     inkscape:groupmode="layer"
     id="layer1"
     transform="translate(0,-796.36218)">
    <g
       id="g88698"
       transform="translate(-247.54967,390.35167)">
      <path
         transform="matrix(1.15625,0,0,1.15625,239.06867,397.70124)"
         d="m 223.03862,116.46352 c 0,58.253 -47.22339,105.47638 -105.47639,105.47638 -58.252997,0 -105.476384,-47.22338 -105.476384,-105.47638 0,-58.253004 47.223387,-105.476391 105.476384,-105.476391 58.253,0 105.47639,47.223387 105.47639,105.476391 z"
         sodipodi:ry="105.47639"
         sodipodi:rx="105.47639"
         sodipodi:cy="116.46352"
         sodipodi:cx="117.56223"
         id="path4820"
         style="fill:#000000;fill-opacity:1;stroke:none"
         sodipodi:type="arc" />
      <path
         sodipodi:type="arc"
         style="fill:none;stroke:url(#radialGradient88711);stroke-width:18.58210373;stroke-miterlimit:4;stroke-opacity:1;stroke-dasharray:none"
         id="path4822"
         sodipodi:cx="117.56223"
         sodipodi:cy="116.46352"
         sodipodi:rx="105.47639"
         sodipodi:ry="105.47639"
         d="m 223.03862,116.46352 c 0,58.253 -47.22339,105.47638 -105.47639,105.47638 -58.252997,0 -105.476384,-47.22338 -105.476384,-105.47638 0,-58.253004 47.223387,-105.476391 105.476384,-105.476391 58.253,0 105.47639,47.223387 105.47639,105.476391 z"
         transform="matrix(1.0667253,0,0,1.0667253,249.59339,408.1276)" />
      <path
         transform="matrix(1.0667253,0,0,1.0667253,249.59339,408.1276)"
         d="m 223.03862,116.46352 c 0,58.253 -47.22339,105.47638 -105.47639,105.47638 -58.252997,0 -105.476384,-47.22338 -105.476384,-105.47638 0,-58.253004 47.223387,-105.476391 105.476384,-105.476391 58.253,0 105.47639,47.223387 105.47639,105.476391 z"
         sodipodi:ry="105.47639"
         sodipodi:rx="105.47639"
         sodipodi:cy="116.46352"
         sodipodi:cx="117.56223"
         id="path4836"
         style="fill:none;stroke:url(#radialGradient88713);stroke-width:18.58210373;stroke-miterlimit:4;stroke-opacity:1;stroke-dasharray:none"
         sodipodi:type="arc" />
      <path
         sodipodi:type="arc"
         style="fill:none;stroke:url(#radialGradient88715);stroke-width:18.58210373;stroke-miterlimit:4;stroke-opacity:1;stroke-dasharray:none"
         id="path4840"
         sodipodi:cx="117.56223"
         sodipodi:cy="116.46352"
         sodipodi:rx="105.47639"
         sodipodi:ry="105.47639"
         d="m 223.03862,116.46352 c 0,58.253 -47.22339,105.47638 -105.47639,105.47638 -58.252997,0 -105.476384,-47.22338 -105.476384,-105.47638 0,-58.253004 47.223387,-105.476391 105.476384,-105.476391 58.253,0 105.47639,47.223387 105.47639,105.476391 z"
         transform="matrix(1.0667253,0,0,1.0667253,249.59339,408.1276)" />
      <g
         id="g74050"
         transform="matrix(0.90535456,0,0,0.90535456,264.52078,422.80952)">
        <path
           inkscape:original-d="m 47.817151,117.51666 c 5.602877,-2.02618 -0.509352,1.51962 16.808632,-8.10469 17.317984,-9.624319 19.864745,-13.170122 36.673377,-21.781356 16.80864,-8.611234 31.0705,-16.209381 39.7295,-22.287899 8.65898,-6.078518 16.29927,-12.663578 21.90214,-16.715924 5.60288,-4.052344 12.22447,-6.078518 14.77122,-8.611232 2.54677,-2.532717 4.58418,-14.183209 0.50935,1.013086 -4.07481,15.196294 0,24.820613 -7.13092,32.925304 -7.13094,8.10469 -1.52806,4.558888 -22.41151,14.689751 -20.88345,10.13086 -25.46763,13.17012 -42.78561,18.74209 -17.317982,5.57197 -18.846039,-2.02617 -30.561146,10.13087 -11.715107,12.15704 -12.733812,11.65049 -11.715107,17.72901 1.018706,6.07851 9.168344,15.70283 1.018706,10.13086 -8.14964,-5.57197 -2.546763,-9.62431 -5.602877,-14.18321 -3.056115,-4.55889 -12.22446,-11.65049 -11.205755,-13.67666 z"
           inkscape:path-effect="#path-effect73933"
           id="path3758"
           d="m 47.817151,117.51666 c 5.703781,-2.48527 11.312157,-5.18948 16.808632,-8.10469 12.562876,-6.66307 24.511757,-14.411327 36.673377,-21.781356 12.98877,-7.871286 26.23488,-15.319361 39.7295,-22.287899 4.13584,-2.135721 8.30929,-4.234857 12.14302,-6.874738 3.83373,-2.639882 7.34552,-5.86111 9.75912,-9.841186 0.90129,-1.486243 1.64148,-3.063871 2.49364,-4.578815 0.85216,-1.514945 1.8312,-2.984232 3.12607,-4.14378 1.29487,-1.159547 2.93855,-1.994463 4.67523,-2.066435 0.86834,-0.03599 1.74847,0.121139 2.53539,0.49001 0.78692,0.368871 1.47741,0.952606 1.94089,1.687788 0.20178,0.320074 0.35974,0.665549 0.50935,1.013086 2.35049,5.460122 2.73066,11.693066 1.36799,17.479331 -1.36267,5.786266 -4.42175,11.119947 -8.49891,15.445973 -6.15997,6.535963 -14.38139,10.667165 -22.41151,14.689751 -13.93705,6.981588 -27.91651,14.06301 -42.78561,18.74209 -10.252313,3.22625 -20.949566,5.32087 -30.561146,10.13087 -3.446453,1.72474 -6.794758,3.85015 -9.162325,6.8911 -1.183783,1.52047 -2.104632,3.25951 -2.584193,5.12585 -0.479561,1.86634 -0.507466,3.86198 0.03141,5.71206 0.508246,1.74492 1.499074,3.31979 2.001569,5.06638 0.251248,0.87329 0.377135,1.79532 0.244425,2.69429 -0.132711,0.89898 -0.540621,1.775 -1.227288,2.37019 -0.634098,0.54963 -1.481509,0.8334 -2.320606,0.8242 -0.839096,-0.009 -1.665544,-0.30264 -2.351818,-0.78555 -0.686274,-0.4829 -1.234639,-1.14968 -1.620854,-1.89467 -0.386216,-0.74499 -0.613566,-1.56677 -0.715533,-2.3997 -0.203935,-1.66586 0.08675,-3.35139 0.45703,-4.98833 0.370279,-1.63693 0.822815,-3.26561 0.948904,-4.93916 0.24434,-3.24308 -0.803943,-6.56576 -2.865139,-9.08145 -2.061197,-2.5157 -5.11282,-4.19697 -8.340616,-4.59521 l 0,0"
           style="fill:none;stroke:#2d1a40;stroke-width:1.38875771;stroke-miterlimit:4;stroke-opacity:1;stroke-dasharray:none" />
        <path
           style="fill:url(#linearGradient88717);fill-opacity:1;stroke-width:1px"
           d="m 47.817151,117.51666 c 5.703781,-2.48527 11.312157,-5.18948 16.808632,-8.10469 12.562876,-6.66307 24.511757,-14.411327 36.673377,-21.781356 12.98877,-7.871286 26.23488,-15.319361 39.7295,-22.287899 4.13584,-2.135721 8.30929,-4.234857 12.14302,-6.874738 3.83373,-2.639882 7.34552,-5.86111 9.75912,-9.841186 0.90129,-1.486243 1.64148,-3.063871 2.49364,-4.578815 0.85216,-1.514945 1.8312,-2.984232 3.12607,-4.14378 1.29487,-1.159547 2.93855,-1.994463 4.67523,-2.066435 0.86834,-0.03599 1.74847,0.121139 2.53539,0.49001 0.78692,0.368871 1.47741,0.952606 1.94089,1.687788 0.20178,0.320074 0.35974,0.665549 0.50935,1.013086 2.35049,5.460122 2.73066,11.693066 1.36799,17.479331 -1.36267,5.786266 -4.42175,11.119947 -8.49891,15.445973 -6.15997,6.535963 -14.38139,10.667165 -22.41151,14.689751 -13.93705,6.981588 -27.91651,14.06301 -42.78561,18.74209 -10.252313,3.22625 -20.949566,5.32087 -30.561146,10.13087 -3.446453,1.72474 -6.794758,3.85015 -9.162325,6.8911 -1.183783,1.52047 -2.104632,3.25951 -2.584193,5.12585 -0.479561,1.86634 -0.507466,3.86198 0.03141,5.71206 0.508246,1.74492 1.499074,3.31979 2.001569,5.06638 0.251248,0.87329 0.377135,1.79532 0.244425,2.69429 -0.132711,0.89898 -0.540621,1.775 -1.227288,2.37019 -0.634098,0.54963 -1.481509,0.8334 -2.320606,0.8242 -0.839096,-0.009 -1.665544,-0.30264 -2.351818,-0.78555 -0.686274,-0.4829 -1.234639,-1.14968 -1.620854,-1.89467 -0.386216,-0.74499 -0.613566,-1.56677 -0.715533,-2.3997 -0.203935,-1.66586 0.08675,-3.35139 0.45703,-4.98833 0.370279,-1.63693 0.822815,-3.26561 0.948904,-4.93916 0.24434,-3.24308 -0.803943,-6.56576 -2.865139,-9.08145 -2.061197,-2.5157 -5.11282,-4.19697 -8.340616,-4.59521 l 0,0"
           id="path3693"
           inkscape:path-effect="#path-effect3695"
           inkscape:original-d="m 47.817151,117.51666 c 5.602877,-2.02618 -0.509352,1.51962 16.808632,-8.10469 17.317984,-9.624319 19.864745,-13.170122 36.673377,-21.781356 16.80864,-8.611234 31.0705,-16.209381 39.7295,-22.287899 8.65898,-6.078518 16.29927,-12.663578 21.90214,-16.715924 5.60288,-4.052344 12.22447,-6.078518 14.77122,-8.611232 2.54677,-2.532717 4.58418,-14.183209 0.50935,1.013086 -4.07481,15.196294 0,24.820613 -7.13092,32.925304 -7.13094,8.10469 -1.52806,4.558888 -22.41151,14.689751 -20.88345,10.13086 -25.46763,13.17012 -42.78561,18.74209 -17.317982,5.57197 -18.846039,-2.02617 -30.561146,10.13087 -11.715107,12.15704 -12.733812,11.65049 -11.715107,17.72901 1.018706,6.07851 9.168344,15.70283 1.018706,10.13086 -8.14964,-5.57197 -2.546763,-9.62431 -5.602877,-14.18321 -3.056115,-4.55889 -12.22446,-11.65049 -11.205755,-13.67666 z" />
        <path
           inkscape:original-d="m 42.311402,176.30191 c 14.189346,-3.94148 20.495722,-4.33563 29.166989,-7.88297 8.671268,-3.54733 24.831354,-11.4303 32.714329,-15.76594 7.88296,-4.33563 29.56113,-17.73667 35.47336,-22.46646 5.91223,-4.72978 26.40795,-24.04306 33.89677,-30.349435 7.48882,-6.306378 20.88988,-23.254763 22.46647,-25.225506 1.5766,-1.970742 9.06542,-9.853712 9.06542,-9.853712 0,0 -3.54734,24.043058 -3.15319,26.013801 0.39414,1.970742 -3.15319,17.736692 -5.51809,19.707422 -2.36488,1.97075 -11.82445,14.97765 -23.25476,20.88988 -11.43031,5.91222 -15.37179,10.24785 -24.4372,15.76594 -9.06542,5.51807 -20.10157,10.64201 -26.01381,13.79519 -5.91222,3.15319 -14.97764,6.70053 -25.225494,9.45957 -10.247865,2.75904 -13.401053,2.75904 -16.948389,3.94148 -3.547336,1.18245 -3.941485,-1.18244 -5.518079,1.57659 -1.576594,2.75905 -1.576594,2.75905 -2.364892,6.70053 -0.788297,3.94149 1.576595,7.48882 -2.36489,5.91223 -3.941485,-1.5766 -2.75904,-2.75904 -2.75904,-5.51808 0,-2.75904 2.75904,-6.30638 -2.759039,-6.30638 -5.518079,0 -13.401049,1.97075 -15.76594,1.97075 -2.364891,0 -7.488822,-1.18245 -6.700525,-2.3649 z"
           inkscape:path-effect="#path-effect73927"
           id="path3762"
           d="m 42.311402,176.30191 c 9.946392,-1.67787 19.72955,-4.32197 29.166989,-7.88297 11.336267,-4.27748 22.135601,-9.85846 32.714329,-15.76594 12.22868,-6.82886 24.22204,-14.1249 35.47336,-22.46646 12.19907,-9.0442 23.48747,-19.29225 33.89677,-30.349435 7.71851,-8.198923 14.95293,-16.838349 22.46647,-25.225506 2.97813,-3.3244 6.00029,-6.609355 9.06542,-9.853712 -0.81801,8.697402 -1.86958,17.372836 -3.15319,26.013801 -1.00796,6.785336 -2.20925,13.698402 -5.51809,19.707422 -2.54054,4.61374 -6.23476,8.50895 -10.30517,11.8515 -4.07041,3.34255 -8.53225,6.16993 -12.94959,9.03838 -8.13055,5.27967 -16.15369,10.72964 -24.4372,15.76594 -8.39214,5.10235 -17.05117,9.77859 -26.01381,13.79519 -8.1999,3.67478 -16.64455,6.79314 -25.225494,9.45957 -5.547039,1.72368 -11.179291,3.26457 -16.948389,3.94148 -0.962522,0.11294 -1.930816,0.20217 -2.875349,0.4191 -0.944534,0.21694 -1.873056,0.56859 -2.64273,1.15749 -0.980266,0.75003 -1.654139,1.85495 -2.016755,3.03477 -0.362616,1.17982 -0.429786,2.43417 -0.348137,3.66576 0.07939,1.19756 0.295197,2.4149 0.02891,3.58517 -0.133144,0.58514 -0.391906,1.15088 -0.80483,1.58632 -0.412924,0.43544 -0.988955,0.73072 -1.588968,0.74074 -0.575484,0.01 -1.138608,-0.24321 -1.561327,-0.63383 -0.422719,-0.39062 -0.712306,-0.91037 -0.888882,-1.45818 -0.353152,-1.09562 -0.268987,-2.27563 -0.308831,-3.42607 -0.04113,-1.18751 -0.221688,-2.38049 -0.658063,-3.48568 -0.436376,-1.10519 -1.14006,-2.12177 -2.100976,-2.8207 -1.109976,-0.80735 -2.510136,-1.15232 -3.882675,-1.15065 -1.37254,0.002 -2.725952,0.33055 -4.026726,0.76856 -2.601548,0.87603 -5.115247,2.20865 -7.856539,2.35284 -2.426899,0.12765 -4.891409,-0.74218 -6.700525,-2.3649 l 0,0"
           style="fill:none;stroke:#2d1a40;stroke-width:1.38875771;stroke-miterlimit:4;stroke-opacity:1;stroke-dasharray:none" />
        <path
           style="fill:url(#linearGradient88719);fill-opacity:1;stroke-width:1px"
           d="m 42.311402,176.30191 c 9.946392,-1.67787 19.72955,-4.32197 29.166989,-7.88297 11.336267,-4.27748 22.135601,-9.85846 32.714329,-15.76594 12.22868,-6.82886 24.22204,-14.1249 35.47336,-22.46646 12.19907,-9.0442 23.48747,-19.29225 33.89677,-30.349435 7.71851,-8.198923 14.95293,-16.838349 22.46647,-25.225506 2.97813,-3.3244 6.00029,-6.609355 9.06542,-9.853712 -0.81801,8.697402 -1.86958,17.372836 -3.15319,26.013801 -1.00796,6.785336 -2.20925,13.698402 -5.51809,19.707422 -2.54054,4.61374 -6.23476,8.50895 -10.30517,11.8515 -4.07041,3.34255 -8.53225,6.16993 -12.94959,9.03838 -8.13055,5.27967 -16.15369,10.72964 -24.4372,15.76594 -8.39214,5.10235 -17.05117,9.77859 -26.01381,13.79519 -8.1999,3.67478 -16.64455,6.79314 -25.225494,9.45957 -5.547039,1.72368 -11.179291,3.26457 -16.948389,3.94148 -0.962522,0.11294 -1.930816,0.20217 -2.875349,0.4191 -0.944534,0.21694 -1.873056,0.56859 -2.64273,1.15749 -0.980266,0.75003 -1.654139,1.85495 -2.016755,3.03477 -0.362616,1.17982 -0.429786,2.43417 -0.348137,3.66576 0.07939,1.19756 0.295197,2.4149 0.02891,3.58517 -0.133144,0.58514 -0.391906,1.15088 -0.80483,1.58632 -0.412924,0.43544 -0.988955,0.73072 -1.588968,0.74074 -0.575484,0.01 -1.138608,-0.24321 -1.561327,-0.63383 -0.422719,-0.39062 -0.712306,-0.91037 -0.888882,-1.45818 -0.353152,-1.09562 -0.268987,-2.27563 -0.308831,-3.42607 -0.04113,-1.18751 -0.221688,-2.38049 -0.658063,-3.48568 -0.436376,-1.10519 -1.14006,-2.12177 -2.100976,-2.8207 -1.109976,-0.80735 -2.510136,-1.15232 -3.882675,-1.15065 -1.37254,0.002 -2.725952,0.33055 -4.026726,0.76856 -2.601548,0.87603 -5.115247,2.20865 -7.856539,2.35284 -2.426899,0.12765 -4.891409,-0.74218 -6.700525,-2.3649 l 0,0"
           id="path3707"
           inkscape:path-effect="#path-effect3709"
           inkscape:original-d="m 42.311402,176.30191 c 14.189346,-3.94148 20.495722,-4.33563 29.166989,-7.88297 8.671268,-3.54733 24.831354,-11.4303 32.714329,-15.76594 7.88296,-4.33563 29.56113,-17.73667 35.47336,-22.46646 5.91223,-4.72978 26.40795,-24.04306 33.89677,-30.349435 7.48882,-6.306378 20.88988,-23.254763 22.46647,-25.225506 1.5766,-1.970742 9.06542,-9.853712 9.06542,-9.853712 0,0 -3.54734,24.043058 -3.15319,26.013801 0.39414,1.970742 -3.15319,17.736692 -5.51809,19.707422 -2.36488,1.97075 -11.82445,14.97765 -23.25476,20.88988 -11.43031,5.91222 -15.37179,10.24785 -24.4372,15.76594 -9.06542,5.51807 -20.10157,10.64201 -26.01381,13.79519 -5.91222,3.15319 -14.97764,6.70053 -25.225494,9.45957 -10.247865,2.75904 -13.401053,2.75904 -16.948389,3.94148 -3.547336,1.18245 -3.941485,-1.18244 -5.518079,1.57659 -1.576594,2.75905 -1.576594,2.75905 -2.364892,6.70053 -0.788297,3.94149 1.576595,7.48882 -2.36489,5.91223 -3.941485,-1.5766 -2.75904,-2.75904 -2.75904,-5.51808 0,-2.75904 2.75904,-6.30638 -2.759039,-6.30638 -5.518079,0 -13.401049,1.97075 -15.76594,1.97075 -2.364891,0 -7.488822,-1.18245 -6.700525,-2.3649 z" />
      </g>
      <path
         id="path4852"
         d="m 375.39311,435.47901 c -53.52612,0 -96.98247,43.00013 -97.75,96.34374 10.00972,-5.92814 19.73393,-10.88682 25.9375,-13.75 14.28326,-6.59228 49.44541,-6.58732 61.53125,-1.09375 12.08584,5.49356 32.95038,9.88345 43.9375,1.09375 10.98712,-8.78969 8.80204,-16.48658 31.875,-26.37499 5.67666,-2.43286 12.40919,-4.6447 19.625,-6.53125 -16.79408,-29.65648 -48.64174,-49.6875 -85.15625,-49.6875 z"
         style="fill:url(#linearGradient88721);fill-opacity:1;stroke:none" />
      <path
         style="fill:#ffffff;fill-opacity:0.75688076;fill-rule:nonzero;stroke:none"
         d="m 354.6034,465.22313 0,-4.17635 0,4.17635 z"
         id="path2276"
         sodipodi:nodetypes="ccc" />
    </g>
  </g>
</svg>
