<?xml version="1.0" encoding="UTF-8" standalone="no"?>
<!-- Created with Inkscape (http://www.inkscape.org/) -->

<svg
   xmlns:dc="http://purl.org/dc/elements/1.1/"
   xmlns:cc="http://creativecommons.org/ns#"
   xmlns:rdf="http://www.w3.org/1999/02/22-rdf-syntax-ns#"
   xmlns:svg="http://www.w3.org/2000/svg"
   xmlns="http://www.w3.org/2000/svg"
   xmlns:xlink="http://www.w3.org/1999/xlink"
   xmlns:sodipodi="http://sodipodi.sourceforge.net/DTD/sodipodi-0.dtd"
   xmlns:inkscape="http://www.inkscape.org/namespaces/inkscape"
   width="256"
   height="256"
   id="svg79482"
   version="1.1"
   inkscape:version="0.47pre0 r21549"
   sodipodi:docname="Nouveau document 37"
   inkscape:output_extension="org.inkscape.output.svg.inkscape">
  <defs
     id="defs79484">
    <inkscape:perspective
       sodipodi:type="inkscape:persp3d"
       inkscape:vp_x="0 : 526.18109 : 1"
       inkscape:vp_y="0 : 1000 : 0"
       inkscape:vp_z="744.09448 : 526.18109 : 1"
       inkscape:persp3d-origin="372.04724 : 350.78739 : 1"
       id="perspective79490" />
    <inkscape:perspective
       id="perspective79428"
       inkscape:persp3d-origin="0.5 : 0.33333333 : 1"
       inkscape:vp_z="1 : 0.5 : 1"
       inkscape:vp_y="0 : 1000 : 0"
       inkscape:vp_x="0 : 0.5 : 1"
       sodipodi:type="inkscape:persp3d" />
    <radialGradient
       inkscape:collect="always"
       xlink:href="#linearGradient4824"
       id="radialGradient4830"
       cx="15.593588"
       cy="88.653885"
       fx="15.593588"
       fy="88.653885"
       r="114.76744"
       gradientUnits="userSpaceOnUse" />
    <linearGradient
       inkscape:collect="always"
       id="linearGradient4824">
      <stop
         style="stop-color:#ffffff;stop-opacity:1;"
         offset="0"
         id="stop4826" />
      <stop
         style="stop-color:#ffffff;stop-opacity:0;"
         offset="1"
         id="stop4828" />
    </linearGradient>
    <radialGradient
       inkscape:collect="always"
       xlink:href="#linearGradient4824"
       id="radialGradient4838"
       gradientUnits="userSpaceOnUse"
       cx="219.53087"
       cy="98.953751"
       fx="219.53087"
       fy="98.953751"
       r="114.76744" />
    <radialGradient
       inkscape:collect="always"
       xlink:href="#linearGradient4824"
       id="radialGradient4842"
       gradientUnits="userSpaceOnUse"
       cx="117.56223"
       cy="1.6960773"
       fx="117.56223"
       fy="1.6960773"
       r="114.76744"
       gradientTransform="matrix(1.439753,0,0,1,-51.698347,0)" />
    <linearGradient
       xlink:href="#XMLID_4_-6"
       gradientTransform="matrix(0.91808577,0,0,0.91808577,69.985176,56.338348)"
       y2="122.8994"
       x2="63.9995"
       y1="3.1001"
       x1="63.9995"
       gradientUnits="userSpaceOnUse"
       id="linearGradient3021"
       inkscape:collect="always" />
    <linearGradient
       id="XMLID_4_-6"
       gradientUnits="userSpaceOnUse"
       x1="63.9995"
       y1="3.1001"
       x2="63.9995"
       y2="122.8994">
      <stop
         offset="0"
         style="stop-color:#FCFCFD"
         id="stop3085-0" />
      <stop
         offset="1"
         style="stop-color:#E8E9EF"
         id="stop3087-0" />
    </linearGradient>
    <linearGradient
       xlink:href="#XMLID_5_-9"
       gradientTransform="matrix(0.91808577,0,0,0.91808577,69.985176,56.338348)"
       y2="104.0591"
       x2="63.9995"
       y1="21.941401"
       x1="63.9995"
       gradientUnits="userSpaceOnUse"
       id="linearGradient3015"
       inkscape:collect="always" />
    <linearGradient
       id="XMLID_5_-9"
       gradientUnits="userSpaceOnUse"
       x1="63.9995"
       y1="21.941401"
       x2="63.9995"
       y2="104.0591">
      <stop
         offset="0"
         style="stop-color:#FCFCFD"
         id="stop3098-1" />
      <stop
         offset="1"
         style="stop-color:#E8E9EF"
         id="stop3100-2" />
    </linearGradient>
    <linearGradient
       y2="90.487099"
       x2="63.9995"
       y1="31.586901"
       x1="63.9995"
       gradientTransform="matrix(0.91808577,0,0,0.91808577,69.985176,56.338348)"
       gradientUnits="userSpaceOnUse"
       id="linearGradient90105"
       xlink:href="#XMLID_6_-6"
       inkscape:collect="always" />
    <linearGradient
       id="XMLID_6_-6"
       gradientUnits="userSpaceOnUse"
       x1="63.9995"
       y1="31.586901"
       x2="63.9995"
       y2="90.487099">
      <stop
         offset="0"
         style="stop-color:#C6C6C7"
         id="stop3105-9" />
      <stop
         offset="1"
         style="stop-color:#BCBCC0"
         id="stop3107-4" />
    </linearGradient>
    <linearGradient
       gradientTransform="translate(247.54936,406.01026)"
       inkscape:collect="always"
       xlink:href="#linearGradient4859"
       id="linearGradient4865"
       x1="121.54688"
       y1="-8.986186"
       x2="121.54688"
       y2="143.39191"
       gradientUnits="userSpaceOnUse" />
    <linearGradient
       inkscape:collect="always"
       id="linearGradient4859">
      <stop
         style="stop-color:#ffffff;stop-opacity:1;"
         offset="0"
         id="stop4861" />
      <stop
         style="stop-color:#ffffff;stop-opacity:0;"
         offset="1"
         id="stop4863" />
    </linearGradient>
    <radialGradient
       inkscape:collect="always"
       xlink:href="#linearGradient4824"
       id="radialGradient79605"
       gradientUnits="userSpaceOnUse"
       cx="15.593588"
       cy="88.653885"
       fx="15.593588"
       fy="88.653885"
       r="114.76744" />
    <radialGradient
       inkscape:collect="always"
       xlink:href="#linearGradient4824"
       id="radialGradient79607"
       gradientUnits="userSpaceOnUse"
       cx="219.53087"
       cy="98.953751"
       fx="219.53087"
       fy="98.953751"
       r="114.76744" />
    <radialGradient
       inkscape:collect="always"
       xlink:href="#linearGradient4824"
       id="radialGradient79609"
       gradientUnits="userSpaceOnUse"
       gradientTransform="matrix(1.439753,0,0,1,-51.698347,0)"
       cx="117.56223"
       cy="1.6960773"
       fx="117.56223"
       fy="1.6960773"
       r="114.76744" />
    <linearGradient
       inkscape:collect="always"
       xlink:href="#XMLID_4_-6"
       id="linearGradient79611"
       gradientUnits="userSpaceOnUse"
       gradientTransform="matrix(0.91808577,0,0,0.91808577,69.985176,56.338348)"
       x1="63.9995"
       y1="3.1001"
       x2="63.9995"
       y2="122.8994" />
    <linearGradient
       inkscape:collect="always"
       xlink:href="#XMLID_5_-9"
       id="linearGradient79613"
       gradientUnits="userSpaceOnUse"
       gradientTransform="matrix(0.91808577,0,0,0.91808577,69.985176,56.338348)"
       x1="63.9995"
       y1="21.941401"
       x2="63.9995"
       y2="104.0591" />
    <linearGradient
       inkscape:collect="always"
       xlink:href="#XMLID_6_-6"
       id="linearGradient79615"
       gradientUnits="userSpaceOnUse"
       gradientTransform="matrix(0.91808577,0,0,0.91808577,69.985176,56.338348)"
       x1="63.9995"
       y1="31.586901"
       x2="63.9995"
       y2="90.487099" />
    <linearGradient
       inkscape:collect="always"
       xlink:href="#linearGradient4859"
       id="linearGradient79617"
       gradientUnits="userSpaceOnUse"
       gradientTransform="translate(247.54936,406.01026)"
       x1="121.54688"
       y1="-8.986186"
       x2="121.54688"
       y2="143.39191" />
  </defs>
  <sodipodi:namedview
     id="base"
     pagecolor="#ffffff"
     bordercolor="#666666"
     borderopacity="1.0"
     inkscape:pageopacity="0.0"
     inkscape:pageshadow="2"
     inkscape:zoom="0.35"
     inkscape:cx="375"
     inkscape:cy="520"
     inkscape:document-units="px"
     inkscape:current-layer="layer1"
     showgrid="false"
     inkscape:window-width="1035"
     inkscape:window-height="485"
     inkscape:window-x="629"
     inkscape:window-y="539"
     inkscape:window-maximized="0" />
  <metadata
     id="metadata79487">
    <rdf:RDF>
      <cc:Work
         rdf:about="">
        <dc:format>image/svg+xml</dc:format>
        <dc:type
           rdf:resource="http://purl.org/dc/dcmitype/StillImage" />
        <dc:title></dc:title>
      </cc:Work>
    </rdf:RDF>
  </metadata>
  <g
     inkscape:label="Calque 1"
     inkscape:groupmode="layer"
     id="layer1"
     transform="translate(0,-796.36218)">
    <g
       id="g79587"
       transform="translate(-247.54967,390.35167)">
      <path
         transform="matrix(1.15625,0,0,1.15625,239.06867,397.70124)"
         d="m 223.03862,116.46352 c 0,58.253 -47.22339,105.47638 -105.47639,105.47638 -58.252997,0 -105.476384,-47.22338 -105.476384,-105.47638 0,-58.253004 47.223387,-105.476391 105.476384,-105.476391 58.253,0 105.47639,47.223387 105.47639,105.476391 z"
         sodipodi:ry="105.47639"
         sodipodi:rx="105.47639"
         sodipodi:cy="116.46352"
         sodipodi:cx="117.56223"
         id="path4820"
         style="fill:#000000;fill-opacity:1;stroke:none"
         sodipodi:type="arc" />
      <path
         sodipodi:type="arc"
         style="fill:none;stroke:url(#radialGradient79605);stroke-width:18.58210373;stroke-miterlimit:4;stroke-opacity:1;stroke-dasharray:none"
         id="path4822"
         sodipodi:cx="117.56223"
         sodipodi:cy="116.46352"
         sodipodi:rx="105.47639"
         sodipodi:ry="105.47639"
         d="m 223.03862,116.46352 c 0,58.253 -47.22339,105.47638 -105.47639,105.47638 -58.252997,0 -105.476384,-47.22338 -105.476384,-105.47638 0,-58.253004 47.223387,-105.476391 105.476384,-105.476391 58.253,0 105.47639,47.223387 105.47639,105.476391 z"
         transform="matrix(1.0667253,0,0,1.0667253,249.59339,408.1276)" />
      <path
         transform="matrix(1.0667253,0,0,1.0667253,249.59339,408.1276)"
         d="m 223.03862,116.46352 c 0,58.253 -47.22339,105.47638 -105.47639,105.47638 -58.252997,0 -105.476384,-47.22338 -105.476384,-105.47638 0,-58.253004 47.223387,-105.476391 105.476384,-105.476391 58.253,0 105.47639,47.223387 105.47639,105.476391 z"
         sodipodi:ry="105.47639"
         sodipodi:rx="105.47639"
         sodipodi:cy="116.46352"
         sodipodi:cx="117.56223"
         id="path4836"
         style="fill:none;stroke:url(#radialGradient79607);stroke-width:18.58210373;stroke-miterlimit:4;stroke-opacity:1;stroke-dasharray:none"
         sodipodi:type="arc" />
      <path
         sodipodi:type="arc"
         style="fill:none;stroke:url(#radialGradient79609);stroke-width:18.58210373;stroke-miterlimit:4;stroke-opacity:1;stroke-dasharray:none"
         id="path4840"
         sodipodi:cx="117.56223"
         sodipodi:cy="116.46352"
         sodipodi:rx="105.47639"
         sodipodi:ry="105.47639"
         d="m 223.03862,116.46352 c 0,58.253 -47.22339,105.47638 -105.47639,105.47638 -58.252997,0 -105.476384,-47.22338 -105.476384,-105.47638 0,-58.253004 47.223387,-105.476391 105.476384,-105.476391 58.253,0 105.47639,47.223387 105.47639,105.476391 z"
         transform="matrix(1.0667253,0,0,1.0667253,249.59339,408.1276)" />
      <g
         id="g3026"
         transform="matrix(1.3205913,0,0,1.3205913,206.94628,377.7827)">
        <path
           style="opacity:0.1;fill:#040404"
           d="m 180.9285,102.58049 h -4.41875 c -0.7969,0 -1.82607,-0.74181 -2.08038,-1.49648 -0.011,-0.0294 -2.76436,-6.704778 -2.76436,-6.704778 -0.40304,-0.81526 -0.2185,-2.071202 0.35346,-2.644087 l 3.12425,-3.124246 c 0.89238,-0.892379 1.38356,-2.082219 1.38356,-3.349177 0,-1.26604 -0.49118,-2.454961 -1.38356,-3.347341 L 162.84129,69.613868 c -0.89146,-0.891461 -2.08038,-1.382637 -3.34734,-1.383555 -1.26788,0 -2.45772,0.491176 -3.34826,1.383555 l -3.12425,3.124246 c -0.56187,0.561869 -1.8123,0.764766 -2.52381,0.408548 -0.0303,-0.01469 -6.70754,-2.775373 -6.70754,-2.775373 -0.85841,-0.291033 -1.61491,-1.312863 -1.61491,-2.123532 v -4.419665 c 0,-2.611954 -2.12445,-4.735487 -4.73457,-4.735487 h -17.39589 c -2.61104,0 -4.73549,2.123533 -4.73549,4.735487 v 4.419665 c 0,0.796898 -0.74181,1.82699 -1.49648,2.080382 -0.0294,0.01102 -6.70478,2.764356 -6.70478,2.764356 -0.81526,0.40304 -2.07212,0.217587 -2.64316,-0.354381 l -3.12425,-3.123328 c -0.89238,-0.892379 -2.081301,-1.383555 -3.34826,-1.383555 -1.266958,0 -2.455879,0.492094 -3.34734,1.383555 L 82.34261,81.916218 c -0.893297,0.893297 -1.385391,2.082218 -1.385391,3.348258 0,1.266041 0.492094,2.454962 1.385391,3.347341 l 3.124246,3.124246 c 0.561869,0.561868 0.764766,1.812301 0.408549,2.523818 -0.01469,0.0303 -2.775374,6.707539 -2.775374,6.707539 -0.291033,0.85749 -1.312862,1.61399 -2.123532,1.61399 h -3.274812 c -2.610118,-9.2e-4 -5.880339,2.12353 -5.880339,4.73457 v 17.39497 c 0,2.61195 2.12445,4.73549 4.735486,4.73549 h 4.419665 c 0.796898,0 1.826991,0.74181 2.079464,1.49648 0.01102,0.0294 2.765274,6.70478 2.765274,6.70478 0.40304,0.81434 0.217587,2.07212 -0.354381,2.645 l -3.124246,3.12333 c -1.84627,1.84627 -1.84627,4.84933 0,6.6956 l 12.30235,12.30143 c 0.891461,0.89238 2.080382,1.38356 3.34734,1.38356 1.267877,0 2.4568,-0.49118 3.34918,-1.38356 l 3.12424,-3.12425 c 0.56187,-0.56095 1.8123,-0.76384 2.52382,-0.40854 0.0303,0.0147 6.70754,2.77537 6.70754,2.77537 0.85749,0.29103 1.61399,1.31286 1.61399,2.12353 v 4.41875 c 0,2.61103 2.12445,4.73548 4.73549,4.73548 h 17.39497 c 2.61103,0 4.73457,-2.12445 4.73457,-4.73548 v -4.41875 c 0,-0.7969 0.74273,-1.82607 1.49739,-2.08038 0.0294,-0.011 6.70478,-2.76436 6.70478,-2.76436 0.81618,-0.40304 2.07121,-0.2185 2.64409,0.35347 l 3.12425,3.12424 c 0.89146,0.89238 2.0813,1.38356 3.34734,1.38356 1.26787,0 2.4568,-0.49118 3.34734,-1.38356 l 12.30143,-12.30143 c 0.89238,-0.89146 1.38356,-2.08038 1.38356,-3.34734 0,-1.26604 -0.49118,-2.4568 -1.38356,-3.34734 l -3.12425,-3.12425 c -0.56095,-0.56187 -0.76384,-1.8123 -0.40854,-2.52381 0.0147,-0.0303 2.77537,-6.70754 2.77537,-6.70754 0.29103,-0.85749 1.31286,-1.61399 2.12353,-1.61399 h 4.41875 c 2.61103,0 4.73548,-2.12354 4.73548,-4.73549 v -17.39497 c 9.2e-4,-2.61104 -2.12353,-4.73549 -4.73456,-4.73549 z m -52.18583,28.76638 c -9.21391,0 -16.70917,-7.49617 -16.70917,-16.71008 0,-9.2139 7.49526,-16.709157 16.70917,-16.709157 9.21299,0 16.70916,7.496167 16.70916,16.709157 0,9.213 -7.49617,16.71008 -16.70916,16.71008 z"
           id="path3230" />
        <path
           style="opacity:0.1;fill:#030303"
           d="m 180.9285,102.58049 h -4.41875 c -1.19259,0 -2.57156,-0.99245 -2.95073,-2.12261 -0.0211,-0.0588 -2.74232,-6.646025 -2.74232,-6.646025 -0.56003,-1.126491 -0.2892,-2.800162 0.55361,-3.643883 l 3.12424,-3.124245 c 0.71794,-0.718862 1.11456,-1.677343 1.11456,-2.699173 0,-1.021829 -0.39662,-1.980311 -1.11456,-2.698254 L 162.19312,69.344869 c -0.71794,-0.717943 -1.67642,-1.113638 -2.69825,-1.114556 -1.02183,0 -1.98031,0.395695 -2.69826,1.114556 l -3.12424,3.124246 c -0.84281,0.841885 -2.51739,1.113638 -3.58329,0.581148 -0.0597,-0.02754 -6.64694,-2.74783 -6.64694,-2.74783 -1.18984,-0.401204 -2.18229,-1.780169 -2.18229,-2.972762 v -4.419665 c -0.003,-2.105171 -1.71499,-3.817401 -3.81924,-3.817401 h -17.39589 c -2.10517,0 -3.8174,1.71223 -3.8174,3.817401 v 4.419665 c 0,1.192593 -0.99245,2.571558 -2.12261,2.950728 -0.0588,0.02203 -6.64603,2.742322 -6.64603,2.742322 -1.12649,0.560032 -2.80108,0.288279 -3.64388,-0.554524 l -3.12425,-3.123328 c -0.718857,-0.718861 -1.677338,-1.114556 -2.699168,-1.114556 -1.021829,0 -1.980311,0.396613 -2.698254,1.114556 L 82.990779,81.6463 c -1.488217,1.488217 -1.488217,3.90921 0,5.397427 l 3.124246,3.124245 c 0.841885,0.842803 1.113638,2.517392 0.581148,3.583289 -0.02754,0.05968 -2.748749,6.646939 -2.748749,6.646939 -0.401203,1.18984 -1.77925,2.18137 -2.971843,2.18137 h -3.273894 c -2.104253,9.2e-4 -4.962254,1.71315 -4.962254,3.81832 v 17.39497 c 0,2.10517 1.71223,3.8174 3.817401,3.8174 h 4.419665 c 1.192593,0 2.571558,0.99154 2.949809,2.12262 0.02203,0.0588 2.743241,6.64602 2.743241,6.64602 0.560032,1.12649 0.288279,2.80016 -0.553606,3.64388 l -3.124246,3.12425 c -1.488217,1.48822 -1.488217,3.90921 0,5.39743 l 12.302349,12.30143 c 0.717943,0.71794 1.676425,1.11455 2.698254,1.11455 1.022748,0 1.98123,-0.39661 2.69917,-1.11455 l 3.12425,-3.12425 c 0.8428,-0.84188 2.51739,-1.11364 3.58329,-0.58115 0.0597,0.0275 6.64694,2.74875 6.64694,2.74875 1.18892,0.40121 2.18137,1.77925 2.18137,2.97185 v 4.41874 c 0,2.10517 1.71223,3.8174 3.8174,3.8174 h 17.39497 c 2.10425,0 3.81648,-1.71223 3.81648,-3.8174 v -4.41874 c 0,-1.1926 0.99246,-2.57156 2.12354,-2.95073 0.0588,-0.0211 6.64602,-2.74232 6.64602,-2.74232 1.12649,-0.56004 2.802,-0.2892 3.64388,0.5536 l 3.12425,3.12425 c 0.71794,0.71794 1.67642,1.11455 2.69825,1.11455 1.02183,0 1.98031,-0.39661 2.69826,-1.11455 l 12.30143,-12.30143 c 0.71794,-0.71795 1.11455,-1.67643 1.11455,-2.69826 0,-1.02183 -0.39661,-1.98031 -1.11455,-2.69825 l -3.12425,-3.12425 c -0.8428,-0.8428 -1.11364,-2.51739 -0.58115,-3.58329 0.0276,-0.0597 2.74875,-6.64694 2.74875,-6.64694 0.40121,-1.18892 1.77925,-2.18137 2.97185,-2.18137 h 4.41874 c 2.10517,0 3.8174,-1.71223 3.8174,-3.8174 v -17.39681 c 0.003,-2.10517 -1.70947,-3.8174 -3.81464,-3.8174 z m -52.18583,28.7572 c -8.95593,0 -16.24278,-7.28593 -16.24278,-16.24185 0,-8.95593 7.28685,-16.242776 16.24278,-16.242776 8.95684,0 16.24185,7.286846 16.24185,16.242776 0,8.95684 -7.28501,16.24185 -16.24185,16.24185 z"
           id="path3232" />
        <path
           style="opacity:0.5;fill:#3a3a3d"
           d="m 180.9285,101.73402 h -4.41875 c -1.19259,0 -2.57156,-0.99429 -2.95073,-2.12629 -0.0211,-0.05876 -2.74232,-6.656121 -2.74232,-6.656121 -0.56003,-1.128328 -0.2892,-2.804753 0.55361,-3.649391 l 3.12424,-3.129755 c 0.71794,-0.719779 1.11456,-1.680097 1.11456,-2.703762 0,-1.022748 -0.39662,-1.983066 -1.11456,-2.702845 L 162.19312,68.444227 c -0.71794,-0.719779 -1.67642,-1.116392 -2.69825,-1.116392 -1.02183,0 -1.98031,0.396613 -2.69826,1.116392 l -3.12424,3.128836 c -0.84281,0.843721 -2.51739,1.115474 -3.58329,0.582067 -0.0597,-0.02754 -6.64694,-2.752421 -6.64694,-2.752421 -1.18984,-0.402122 -2.18229,-1.782923 -2.18229,-2.977353 v -4.427009 c -0.003,-2.108843 -1.71499,-3.823827 -3.81924,-3.823827 h -17.39589 c -2.10517,0 -3.8174,1.714984 -3.8174,3.823827 v 4.427009 c 0,1.19443 -0.99245,2.576149 -2.12261,2.955318 -0.0588,0.02204 -6.64603,2.746913 -6.64603,2.746913 -1.12649,0.56095 -2.80108,0.289197 -3.64388,-0.554524 l -3.12425,-3.128836 c -0.718857,-0.719779 -1.677338,-1.116392 -2.699168,-1.116392 -1.021829,0 -1.980311,0.397531 -2.698254,1.116392 L 82.990779,80.765856 c -1.488217,1.490971 -1.488217,3.916554 0,5.406607 l 3.124246,3.129755 c 0.841885,0.84372 1.113638,2.521063 0.581148,3.589715 -0.02754,0.05968 -2.748749,6.657958 -2.748749,6.657958 -0.401203,1.191679 -1.77925,2.185049 -2.971843,2.185049 h -3.273894 c -2.104253,-9.2e-4 -4.962254,1.71406 -4.962254,3.8229 v 17.42435 c 0,2.10793 1.71223,3.82291 3.817401,3.82291 h 4.419665 c 1.192593,0 2.571558,0.99337 2.949809,2.12629 0.02203,0.0588 2.743241,6.65612 2.743241,6.65612 0.560032,1.12833 0.288279,2.80567 -0.553606,3.65031 l -3.124246,3.12976 c -1.488217,1.49005 -1.488217,3.91655 0,5.4066 l 12.302349,12.32163 c 0.717943,0.71978 1.676425,1.11639 2.698254,1.11639 1.022748,0 1.98123,-0.39661 2.69917,-1.11639 l 3.12425,-3.12884 c 0.8428,-0.84372 2.51739,-1.11639 3.58329,-0.58206 0.0597,0.0266 6.64694,2.75242 6.64694,2.75242 1.18892,0.40212 2.18137,1.782 2.18137,2.97735 v 4.42609 c 0,2.10885 1.71223,3.82383 3.8174,3.82383 h 17.39497 c 2.10425,0 3.81648,-1.71498 3.81648,-3.82383 v -4.42609 c 0,-1.19535 0.99246,-2.57615 2.12354,-2.95623 0.0588,-0.0211 6.64602,-2.74692 6.64602,-2.74692 1.12649,-0.56095 2.802,-0.28828 3.64388,0.55453 l 3.12425,3.12883 c 0.71794,0.71978 1.67642,1.1164 2.69825,1.1164 1.02183,0 1.98031,-0.39662 2.69826,-1.1164 l 12.30143,-12.32163 c 0.71794,-0.71886 1.11455,-1.67917 1.11455,-2.70284 0,-1.02367 -0.39661,-1.98398 -1.11455,-2.70284 l -3.12425,-3.12976 c -0.8428,-0.84372 -1.11364,-2.52198 -0.58115,-3.5888 0.0276,-0.0606 2.74875,-6.65795 2.74875,-6.65795 0.40121,-1.1926 1.77925,-2.18597 2.97185,-2.18597 h 4.41874 c 2.10517,0 3.8174,-1.71498 3.8174,-3.82291 v -17.42435 c 0.003,-2.10884 -1.70947,-3.82382 -3.81464,-3.82382 z m -52.18583,30.06272 c -9.71611,0 -17.61991,-7.9038 -17.61991,-17.61899 0,-9.7161 7.9038,-17.619901 17.61991,-17.619901 9.71518,0 17.61898,7.903801 17.61898,17.619901 0,9.71519 -7.9038,17.61899 -17.61898,17.61899 z"
           id="path3234" />
        <path
           style="fill:url(#linearGradient79611)"
           d="m 180.8422,102.59977 h -4.41324 c -1.63144,0 -3.38223,-1.25961 -3.90187,-2.807504 l -2.71294,-6.569822 c -0.72804,-1.454248 -0.38376,-3.580535 0.77119,-4.735487 l 3.11782,-3.118737 c 0.52698,-0.526981 0.81802,-1.230235 0.81802,-1.982147 0,-0.750994 -0.29012,-1.454248 -0.81802,-1.981229 L 161.42285,69.124529 c -0.52515,-0.526982 -1.23024,-0.817097 -1.98031,-0.817097 -0.751,0 -1.45517,0.290115 -1.98215,0.817097 l -3.11782,3.118737 c -1.15495,1.154034 -3.28124,1.499234 -4.74191,0.768438 l -6.56891,-2.713862 c -1.54238,-0.516882 -2.80291,-2.266754 -2.80291,-3.89911 v -4.41232 c 0,-1.545139 -1.25686,-2.801998 -2.802,-2.801998 h -17.36743 c -1.54606,0 -2.80292,1.256859 -2.80292,2.801998 v 4.41232 c 0,1.632356 -1.25961,3.382228 -2.8075,3.901864 0,0 -6.56982,2.713862 -6.56982,2.713862 -1.45425,0.727124 -3.58146,0.382842 -4.73549,-0.771192 l -3.11874,-3.118737 c -0.526979,-0.526982 -1.230233,-0.817097 -1.982145,-0.817097 -0.750994,0 -1.454248,0.290115 -1.981229,0.817097 L 83.780333,81.405762 c -1.092522,1.092522 -1.092522,2.869936 0,3.962458 l 3.118737,3.118737 c 1.154034,1.154034 1.499234,3.281239 0.768438,4.741913 0,0 -2.713862,6.569822 -2.713862,6.569822 -0.516882,1.542388 -2.265835,2.801078 -3.89911,2.801078 h -3.265631 c -1.523104,0 -3.947769,1.28257 -3.947769,2.80292 v 17.36651 c 0,1.54605 1.25686,2.80291 2.801998,2.80291 h 4.41232 c 1.632357,0 3.382228,1.25962 3.900947,2.80843 l 2.714779,6.56982 c 0.727124,1.45425 0.382842,3.58053 -0.771192,4.73549 l -3.118737,3.11782 c -1.092522,1.09252 -1.092522,2.87085 0,3.96245 l 12.281233,12.28124 c 0.526063,0.52698 1.230235,0.81801 1.981229,0.81801 0.750994,0 1.455166,-0.29011 1.982147,-0.81801 l 3.11874,-3.11782 c 1.15403,-1.15495 3.28124,-1.49924 4.74191,-0.76936 0,0 6.56982,2.71295 6.56982,2.71295 1.54239,0.51688 2.80108,2.26767 2.80108,3.90002 v 4.41141 c 0,1.54605 1.25686,2.80291 2.80292,2.80291 h 17.36651 c 1.54514,0 2.802,-1.25686 2.802,-2.80291 v -4.41141 c 0,-1.63235 1.26053,-3.38406 2.80842,-3.90186 0,-9.2e-4 6.56982,-2.71386 6.56982,-2.71386 1.45425,-0.72713 3.58054,-0.38284 4.73549,0.77211 l 3.11782,3.11782 c 0.52698,0.52698 1.23115,0.81801 1.98215,0.81801 0.75007,0 1.45516,-0.29011 1.98031,-0.81801 l 12.28123,-12.28124 c 0.52698,-0.52606 0.81801,-1.23023 0.81801,-1.98123 0,-0.75099 -0.29011,-1.45424 -0.81801,-1.98122 l -3.11782,-3.11782 c -1.15495,-1.15496 -1.49923,-3.28216 -0.76936,-4.74283 l 2.71387,-6.56891 c 0.51688,-1.54238 2.26767,-2.802 3.89911,-2.802 h 4.41323 c 1.54514,0 2.802,-1.25686 2.802,-2.80291 v -17.36651 c -9.2e-4,-1.54514 -1.25778,-2.80292 -2.80291,-2.80292 z m -52.09953,39.94683 c -15.64235,0 -28.36886,-12.7265 -28.36886,-28.36885 0,-15.642344 12.72651,-28.368849 28.36886,-28.368849 15.64234,0 28.36885,12.726505 28.36885,28.368849 0,15.64235 -12.72651,28.36885 -28.36885,28.36885 z"
           id="path3241" />
        <path
           style="opacity:0.1;fill:#030303"
           d="m 128.74267,75.618149 c -22.2746,0 -40.395779,18.121177 -40.395779,40.395771 0,22.2746 18.121179,40.39578 40.395779,40.39578 22.27459,0 40.39577,-18.12118 40.39577,-40.39578 0,-22.274594 -18.12118,-40.395771 -40.39577,-40.395771 z m 0,67.020261 c -15.71947,0 -28.46066,-12.74119 -28.46066,-28.46066 0,-15.719463 12.74119,-28.460657 28.46066,-28.460657 15.71946,0 28.46065,12.741194 28.46065,28.460657 0,15.71947 -12.74119,28.46066 -28.46065,28.46066 z"
           id="path3243" />
        <path
           style="opacity:0.1;fill:#3b3b3e"
           d="m 128.74267,76.260809 c -21.76782,0 -39.477693,17.709875 -39.477693,39.477691 0,21.76781 17.709873,39.47769 39.477693,39.47769 21.76873,0 39.47768,-17.70896 39.47768,-39.47769 0,-21.768734 -17.70895,-39.477691 -39.47768,-39.477691 z m 0,59.859191 c -11.76436,0 -21.29959,-9.53616 -21.29959,-21.30051 0,-11.76435 9.53523,-21.298668 21.29959,-21.298668 11.76435,0 21.29959,9.535238 21.29959,21.299588 0,11.76435 -9.53524,21.29959 -21.29959,21.29959 z"
           id="path3245" />
        <path
           style="opacity:0.3;fill:#1c1c1e"
           d="m 128.74267,74.700063 c -21.76782,0 -39.477693,17.709875 -39.477693,39.477687 0,21.76873 17.709873,39.47769 39.477693,39.47769 21.76873,0 39.47768,-17.70896 39.47768,-39.47769 0,-21.767812 -17.70895,-39.477687 -39.47768,-39.477687 z m 0,64.174197 c -13.64092,0 -24.69651,-11.05651 -24.69651,-24.69651 0,-13.64092 11.05559,-24.696506 24.69651,-24.696506 13.64,0 24.6965,11.055586 24.6965,24.696506 0,13.64 -11.0565,24.69651 -24.6965,24.69651 z"
           id="path3247" />
        <path
           style="fill:url(#linearGradient79613)"
           d="m 128.74267,75.980793 c -21.06181,0 -38.196963,17.135153 -38.196963,38.196957 0,21.06181 17.135153,38.19696 38.196963,38.19696 21.0618,0 38.19695,-17.13515 38.19695,-38.19696 0,-21.061804 -17.13515,-38.196957 -38.19695,-38.196957 z m 0,66.290387 c -15.51657,0 -28.09343,-12.57594 -28.09343,-28.09343 0,-15.517484 12.57686,-28.093423 28.09343,-28.093423 15.51656,0 28.09342,12.576857 28.09342,28.093423 0,15.51657 -12.57686,28.09343 -28.09342,28.09343 z"
           id="path3254" />
        <path
           style="fill:url(#linearGradient79615)"
           d="m 128.74267,85.717093 c -15.71855,0 -28.46066,12.742112 -28.46066,28.460657 0,15.71855 12.74211,28.46066 28.46066,28.46066 15.71854,0 28.46065,-12.74211 28.46065,-28.46066 0,-15.718545 -12.74211,-28.460657 -28.46065,-28.460657 z m 0,47.281417 c -10.39549,0 -18.82076,-8.42619 -18.82076,-18.82076 0,-10.39548 8.42527,-18.820757 18.82076,-18.820757 10.39456,0 18.82075,8.425277 18.82075,18.820757 0,10.39457 -8.42619,18.82076 -18.82075,18.82076 z"
           id="path3261" />
      </g>
      <path
         id="path4852"
         d="m 375.39311,435.47901 c -53.52612,0 -96.98247,43.00013 -97.75,96.34374 10.00972,-5.92814 19.73393,-10.88682 25.9375,-13.75 14.28326,-6.59228 49.44541,-6.58732 61.53125,-1.09375 12.08584,5.49356 32.95038,9.88345 43.9375,1.09375 10.98712,-8.78969 8.80204,-16.48658 31.875,-26.37499 5.67666,-2.43286 12.40919,-4.6447 19.625,-6.53125 -16.79408,-29.65648 -48.64174,-49.6875 -85.15625,-49.6875 z"
         style="fill:url(#linearGradient79617);fill-opacity:1;stroke:none" />
      <path
         style="fill:#ffffff;fill-opacity:0.75688076;fill-rule:nonzero;stroke:none"
         d="m 354.6034,465.22313 0,-4.17635 0,4.17635 z"
         id="path2276"
         sodipodi:nodetypes="ccc" />
    </g>
  </g>
</svg>
