<?xml version="1.0" encoding="UTF-8" standalone="no"?>
<!-- Created with Inkscape (http://www.inkscape.org/) -->

<svg
   xmlns:dc="http://purl.org/dc/elements/1.1/"
   xmlns:cc="http://creativecommons.org/ns#"
   xmlns:rdf="http://www.w3.org/1999/02/22-rdf-syntax-ns#"
   xmlns:svg="http://www.w3.org/2000/svg"
   xmlns="http://www.w3.org/2000/svg"
   xmlns:xlink="http://www.w3.org/1999/xlink"
   xmlns:sodipodi="http://sodipodi.sourceforge.net/DTD/sodipodi-0.dtd"
   xmlns:inkscape="http://www.inkscape.org/namespaces/inkscape"
   width="256"
   height="256"
   id="svg32805"
   version="1.1"
   inkscape:version="0.47pre0 r21549"
   sodipodi:docname="Nouveau document 4"
   inkscape:output_extension="org.inkscape.output.svg.inkscape">
  <defs
     id="defs32807">
    <inkscape:perspective
       sodipodi:type="inkscape:persp3d"
       inkscape:vp_x="0 : 526.18109 : 1"
       inkscape:vp_y="0 : 1000 : 0"
       inkscape:vp_z="744.09448 : 526.18109 : 1"
       inkscape:persp3d-origin="372.04724 : 350.78739 : 1"
       id="perspective32813" />
    <inkscape:perspective
       id="perspective32835"
       inkscape:persp3d-origin="0.5 : 0.33333333 : 1"
       inkscape:vp_z="1 : 0.5 : 1"
       inkscape:vp_y="0 : 1000 : 0"
       inkscape:vp_x="0 : 0.5 : 1"
       sodipodi:type="inkscape:persp3d" />
    <radialGradient
       inkscape:collect="always"
       xlink:href="#linearGradient4824"
       id="radialGradient4830"
       cx="15.593588"
       cy="88.653885"
       fx="15.593588"
       fy="88.653885"
       r="114.76744"
       gradientUnits="userSpaceOnUse" />
    <linearGradient
       inkscape:collect="always"
       id="linearGradient4824">
      <stop
         style="stop-color:#ffffff;stop-opacity:1;"
         offset="0"
         id="stop4826" />
      <stop
         style="stop-color:#ffffff;stop-opacity:0;"
         offset="1"
         id="stop4828" />
    </linearGradient>
    <radialGradient
       inkscape:collect="always"
       xlink:href="#linearGradient4824"
       id="radialGradient4838"
       gradientUnits="userSpaceOnUse"
       cx="219.53087"
       cy="98.953751"
       fx="219.53087"
       fy="98.953751"
       r="114.76744" />
    <radialGradient
       inkscape:collect="always"
       xlink:href="#linearGradient4326"
       id="radialGradient4591"
       gradientUnits="userSpaceOnUse"
       gradientTransform="matrix(1,0,0,0.9068628,0,-5.2669822)"
       cx="-54.952297"
       cy="-56.550789"
       fx="-54.952297"
       fy="-56.550789"
       r="20.607111" />
    <linearGradient
       id="linearGradient4326">
      <stop
         style="stop-color:#000000;stop-opacity:1;"
         offset="0"
         id="stop4328" />
      <stop
         id="stop4334"
         offset="0.91000003"
         style="stop-color:#000000;stop-opacity:1;" />
      <stop
         style="stop-color:#000000;stop-opacity:0;"
         offset="1"
         id="stop4330" />
    </linearGradient>
    <radialGradient
       inkscape:collect="always"
       xlink:href="#linearGradient4224"
       id="radialGradient4593"
       gradientUnits="userSpaceOnUse"
       gradientTransform="matrix(1.164251,0,0,1.1066309,-7.7152118,3.6172807)"
       cx="46.972088"
       cy="-33.92337"
       fx="46.972088"
       fy="-33.92337"
       r="60.306107" />
    <linearGradient
       id="linearGradient4224">
      <stop
         style="stop-color:#95d2f8;stop-opacity:1;"
         offset="0"
         id="stop4226" />
      <stop
         id="stop4240"
         offset="0.41"
         style="stop-color:#357bb5;stop-opacity:1;" />
      <stop
         style="stop-color:#13324e;stop-opacity:1;"
         offset="1"
         id="stop4228" />
    </linearGradient>
    <radialGradient
       inkscape:collect="always"
       xlink:href="#linearGradient4463"
       id="radialGradient4595"
       gradientUnits="userSpaceOnUse"
       gradientTransform="matrix(1.1373136,0,0,1.1082148,-5.9284,3.6296571)"
       cx="65.260735"
       cy="-19.960367"
       fx="65.260735"
       fy="-19.960367"
       r="60.306107" />
    <linearGradient
       id="linearGradient4463">
      <stop
         id="stop4465"
         offset="0"
         style="stop-color:#000000;stop-opacity:0;" />
      <stop
         style="stop-color:#000000;stop-opacity:0;"
         offset="0.91000003"
         id="stop4467" />
      <stop
         id="stop4469"
         offset="1"
         style="stop-color:#000000;stop-opacity:1;" />
    </linearGradient>
    <radialGradient
       r="60.306107"
       fy="-33.92337"
       fx="46.972088"
       cy="-33.92337"
       cx="46.972088"
       gradientTransform="matrix(1.1583414,0,0,1.1010138,78.50486,8.465679)"
       gradientUnits="userSpaceOnUse"
       id="radialGradient111330"
       xlink:href="#linearGradient4471"
       inkscape:collect="always" />
    <linearGradient
       id="linearGradient4471">
      <stop
         style="stop-color:#ffffff;stop-opacity:1;"
         offset="0"
         id="stop4473" />
      <stop
         id="stop4544-4"
         offset="0.5"
         style="stop-color:#f6f6f6;stop-opacity:1;" />
      <stop
         style="stop-color:#e1e1e1;stop-opacity:1;"
         offset="1"
         id="stop4475" />
    </linearGradient>
    <radialGradient
       inkscape:collect="always"
       xlink:href="#linearGradient4824"
       id="radialGradient4842"
       gradientUnits="userSpaceOnUse"
       cx="117.56223"
       cy="1.6960773"
       fx="117.56223"
       fy="1.6960773"
       r="114.76744"
       gradientTransform="matrix(1.439753,0,0,1,-51.698347,0)" />
    <linearGradient
       inkscape:collect="always"
       xlink:href="#linearGradient4859"
       id="linearGradient4865"
       x1="121.54688"
       y1="-8.986186"
       x2="121.54688"
       y2="143.39191"
       gradientUnits="userSpaceOnUse" />
    <linearGradient
       inkscape:collect="always"
       id="linearGradient4859">
      <stop
         style="stop-color:#ffffff;stop-opacity:1;"
         offset="0"
         id="stop4861" />
      <stop
         style="stop-color:#ffffff;stop-opacity:0;"
         offset="1"
         id="stop4863" />
    </linearGradient>
    <linearGradient
       y2="143.39191"
       x2="121.54688"
       y1="-8.986186"
       x1="121.54688"
       gradientUnits="userSpaceOnUse"
       id="linearGradient32892"
       xlink:href="#linearGradient4859"
       inkscape:collect="always" />
  </defs>
  <sodipodi:namedview
     id="base"
     pagecolor="#ffffff"
     bordercolor="#666666"
     borderopacity="1.0"
     inkscape:pageopacity="0.0"
     inkscape:pageshadow="2"
     inkscape:zoom="0.35"
     inkscape:cx="375"
     inkscape:cy="520"
     inkscape:document-units="px"
     inkscape:current-layer="layer1"
     showgrid="false"
     inkscape:window-width="1027"
     inkscape:window-height="485"
     inkscape:window-x="637"
     inkscape:window-y="539"
     inkscape:window-maximized="0" />
  <metadata
     id="metadata32810">
    <rdf:RDF>
      <cc:Work
         rdf:about="">
        <dc:format>image/svg+xml</dc:format>
        <dc:type
           rdf:resource="http://purl.org/dc/dcmitype/StillImage" />
        <dc:title></dc:title>
      </cc:Work>
    </rdf:RDF>
  </metadata>
  <g
     inkscape:label="Calque 1"
     inkscape:groupmode="layer"
     id="layer1"
     transform="translate(0,-796.36218)">
    <g
       transform="translate(-3.1235624e-4,796.36192)"
       id="g32815">
      <path
         transform="matrix(1.15625,0,0,1.15625,-8.480688,-8.309014)"
         d="m 223.03862,116.46352 c 0,58.253 -47.22339,105.47638 -105.47639,105.47638 -58.252997,0 -105.476384,-47.22338 -105.476384,-105.47638 0,-58.253004 47.223387,-105.476391 105.476384,-105.476391 58.253,0 105.47639,47.223387 105.47639,105.476391 z"
         sodipodi:ry="105.47639"
         sodipodi:rx="105.47639"
         sodipodi:cy="116.46352"
         sodipodi:cx="117.56223"
         id="path4820"
         style="fill:#000000;fill-opacity:1;stroke:none"
         sodipodi:type="arc" />
      <path
         sodipodi:type="arc"
         style="fill:none;stroke:url(#radialGradient4830);stroke-width:18.58210373;stroke-miterlimit:4;stroke-opacity:1;stroke-dasharray:none"
         id="path4822"
         sodipodi:cx="117.56223"
         sodipodi:cy="116.46352"
         sodipodi:rx="105.47639"
         sodipodi:ry="105.47639"
         d="m 223.03862,116.46352 c 0,58.253 -47.22339,105.47638 -105.47639,105.47638 -58.252997,0 -105.476384,-47.22338 -105.476384,-105.47638 0,-58.253004 47.223387,-105.476391 105.476384,-105.476391 58.253,0 105.47639,47.223387 105.47639,105.476391 z"
         transform="matrix(1.0667253,0,0,1.0667253,2.0440348,2.1173465)" />
      <path
         transform="matrix(1.0667253,0,0,1.0667253,2.0440348,2.1173465)"
         d="m 223.03862,116.46352 c 0,58.253 -47.22339,105.47638 -105.47639,105.47638 -58.252997,0 -105.476384,-47.22338 -105.476384,-105.47638 0,-58.253004 47.223387,-105.476391 105.476384,-105.476391 58.253,0 105.47639,47.223387 105.47639,105.476391 z"
         sodipodi:ry="105.47639"
         sodipodi:rx="105.47639"
         sodipodi:cy="116.46352"
         sodipodi:cx="117.56223"
         id="path4836"
         style="fill:none;stroke:url(#radialGradient4838);stroke-width:18.58210373;stroke-miterlimit:4;stroke-opacity:1;stroke-dasharray:none"
         sodipodi:type="arc" />
      <g
         transform="matrix(1.3020386,0,0,1.3020386,-67.336562,139.10138)"
         id="g4585"
         style="display:inline">
        <path
           sodipodi:type="arc"
           style="opacity:0.54828659;color:#000000;fill:url(#radialGradient4591);fill-opacity:1;fill-rule:evenodd;stroke:none;stroke-width:2;marker:none;visibility:visible;display:inline;overflow:visible;enable-background:accumulate"
           id="path4307"
           sodipodi:cx="-54.952297"
           sodipodi:cy="-56.550789"
           sodipodi:rx="20.607111"
           sodipodi:ry="18.687822"
           d="m -34.345186,-56.550789 c 0,10.320999 -9.226118,18.687822 -20.607111,18.687822 -11.380993,0 -20.607111,-8.366823 -20.607111,-18.687822 0,-10.320999 9.226118,-18.687822 20.607111,-18.687822 11.380993,0 20.607111,8.366823 20.607111,18.687822 z"
           transform="matrix(3.105724,0,0,3.4246901,320.66667,181.66893)" />
        <path
           sodipodi:type="arc"
           style="color:#000000;fill:url(#radialGradient4593);fill-opacity:1;fill-rule:evenodd;stroke:none;stroke-width:2;marker:none;visibility:visible;display:inline;overflow:visible;enable-background:accumulate"
           id="path3253"
           sodipodi:cx="64.144684"
           sodipodi:cy="-16.952808"
           sodipodi:rx="60.306107"
           sodipodi:ry="60.306107"
           d="m 124.45079,-16.952808 c 0,33.306143 -26.999963,60.306106 -60.306106,60.306106 -33.306143,0 -60.3061067,-26.999963 -60.3061067,-60.306106 0,-33.306143 26.9999637,-60.306107 60.3061067,-60.306107 33.306143,0 60.306106,26.999964 60.306106,60.306107 z"
           transform="matrix(0.9949241,0,0,0.9949241,86.18091,4.8667588)" />
        <path
           sodipodi:type="arc"
           style="color:#000000;fill:url(#radialGradient4595);fill-opacity:1;fill-rule:evenodd;stroke:none;stroke-width:2;marker:none;visibility:visible;display:inline;overflow:visible;enable-background:accumulate"
           id="path4449"
           sodipodi:cx="64.144684"
           sodipodi:cy="-16.952808"
           sodipodi:rx="60.306107"
           sodipodi:ry="60.306107"
           d="m 124.45079,-16.952808 c 0,33.306143 -26.999963,60.306106 -60.306106,60.306106 -33.306143,0 -60.3061067,-26.999963 -60.3061067,-60.306106 0,-33.306143 26.9999637,-60.306107 60.3061067,-60.306107 33.306143,0 60.306106,26.999964 60.306106,60.306107 z"
           transform="matrix(0.9949241,0,0,0.9949241,86.18091,4.8667588)" />
        <path
           style="color:#000000;fill:url(#radialGradient111330);fill-opacity:1;fill-rule:evenodd;stroke:none;stroke-width:2;marker:none;visibility:visible;display:inline;overflow:visible;enable-background:accumulate"
           d="m 150,-69.5 c -7.16963,0 -14.01235,1.349192 -20.34375,3.75 17.42858,0.305773 27.26443,2.115772 36.1875,7 0.74359,0.407019 1.4842,0.830666 2.21875,1.28125 2.20366,1.351751 4.39535,2.911072 6.65625,4.6875 9.74486,7.656709 10.59772,16.974385 18.875,24.09375 5.03926,4.33432 4.3572,3.968749 6.6875,3.96875 2.55039,0 3.84871,-2.305251 4.46875,-4.8125 C 197.32889,-52.702654 175.62459,-69.500002 150,-69.5 z m -23.0625,10.5625 c -1.21859,0 -2.43298,0.131328 -3.625,0.375 -0.39734,0.08122 -0.79398,0.175827 -1.1875,0.28125 -11.01858,2.951853 -20.44707,15.107323 -23.53125,20.6875 -0.196186,0.354957 -0.418536,0.772164 -0.625,1.15625 -1.6377,3.477358 -2.956391,7.121984 -3.875,10.9375 0.882243,-1.128774 1.740835,-2.188244 2.59375,-3.1875 5.97041,-6.994793 11.43417,-10.781249 19.28125,-10.78125 14.00168,-10e-7 15.78056,6.238078 41.4375,22.96875 12.62732,8.2341636 31.78893,19.5892866 47.59375,21.28125 0.64834,-2.1258123 1.16192,-4.30905454 1.5625,-6.53125 -5.91311,-0.4268904 -11.23985,-2.6809275 -17,-6.5 -0.82288,-0.5455818 -1.65665,-1.1095061 -2.5,-1.71875 -6.74677,-4.873951 -14.24492,-11.76493 -24,-20.3125 -7.4276,-6.508198 -26.10868,-28.656249 -36.125,-28.65625 z M 106.875,6.71875 c -4.43952,0 -7.752288,2.2502384 -8.125,7.3125 6.22372,12.218619 16.67634,21.91297 29.4375,27.15625 -0.16916,-0.236664 -0.32973,-0.485997 -0.5,-0.75 -1.19188,-1.848019 -2.34375,-4.347463 -2.34375,-7.21875 0,-3.340433 2.16025,-4.65625 4.59375,-4.65625 3.24094,0 13.9388,5.09375 31.84375,5.09375 8.95574,0 20.12882,-1.311863 28.3125,-4.46875 3.23222,-3.147086 6.07627,-6.67055 8.5,-10.5 -5.23084,2.120598 -14.9037,5.187499 -27.5,5.1875 -24.33423,0 -46.52601,-10.386733 -52.9375,-13.71875 -1.70068,-0.883835 -6.05994,-3.4375001 -11.28125,-3.4375 z"
           id="path4540" />
      </g>
      <path
         sodipodi:type="arc"
         style="fill:none;stroke:url(#radialGradient4842);stroke-width:18.58210373;stroke-miterlimit:4;stroke-opacity:1;stroke-dasharray:none"
         id="path4840"
         sodipodi:cx="117.56223"
         sodipodi:cy="116.46352"
         sodipodi:rx="105.47639"
         sodipodi:ry="105.47639"
         d="m 223.03862,116.46352 c 0,58.253 -47.22339,105.47638 -105.47639,105.47638 -58.252997,0 -105.476384,-47.22338 -105.476384,-105.47638 0,-58.253004 47.223387,-105.476391 105.476384,-105.476391 58.253,0 105.47639,47.223387 105.47639,105.476391 z"
         transform="matrix(1.0667253,0,0,1.0667253,2.0440348,2.1173465)" />
      <path
         id="path4852"
         d="m 127.84375,29.46875 c -53.526119,0 -96.982465,43.00013 -97.75,96.34375 10.009722,-5.92814 19.733937,-10.88682 25.9375,-13.75 14.283262,-6.59228 49.44541,-6.58732 61.53125,-1.09375 12.08584,5.49356 32.95038,9.88345 43.9375,1.09375 10.98712,-8.7897 8.80204,-16.486588 31.875,-26.375 5.67666,-2.432854 12.40919,-4.644697 19.625,-6.53125 -16.79408,-29.656481 -48.64174,-49.6875 -85.15625,-49.6875 z"
         style="fill:url(#linearGradient32892);fill-opacity:1;stroke:none" />
    </g>
  </g>
</svg>
