<?xml version="1.0" encoding="UTF-8" standalone="no"?>
<!-- Created with Inkscape (http://www.inkscape.org/) -->

<svg
   xmlns:dc="http://purl.org/dc/elements/1.1/"
   xmlns:cc="http://creativecommons.org/ns#"
   xmlns:rdf="http://www.w3.org/1999/02/22-rdf-syntax-ns#"
   xmlns:svg="http://www.w3.org/2000/svg"
   xmlns="http://www.w3.org/2000/svg"
   xmlns:xlink="http://www.w3.org/1999/xlink"
   xmlns:sodipodi="http://sodipodi.sourceforge.net/DTD/sodipodi-0.dtd"
   xmlns:inkscape="http://www.inkscape.org/namespaces/inkscape"
   width="256"
   height="256"
   id="svg27448"
   version="1.1"
   inkscape:version="0.47pre0 r21549"
   sodipodi:docname="Nouveau document 2"
   inkscape:output_extension="org.inkscape.output.svg.inkscape">
  <defs
     id="defs27450">
    <inkscape:perspective
       sodipodi:type="inkscape:persp3d"
       inkscape:vp_x="0 : 526.18109 : 1"
       inkscape:vp_y="0 : 1000 : 0"
       inkscape:vp_z="744.09448 : 526.18109 : 1"
       inkscape:persp3d-origin="372.04724 : 350.78739 : 1"
       id="perspective27456" />
    <inkscape:perspective
       id="perspective27205"
       inkscape:persp3d-origin="0.5 : 0.33333333 : 1"
       inkscape:vp_z="1 : 0.5 : 1"
       inkscape:vp_y="0 : 1000 : 0"
       inkscape:vp_x="0 : 0.5 : 1"
       sodipodi:type="inkscape:persp3d" />
    <radialGradient
       inkscape:collect="always"
       xlink:href="#linearGradient4824"
       id="radialGradient4830"
       cx="15.593588"
       cy="88.653885"
       fx="15.593588"
       fy="88.653885"
       r="114.76744"
       gradientUnits="userSpaceOnUse" />
    <linearGradient
       inkscape:collect="always"
       id="linearGradient4824">
      <stop
         style="stop-color:#ffffff;stop-opacity:1;"
         offset="0"
         id="stop4826" />
      <stop
         style="stop-color:#ffffff;stop-opacity:0;"
         offset="1"
         id="stop4828" />
    </linearGradient>
    <radialGradient
       inkscape:collect="always"
       xlink:href="#linearGradient4824"
       id="radialGradient4838"
       gradientUnits="userSpaceOnUse"
       cx="219.53087"
       cy="98.953751"
       fx="219.53087"
       fy="98.953751"
       r="114.76744" />
    <radialGradient
       r="64"
       fy="117.27959"
       fx="64.161209"
       cy="117.27959"
       cx="64.161209"
       gradientTransform="matrix(1,0,0,0.167506,0,97.63452)"
       gradientUnits="userSpaceOnUse"
       id="radialGradient3006"
       inkscape:collect="always"
       xlink:href="/home/cosimo321/#linearGradient6959" />
    <linearGradient
       inkscape:collect="always"
       id="linearGradient6959">
      <stop
         style="stop-color:#000000;stop-opacity:1;"
         offset="0"
         id="stop6961" />
      <stop
         style="stop-color:#000000;stop-opacity:0;"
         offset="1"
         id="stop6963" />
    </linearGradient>
    <linearGradient
       y2="-10.981362"
       x2="41.548233"
       y1="-29.900099"
       x1="41.746742"
       spreadMethod="reflect"
       gradientTransform="matrix(0.454108,0.00883625,0.109263,0.494904,-14.44223,124.5398)"
       gradientUnits="userSpaceOnUse"
       id="linearGradient3008"
       inkscape:collect="always"
       xlink:href="/home/cosimo321/#linearGradient6031" />
    <linearGradient
       inkscape:collect="always"
       id="linearGradient6031">
      <stop
         style="stop-color:#ffffff;stop-opacity:1;"
         offset="0"
         id="stop6033" />
      <stop
         style="stop-color:#ffffff;stop-opacity:0;"
         offset="1"
         id="stop6035" />
    </linearGradient>
    <radialGradient
       r="12.46989"
       fy="115.19022"
       fx="26.413235"
       cy="115.19022"
       cx="26.413235"
       gradientTransform="matrix(1,0,0,0.9413016,0,6.7614849)"
       gradientUnits="userSpaceOnUse"
       id="radialGradient3010"
       inkscape:collect="always"
       xlink:href="/home/cosimo321/#linearGradient3376" />
    <linearGradient
       inkscape:collect="always"
       id="linearGradient3376">
      <stop
         style="stop-color:#000000;stop-opacity:1;"
         offset="0"
         id="stop3378" />
      <stop
         style="stop-color:#000000;stop-opacity:0;"
         offset="1"
         id="stop3380" />
    </linearGradient>
    <linearGradient
       y2="120.99289"
       x2="28.735706"
       y1="129.0088"
       x1="17.902985"
       gradientUnits="userSpaceOnUse"
       id="linearGradient3012-2"
       inkscape:collect="always"
       xlink:href="/home/cosimo321/#linearGradient3359" />
    <linearGradient
       inkscape:collect="always"
       id="linearGradient3359">
      <stop
         style="stop-color:#000000;stop-opacity:1;"
         offset="0"
         id="stop3361" />
      <stop
         style="stop-color:#000000;stop-opacity:0;"
         offset="1"
         id="stop3363" />
    </linearGradient>
    <radialGradient
       xlink:href="#linearGradient3225-0-2"
       r="11.462803"
       fy="77.604561"
       fx="17.496065"
       cy="77.604561"
       cx="17.496065"
       spreadMethod="reflect"
       gradientTransform="matrix(-0.90846347,-0.82712008,0.11310431,-0.13104399,105.55321,189.16124)"
       gradientUnits="userSpaceOnUse"
       id="radialGradient3186"
       inkscape:collect="always" />
    <linearGradient
       id="linearGradient3225-0-2">
      <stop
         style="stop-color:#ffffff;stop-opacity:1;"
         offset="0"
         id="stop3227-2-0" />
      <stop
         style="stop-color:#aeaeae;stop-opacity:1;"
         offset="1"
         id="stop3229-4-6" />
    </linearGradient>
    <radialGradient
       xlink:href="#linearGradient3225-0-2"
       r="9.5113354"
       fy="92.839737"
       fx="35.842823"
       cy="92.839737"
       cx="35.842823"
       gradientTransform="matrix(0.31866868,0.11170284,-1.0850689,3.2653304,194.61471,-158.11977)"
       gradientUnits="userSpaceOnUse"
       id="radialGradient3182"
       inkscape:collect="always" />
    <linearGradient
       id="linearGradient27241">
      <stop
         style="stop-color:#ffffff;stop-opacity:1;"
         offset="0"
         id="stop27243" />
      <stop
         style="stop-color:#aeaeae;stop-opacity:1;"
         offset="1"
         id="stop27245" />
    </linearGradient>
    <radialGradient
       xlink:href="#linearGradient2935-5"
       r="48.882572"
       fy="21.307173"
       fx="56.70742"
       cy="57.748138"
       cx="79.183899"
       gradientTransform="matrix(0.37789883,0.31839463,-0.73149075,0.91584051,158.23346,30.087822)"
       gradientUnits="userSpaceOnUse"
       id="radialGradient3179"
       inkscape:collect="always" />
    <linearGradient
       id="linearGradient2935-5">
      <stop
         style="stop-color:#006066;stop-opacity:1;"
         offset="0"
         id="stop2937-1" />
      <stop
         style="stop-color:#004448;stop-opacity:1;"
         offset="1"
         id="stop2939-9" />
    </linearGradient>
    <linearGradient
       xlink:href="#linearGradient4102"
       y2="84.151138"
       x2="50.780857"
       y1="118.64987"
       x1="51.425694"
       gradientTransform="matrix(-0.86341463,-0.73337228,0.71404642,-0.88678315,131.52445,210.47583)"
       gradientUnits="userSpaceOnUse"
       id="linearGradient3176"
       inkscape:collect="always" />
    <linearGradient
       inkscape:collect="always"
       id="linearGradient4102">
      <stop
         style="stop-color:#ffffff;stop-opacity:1;"
         offset="0"
         id="stop4104" />
      <stop
         style="stop-color:#ffffff;stop-opacity:0;"
         offset="1"
         id="stop4106" />
    </linearGradient>
    <linearGradient
       xlink:href="#linearGradient4102"
       y2="99.431656"
       x2="105.66235"
       y1="93.95005"
       x1="104.49763"
       spreadMethod="reflect"
       gradientTransform="matrix(2.3884113,0,0,2.4004103,-427.7733,-154.9821)"
       gradientUnits="userSpaceOnUse"
       id="linearGradient3172"
       inkscape:collect="always" />
    <linearGradient
       xlink:href="#linearGradient4102"
       y2="118.30448"
       x2="46.65696"
       y1="108.20477"
       x1="45.480206"
       gradientTransform="matrix(-0.86341463,-0.73337228,0.71404642,-0.88678315,131.43941,210.47583)"
       gradientUnits="userSpaceOnUse"
       id="linearGradient3169"
       inkscape:collect="always" />
    <radialGradient
       xlink:href="#linearGradient4142-4"
       r="15.5"
       fy="128.91806"
       fx="39.490993"
       cy="118.93744"
       cx="45.431717"
       gradientTransform="matrix(1.7312974,-0.05713607,0.00850589,0.26048101,97.478498,-88.197056)"
       gradientUnits="userSpaceOnUse"
       id="radialGradient3166"
       inkscape:collect="always" />
    <linearGradient
       id="linearGradient4142-4">
      <stop
         id="stop4144-4"
         offset="0"
         style="stop-color:#ffffff;stop-opacity:1;" />
      <stop
         style="stop-color:#ffffff;stop-opacity:0.79136693;"
         offset="0.5"
         id="stop4148-6" />
      <stop
         id="stop4146-8"
         offset="1"
         style="stop-color:#ffffff;stop-opacity:0;" />
    </linearGradient>
    <radialGradient
       xlink:href="#linearGradient3695-1"
       r="3.9750404"
       fy="6.1839604"
       fx="49.717407"
       cy="7.9091048"
       cx="51.356403"
       gradientTransform="matrix(-1.8340079,-1.5564536,2.3725182,-3.0025266,186.72996,239.79772)"
       gradientUnits="userSpaceOnUse"
       id="radialGradient3163"
       inkscape:collect="always" />
    <linearGradient
       id="linearGradient3695-1">
      <stop
         id="stop3697-0"
         offset="0"
         style="stop-color:#ffffff;stop-opacity:1;" />
      <stop
         id="stop3699-8"
         offset="1"
         style="stop-color:#aeaeae;stop-opacity:1;" />
    </linearGradient>
    <linearGradient
       xlink:href="#linearGradient4102"
       y2="66.489067"
       x2="145.40347"
       y1="76.892853"
       x1="139.7972"
       spreadMethod="reflect"
       gradientTransform="matrix(-0.40155219,-2.3908613,2.3278574,-0.41242029,69.089819,440.46573)"
       gradientUnits="userSpaceOnUse"
       id="linearGradient3160"
       inkscape:collect="always" />
    <linearGradient
       xlink:href="#linearGradient4480"
       y2="59.465969"
       x2="52.22506"
       y1="45.390396"
       x1="66.82003"
       gradientTransform="matrix(-0.16782646,-0.99924752,0.97291532,-0.17236872,93.383138,196.66721)"
       gradientUnits="userSpaceOnUse"
       id="linearGradient3157"
       inkscape:collect="always" />
    <linearGradient
       inkscape:collect="always"
       id="linearGradient4480">
      <stop
         style="stop-color:#dadada;stop-opacity:1;"
         offset="0"
         id="stop4482" />
      <stop
         style="stop-color:#dadada;stop-opacity:0;"
         offset="1"
         id="stop4484" />
    </linearGradient>
    <radialGradient
       xlink:href="#linearGradient3225-0-2"
       r="3.9750404"
       fy="5.8537841"
       fx="49.724194"
       cy="7.5789285"
       cx="51.36319"
       gradientTransform="matrix(-1.8340079,-1.5564536,2.3725182,-3.0025266,198.67244,225.04192)"
       gradientUnits="userSpaceOnUse"
       id="radialGradient3154"
       inkscape:collect="always" />
    <linearGradient
       id="linearGradient27290">
      <stop
         style="stop-color:#ffffff;stop-opacity:1;"
         offset="0"
         id="stop27292" />
      <stop
         style="stop-color:#aeaeae;stop-opacity:1;"
         offset="1"
         id="stop27294" />
    </linearGradient>
    <radialGradient
       xlink:href="#linearGradient3225-0-2"
       r="11.462803"
       fy="77.604561"
       fx="17.496065"
       cy="77.604561"
       cx="17.496065"
       spreadMethod="reflect"
       gradientTransform="matrix(-0.90846347,-0.82712008,0.11310431,-0.13104399,105.55321,189.16124)"
       gradientUnits="userSpaceOnUse"
       id="radialGradient3151"
       inkscape:collect="always" />
    <linearGradient
       id="linearGradient27297">
      <stop
         style="stop-color:#ffffff;stop-opacity:1;"
         offset="0"
         id="stop27299" />
      <stop
         style="stop-color:#aeaeae;stop-opacity:1;"
         offset="1"
         id="stop27301" />
    </linearGradient>
    <radialGradient
       xlink:href="#linearGradient5490-1"
       r="11.187891"
       fy="121.22048"
       fx="22.210812"
       cy="121.22048"
       cx="22.210812"
       spreadMethod="reflect"
       gradientTransform="matrix(1.3620248,0.35869833,-0.32453119,1.2998981,97.754408,8.6941046)"
       gradientUnits="userSpaceOnUse"
       id="radialGradient3148"
       inkscape:collect="always" />
    <linearGradient
       id="linearGradient5490-1">
      <stop
         style="stop-color:#000000;stop-opacity:0;"
         offset="0"
         id="stop5492-2" />
      <stop
         id="stop5504-9"
         offset="0.44935718"
         style="stop-color:#000000;stop-opacity:0;" />
      <stop
         id="stop5502-7-8"
         offset="0.50785339"
         style="stop-color:#000000;stop-opacity:1;" />
      <stop
         style="stop-color:#000000;stop-opacity:0;"
         offset="0.5980373"
         id="stop5506-8" />
      <stop
         style="stop-color:#000000;stop-opacity:0;"
         offset="1"
         id="stop5494-6" />
    </linearGradient>
    <linearGradient
       xlink:href="#linearGradient6949"
       y2="106.62148"
       x2="29.423252"
       y1="118.87337"
       x1="34.330593"
       gradientTransform="matrix(0.98728428,0,0,1.0140053,69.329211,51.364937)"
       gradientUnits="userSpaceOnUse"
       id="linearGradient3145"
       inkscape:collect="always" />
    <linearGradient
       inkscape:collect="always"
       id="linearGradient6949">
      <stop
         style="stop-color:#000000;stop-opacity:1;"
         offset="0"
         id="stop6951" />
      <stop
         style="stop-color:#000000;stop-opacity:0;"
         offset="1"
         id="stop6953" />
    </linearGradient>
    <linearGradient
       xlink:href="#linearGradient2616-5-8"
       y2="48.873039"
       x2="-11.719011"
       y1="52.858494"
       x1="-8.7620945"
       gradientTransform="matrix(-3.1055995,-0.61928245,-0.54185125,3.5494111,163.24992,-20.238854)"
       gradientUnits="userSpaceOnUse"
       id="linearGradient3142"
       inkscape:collect="always" />
    <linearGradient
       id="linearGradient2616-5-8">
      <stop
         id="stop2618-8-2"
         offset="0"
         style="stop-color:#554513;stop-opacity:1;" />
      <stop
         id="stop2620-4-0"
         offset="1"
         style="stop-color:#b59e69;stop-opacity:1;" />
    </linearGradient>
    <radialGradient
       xlink:href="#linearGradient1648-0-2"
       r="11.61476"
       fy="111.97002"
       fx="43.500916"
       cy="110.8646"
       cx="37.368698"
       gradientTransform="matrix(-0.52351441,0.53768242,1.623973,1.6679262,4.3500387,-39.18873)"
       gradientUnits="userSpaceOnUse"
       id="radialGradient3139"
       inkscape:collect="always" />
    <linearGradient
       id="linearGradient1648-0-2">
      <stop
         style="stop-color:#b4942a;stop-opacity:1;"
         offset="0"
         id="stop1650-8-4" />
      <stop
         style="stop-color:#e4dcc9;stop-opacity:1"
         offset="1"
         id="stop1652-4-9" />
    </linearGradient>
    <linearGradient
       xlink:href="#linearGradient6031"
       y2="122.09117"
       x2="114.10702"
       y1="107.33141"
       x1="114.10702"
       gradientTransform="matrix(1.0954156,0,0,1.1250632,56.563901,37.513941)"
       gradientUnits="userSpaceOnUse"
       id="linearGradient3133"
       inkscape:collect="always" />
    <radialGradient
       xlink:href="#linearGradient2663-2-8"
       r="18.765305"
       fy="27.013157"
       fx="25.839911"
       cy="23.848236"
       cx="34.699203"
       gradientTransform="matrix(-0.37692048,0.34024544,1.6327806,1.9080173,89.626699,40.926474)"
       gradientUnits="userSpaceOnUse"
       id="radialGradient3125"
       inkscape:collect="always" />
    <linearGradient
       id="linearGradient2663-2-8">
      <stop
         id="stop2665-5-1"
         offset="0"
         style="stop-color:#ae6f10;stop-opacity:1;" />
      <stop
         id="stop2667-4-5"
         offset="1"
         style="stop-color:#281900;stop-opacity:1;" />
    </linearGradient>
    <linearGradient
       xlink:href="#linearGradient3311-2"
       y2="47.657185"
       x2="83.909187"
       y1="47.657185"
       x1="11.160621"
       gradientTransform="matrix(0.98728428,0,0,1.0140053,67.737619,49.630656)"
       gradientUnits="userSpaceOnUse"
       id="linearGradient3121"
       inkscape:collect="always" />
    <linearGradient
       inkscape:collect="always"
       id="linearGradient3311-2">
      <stop
         style="stop-color:#f00000;stop-opacity:1;"
         offset="0"
         id="stop3313-7" />
      <stop
         style="stop-color:#f00000;stop-opacity:0;"
         offset="1"
         id="stop3315-5" />
    </linearGradient>
    <linearGradient
       xlink:href="#linearGradient3565-7"
       y2="20.057724"
       x2="26.619194"
       y1="16.355263"
       x1="24.086939"
       gradientTransform="matrix(-2.5229428,-0.4521054,-0.44019154,2.5912267,162.80983,27.886204)"
       gradientUnits="userSpaceOnUse"
       id="linearGradient3118"
       inkscape:collect="always" />
    <linearGradient
       id="linearGradient3565-7"
       inkscape:collect="always">
      <stop
         id="stop3567-5"
         offset="0"
         style="stop-color:#ffffff;stop-opacity:1;" />
      <stop
         id="stop3569-2"
         offset="1"
         style="stop-color:#ffffff;stop-opacity:0;" />
    </linearGradient>
    <radialGradient
       xlink:href="#linearGradient3225-0-2"
       r="3.9750404"
       fy="6.7701697"
       fx="47.370888"
       cy="8.4953117"
       cx="49.009884"
       gradientTransform="matrix(-1.0771439,0.85336963,0.30894399,0.42033769,141.38986,20.30262)"
       gradientUnits="userSpaceOnUse"
       id="radialGradient3115-2"
       inkscape:collect="always" />
    <linearGradient
       id="linearGradient27342">
      <stop
         style="stop-color:#ffffff;stop-opacity:1;"
         offset="0"
         id="stop27344" />
      <stop
         style="stop-color:#aeaeae;stop-opacity:1;"
         offset="1"
         id="stop27346" />
    </linearGradient>
    <radialGradient
       r="3.9750404"
       fy="9.7852488"
       fx="47.356842"
       cy="8.4953117"
       cx="49.009884"
       gradientTransform="matrix(1.006114,0.804017,0.402416,-0.496946,-8.95131,64.78593)"
       gradientUnits="userSpaceOnUse"
       id="radialGradient2879"
       inkscape:collect="always"
       xlink:href="/home/cosimo321/#linearGradient3225" />
    <linearGradient
       id="linearGradient3225">
      <stop
         style="stop-color:#ffffff;stop-opacity:1;"
         offset="0"
         id="stop3227" />
      <stop
         style="stop-color:#aeaeae;stop-opacity:1;"
         offset="1"
         id="stop3229" />
    </linearGradient>
    <radialGradient
       r="3.9750404"
       fy="9.6082344"
       fx="47.424515"
       cy="8.4953117"
       cx="49.009884"
       gradientTransform="matrix(1.023607,0.818166,0.402456,-0.496915,-6.729909,60.21586)"
       gradientUnits="userSpaceOnUse"
       id="radialGradient2881"
       inkscape:collect="always"
       xlink:href="/home/cosimo321/#linearGradient3225" />
    <linearGradient
       id="linearGradient27353">
      <stop
         style="stop-color:#ffffff;stop-opacity:1;"
         offset="0"
         id="stop27355" />
      <stop
         style="stop-color:#aeaeae;stop-opacity:1;"
         offset="1"
         id="stop27357" />
    </linearGradient>
    <radialGradient
       r="3.9750404"
       fy="9.788682"
       fx="48.025326"
       cy="8.4953117"
       cx="49.009884"
       gradientTransform="matrix(1.05859,0.846463,0.402535,-0.496852,-5.327913,54.90227)"
       gradientUnits="userSpaceOnUse"
       id="radialGradient2883"
       inkscape:collect="always"
       xlink:href="/home/cosimo321/#linearGradient3225" />
    <linearGradient
       id="linearGradient27360">
      <stop
         style="stop-color:#ffffff;stop-opacity:1;"
         offset="0"
         id="stop27362" />
      <stop
         style="stop-color:#aeaeae;stop-opacity:1;"
         offset="1"
         id="stop27364" />
    </linearGradient>
    <radialGradient
       r="3.9750404"
       fy="9.4356842"
       fx="48.361217"
       cy="8.4953117"
       cx="49.009884"
       gradientTransform="matrix(1.076084,0.86061,0.402574,-0.496821,-3.078406,50.29781)"
       gradientUnits="userSpaceOnUse"
       id="radialGradient2885"
       inkscape:collect="always"
       xlink:href="/home/cosimo321/#linearGradient3225" />
    <linearGradient
       id="linearGradient27367">
      <stop
         style="stop-color:#ffffff;stop-opacity:1;"
         offset="0"
         id="stop27369" />
      <stop
         style="stop-color:#aeaeae;stop-opacity:1;"
         offset="1"
         id="stop27371" />
    </linearGradient>
    <linearGradient
       y2="95.266502"
       x2="50.843105"
       y1="106.41199"
       x1="59.634602"
       gradientTransform="matrix(1.086544,-0.0911518,-0.132743,1.144289,8.908611,-9.844197)"
       gradientUnits="userSpaceOnUse"
       id="linearGradient2887"
       inkscape:collect="always"
       xlink:href="/home/cosimo321/#linearGradient3280" />
    <linearGradient
       id="linearGradient3280"
       inkscape:collect="always">
      <stop
         id="stop3282"
         offset="0"
         style="stop-color:#000000;stop-opacity:1;" />
      <stop
         id="stop3284"
         offset="1"
         style="stop-color:#000000;stop-opacity:0;" />
    </linearGradient>
    <linearGradient
       y2="201.9507"
       x2="189.56117"
       y1="201.9507"
       x1="161.77632"
       gradientTransform="matrix(0.62426244,0,0,0.62426244,52.621459,35.410806)"
       gradientUnits="userSpaceOnUse"
       id="linearGradient116126"
       xlink:href="#linearGradient3829-5"
       inkscape:collect="always" />
    <linearGradient
       inkscape:collect="always"
       id="linearGradient3829-5">
      <stop
         style="stop-color:#58aac8;stop-opacity:1;"
         offset="0"
         id="stop3831-7" />
      <stop
         style="stop-color:#58aac8;stop-opacity:0;"
         offset="1"
         id="stop3833-4" />
    </linearGradient>
    <radialGradient
       inkscape:collect="always"
       xlink:href="#linearGradient4824"
       id="radialGradient4842"
       gradientUnits="userSpaceOnUse"
       cx="117.56223"
       cy="1.6960773"
       fx="117.56223"
       fy="1.6960773"
       r="114.76744"
       gradientTransform="matrix(1.439753,0,0,1,-51.698347,0)" />
    <linearGradient
       inkscape:collect="always"
       xlink:href="#linearGradient4859"
       id="linearGradient4865"
       x1="121.54688"
       y1="-8.986186"
       x2="121.54688"
       y2="143.39191"
       gradientUnits="userSpaceOnUse" />
    <linearGradient
       inkscape:collect="always"
       id="linearGradient4859">
      <stop
         style="stop-color:#ffffff;stop-opacity:1;"
         offset="0"
         id="stop4861" />
      <stop
         style="stop-color:#ffffff;stop-opacity:0;"
         offset="1"
         id="stop4863" />
    </linearGradient>
    <linearGradient
       y2="143.39191"
       x2="121.54688"
       y1="-8.986186"
       x1="121.54688"
       gradientUnits="userSpaceOnUse"
       id="linearGradient27446"
       xlink:href="#linearGradient4859"
       inkscape:collect="always" />
  </defs>
  <sodipodi:namedview
     id="base"
     pagecolor="#ffffff"
     bordercolor="#666666"
     borderopacity="1.0"
     inkscape:pageopacity="0.0"
     inkscape:pageshadow="2"
     inkscape:zoom="0.35"
     inkscape:cx="375"
     inkscape:cy="520"
     inkscape:document-units="px"
     inkscape:current-layer="layer1"
     showgrid="false"
     inkscape:window-width="876"
     inkscape:window-height="485"
     inkscape:window-x="788"
     inkscape:window-y="539"
     inkscape:window-maximized="0" />
  <metadata
     id="metadata27453">
    <rdf:RDF>
      <cc:Work
         rdf:about="">
        <dc:format>image/svg+xml</dc:format>
        <dc:type
           rdf:resource="http://purl.org/dc/dcmitype/StillImage" />
        <dc:title></dc:title>
      </cc:Work>
    </rdf:RDF>
  </metadata>
  <g
     inkscape:label="Calque 1"
     inkscape:groupmode="layer"
     id="layer1"
     transform="translate(0,-796.36218)">
    <g
       transform="translate(-3.1235624e-4,796.36192)"
       id="g27142">
      <path
         transform="matrix(1.15625,0,0,1.15625,-8.480688,-8.309014)"
         d="m 223.03862,116.46352 c 0,58.253 -47.22339,105.47638 -105.47639,105.47638 -58.252997,0 -105.476384,-47.22338 -105.476384,-105.47638 0,-58.253004 47.223387,-105.476391 105.476384,-105.476391 58.253,0 105.47639,47.223387 105.47639,105.476391 z"
         sodipodi:ry="105.47639"
         sodipodi:rx="105.47639"
         sodipodi:cy="116.46352"
         sodipodi:cx="117.56223"
         id="path4820"
         style="fill:#000000;fill-opacity:1;stroke:none"
         sodipodi:type="arc" />
      <path
         sodipodi:type="arc"
         style="fill:none;stroke:url(#radialGradient4830);stroke-width:18.58210373;stroke-miterlimit:4;stroke-opacity:1;stroke-dasharray:none"
         id="path4822"
         sodipodi:cx="117.56223"
         sodipodi:cy="116.46352"
         sodipodi:rx="105.47639"
         sodipodi:ry="105.47639"
         d="m 223.03862,116.46352 c 0,58.253 -47.22339,105.47638 -105.47639,105.47638 -58.252997,0 -105.476384,-47.22338 -105.476384,-105.47638 0,-58.253004 47.223387,-105.476391 105.476384,-105.476391 58.253,0 105.47639,47.223387 105.47639,105.476391 z"
         transform="matrix(1.0667253,0,0,1.0667253,2.0440348,2.1173465)" />
      <path
         transform="matrix(1.0667253,0,0,1.0667253,2.0440348,2.1173465)"
         d="m 223.03862,116.46352 c 0,58.253 -47.22339,105.47638 -105.47639,105.47638 -58.252997,0 -105.476384,-47.22338 -105.476384,-105.47638 0,-58.253004 47.223387,-105.476391 105.476384,-105.476391 58.253,0 105.47639,47.223387 105.47639,105.476391 z"
         sodipodi:ry="105.47639"
         sodipodi:rx="105.47639"
         sodipodi:cy="116.46352"
         sodipodi:cx="117.56223"
         id="path4836"
         style="fill:none;stroke:url(#radialGradient4838);stroke-width:18.58210373;stroke-miterlimit:4;stroke-opacity:1;stroke-dasharray:none"
         sodipodi:type="arc" />
      <g
         id="g3195"
         transform="matrix(1.0970996,0,0,1.0970996,-16.826456,-2.410485)">
        <g
           id="g6066"
           transform="matrix(0.98728428,0,0,1.0140053,67.737619,49.630656)">
          <path
             transform="matrix(1,0,0,0.451128,0,70.25563)"
             d="m 128.16121,117.27959 c 0,5.92071 -28.653777,10.7204 -64.000001,10.7204 -35.346224,0 -63.99999989,-4.79969 -63.99999989,-10.7204 0,-5.92072 28.65377589,-10.72041 63.99999989,-10.72041 35.346224,0 64.000001,4.79969 64.000001,10.72041 z"
             sodipodi:ry="10.720403"
             sodipodi:rx="64"
             sodipodi:cy="117.27959"
             sodipodi:cx="64.161209"
             id="path6957"
             style="opacity:0.32093027;fill:url(#radialGradient3006);fill-opacity:1;fill-rule:nonzero;stroke:none"
             sodipodi:type="arc" />
          <path
             style="fill:#ffffff;fill-opacity:0.75688076;fill-rule:nonzero;stroke:none"
             d="m 50.892799,3.2812959 0,-2.79470843 0,2.79470843 z"
             id="path2276-1"
             sodipodi:nodetypes="ccc" />
          <path
             sodipodi:nodetypes="cssscccccssss"
             id="path6011"
             d="m 3.3602981,108.44849 c -0.1556117,0.27594 -0.3016073,0.54041 -0.4388929,0.79462 -0.2745699,0.50842 -0.5142918,0.97574 -0.7263869,1.41126 -0.4241888,0.87106 -0.7378674,1.61499 -0.9988031,2.30642 -2.10099521,5.56712 0.2201992,13.62039 4.9868331,13.63596 16.0314847,0.23241 4.2257557,0.0781 20.2572387,0.31047 9.523306,0.55912 5.712809,-10.2122 12.442837,-17.2826 -3.092129,-0.67688 -1.487734,-3.80004 -5.588929,-6.17233 -2.157686,2.93051 -7.182636,9.57691 -11.393092,9.4465 -11.083314,-0.15837 -14.0532323,0.0666 -15.7146132,-0.73437 -0.8306908,-0.4005 -1.3236972,-0.94159 -1.6254211,-1.68354 -0.1508632,-0.37097 -0.2539036,-0.79216 -0.3274253,-1.27108 -0.073521,-0.47895 -0.7177323,-1.03724 -0.8733453,-0.76131 z"
             style="fill:#000000;fill-opacity:1;fill-rule:evenodd;stroke:none" />
          <path
             sodipodi:nodetypes="ccsccsc"
             id="rect6021"
             d="m 6.580022,113.21081 16.171469,0.16928 c 5.976598,-0.63138 7.082772,-10.51995 8.118378,-9.3803 2.202309,2.42357 -4.40885,13.82268 -8.214975,13.97307 l -15.8507887,0.26512 c -2.0353718,-0.0396 -4.3372746,-4.81287 -3.2111229,-7.31206 0.4973514,-1.10375 0.6505944,2.24529 2.9870396,2.28489 z"
             style="fill:url(#linearGradient3008);fill-opacity:1;fill-rule:nonzero;stroke:none" />
          <path
             style="fill:url(#radialGradient3010);fill-opacity:1;fill-rule:evenodd;stroke:none"
             d="m 26.440287,126.90722 c 9.523306,0.55912 5.712809,-10.2122 12.442837,-17.2826 -3.092129,-0.67688 -1.63234,-3.80004 -5.733537,-6.17233 -2.157686,2.93051 -7.038028,9.57691 -11.248484,9.4465 -11.083314,-0.15837 -11.492299,13.77601 4.539184,14.00843 z"
             id="path6064"
             sodipodi:nodetypes="ccccc" />
          <path
             sodipodi:nodetypes="cccccc"
             id="path6044"
             d="m 1.818457,118.83831 c 0.149247,3.87589 2.145882,7.50783 5.348207,7.52294 15.147533,0.23158 3.576164,-0.14464 18.723694,0.087 4.621016,0.26322 6.893345,-2.71481 8.097155,-6.8321 L 1.903812,118.84094 c -0.027895,-8.6e-4 -0.057522,-0.001 -0.085355,-0.003 z"
             style="fill:url(#linearGradient3012-2);fill-opacity:1;fill-rule:evenodd;stroke:none" />
        </g>
        <path
           sodipodi:nodetypes="cszczczsszczczs"
           id="path5479"
           d="m 101.76314,169.02053 c -1.76215,-2.0887 -5.460708,-5.45609 -7.613401,-6.93169 -0.266848,-0.18292 -0.410578,-0.76664 0.07397,-0.97991 0.484546,-0.21326 2.141819,-0.40904 2.141819,-0.40904 0,0 -0.341304,-1.77535 0.321704,-2.52119 0.663007,-0.74584 2.330326,-0.46218 2.330326,-0.46218 0,0 0.09369,-1.81156 0.269414,-2.34404 0.175718,-0.53247 0.673021,-0.37802 0.938318,-0.19294 2.22506,1.55239 5.78187,4.85912 7.61341,6.9317 0.21538,0.24375 0.41057,0.76663 -0.074,0.9799 -0.48454,0.21327 -2.14182,0.40905 -2.14182,0.40905 0,0 0.3413,1.77535 -0.32171,2.52119 -0.663,0.74584 -2.33032,0.46218 -2.33032,0.46218 0,0 -0.0937,1.81156 -0.26941,2.34403 -0.17572,0.53248 -0.72828,0.44191 -0.93833,0.19294 z"
           style="fill:url(#radialGradient3186);fill-opacity:1;fill-rule:nonzero;stroke:#000000;stroke-width:0.31117278;stroke-linecap:round;stroke-linejoin:round;stroke-miterlimit:4;stroke-opacity:1;stroke-dasharray:none;stroke-dashoffset:4" />
        <path
           sodipodi:nodetypes="ccccc"
           id="path3170"
           d="m 115.8574,163.65763 c -4.6885,-2.20372 -15.5969,-11.6958 -18.20376,-15.46201 l 16.37796,-20.72072 18.20377,15.46201 -16.37797,20.72072 z"
           style="fill:#787878;fill-opacity:1;fill-rule:evenodd;stroke:#000000;stroke-width:0.09575964;stroke-linecap:butt;stroke-linejoin:miter;stroke-miterlimit:4;stroke-opacity:1;stroke-dasharray:none" />
        <path
           style="fill:url(#radialGradient3182);fill-opacity:1;fill-rule:evenodd;stroke:#000000;stroke-width:0.20011112;stroke-linecap:round;stroke-linejoin:round;stroke-miterlimit:4;stroke-opacity:1;stroke-dasharray:none"
           d="m 97.669968,148.18487 10.334922,2.73138 7.87056,12.67136 -14.44239,-2.08286 -3.763092,-13.31988 z"
           id="path4538"
           sodipodi:nodetypes="ccccc" />
        <path
           style="fill:url(#radialGradient3179);fill-opacity:1;fill-rule:evenodd;stroke:none"
           d="m 115.8574,163.65763 c 23.885,-28.42953 46.76275,-59.86499 73.80187,-82.138167 l 4.51636,-5.608941 -27.30562,-23.193 -4.51637,5.60893 c -16.46741,32.769586 -42.67887,60.801508 -64.7,89.869168 4.09915,1.92672 15.21174,11.13935 18.20376,15.46201 z"
           id="path1420"
           sodipodi:nodetypes="ccccccc" />
        <path
           id="path4047"
           d="m 189.74431,81.519463 c -10.41658,-1.80776 -23.62163,-13.023943 -27.30562,-23.193011 -11.9745,33.906036 -13.5272,32.027413 -35.13838,60.896548 2.10362,1.78678 4.20725,3.57357 6.31085,5.36034 24.84819,-29.268015 25.95491,-24.619852 56.13315,-43.063877 z"
           style="opacity:0.2465116;fill:url(#linearGradient3176);fill-opacity:1;fill-rule:evenodd;stroke:none"
           sodipodi:nodetypes="ccccc" />
        <path
           sodipodi:nodetypes="ccccc"
           id="path4065"
           d="m 115.67777,163.57998 c -3.28555,-4.87774 -13.57022,-13.75793 -17.536312,-15.84619 22.460982,-27.42993 45.432362,-55.783109 63.925782,-86.834791 9.32783,8.428809 14.92451,13.486101 24.25234,21.914916 -25.95567,24.308635 -46.36876,53.875585 -70.64181,80.766065 z"
           style="opacity:0.66976743;fill:#e00000;fill-opacity:1;fill-rule:evenodd;stroke:none" />
        <rect
           ry="0.56852257"
           rx="0.49167758"
           y="61.054787"
           x="-197.43008"
           height="6.1955786"
           width="33.554203"
           id="rect4110"
           style="fill:url(#linearGradient3172);fill-opacity:1;fill-rule:nonzero;stroke:none"
           transform="matrix(-0.7621702,-0.6473767,0.62716628,-0.77888539,0,0)" />
        <path
           style="fill:url(#linearGradient3169);fill-opacity:1;fill-rule:evenodd;stroke:none"
           d="m 188.31499,81.167683 c -8.78601,-7.462696 -16.58395,-13.870151 -25.36996,-21.332853 1.55846,3.271839 4.16557,7.75004 10.20947,12.883642 6.04392,5.133613 11.35272,7.630463 15.16049,8.449211 z"
           id="path4122"
           sodipodi:nodetypes="cczc" />
        <rect
           style="fill:url(#radialGradient3166);fill-opacity:1;fill-rule:nonzero;stroke:none"
           id="rect4132"
           width="35.42831"
           height="0.56344378"
           x="163.79771"
           y="-59.568184"
           rx="0.49160951"
           ry="0.22874257"
           transform="matrix(0.76563032,0.64328082,-0.62302396,0.78220275,0,0)" />
        <path
           style="fill:url(#radialGradient3163);fill-opacity:1;fill-rule:nonzero;stroke:none"
           d="m 125.92766,151.6682 6.0887,-7.55248 -15.38505,-12.83012 -6.10931,7.46329 15.40566,12.91931 z m -15.39037,-12.90977 7.709,-6.06773 -5.07818,-4.18857 -5.95233,7.4721 3.32151,2.7842 z"
           id="path2274"
           sodipodi:nodetypes="cccccccccc" />
        <path
           style="fill:url(#linearGradient3160);fill-opacity:1;fill-rule:nonzero;stroke:none"
           d="m 167.48256,54.455142 c 1.47942,1.152344 2.9045,2.44944 4.36287,3.657804 6.86755,5.827616 13.49504,11.488982 20.3626,17.316608 0.56128,0.406849 0.42195,0.747596 0.1283,1.081436 -0.89864,1.091861 -2.27235,2.888742 -3.204,3.948969 0.6489,-0.05532 0.92977,-0.814719 1.38062,-1.225744 0.86383,-1.055905 1.37585,-1.500295 2.18636,-2.594486 0.41694,-0.464151 0.35198,-1.086483 -0.27942,-1.544161 -8.10802,-6.817298 -16.39412,-13.91138 -24.51167,-20.715837 -0.11135,-0.05351 -0.39251,-0.04678 -0.42566,0.07541 z m 21.64977,26.004817 c -0.049,-0.09796 -0.0489,0.05284 0,0 z"
           id="rect4337"
           sodipodi:nodetypes="cccccccccccc" />
        <path
           style="font-size:12.3537302px;font-style:normal;font-variant:normal;font-weight:bold;font-stretch:normal;text-align:start;line-height:125%;writing-mode:lr-tb;text-anchor:start;fill:url(#linearGradient3157);fill-opacity:1;stroke:none;font-family:Bitstream Vera Sans"
           d="m 121.98727,120.29766 c 0.2257,0.19056 0.46578,0.52347 0.62859,0.091 0.25871,-0.33132 0.51742,-0.66263 0.77613,-0.99396 -0.10741,0.59103 -0.21483,1.18206 -0.32225,1.77308 0.21629,0.10499 0.47488,0.61944 0.63917,0.22096 0.42906,-0.54857 0.85812,-1.09714 1.28718,-1.64572 -0.22571,-0.19056 -0.46579,-0.52347 -0.62859,-0.091 -0.25872,0.33131 -0.51743,0.66263 -0.77615,0.99394 0.11761,-0.59246 0.23521,-1.18493 0.35282,-1.7774 -0.22675,-0.10141 -0.50233,-0.60863 -0.66973,-0.21662 -0.42906,0.54857 -0.85812,1.09715 -1.28717,1.64572 z m 3.13442,2.19098 c 0.52595,0.43722 1.05191,0.87444 1.57787,1.31167 0.47698,-0.62211 0.95397,-1.24422 1.43095,-1.86632 -0.53615,-0.43578 -1.0723,-0.87156 -1.60844,-1.30734 -0.28634,0.24921 -0.27947,0.46194 0.0669,0.63244 0.22893,0.19073 0.45787,0.38146 0.6868,0.57219 -0.17111,0.2403 -0.32818,0.60091 -0.57253,0.21402 -0.23039,-0.19287 -0.46076,-0.38575 -0.69115,-0.57862 -0.2336,0.24224 -0.38349,0.4734 0.007,0.633 0.17953,0.18902 0.55016,0.35799 0.61568,0.55897 -0.17408,0.41503 -0.40761,0.18015 -0.64054,-0.0481 -0.22022,-0.0913 -0.48023,-0.60605 -0.66987,-0.37173 -0.0677,0.0833 -0.1354,0.16654 -0.2031,0.24981 z m 2.9938,2.09272 c 0.62141,0.84968 1.55563,1.74943 2.67239,1.62085 0.90765,-0.17626 0.90582,-1.40252 0.33317,-1.95511 -0.48327,-0.55145 -1.29136,-1.32268 -1.94918,-1.21928 -0.2011,0.25119 -0.40221,0.50237 -0.60331,0.75356 0.37383,0.30953 0.74765,0.61905 1.12148,0.92857 0.34119,-0.24949 0.21758,-0.44581 -0.1091,-0.61891 -0.11024,-0.49068 0.66007,-0.43268 0.83948,0.0549 0.3896,0.33679 0.4499,1.06632 -0.0705,1.30214 -0.70052,0.28844 -1.3415,-0.46868 -1.7446,-0.97378 -0.1817,-0.51545 -0.27456,-0.0493 -0.4898,0.10707 z m 1.15939,-3.86527 c 0.48977,0.39971 0.97954,0.79942 1.46932,1.19912 0.27501,-0.34822 0.55003,-0.69644 0.82505,-1.04466 -0.44267,-0.0845 -1.34763,-0.7216 -0.77583,-1.13753 0.59681,-0.36716 0.93557,0.98438 1.23422,0.71676 0.40912,-0.52625 -0.69031,-1.07242 -1.08201,-1.31947 -0.48641,-0.24471 -1.07975,0.18152 -1.03852,0.7284 -0.0673,0.57203 1.17479,0.95167 0.60693,1.28619 -0.32524,-0.26202 -0.65049,-0.52404 -0.97573,-0.78605 -0.0878,0.11908 -0.17562,0.23816 -0.26343,0.35724 z m 1.73498,6.39774 c 0.26573,0.19294 0.50246,0.49571 0.78551,0.62302 0.35999,-0.0613 0.71998,-0.12255 1.07997,-0.18382 0.0317,0.39003 0.0633,0.78006 0.095,1.1701 0.25648,0.20886 0.51296,0.41773 0.76944,0.62661 -0.0654,-0.64115 -0.13087,-1.2823 -0.1963,-1.92346 0.20478,-0.25295 0.40956,-0.5059 0.61433,-0.75886 -0.23329,-0.19084 -0.46658,-0.38168 -0.69987,-0.57251 -0.22501,0.25435 -0.40269,0.59554 -0.65702,0.7961 -0.59702,0.0743 -1.19405,0.14855 -1.79107,0.22282 z m 1.57438,-4.29555 c 0.21656,0.51819 0.86555,1.1619 1.44399,1.01077 0.48155,-0.0958 0.46284,-0.83258 0.096,-1.09843 -0.33173,-0.37519 -0.9967,-0.83213 -1.41566,-0.3778 -0.11894,0.12807 -0.13304,0.29797 -0.1243,0.46546 z m 0.54808,0.37011 c -0.14238,-0.32433 0.22606,-0.73489 0.52161,-0.52181 0.40043,0.16783 0.2327,0.76999 -0.17801,0.76097 -0.14873,-0.0358 -0.21854,-0.14808 -0.3436,-0.23916 z m 0.15051,-1.42884 c 0.47818,0.39069 0.95635,0.78138 1.43453,1.17207 0.36718,-0.26286 -0.0573,-0.42354 -0.25922,-0.61294 -0.31871,-0.26072 -0.63742,-0.52143 -0.95613,-0.78214 -0.0731,0.0743 -0.14612,0.14868 -0.21918,0.22301 z m 1.00676,8.22574 c 0.24439,0.13402 0.44583,0.46231 0.71869,0.46756 0.28213,-0.0592 0.56426,-0.11846 0.8464,-0.17769 0.038,0.34342 -0.0157,0.73456 0.0802,1.04788 0.16297,0.0606 0.57712,0.63708 0.55394,0.31539 -0.015,-0.46095 -0.03,-0.92189 -0.045,-1.38284 0.50657,-0.0932 1.01313,-0.18633 1.5197,-0.27949 -0.23655,-0.14525 -0.42187,-0.49331 -0.69245,-0.50383 -0.31267,0.0637 -0.62533,0.1275 -0.93798,0.19125 -0.0398,-0.35406 0.0129,-0.75483 -0.0836,-1.08028 -0.1673,-0.0755 -0.57284,-0.65449 -0.55839,-0.3458 0.0176,0.48188 0.0353,0.96376 0.0529,1.44565 -0.48478,0.10073 -0.96956,0.20146 -1.45434,0.3022 z m 1.43581,-4.84191 c 0.23341,0.67562 1.11525,0.45955 1.06638,0.94745 0.21919,0.14037 0.46783,0.57314 0.63002,0.14756 0.30435,-0.38173 0.60871,-0.76346 0.91306,-1.14519 -0.22256,-0.0823 -0.49653,-0.58681 -0.67977,-0.34615 -0.27953,0.28767 -0.49499,0.89343 -0.98008,0.74148 -0.61935,-0.27135 -0.0756,-0.74545 0.1678,-1.05898 0.2916,-0.23971 0.27241,-0.45107 -0.0729,-0.60982 -0.25902,-0.37838 -0.41917,0.0414 -0.60416,0.26055 -0.23713,0.32483 -0.58457,0.6245 -0.44039,1.0631 z m 2.09012,7.94414 c 0.28766,0.67314 1.2009,1.12821 1.78758,0.55359 0.6459,-0.46506 0.80276,-1.55632 0.0429,-1.99673 -0.87437,-0.77486 -2.15002,0.45738 -1.83043,1.44314 z m 0.48479,-0.10074 c -0.12554,-0.76079 1.18542,-1.61 1.3289,-0.54032 0.002,0.68811 -1.01322,1.39646 -1.3289,0.54032 z"
           id="path4363"
           sodipodi:nodetypes="ccccccccccccccccccccccscccccccccccccccccccccccccccccccccccscccccccsccccccscccccsccccccccccscccccccc" />
        <path
           style="fill:url(#radialGradient3154);fill-opacity:1;fill-rule:nonzero;stroke:none"
           d="m 137.87013,136.91242 1.18725,-1.65315 -15.43995,-12.84712 -1.15296,1.58095 15.40566,12.91932 z m -15.39038,-12.90978 1.19386,-1.566 -3.46448,-2.79096 -1.07703,1.41706 3.34765,2.9399 z"
           id="path4475"
           sodipodi:nodetypes="cccccccccc" />
        <path
           style="fill:url(#radialGradient3151);fill-opacity:1;fill-rule:nonzero;stroke:none"
           d="m 101.76314,169.02053 c -1.76215,-2.0887 -5.460708,-5.45609 -7.613401,-6.93169 -0.266848,-0.18292 -0.410578,-0.76664 0.07397,-0.97991 0.484546,-0.21326 2.141819,-0.40904 2.141819,-0.40904 0,0 -0.341304,-1.77535 0.321704,-2.52119 0.663007,-0.74584 2.330326,-0.46218 2.330326,-0.46218 0,0 0.09369,-1.81156 0.269414,-2.34404 0.175718,-0.53247 0.655967,-0.34915 0.938318,-0.19294 2.34834,1.29916 6.27498,4.52147 7.61341,6.9317 0.15877,0.28593 0.41057,0.76663 -0.074,0.9799 -0.48454,0.21327 -2.14182,0.40905 -2.14182,0.40905 0,0 0.3413,1.77535 -0.32171,2.52119 -0.663,0.74584 -2.33032,0.46218 -2.33032,0.46218 0,0 -0.0937,1.81156 -0.26941,2.34403 -0.17572,0.53248 -0.72828,0.44191 -0.93833,0.19294 z"
           id="rect5461"
           sodipodi:nodetypes="cszczczsszczczs" />
        <path
           style="opacity:0.30232556;fill:url(#radialGradient3148);fill-opacity:1;fill-rule:evenodd;stroke:none"
           d="m 97.682781,148.17076 1.974569,6.97129 c -0.123596,0.0476 -0.258884,0.10618 -0.370232,0.22181 -1.564521,1.62477 -3.676934,3.94534 -5.059832,5.73547 -0.188638,0.24419 -0.277358,0.57209 -0.215968,0.79219 0.0016,0.004 -0.0018,0.0272 0,0.0317 0.0019,0.004 0.02877,0.0274 0.03085,0.0317 0.0022,0.004 -0.0024,0.0275 0,0.0317 0.0027,0.004 0.02799,0.0278 0.03085,0.0317 0.0032,0.004 0.02751,0.0282 0.03085,0.0317 0.0037,0.003 0.02702,0.0286 0.03085,0.0317 2.152693,1.4756 5.858445,4.85089 7.620602,6.9396 0.007,0.008 0.0239,0.0247 0.0309,0.0317 0.007,0.007 0.0233,0.0257 0.0309,0.0317 0.004,0.002 0.0269,-0.002 0.0309,0 0.004,0.002 0.0267,0.0294 0.0309,0.0317 0.004,0.002 0.0265,-0.002 0.0309,0 0.0134,0.005 0.0477,0.0284 0.0617,0.0317 0.22022,0.0361 0.52705,-0.0952 0.74046,-0.31688 1.56452,-1.62476 3.67693,-3.94533 5.05984,-5.73547 0.15583,-0.20171 0.22763,-0.43589 0.21596,-0.63375 l 7.89828,1.14075 -7.86742,-12.67506 -10.33564,-2.75683 z"
           id="path5485" />
        <path
           sodipodi:nodetypes="ccsssssssssssssssszczczcccc"
           id="path6074"
           d="m 97.682781,148.17076 1.974569,6.97129 c -0.123596,0.0476 -0.258884,0.10618 -0.370232,0.22181 -1.564521,1.62477 -3.676934,3.94534 -5.059832,5.73547 -0.188638,0.24419 -0.277358,0.57209 -0.215968,0.79219 0.0016,0.004 -0.0018,0.0272 0,0.0317 0.0019,0.004 0.02877,0.0274 0.03085,0.0317 0.0022,0.004 -0.0024,0.0275 0,0.0317 0.0027,0.004 0.02799,0.0278 0.03085,0.0317 0.0032,0.004 0.02751,0.0282 0.03085,0.0317 0.0037,0.003 0.02702,0.0286 0.03085,0.0317 2.152693,1.4756 5.858445,4.85089 7.620602,6.9396 0.007,0.008 0.0239,0.0247 0.0309,0.0317 0.007,0.007 0.0233,0.0257 0.0309,0.0317 0.004,0.002 0.0269,-0.002 0.0309,0 0.004,0.002 0.0267,0.0294 0.0309,0.0317 0.004,0.002 0.0265,-0.002 0.0309,0 0.0134,0.005 0.0477,0.0284 0.0617,0.0317 0.22022,0.0361 0.59654,0.1705 0.74046,-0.31688 0.14393,-0.48738 0.26888,-2.34389 0.26888,-2.34389 0,0 1.66673,0.28384 2.32914,-0.46183 0.66242,-0.74567 0.32053,-2.52085 0.32053,-2.52085 0,0 1.72338,-0.25503 2.14129,-0.4089 0.4179,-0.15386 0.22763,-0.43589 0.21596,-0.63375 l 7.89828,1.14075 -7.86742,-12.67506 -10.33564,-2.75683 z"
           style="fill:url(#linearGradient3145);fill-opacity:1;fill-rule:evenodd;stroke:none" />
        <path
           style="fill:url(#linearGradient3142);fill-opacity:1;fill-rule:evenodd;stroke:#000000;stroke-width:0;stroke-linecap:round;stroke-linejoin:round;stroke-miterlimit:4;stroke-opacity:1;stroke-dasharray:none"
           d="m 152.64962,153.16162 c 2.09433,5.67626 1.89842,11.66342 6.28299,17.0288 6.19193,7.57701 23.43304,10.59383 31.37413,4.10211 -9.72902,-1.45138 -14.28593,-9.00721 -21.11776,-15.50574 -4.4174,-4.20187 -9.28503,-6.73978 -11.44456,-9.6539 -1.69827,1.34292 -3.39653,2.68584 -5.0948,4.02873 z"
           id="path1330"
           inkscape:r_cx="true"
           inkscape:r_cy="true"
           sodipodi:nodetypes="cscscc" />
        <path
           sodipodi:nodetypes="cscscc"
           inkscape:r_cy="true"
           inkscape:r_cx="true"
           id="path3530"
           d="m 154.18019,153.29242 c 1.28626,4.20022 3.54811,11.6135 6.33652,15.5376 3.93784,5.54167 18.20808,8.98751 23.8524,5.5666 -7.14347,-1.54859 -11.92024,-9.28158 -16.15476,-14.17408 -1.49685,-1.72945 -9.37058,-7.5768 -10.73997,-9.71237 -1.1302,1.03573 -2.164,1.74651 -3.29419,2.78225 z"
           style="fill:url(#radialGradient3139);fill-opacity:1;fill-rule:evenodd;stroke:#000000;stroke-width:0;stroke-linecap:round;stroke-linejoin:round;stroke-miterlimit:4;stroke-opacity:1;stroke-dasharray:none" />
        <path
           sodipodi:nodetypes="csscc"
           inkscape:r_cy="true"
           inkscape:r_cx="true"
           id="path2624"
           d="m 153.61234,153.80343 c 2.09433,5.67626 1.89842,11.66342 6.28299,17.0288 6.19193,7.57701 15.38083,-4.96842 8.77419,-11.70808 -4.4174,-4.50632 -7.80285,-6.43533 -9.96238,-9.34945 -1.69827,1.34292 -3.39653,2.68584 -5.0948,4.02873 z"
           style="fill:#000000;fill-opacity:1;fill-rule:evenodd;stroke:#000000;stroke-width:0;stroke-linecap:round;stroke-linejoin:round;stroke-miterlimit:4;stroke-opacity:1;stroke-dasharray:none" />
        <path
           style="fill:#000000;fill-opacity:1;fill-rule:evenodd;stroke:#000000;stroke-width:0;stroke-linecap:round;stroke-linejoin:round;stroke-miterlimit:4;stroke-opacity:1;stroke-dasharray:none"
           d="m 168.93426,158.63623 c -0.91868,0.11343 2.40294,11.82161 -8.29936,9.79149 2.09432,5.67626 -6.08147,-3.59087 -1.6969,1.77451 2.74586,3.36008 7.67198,5.80461 12.98896,6.9396 0.47032,0.12047 1.01914,0.20152 1.60434,0.28519 1.84164,0.29586 3.70056,0.42326 5.52262,0.38025 1.83794,0.044 3.77953,0.0634 5.70774,0.0634 6.53604,0 8.98881,-2.17149 8.23765,-5.83053 -0.96,-4.67636 -7.21802,-6.52654 -9.62602,-12.00962 -1.1885,2.95994 -4.41109,5.93435 -6.60246,6.68609 -2.85352,-2.74382 -5.32406,-5.68127 -7.58975,-7.92191 -0.10417,-0.10301 -0.18558,-0.16601 -0.24682,-0.15844 z"
           id="path3648" />
        <path
           sodipodi:nodetypes="cscscc"
           inkscape:r_cy="true"
           inkscape:r_cx="true"
           id="path3646"
           d="m 161.88663,163.78442 c 1.28626,4.20022 -4.15833,1.1215 -1.36992,5.0456 3.93784,5.54167 18.20808,8.98751 23.8524,5.5666 -7.14347,-1.54859 -11.92024,-9.28158 -16.15476,-14.17408 -1.49685,-1.72945 0.21765,3.65146 -0.7933,4.9212 -1.13018,1.03571 -4.40423,-2.39506 -5.53442,-1.35932 z"
           style="fill:#000000;fill-opacity:1;fill-rule:evenodd;stroke:#000000;stroke-width:0;stroke-linecap:round;stroke-linejoin:round;stroke-miterlimit:4;stroke-opacity:1;stroke-dasharray:none" />
        <path
           style="fill:url(#linearGradient3133);fill-opacity:1;fill-rule:evenodd;stroke:none"
           d="m 183.43599,162.32114 c 2.40801,5.65298 8.73659,6.31858 9.69659,11.13984 -0.13769,8.96213 -19.19061,2.40073 -24.57148,-0.82218 -1.376,-1.76656 5.30738,-4.47749 7.37139,-4.47749 2.06401,0 6.12749,-2.30705 7.5035,-5.84017 z"
           id="path3600"
           sodipodi:nodetypes="csssc" />
        <path
           style="opacity:0.7;fill:none"
           id="path92"
           d="m 80.97562,120.18138 c 5.558736,-1.55731 11.302727,1.81013 12.822019,7.52108 1.517782,5.71008 -1.760911,11.60953 -7.316616,13.16861 -5.561974,1.55953 -11.305965,-1.8079 -12.825267,-7.51886 -1.516271,-5.70919 1.760042,-11.60797 7.319864,-13.17083 z" />
        <path
           style="opacity:0.7;fill:none"
           id="path94"
           d="m 86.247294,92.352208 c 5.576339,1.503781 8.908592,7.362979 7.444449,13.090242 -1.467193,5.72549 -7.173716,9.15105 -12.74897,7.64172 -5.574829,-1.5029 -8.908819,-7.35899 -7.443156,-13.085368 1.461339,-5.733033 7.170024,-9.155259 12.747677,-7.646594 z" />
        <circle
           style="opacity:0.7;fill:none"
           sodipodi:ry="5.9920001"
           sodipodi:rx="5.9920001"
           sodipodi:cy="70.773003"
           sodipodi:cx="34.993"
           id="circle96"
           r="5.9920001"
           cy="70.773003"
           cx="34.993"
           transform="matrix(1.5127693,0.8868673,0.8634966,-1.5537127,-17.032883,157.49314)"
           d="m 40.985,70.773003 c 0,3.30929 -2.68271,5.992 -5.992,5.992 -3.30929,0 -5.992,-2.68271 -5.992,-5.992 0,-3.309291 2.68271,-5.992 5.992,-5.992 3.30929,0 5.992,2.682709 5.992,5.992 z" />
        <path
           style="opacity:0.7;fill:none"
           id="path98"
           d="m 130.46861,61.719379 c 1.51779,5.71007 -1.76091,11.609522 -7.31986,13.170828 -5.55874,1.557312 -11.30359,-1.808569 -12.82375,-7.517973 -1.5193,-5.710958 1.76242,-11.608636 7.31986,-13.170829 5.5596,-1.558866 11.30359,1.808568 12.82375,7.517974 z" />
        <circle
           style="opacity:0.7;fill:none"
           sodipodi:ry="5.9920001"
           sodipodi:rx="5.9920001"
           sodipodi:cy="92.005997"
           sodipodi:cx="56.228001"
           id="circle100"
           r="5.9920001"
           cy="92.005997"
           cx="56.228001"
           transform="matrix(1.5127693,0.8868673,0.8634966,-1.5537127,-17.032883,157.49314)"
           d="m 62.220001,92.005997 c 0,3.30929 -2.68271,5.992 -5.992,5.992 -3.309291,0 -5.992,-2.68271 -5.992,-5.992 0,-3.309291 2.682709,-5.992 5.992,-5.992 3.30929,0 5.992,2.682709 5.992,5.992 z" />
        <path
           style="fill:url(#radialGradient3125);fill-opacity:1;fill-rule:evenodd;stroke:#453500;stroke-width:1.23268843;stroke-linecap:butt;stroke-linejoin:miter;stroke-miterlimit:4;stroke-opacity:1;stroke-dasharray:none"
           d="M 151.39853,140.46337 C 145.17987,129.85254 143.61496,123.3432 132.74255,108.6309 121.87014,93.918605 101.62986,71.053138 86.164095,52.18961 c -0.985053,-1.201466 -3.270359,-1.413278 -4.946867,-0.106368 -1.740444,1.356756 -2.002667,3.759099 -1.230798,4.922132 13.523663,20.377222 29.52839,46.544766 40.4008,61.257066 10.87241,14.71229 16.55576,18.01113 24.83364,27.0167 2.05923,-1.60526 4.11844,-3.21051 6.17766,-4.81577 z"
           id="path1324"
           inkscape:r_cx="true"
           inkscape:r_cy="true"
           sodipodi:nodetypes="czszszcc" />
        <path
           sodipodi:nodetypes="czszszcc"
           inkscape:r_cy="true"
           inkscape:r_cx="true"
           id="path3534"
           d="M 151.39853,140.46337 C 145.17987,129.85254 143.61496,123.3432 132.74255,108.6309 121.87014,93.918605 101.62986,71.053138 86.164095,52.18961 c -0.985053,-1.201466 -3.270359,-1.413278 -4.946867,-0.106368 -1.740444,1.356756 -2.002667,3.759099 -1.230798,4.922132 13.523663,20.377222 29.52839,46.544766 40.4008,61.257066 10.87241,14.71229 16.55576,18.01113 24.83364,27.0167 2.05923,-1.60526 4.11844,-3.21051 6.17766,-4.81577 z"
           style="opacity:0.56435643;fill:#000000;fill-opacity:1;fill-rule:evenodd;stroke:none" />
        <path
           style="fill:url(#linearGradient3121);fill-opacity:1;fill-rule:evenodd;stroke:none"
           d="M 150.57984,140.18309 C 144.36118,129.57226 142.79627,123.06291 131.92386,108.35062 121.05145,93.638323 100.81117,70.772856 85.345407,51.909328 84.360354,50.707862 82.075047,50.49605 80.398539,51.80296 c -1.740443,1.356755 -2.002666,3.759099 -1.230797,4.922133 13.523662,20.377221 29.528388,46.544767 40.400798,61.257057 10.87241,14.7123 16.55576,18.01114 24.83364,27.0167 2.05923,-1.60525 4.11844,-3.21051 6.17766,-4.81576 z"
           id="path3263"
           inkscape:r_cx="true"
           inkscape:r_cy="true"
           sodipodi:nodetypes="czszszcc" />
        <path
           inkscape:r_cy="true"
           inkscape:r_cx="true"
           style="opacity:0.86976743;fill:url(#linearGradient3118);fill-opacity:1;fill-rule:evenodd;stroke:none"
           d="m 84.743324,51.27843 c 0.56835,0.157631 1.049335,0.503239 1.387944,0.916243 9.40643,11.472987 29.589392,35.049512 38.999112,47.409939 -2.39656,-0.5614 -5.68962,-1.46761 -8.65265,-4.062861 -5.61897,-4.921561 -27.80384,-36.02935 -31.273699,-39.97196 -2.179658,-2.476618 -3.843459,-0.276587 -5.608615,-0.290842 0.04134,-1.107002 0.514918,-2.369345 1.602689,-3.217316 1.100209,-0.85766 2.460174,-1.084134 3.545219,-0.783203 z"
           id="path3560"
           sodipodi:nodetypes="cscsscsc" />
        <path
           sodipodi:nodetypes="cccccccccc"
           id="path2510"
           d="m 94.099146,60.780134 c 1.04895,0.834907 2.224934,2.062204 2.691998,3.201338 l -6.922255,5.432696 -2.456116,-3.34172 6.686373,-5.292314 z m -5.95831,4.715511 2.456146,3.341718 -2.426893,1.922689 c -0.9162,-0.700812 -1.676982,-2.196991 -2.213471,-3.524292 l 2.184218,-1.740115 z"
           style="fill:url(#radialGradient3115-2);fill-opacity:1;fill-rule:nonzero;stroke:none" />
        <path
           style="font-size:12px;font-style:normal;font-variant:normal;font-weight:bold;font-stretch:normal;text-align:start;line-height:125%;writing-mode:lr-tb;text-anchor:start;fill:#999999;fill-opacity:1;stroke:none;font-family:Bitstream Vera Sans"
           d="m 103.15783,88.658983 c 0.10715,0.146785 0.1625,0.282441 0.1661,0.406959 0.004,0.124546 -0.045,0.226409 -0.14563,0.305619 -0.10024,0.07888 -0.20762,0.09968 -0.32212,0.06243 -0.11451,-0.03727 -0.22533,-0.129289 -0.33247,-0.276068 -0.10775,-0.147622 -0.16342,-0.283692 -0.16702,-0.40823 -0.004,-0.124539 0.0447,-0.226226 0.14499,-0.30511 0.10068,-0.07922 0.20827,-0.100187 0.32277,-0.06292 0.1145,0.03726 0.22563,0.129697 0.33338,0.277319 m 0.17853,-0.140476 c -0.21916,-0.300233 -0.43476,-0.500849 -0.64682,-0.601842 -0.21206,-0.100985 -0.39552,-0.09055 -0.55037,0.03128 -0.15442,0.12151 -0.21348,0.301891 -0.17717,0.541172 0.0363,0.239275 0.16403,0.509032 0.38319,0.809271 0.21854,0.299395 0.43414,0.500011 0.64681,0.601839 0.21206,0.100986 0.3953,0.09073 0.54973,-0.03078 0.15485,-0.121834 0.21412,-0.302394 0.17781,-0.54167 -0.0369,-0.24011 -0.16465,-0.509867 -0.38318,-0.809275 m -2.14509,-1.892659 -0.96059,-0.26437 0.36617,0.501658 0.64501,0.179809 -0.0104,0.689618 0.36799,0.504144 0.0146,-1.031647 0.92249,0.25495 -0.36708,-0.502894 -0.60637,-0.166901 0.0101,-0.649993 -0.3689,-0.505398 -0.013,0.991024 m -0.0253,-1.043566 -0.38443,-0.526663 -0.65087,-0.157489 0.0299,-0.693188 -0.385338,-0.527913 -0.03329,1.146813 -0.402495,0.316676 0.351562,0.481642 0.402491,-0.316695 1.07242,0.276817 m -3.651084,-3.094684 c 0.05781,0.143586 0.126411,0.285888 0.205828,0.426898 0.07945,0.141024 0.169369,0.280337 0.269815,0.417942 0.227066,0.311082 0.451308,0.522612 0.672755,0.634613 0.221853,0.111661 0.408933,0.10757 0.561222,-0.01225 0.154016,-0.121177 0.207587,-0.309072 0.16075,-0.563693 -0.04684,-0.25463 -0.187762,-0.542898 -0.422726,-0.86482 -0.0907,-0.124261 -0.183428,-0.238416 -0.278167,-0.342433 -0.09533,-0.104867 -0.191563,-0.198505 -0.288692,-0.280973 l -0.197723,0.155588 c 0.10639,0.08041 0.204782,0.16645 0.295207,0.258117 0.08979,0.09083 0.17245,0.187966 0.247927,0.291373 0.140017,0.19182 0.22055,0.361498 0.241629,0.509042 0.02087,0.146382 -0.01967,0.25969 -0.121624,0.339902 -0.101098,0.07955 -0.215702,0.09093 -0.343773,0.03415 -0.12807,-0.05678 -0.259379,-0.177325 -0.393916,-0.361643 -0.03652,-0.05003 -0.0688,-0.09749 -0.09687,-0.142385 -0.02825,-0.04604 -0.05144,-0.08886 -0.06956,-0.128419 l 0.18557,-0.146016 0.214587,0.293993 0.165084,-0.129898 -0.547884,-0.750589 -0.459432,0.361494 m 0.575685,-1.118631 -0.948741,-1.29977 -0.186202,0.146497 0.597198,0.818142 -0.177908,0.139974 -0.561557,-0.76936 -0.186212,0.146509 0.561577,0.769356 -0.218852,0.17219 -0.617269,-0.84566 -0.186202,0.146505 0.968832,1.327303 0.955336,-0.751686 m -1.278375,-1.751385 -0.392634,-0.537926 -1.151064,-0.16373 0.655231,-0.515557 -0.333288,-0.456603 -0.955346,0.751686 0.392643,0.537926 1.151075,0.163723 -0.65525,0.515557 0.333287,0.456609 0.955346,-0.751685 m -2.213403,-3.032392 -0.392643,-0.537913 -1.151055,-0.163741 0.655221,-0.515545 -0.333287,-0.456618 -0.955336,0.751687 0.392633,0.537926 1.151084,0.163724 -0.65526,0.515564 0.333297,0.456602 0.955346,-0.751686 M 92.696649,73.94203 c -0.12966,-0.177637 -0.255598,-0.299125 -0.377823,-0.364453 -0.122858,-0.06615 -0.224795,-0.06735 -0.305851,-0.0036 -0.08104,0.06377 -0.107595,0.165408 -0.07964,0.30491 0.02795,0.139505 0.107061,0.298491 0.237342,0.476964 0.130273,0.178477 0.256596,0.300965 0.379019,0.36745 0.121791,0.06566 0.223225,0.0666 0.304271,0.0028 0.08106,-0.06377 0.107821,-0.165575 0.0803,-0.305415 -0.02813,-0.140674 -0.107347,-0.300236 -0.23761,-0.478714 m -0.229761,0.992194 -0.751491,-1.029564 -0.127982,0.100695 0.751492,1.029561 0.127981,-0.100692 m 0.120992,-0.906604 c 0.05112,0.07006 0.07726,0.134836 0.07838,0.194343 5.23e-4,0.05868 -0.02396,0.10748 -0.07345,0.146417 -0.04949,0.03894 -0.101147,0.05005 -0.154993,0.03332 -0.05445,-0.01756 -0.107249,-0.06135 -0.158371,-0.131421 -0.05054,-0.06921 -0.07627,-0.132995 -0.07723,-0.191336 -0.0016,-0.05917 0.02242,-0.108226 0.0719,-0.147163 0.04949,-0.03893 0.101661,-0.04979 0.156544,-0.03257 0.05426,0.01639 0.106666,0.05919 0.157205,0.128408 m -2.394135,-2.527819 c -0.108572,-0.112839 -0.20728,-0.185505 -0.296136,-0.218 -0.08903,-0.03366 -0.16535,-0.02549 -0.228912,0.02453 -0.0947,0.07451 -0.115047,0.202126 -0.06105,0.382839 0.05443,0.180377 0.18087,0.406509 0.379314,0.678387 0.07002,0.09591 0.144381,0.189051 0.223107,0.27941 0.07767,0.08987 0.158804,0.175718 0.243366,0.257539 l 0.190061,-0.149539 c -0.08878,-0.07193 -0.171409,-0.147411 -0.247884,-0.226415 -0.07664,-0.08018 -0.146325,-0.163213 -0.209028,-0.249112 -0.09315,-0.127599 -0.153058,-0.234071 -0.179764,-0.319416 -0.02731,-0.08618 -0.01985,-0.145873 0.0224,-0.17911 0.0435,-0.03423 0.101918,-0.02505 0.175233,0.02755 0.07314,0.05143 0.159308,0.145119 0.258541,0.281054 l 0.140618,0.192655 0.158687,-0.12486 -0.147926,-0.202654 c -0.08826,-0.120934 -0.14442,-0.218554 -0.16843,-0.292876 -0.0236,-0.07465 -0.01556,-0.127586 0.0241,-0.158796 0.0367,-0.02887 0.08607,-0.02242 0.148122,0.01935 0.06204,0.04177 0.131427,0.115198 0.208119,0.220276 0.05663,0.07756 0.109362,0.159483 0.158232,0.245758 0.04888,0.08628 0.09319,0.175496 0.132919,0.267648 l 0.180435,-0.141975 c -0.05574,-0.105811 -0.114297,-0.20811 -0.175657,-0.306888 -0.06134,-0.09878 -0.124901,-0.193195 -0.190635,-0.283277 -0.177148,-0.242677 -0.330019,-0.407968 -0.458643,-0.495841 -0.128801,-0.08904 -0.234144,-0.101342 -0.316039,-0.0369 -0.05589,0.04398 -0.08073,0.108837 -0.07457,0.194571 0.0066,0.0854 0.04374,0.190102 0.111415,0.314102"
           id="text3284" />
        <g
           id="g2634"
           transform="matrix(-0.98719445,-0.0137081,-0.01334687,1.0139131,199.06597,49.871028)">
          <path
             sodipodi:nodetypes="cccccccccc"
             id="path3213"
             d="m 38.34944,98.879422 c 0.751011,-1.450103 1.895586,-3.192465 3.027228,-4.145441 l 6.412295,5.187625 -3.199247,3.950744 -6.240276,-4.992928 z m 5.560223,4.449478 3.19925,-3.95078 2.266831,1.81152 c -0.626426,1.2552 -2.096426,2.66359 -3.415851,3.76577 l -2.05023,-1.62651 z"
             style="fill:url(#radialGradient2879);fill-opacity:1;fill-rule:nonzero;stroke:none" />
          <path
             style="fill:url(#radialGradient2881);fill-opacity:1;fill-rule:nonzero;stroke:none"
             d="m 41.361775,94.94897 c 0.746637,-1.453636 1.888528,-3.198165 3.024064,-4.148003 l 6.52432,5.278231 -3.199564,3.950502 -6.34882,-5.08073 z m 5.656954,4.52771 3.199556,-3.95053 2.306244,1.843402 c -0.622393,1.258459 -2.095991,2.663928 -3.420035,3.762378 l -2.085765,-1.65525 z"
             id="path3217"
             sodipodi:nodetypes="cccccccccc" />
          <path
             sodipodi:nodetypes="cccccccccc"
             id="path3221"
             d="m 44.345464,90.914825 c 0.737901,-1.460703 1.874426,-3.209577 3.017737,-4.153123 l 6.748372,5.459444 -3.200191,3.949994 -6.565918,-5.256315 z m 5.850403,4.684175 3.200183,-3.95003 2.385064,1.907161 c -0.614324,1.264978 -2.095127,2.664625 -3.428391,3.755622 L 50.195867,95.599 z"
             style="fill:url(#radialGradient2883);fill-opacity:1;fill-rule:nonzero;stroke:none" />
          <path
             style="fill:url(#radialGradient2885);fill-opacity:1;fill-rule:nonzero;stroke:none"
             d="m 47.385861,86.950051 c 0.733532,-1.46424 1.86737,-3.215282 3.014569,-4.155681 l 6.860405,5.550042 -3.20051,3.949749 -6.674464,-5.34411 z m 5.947126,4.762406 3.200498,-3.949777 2.424476,1.939032 c -0.610288,1.26824 -2.094701,2.664978 -3.432577,3.752246 l -2.192397,-1.741501 z"
             id="path3225"
             sodipodi:nodetypes="cccccccccc" />
          <path
             id="path3271"
             d="m 50.41561,82.77934 c -1.111349,0.911013 -2.222017,2.602204 -2.956499,4.037011 l -0.09357,-0.06297 c -1.107583,0.914062 -2.217891,2.605539 -2.956497,4.03701 l -0.03395,0.0028 c -1.089405,0.911249 -2.171914,2.582859 -2.918393,3.998402 l -0.09357,-0.06297 c -1.131642,0.952977 -2.251889,2.697034 -3.002898,4.147137 l 6.245645,5.00016 1.35296,1.09048 c 1.319431,-1.10219 2.806202,-2.53846 3.432627,-3.79366 l -0.153181,-0.12879 c 1.290777,-1.082291 2.681424,-2.455868 3.284367,-3.675001 l -0.123373,-0.09588 c 1.322309,-1.085948 2.782454,-2.467493 3.390379,-3.7193 L 55.60667,93.392065 c 1.315547,-1.077056 2.7547,-2.43887 3.352276,-3.680689 L 57.269822,88.330443 50.41561,82.77934 z"
             style="fill:url(#linearGradient2887);fill-opacity:1;fill-rule:nonzero;stroke:none" />
        </g>
        <path
           style="fill:url(#linearGradient116126);fill-opacity:1;fill-rule:evenodd;stroke:#000000;stroke-width:0;stroke-linecap:round;stroke-linejoin:round;stroke-miterlimit:4;stroke-opacity:1;stroke-dasharray:none"
           d="m 153.61234,153.80343 c 2.09433,5.67626 1.89842,11.66342 6.28299,17.0288 6.19193,7.57701 15.38083,-4.96842 8.77419,-11.70808 -4.4174,-4.50632 -7.80285,-6.43533 -9.96238,-9.34945 -1.69827,1.34292 -3.39653,2.68584 -5.0948,4.02873 z"
           id="path3809"
           inkscape:r_cx="true"
           inkscape:r_cy="true"
           sodipodi:nodetypes="csscc" />
      </g>
      <path
         sodipodi:type="arc"
         style="fill:none;stroke:url(#radialGradient4842);stroke-width:18.58210373;stroke-miterlimit:4;stroke-opacity:1;stroke-dasharray:none"
         id="path4840"
         sodipodi:cx="117.56223"
         sodipodi:cy="116.46352"
         sodipodi:rx="105.47639"
         sodipodi:ry="105.47639"
         d="m 223.03862,116.46352 c 0,58.253 -47.22339,105.47638 -105.47639,105.47638 -58.252997,0 -105.476384,-47.22338 -105.476384,-105.47638 0,-58.253004 47.223387,-105.476391 105.476384,-105.476391 58.253,0 105.47639,47.223387 105.47639,105.476391 z"
         transform="matrix(1.0667253,0,0,1.0667253,2.0440348,2.1173465)" />
      <path
         id="path4852"
         d="m 127.84375,29.46875 c -53.526119,0 -96.982465,43.00013 -97.75,96.34375 10.009722,-5.92814 19.733937,-10.88682 25.9375,-13.75 14.283262,-6.59228 49.44541,-6.58732 61.53125,-1.09375 12.08584,5.49356 32.95038,9.88345 43.9375,1.09375 10.98712,-8.7897 8.80204,-16.486588 31.875,-26.375 5.67666,-2.432854 12.40919,-4.644697 19.625,-6.53125 -16.79408,-29.656481 -48.64174,-49.6875 -85.15625,-49.6875 z"
         style="fill:url(#linearGradient27446);fill-opacity:1;stroke:none" />
    </g>
  </g>
</svg>
