<?xml version="1.0" encoding="UTF-8" standalone="no"?>
<!-- Created with Inkscape (http://www.inkscape.org/) -->

<svg
   xmlns:dc="http://purl.org/dc/elements/1.1/"
   xmlns:cc="http://creativecommons.org/ns#"
   xmlns:rdf="http://www.w3.org/1999/02/22-rdf-syntax-ns#"
   xmlns:svg="http://www.w3.org/2000/svg"
   xmlns="http://www.w3.org/2000/svg"
   xmlns:xlink="http://www.w3.org/1999/xlink"
   xmlns:sodipodi="http://sodipodi.sourceforge.net/DTD/sodipodi-0.dtd"
   xmlns:inkscape="http://www.inkscape.org/namespaces/inkscape"
   width="256"
   height="256"
   id="svg37880"
   version="1.1"
   inkscape:version="0.47pre0 r21549"
   sodipodi:docname="Nouveau document 11"
   inkscape:output_extension="org.inkscape.output.svg.inkscape">
  <defs
     id="defs37882">
    <inkscape:perspective
       sodipodi:type="inkscape:persp3d"
       inkscape:vp_x="0 : 526.18109 : 1"
       inkscape:vp_y="0 : 1000 : 0"
       inkscape:vp_z="744.09448 : 526.18109 : 1"
       inkscape:persp3d-origin="372.04724 : 350.78739 : 1"
       id="perspective37888" />
    <inkscape:perspective
       id="perspective37829"
       inkscape:persp3d-origin="0.5 : 0.33333333 : 1"
       inkscape:vp_z="1 : 0.5 : 1"
       inkscape:vp_y="0 : 1000 : 0"
       inkscape:vp_x="0 : 0.5 : 1"
       sodipodi:type="inkscape:persp3d" />
    <radialGradient
       inkscape:collect="always"
       xlink:href="#linearGradient4824"
       id="radialGradient4830"
       cx="15.593588"
       cy="88.653885"
       fx="15.593588"
       fy="88.653885"
       r="114.76744"
       gradientUnits="userSpaceOnUse" />
    <linearGradient
       inkscape:collect="always"
       id="linearGradient4824">
      <stop
         style="stop-color:#ffffff;stop-opacity:1;"
         offset="0"
         id="stop4826" />
      <stop
         style="stop-color:#ffffff;stop-opacity:0;"
         offset="1"
         id="stop4828" />
    </linearGradient>
    <radialGradient
       inkscape:collect="always"
       xlink:href="#linearGradient4824"
       id="radialGradient4838"
       gradientUnits="userSpaceOnUse"
       cx="219.53087"
       cy="98.953751"
       fx="219.53087"
       fy="98.953751"
       r="114.76744" />
    <radialGradient
       xlink:href="#linearGradient3597"
       r="81.805748"
       fy="85.6866"
       fx="126.97178"
       cy="85.6866"
       cx="126.97178"
       gradientTransform="matrix(1.0798922,4.8493727e-8,-3.3584608e-8,0.74788554,210.40475,40.414856)"
       gradientUnits="userSpaceOnUse"
       id="radialGradient5461"
       inkscape:collect="always" />
    <linearGradient
       inkscape:collect="always"
       id="linearGradient3597">
      <stop
         style="stop-color:#ffffff;stop-opacity:1;"
         offset="0"
         id="stop3599" />
      <stop
         style="stop-color:#ffffff;stop-opacity:0;"
         offset="1"
         id="stop3601" />
    </linearGradient>
    <linearGradient
       xlink:href="#linearGradient3605-1"
       y2="159.71069"
       x2="126.97179"
       y1="19.887403"
       x1="121.76041"
       gradientTransform="matrix(0.56878564,0,0,0.56878564,275.30086,55.761326)"
       gradientUnits="userSpaceOnUse"
       id="linearGradient5463"
       inkscape:collect="always" />
    <linearGradient
       id="linearGradient3605-1">
      <stop
         style="stop-color:#ffffff;stop-opacity:1;"
         offset="0"
         id="stop3607-7" />
      <stop
         style="stop-color:#ffffff;stop-opacity:0;"
         offset="1"
         id="stop3609-1" />
    </linearGradient>
    <radialGradient
       inkscape:collect="always"
       xlink:href="#linearGradient4824"
       id="radialGradient4842"
       gradientUnits="userSpaceOnUse"
       cx="117.56223"
       cy="1.6960773"
       fx="117.56223"
       fy="1.6960773"
       r="114.76744"
       gradientTransform="matrix(1.439753,0,0,1,-51.698347,0)" />
    <linearGradient
       gradientTransform="translate(247.54936,406.01026)"
       inkscape:collect="always"
       xlink:href="#linearGradient4859"
       id="linearGradient4865"
       x1="121.54688"
       y1="-8.986186"
       x2="121.54688"
       y2="143.39191"
       gradientUnits="userSpaceOnUse" />
    <linearGradient
       inkscape:collect="always"
       id="linearGradient4859">
      <stop
         style="stop-color:#ffffff;stop-opacity:1;"
         offset="0"
         id="stop4861" />
      <stop
         style="stop-color:#ffffff;stop-opacity:0;"
         offset="1"
         id="stop4863" />
    </linearGradient>
    <radialGradient
       inkscape:collect="always"
       xlink:href="#linearGradient4824"
       id="radialGradient37998"
       gradientUnits="userSpaceOnUse"
       cx="15.593588"
       cy="88.653885"
       fx="15.593588"
       fy="88.653885"
       r="114.76744" />
    <radialGradient
       inkscape:collect="always"
       xlink:href="#linearGradient4824"
       id="radialGradient38000"
       gradientUnits="userSpaceOnUse"
       cx="219.53087"
       cy="98.953751"
       fx="219.53087"
       fy="98.953751"
       r="114.76744" />
    <radialGradient
       inkscape:collect="always"
       xlink:href="#linearGradient3597"
       id="radialGradient38002"
       gradientUnits="userSpaceOnUse"
       gradientTransform="matrix(1.0798922,4.8493727e-8,-3.3584608e-8,0.74788554,210.40475,40.414856)"
       cx="126.97178"
       cy="85.6866"
       fx="126.97178"
       fy="85.6866"
       r="81.805748" />
    <linearGradient
       inkscape:collect="always"
       xlink:href="#linearGradient3605-1"
       id="linearGradient38004"
       gradientUnits="userSpaceOnUse"
       gradientTransform="matrix(0.56878564,0,0,0.56878564,275.30086,55.761326)"
       x1="121.76041"
       y1="19.887403"
       x2="126.97179"
       y2="159.71069" />
    <radialGradient
       inkscape:collect="always"
       xlink:href="#linearGradient4824"
       id="radialGradient38006"
       gradientUnits="userSpaceOnUse"
       gradientTransform="matrix(1.439753,0,0,1,-51.698347,0)"
       cx="117.56223"
       cy="1.6960773"
       fx="117.56223"
       fy="1.6960773"
       r="114.76744" />
    <linearGradient
       inkscape:collect="always"
       xlink:href="#linearGradient4859"
       id="linearGradient38008"
       gradientUnits="userSpaceOnUse"
       gradientTransform="translate(247.54936,406.01026)"
       x1="121.54688"
       y1="-8.986186"
       x2="121.54688"
       y2="143.39191" />
  </defs>
  <sodipodi:namedview
     id="base"
     pagecolor="#ffffff"
     bordercolor="#666666"
     borderopacity="1.0"
     inkscape:pageopacity="0.0"
     inkscape:pageshadow="2"
     inkscape:zoom="0.35"
     inkscape:cx="375"
     inkscape:cy="520"
     inkscape:document-units="px"
     inkscape:current-layer="layer1"
     showgrid="false"
     inkscape:window-width="854"
     inkscape:window-height="485"
     inkscape:window-x="810"
     inkscape:window-y="539"
     inkscape:window-maximized="0" />
  <metadata
     id="metadata37885">
    <rdf:RDF>
      <cc:Work
         rdf:about="">
        <dc:format>image/svg+xml</dc:format>
        <dc:type
           rdf:resource="http://purl.org/dc/dcmitype/StillImage" />
        <dc:title></dc:title>
      </cc:Work>
    </rdf:RDF>
  </metadata>
  <g
     inkscape:label="Calque 1"
     inkscape:groupmode="layer"
     id="layer1"
     transform="translate(0,-796.36218)">
    <g
       id="g37979"
       transform="translate(-247.54967,390.35167)">
      <path
         transform="matrix(1.15625,0,0,1.15625,239.06867,397.70124)"
         d="m 223.03862,116.46352 c 0,58.253 -47.22339,105.47638 -105.47639,105.47638 -58.252997,0 -105.476384,-47.22338 -105.476384,-105.47638 0,-58.253004 47.223387,-105.476391 105.476384,-105.476391 58.253,0 105.47639,47.223387 105.47639,105.476391 z"
         sodipodi:ry="105.47639"
         sodipodi:rx="105.47639"
         sodipodi:cy="116.46352"
         sodipodi:cx="117.56223"
         id="path4820"
         style="fill:#000000;fill-opacity:1;stroke:none"
         sodipodi:type="arc" />
      <path
         sodipodi:type="arc"
         style="fill:none;stroke:url(#radialGradient37998);stroke-width:18.58210373;stroke-miterlimit:4;stroke-opacity:1;stroke-dasharray:none"
         id="path4822"
         sodipodi:cx="117.56223"
         sodipodi:cy="116.46352"
         sodipodi:rx="105.47639"
         sodipodi:ry="105.47639"
         d="m 223.03862,116.46352 c 0,58.253 -47.22339,105.47638 -105.47639,105.47638 -58.252997,0 -105.476384,-47.22338 -105.476384,-105.47638 0,-58.253004 47.223387,-105.476391 105.476384,-105.476391 58.253,0 105.47639,47.223387 105.47639,105.476391 z"
         transform="matrix(1.0667253,0,0,1.0667253,249.59339,408.1276)" />
      <path
         transform="matrix(1.0667253,0,0,1.0667253,249.59339,408.1276)"
         d="m 223.03862,116.46352 c 0,58.253 -47.22339,105.47638 -105.47639,105.47638 -58.252997,0 -105.476384,-47.22338 -105.476384,-105.47638 0,-58.253004 47.223387,-105.476391 105.476384,-105.476391 58.253,0 105.47639,47.223387 105.47639,105.476391 z"
         sodipodi:ry="105.47639"
         sodipodi:rx="105.47639"
         sodipodi:cy="116.46352"
         sodipodi:cx="117.56223"
         id="path4836"
         style="fill:none;stroke:url(#radialGradient38000);stroke-width:18.58210373;stroke-miterlimit:4;stroke-opacity:1;stroke-dasharray:none"
         sodipodi:type="arc" />
      <g
         transform="matrix(1.386917,0,0,1.386917,-106.3,371.48467)"
         id="g5448">
        <rect
           ry="0.36624998"
           rx="0.41042534"
           y="73.421379"
           x="302.44073"
           height="62.154507"
           width="90.159714"
           id="rect3300"
           style="fill:url(#radialGradient38002);fill-opacity:1;stroke:url(#linearGradient38004);stroke-width:2.90016103;stroke-linecap:round;stroke-linejoin:round;stroke-miterlimit:4;stroke-opacity:1;stroke-dasharray:none" />
        <rect
           transform="matrix(1,0,0.90220694,0.43130342,0,0)"
           ry="0.90161932"
           rx="0.43577531"
           y="317.77997"
           x="12.131402"
           height="8.1969337"
           width="95.728432"
           id="rect3302"
           style="fill:#9b751f;fill-opacity:1;stroke:none" />
        <rect
           style="fill:#9b751f;fill-opacity:1;stroke:none"
           id="rect3304"
           width="95.728432"
           height="8.1969337"
           x="-681.67725"
           y="317.77997"
           rx="0.43577531"
           ry="0.90161932"
           transform="matrix(-1,0,-0.90220694,0.43130342,0,0)" />
        <rect
           ry="0.299189"
           rx="0.37248227"
           y="143.05911"
           x="341.26459"
           height="14.08407"
           width="9.8004131"
           id="rect3306"
           style="fill:#b2820e;fill-opacity:1;stroke:#856e0e;stroke-width:2.33451653;stroke-linecap:round;stroke-linejoin:round;stroke-miterlimit:4;stroke-opacity:1;stroke-dasharray:none" />
        <rect
           transform="matrix(1,0,0.49104161,0.87113612,0,0)"
           style="fill:#b2820e;fill-opacity:1;stroke:#856e0e;stroke-width:3.29919171;stroke-linecap:round;stroke-linejoin:round;stroke-miterlimit:4;stroke-opacity:1;stroke-dasharray:none"
           id="rect3308"
           width="12.736402"
           height="21.64447"
           x="273.89264"
           y="164.63928"
           rx="0.48406973"
           ry="0.45979518" />
        <rect
           ry="0.45979518"
           rx="0.48406973"
           y="164.63928"
           x="-418.27255"
           height="21.64447"
           width="12.736402"
           id="rect3310"
           style="fill:#b2820e;fill-opacity:1;stroke:#856e0e;stroke-width:3.29919171;stroke-linecap:round;stroke-linejoin:round;stroke-miterlimit:4;stroke-opacity:1;stroke-dasharray:none"
           transform="matrix(-1,0,-0.49104161,0.87113612,0,0)" />
        <rect
           transform="matrix(-1,0,0.09863695,0.99512349,0,0)"
           ry="0.39077708"
           rx="0.49596682"
           y="141.28391"
           x="-387.20953"
           height="3.5526898"
           width="108.95094"
           id="rect3312"
           style="fill:#624d1c;fill-opacity:1;stroke:none" />
        <path
           d="m 323.14314,86.905344 c -4.5549,3.363151 -0.27051,0.183807 13.92101,-7.668648 0.15861,-0.08776 -0.31702,0.176051 -0.47135,0.270527 -0.49524,0.303184 -0.95166,0.65078 -1.40782,1.004179 -0.86382,0.799712 -1.83418,1.478953 -2.75919,2.210445 -1.70914,1.304329 -3.24631,2.778458 -4.68816,4.345889 -0.67162,0.815291 -1.40337,1.657802 -1.67646,2.685188 0.0617,0.275933 0.38933,0.45738 0.59042,0.649551 0.51067,0.566023 1.1455,1.012848 1.64153,1.58858 0.0577,0.06243 0.40321,0.521246 0.58611,0.465228 0.0707,-0.02166 0.0636,-0.12954 0.10857,-0.1861 0.82315,-0.125061 1.72101,-0.02755 2.54197,0.09522 1.12106,0.166255 2.25557,0.229408 3.38911,0.228249 0.39814,0.0084 0.79412,-0.04757 1.19116,-0.05591 0.21571,0.286227 0.4699,0.255896 0.76176,0.37002 0.3576,0.139834 0.63083,0.284553 1.01391,0.371113 0.28627,0.132399 0.6428,0.02437 0.93441,0.108312 0.29609,0.08523 0.54831,0.267811 0.85328,0.347342 0.74348,0.476901 1.15784,0.865584 1.42321,1.716859 0.17019,0.92412 -0.22923,1.711699 -0.65295,2.51163 -0.54857,0.941273 -1.24081,1.789468 -1.85498,2.690012 -0.68148,0.88448 -1.09894,1.91303 -1.60674,2.88922 -0.14249,0.27235 -0.21229,0.57064 -0.31573,0.85582 0.11435,-0.56827 -0.80005,-0.97049 -0.86676,-1.52238 -0.008,-0.0698 0.13006,-0.0665 0.19942,-0.0896 0.27836,-0.0927 0.82682,-0.21159 1.07209,-0.26896 2.21542,-0.62551 4.26509,-1.63655 6.33178,-2.600095 0.6914,-0.338321 1.34102,-0.688015 2.09144,-0.877979 0.1183,-0.02995 0.24795,-0.144086 0.35539,-0.08806 0.65119,0.339596 0.79382,1.136914 1.02198,1.708324 -0.0408,0.18999 -0.0503,0.38863 -0.12227,0.56998 -0.30116,0.75936 -1.16481,1.70328 -1.64361,2.41682 -0.27715,0.34067 -0.3968,0.77448 -0.61979,1.14 -2.97984,4.88449 -10.14756,5.81198 -15.26589,8.64524 -4.81224,2.35109 -10.97412,5.97721 11.69307,-6.51711 0.48976,-0.26995 -0.9786,0.54167 -1.45949,0.82582 -1.60078,0.94586 -1.81755,1.12296 -3.39333,2.17473 -2.37976,1.71308 -4.67605,3.56211 -6.49842,5.82745 -0.27619,0.48841 -0.7918,0.91278 -0.79487,1.49505 0.17909,0.62686 0.38705,1.23742 0.77216,1.77609 0.0667,0.0528 0.11587,0.13925 0.20013,0.15834 0.0893,0.0202 0.44757,-0.22838 0.46005,-0.23375 0.67046,-0.28812 1.42928,-0.47836 2.11665,-0.72479 0.38463,-0.16269 0.77293,-0.31766 1.15389,-0.48806 0.79991,-0.35778 2.19171,-1.02891 2.93423,-1.42475 0.5733,-0.30563 2.26677,-1.26675 1.6973,-0.95465 -11.51434,6.31046 -15.20659,8.53609 -9.37675,5.06987 3.7646,-2.26019 7.2256,-4.93313 10.70829,-7.56321 2.4329,-1.82647 4.85103,-3.66946 7.24357,-5.544 0.73933,-0.6309 1.56608,-1.16287 2.31092,-1.78688 4.99343,-2.70559 9.98685,-5.41119 14.98028,-8.11678 0.0685,0.01758 0.15102,0.0093 0.20555,0.05273 0.15658,0.124621 0.25384,0.307688 0.40772,0.435353 0.10866,0.09015 -0.0793,-0.287861 0.005,-0.179847 0.15888,0.204764 0.28998,0.427956 0.43496,0.641932 0.58441,1.192175 0.76943,1.080798 -0.1488,1.737342 -0.63044,0.58981 -1.3773,1.06582 -2.10045,1.54939 -0.78968,0.43763 -1.47998,0.97992 -2.11539,1.60047 -0.74831,0.82968 -1.34632,1.75617 -1.87913,2.72213 -0.1814,0.35567 -0.37244,0.69505 -0.0737,1.01785 0.568,0.32758 1.12443,0.65634 1.76862,0.83497 0.24287,-0.0831 1.29206,0.65487 1.45357,0.56942 0.0563,-0.0298 0.005,-0.12293 0.007,-0.18439 -4.92912,2.82125 -9.7755,5.77907 -14.78737,8.46376 -0.14551,0.078 -0.12623,-0.29549 -0.17894,-0.44679 -0.0416,-0.11949 -0.21672,-0.29988 -0.10371,-0.36458 5.00465,-2.72423 10.0093,-5.44845 15.01394,-8.17267 0.29677,0.14654 0.14371,0.0953 0.45738,0.15854 0.81348,0.0324 1.60617,-0.40529 2.32147,-0.75001 l -13.24399,9.97684 c -0.96827,0.30994 -1.95669,0.47988 -2.97737,0.4684 -0.27486,0.0687 -0.17543,-0.004 -0.31909,0.18975 4.93771,-2.70879 9.87543,-5.41759 14.81314,-8.12638 0.10197,-0.0587 -0.13162,-0.18966 -0.20048,-0.28247 -0.0784,-0.10561 -0.12408,-0.37784 -0.24111,-0.31266 -4.99094,2.77946 -9.84362,5.77989 -14.76543,8.66983 -0.3438,-0.43846 -0.90044,-0.5781 -1.40196,-0.8079 -0.83012,-0.40399 -1.6838,-0.82043 -2.31702,-1.48955 -0.63813,-0.79753 -0.9028,-1.68121 -0.62075,-2.67519 0.4332,-1.07849 1.04998,-2.0902 1.71442,-3.05251 0.4766,-0.79273 1.04534,-1.51474 1.82639,-2.05847 0.69792,-0.44559 1.38073,-0.90451 2.09226,-1.31804 0.68216,-0.71667 0.46548,-0.27941 1.06206,0.51526 0.12252,0.18384 0.25797,0.36037 0.36757,0.55152 0.0533,0.093 -0.27436,-0.32214 -0.23834,-0.22187 0.0473,0.13171 0.16673,0.23225 0.21539,0.36351 0.0134,0.036 -0.0271,0.0719 -0.0407,0.10782 4.89509,-2.66965 9.79018,-5.33929 14.68526,-8.008941 -1.15526,0.516581 -2.18847,1.255171 -3.2453,1.927741 -2.63641,1.93214 -5.25015,3.89158 -7.90367,5.80252 -3.56798,2.66473 -7.1193,5.36396 -10.87824,7.78072 -6.72224,4.23832 -1.66698,1.09935 -17.05285,9.63265 -2.13071,1.18173 -4.31705,2.29545 -6.62745,3.12357 -1.74983,0.5163 -3.26219,1.04195 -4.52529,-0.57599 -0.47999,-0.67646 -0.79345,-1.4279 -1.08777,-2.19245 -0.50277,-1.23046 -0.28933,-2.05715 0.59358,-3.09306 2.06133,-2.51577 4.65974,-4.53695 7.21781,-6.57211 6.46204,-4.77999 13.67585,-8.45943 20.88665,-12.13532 -4.70379,2.61916 -9.42585,5.20856 -14.11137,7.85748 -0.0924,0.0522 0.21167,-0.0345 0.31602,-0.0584 0.48662,-0.11125 0.65788,-0.58775 0.94569,-0.94005 0.3438,-0.4784 0.6816,-0.94932 1.04589,-1.4132 0.19777,-0.25183 0.31817,-0.56197 0.55248,-0.7833 0.057,-0.0539 0.15065,-0.0524 0.22598,-0.0786 0.17979,0.22906 0.36461,0.4546 0.53939,0.68719 0.10531,0.14014 0.25151,0.26453 0.30056,0.4306 0.0152,0.0514 -0.10595,0.0345 -0.15638,0.0575 -0.52036,0.2368 -1.04134,0.47147 -1.57482,0.68259 -2.18579,0.95068 -4.40614,1.82201 -6.65495,2.62762 -0.0367,0.0152 -1.64643,0.71934 -1.70828,0.6991 -0.21024,-0.0688 -0.36884,-0.24867 -0.50378,-0.41748 -0.69821,-0.87347 -0.69703,-0.65581 -0.67148,-1.1235 0.10638,-0.42889 0.36295,-0.8123 0.52457,-1.22162 0.49779,-1.08064 1.20507,-2.0703 1.66787,-3.17022 0.58772,-0.85419 1.13496,-1.732 1.71611,-2.58812 0.27621,-0.3394 0.39518,-0.60694 0.62306,-0.9503 0.11864,-0.17874 0.34152,-0.24569 0.34567,-0.48374 0.0183,-0.002 0.27745,-0.045 0.18766,0.0978 -0.0259,0.0413 -0.0715,-0.0696 -0.11535,-0.0933 -0.14258,-0.0771 -0.31982,-0.17048 -0.48774,-0.15584 -0.53239,-0.20897 -1.1189,-0.20082 -1.64823,-0.44804 -0.19551,-0.0631 -1.42717,-0.44227 -1.59833,-0.38915 -0.0507,0.0157 -0.0506,0.0898 -0.0759,0.13468 -0.36708,-0.0109 -0.72867,-0.0871 -1.08963,-0.1467 -1.06346,-0.15959 -2.13163,-0.30926 -3.20784,-0.35911 -1.00151,0.0121 -2.06534,0.16296 -3.03387,-0.11384 -0.49451,-0.30221 -0.87866,-0.72088 -1.17649,-1.20551 -0.45958,-0.520105 -0.99485,-0.974548 -1.54512,-1.404812 -0.58571,-0.494568 -1.08932,-1.023508 -1.20513,-1.793845 -0.1976,-1.666297 0.75184,-2.740492 1.74368,-4.019199 1.33706,-1.549935 2.73357,-3.075343 4.30046,-4.416146 0.83053,-0.791064 1.71522,-1.502125 2.63589,-2.191285 4.8644,-4.380732 10.83297,-7.437414 17.03322,-9.959757 l -13.43934,10.278356 z"
           id="path3314"
           style="fill:#5b7ea9;fill-opacity:1;stroke:none" />
        <path
           id="path3318"
           d="m 361.97225,109.83752 c -0.32486,1.55918 1.49753,2.20769 2.52062,2.98832 2.41906,2.02331 4.47187,4.93374 7.87972,5.42569 3.08583,0.5877 6.68194,-2.0453 6.11906,-5.18799 -0.73049,-3.61016 -5.29572,-5.49037 -8.75717,-4.34611 -1.4172,0.30902 -2.65721,-0.69021 -4.07998,-0.5817 -1.28915,-0.005 -2.94476,0.24989 -3.60517,1.41908 -0.0306,0.0931 -0.056,0.18725 -0.0771,0.28271 z"
           style="fill:#5b7ea9;fill-opacity:1;stroke:#000000;stroke-width:0.66085237;stroke-linecap:round;stroke-linejoin:round;stroke-miterlimit:4;stroke-opacity:1;stroke-dasharray:none" />
        <rect
           transform="matrix(0.47048512,-0.88240793,0.89891001,0.43813331,0,0)"
           style="fill:#e6ad23;fill-opacity:1;stroke:#8c7924;stroke-width:2.25390601;stroke-linecap:round;stroke-linejoin:round;stroke-miterlimit:4;stroke-opacity:1;stroke-dasharray:none"
           id="rect3320"
           width="4.3850307"
           height="29.341185"
           x="59.838863"
           y="388.56854"
           rx="0.16666093"
           ry="0.62329704" />
        <rect
           transform="matrix(0.46830859,-0.88356497,0.89993189,0.4360305,0,0)"
           ry="0.62334996"
           rx="0.16664605"
           y="387.75909"
           x="58.696274"
           height="3.2578564"
           width="4.7588401"
           id="rect3322"
           style="fill:#282828;fill-opacity:1;stroke:none" />
      </g>
      <path
         sodipodi:type="arc"
         style="fill:none;stroke:url(#radialGradient38006);stroke-width:18.58210373;stroke-miterlimit:4;stroke-opacity:1;stroke-dasharray:none"
         id="path4840"
         sodipodi:cx="117.56223"
         sodipodi:cy="116.46352"
         sodipodi:rx="105.47639"
         sodipodi:ry="105.47639"
         d="m 223.03862,116.46352 c 0,58.253 -47.22339,105.47638 -105.47639,105.47638 -58.252997,0 -105.476384,-47.22338 -105.476384,-105.47638 0,-58.253004 47.223387,-105.476391 105.476384,-105.476391 58.253,0 105.47639,47.223387 105.47639,105.476391 z"
         transform="matrix(1.0667253,0,0,1.0667253,249.59339,408.1276)" />
      <path
         id="path4852"
         d="m 375.39311,435.47901 c -53.52612,0 -96.98247,43.00013 -97.75,96.34374 10.00972,-5.92814 19.73393,-10.88682 25.9375,-13.75 14.28326,-6.59228 49.44541,-6.58732 61.53125,-1.09375 12.08584,5.49356 32.95038,9.88345 43.9375,1.09375 10.98712,-8.78969 8.80204,-16.48658 31.875,-26.37499 5.67666,-2.43286 12.40919,-4.6447 19.625,-6.53125 -16.79408,-29.65648 -48.64174,-49.6875 -85.15625,-49.6875 z"
         style="fill:url(#linearGradient38008);fill-opacity:1;stroke:none" />
    </g>
  </g>
</svg>
