<?xml version="1.0" encoding="UTF-8" standalone="no"?>
<!-- Created with Inkscape (http://www.inkscape.org/) -->

<svg
   xmlns:dc="http://purl.org/dc/elements/1.1/"
   xmlns:cc="http://creativecommons.org/ns#"
   xmlns:rdf="http://www.w3.org/1999/02/22-rdf-syntax-ns#"
   xmlns:svg="http://www.w3.org/2000/svg"
   xmlns="http://www.w3.org/2000/svg"
   xmlns:xlink="http://www.w3.org/1999/xlink"
   xmlns:sodipodi="http://sodipodi.sourceforge.net/DTD/sodipodi-0.dtd"
   xmlns:inkscape="http://www.inkscape.org/namespaces/inkscape"
   width="256"
   height="256"
   id="svg35892"
   version="1.1"
   inkscape:version="0.47pre0 r21549"
   sodipodi:docname="Nouveau document 8"
   inkscape:output_extension="org.inkscape.output.svg.inkscape">
  <defs
     id="defs35894">
    <inkscape:perspective
       sodipodi:type="inkscape:persp3d"
       inkscape:vp_x="0 : 526.18109 : 1"
       inkscape:vp_y="0 : 1000 : 0"
       inkscape:vp_z="744.09448 : 526.18109 : 1"
       inkscape:persp3d-origin="372.04724 : 350.78739 : 1"
       id="perspective35900" />
    <inkscape:perspective
       id="perspective35836"
       inkscape:persp3d-origin="0.5 : 0.33333333 : 1"
       inkscape:vp_z="1 : 0.5 : 1"
       inkscape:vp_y="0 : 1000 : 0"
       inkscape:vp_x="0 : 0.5 : 1"
       sodipodi:type="inkscape:persp3d" />
    <radialGradient
       inkscape:collect="always"
       xlink:href="#linearGradient4824"
       id="radialGradient4830"
       cx="15.593588"
       cy="88.653885"
       fx="15.593588"
       fy="88.653885"
       r="114.76744"
       gradientUnits="userSpaceOnUse" />
    <linearGradient
       inkscape:collect="always"
       id="linearGradient4824">
      <stop
         style="stop-color:#ffffff;stop-opacity:1;"
         offset="0"
         id="stop4826" />
      <stop
         style="stop-color:#ffffff;stop-opacity:0;"
         offset="1"
         id="stop4828" />
    </linearGradient>
    <radialGradient
       inkscape:collect="always"
       xlink:href="#linearGradient4824"
       id="radialGradient4838"
       gradientUnits="userSpaceOnUse"
       cx="219.53087"
       cy="98.953751"
       fx="219.53087"
       fy="98.953751"
       r="114.76744" />
    <radialGradient
       xlink:href="#linearGradient3612"
       r="95.509087"
       fy="35.462517"
       fx="471.44995"
       cy="35.462517"
       cx="471.44995"
       gradientTransform="matrix(0.61290353,0,0,0.56868659,177.34512,51.051496)"
       gradientUnits="userSpaceOnUse"
       id="radialGradient3058"
       inkscape:collect="always" />
    <linearGradient
       inkscape:collect="always"
       id="linearGradient3612">
      <stop
         style="stop-color:#ffffff;stop-opacity:1;"
         offset="0"
         id="stop3614-6" />
      <stop
         style="stop-color:#ffffff;stop-opacity:0;"
         offset="1"
         id="stop3616-0" />
    </linearGradient>
    <linearGradient
       xlink:href="#linearGradient3628"
       y2="51.793705"
       x2="401.93338"
       y1="121.58429"
       x1="30.622856"
       gradientTransform="matrix(0.61290353,0,0,0.61290353,278.48993,39.47401)"
       gradientUnits="userSpaceOnUse"
       id="linearGradient3060"
       inkscape:collect="always" />
    <linearGradient
       inkscape:collect="always"
       id="linearGradient3628">
      <stop
         style="stop-color:#ffffff;stop-opacity:1;"
         offset="0"
         id="stop3630-2" />
      <stop
         style="stop-color:#ffffff;stop-opacity:0;"
         offset="1"
         id="stop3632-6-0" />
    </linearGradient>
    <linearGradient
       xlink:href="#linearGradient2207"
       y2="37.941383"
       x2="35.825676"
       y1="-2.4229071"
       x1="9.8042097"
       gradientTransform="matrix(2.3815146,0,0,2.4584268,301.5006,63.133365)"
       gradientUnits="userSpaceOnUse"
       id="linearGradient3062"
       inkscape:collect="always" />
    <linearGradient
       inkscape:collect="always"
       id="linearGradient2207">
      <stop
         style="stop-color:#ffffff;stop-opacity:1;"
         offset="0"
         id="stop2209" />
      <stop
         style="stop-color:white;stop-opacity:0.37642586"
         offset="1"
         id="stop2211" />
    </linearGradient>
    <radialGradient
       xlink:href="#linearGradient2254-9-0"
       r="61.774338"
       fy="111.77343"
       fx="139.64014"
       cy="111.77343"
       cx="139.64014"
       gradientTransform="matrix(0.89420645,-1.124838e-7,1.2835082e-7,1.0203437,240.22645,0.71049111)"
       gradientUnits="userSpaceOnUse"
       id="radialGradient3064"
       inkscape:collect="always" />
    <linearGradient
       id="linearGradient2254-9-0">
      <stop
         id="stop2256-3-8"
         offset="0"
         style="stop-color:#ffffff;stop-opacity:0.46938777;" />
      <stop
         id="stop2258-0-1"
         offset="1"
         style="stop-color:#ffffff;stop-opacity:0.1122449;" />
    </linearGradient>
    <linearGradient
       y2="155.53819"
       x2="210.85188"
       y1="155.53819"
       x1="104.54677"
       gradientTransform="matrix(0.61290353,0,0,0.61290353,279.38107,41.701869)"
       gradientUnits="userSpaceOnUse"
       id="linearGradient159051"
       xlink:href="#linearGradient3452-8-7"
       inkscape:collect="always" />
    <linearGradient
       id="linearGradient3452-8-7">
      <stop
         style="stop-color:#9f9f9f;stop-opacity:1;"
         offset="0"
         id="stop3454-6-1" />
      <stop
         style="stop-color:#ffffff;stop-opacity:0.96078432;"
         offset="1"
         id="stop3456-3-9" />
    </linearGradient>
    <radialGradient
       inkscape:collect="always"
       xlink:href="#linearGradient4824"
       id="radialGradient4842"
       gradientUnits="userSpaceOnUse"
       cx="117.56223"
       cy="1.6960773"
       fx="117.56223"
       fy="1.6960773"
       r="114.76744"
       gradientTransform="matrix(1.439753,0,0,1,-51.698347,0)" />
    <linearGradient
       gradientTransform="translate(247.54936,406.01026)"
       inkscape:collect="always"
       xlink:href="#linearGradient4859"
       id="linearGradient4865"
       x1="121.54688"
       y1="-8.986186"
       x2="121.54688"
       y2="143.39191"
       gradientUnits="userSpaceOnUse" />
    <linearGradient
       inkscape:collect="always"
       id="linearGradient4859">
      <stop
         style="stop-color:#ffffff;stop-opacity:1;"
         offset="0"
         id="stop4861" />
      <stop
         style="stop-color:#ffffff;stop-opacity:0;"
         offset="1"
         id="stop4863" />
    </linearGradient>
    <radialGradient
       inkscape:collect="always"
       xlink:href="#linearGradient4824"
       id="radialGradient36013"
       gradientUnits="userSpaceOnUse"
       cx="15.593588"
       cy="88.653885"
       fx="15.593588"
       fy="88.653885"
       r="114.76744" />
    <radialGradient
       inkscape:collect="always"
       xlink:href="#linearGradient4824"
       id="radialGradient36015"
       gradientUnits="userSpaceOnUse"
       cx="219.53087"
       cy="98.953751"
       fx="219.53087"
       fy="98.953751"
       r="114.76744" />
    <radialGradient
       inkscape:collect="always"
       xlink:href="#linearGradient3612"
       id="radialGradient36017"
       gradientUnits="userSpaceOnUse"
       gradientTransform="matrix(0.61290353,0,0,0.56868659,177.34512,51.051496)"
       cx="471.44995"
       cy="35.462517"
       fx="471.44995"
       fy="35.462517"
       r="95.509087" />
    <linearGradient
       inkscape:collect="always"
       xlink:href="#linearGradient3628"
       id="linearGradient36019"
       gradientUnits="userSpaceOnUse"
       gradientTransform="matrix(0.61290353,0,0,0.61290353,278.48993,39.47401)"
       x1="30.622856"
       y1="121.58429"
       x2="401.93338"
       y2="51.793705" />
    <linearGradient
       inkscape:collect="always"
       xlink:href="#linearGradient2207"
       id="linearGradient36021"
       gradientUnits="userSpaceOnUse"
       gradientTransform="matrix(2.3815146,0,0,2.4584268,301.5006,63.133365)"
       x1="9.8042097"
       y1="-2.4229071"
       x2="35.825676"
       y2="37.941383" />
    <radialGradient
       inkscape:collect="always"
       xlink:href="#linearGradient2254-9-0"
       id="radialGradient36023"
       gradientUnits="userSpaceOnUse"
       gradientTransform="matrix(0.89420645,-1.124838e-7,1.2835082e-7,1.0203437,240.22645,0.71049111)"
       cx="139.64014"
       cy="111.77343"
       fx="139.64014"
       fy="111.77343"
       r="61.774338" />
    <linearGradient
       inkscape:collect="always"
       xlink:href="#linearGradient3452-8-7"
       id="linearGradient36025"
       gradientUnits="userSpaceOnUse"
       gradientTransform="matrix(0.61290353,0,0,0.61290353,279.38107,41.701869)"
       x1="104.54677"
       y1="155.53819"
       x2="210.85188"
       y2="155.53819" />
    <radialGradient
       inkscape:collect="always"
       xlink:href="#linearGradient4824"
       id="radialGradient36027"
       gradientUnits="userSpaceOnUse"
       gradientTransform="matrix(1.439753,0,0,1,-51.698347,0)"
       cx="117.56223"
       cy="1.6960773"
       fx="117.56223"
       fy="1.6960773"
       r="114.76744" />
    <linearGradient
       inkscape:collect="always"
       xlink:href="#linearGradient4859"
       id="linearGradient36029"
       gradientUnits="userSpaceOnUse"
       gradientTransform="translate(247.54936,406.01026)"
       x1="121.54688"
       y1="-8.986186"
       x2="121.54688"
       y2="143.39191" />
  </defs>
  <sodipodi:namedview
     id="base"
     pagecolor="#ffffff"
     bordercolor="#666666"
     borderopacity="1.0"
     inkscape:pageopacity="0.0"
     inkscape:pageshadow="2"
     inkscape:zoom="0.35"
     inkscape:cx="375"
     inkscape:cy="520"
     inkscape:document-units="px"
     inkscape:current-layer="layer1"
     showgrid="false"
     inkscape:window-width="1041"
     inkscape:window-height="485"
     inkscape:window-x="623"
     inkscape:window-y="539"
     inkscape:window-maximized="0" />
  <metadata
     id="metadata35897">
    <rdf:RDF>
      <cc:Work
         rdf:about="">
        <dc:format>image/svg+xml</dc:format>
        <dc:type
           rdf:resource="http://purl.org/dc/dcmitype/StillImage" />
        <dc:title></dc:title>
      </cc:Work>
    </rdf:RDF>
  </metadata>
  <g
     inkscape:label="Calque 1"
     inkscape:groupmode="layer"
     id="layer1"
     transform="translate(0,-796.36218)">
    <g
       id="g36001"
       transform="translate(-247.54967,390.35167)">
      <path
         transform="matrix(1.15625,0,0,1.15625,239.06867,397.70124)"
         d="m 223.03862,116.46352 c 0,58.253 -47.22339,105.47638 -105.47639,105.47638 -58.252997,0 -105.476384,-47.22338 -105.476384,-105.47638 0,-58.253004 47.223387,-105.476391 105.476384,-105.476391 58.253,0 105.47639,47.223387 105.47639,105.476391 z"
         sodipodi:ry="105.47639"
         sodipodi:rx="105.47639"
         sodipodi:cy="116.46352"
         sodipodi:cx="117.56223"
         id="path4820"
         style="fill:#000000;fill-opacity:1;stroke:none"
         sodipodi:type="arc" />
      <path
         sodipodi:type="arc"
         style="fill:none;stroke:url(#radialGradient36013);stroke-width:18.58210373;stroke-miterlimit:4;stroke-opacity:1;stroke-dasharray:none"
         id="path4822"
         sodipodi:cx="117.56223"
         sodipodi:cy="116.46352"
         sodipodi:rx="105.47639"
         sodipodi:ry="105.47639"
         d="m 223.03862,116.46352 c 0,58.253 -47.22339,105.47638 -105.47639,105.47638 -58.252997,0 -105.476384,-47.22338 -105.476384,-105.47638 0,-58.253004 47.223387,-105.476391 105.476384,-105.476391 58.253,0 105.47639,47.223387 105.47639,105.476391 z"
         transform="matrix(1.0667253,0,0,1.0667253,249.59339,408.1276)" />
      <path
         transform="matrix(1.0667253,0,0,1.0667253,249.59339,408.1276)"
         d="m 223.03862,116.46352 c 0,58.253 -47.22339,105.47638 -105.47639,105.47638 -58.252997,0 -105.476384,-47.22338 -105.476384,-105.47638 0,-58.253004 47.223387,-105.476391 105.476384,-105.476391 58.253,0 105.47639,47.223387 105.47639,105.476391 z"
         sodipodi:ry="105.47639"
         sodipodi:rx="105.47639"
         sodipodi:cy="116.46352"
         sodipodi:cx="117.56223"
         id="path4836"
         style="fill:none;stroke:url(#radialGradient36015);stroke-width:18.58210373;stroke-miterlimit:4;stroke-opacity:1;stroke-dasharray:none"
         sodipodi:type="arc" />
      <g
         transform="matrix(1.2553474,0,0,1.2553474,-72.575971,389.43195)"
         id="g3052">
        <path
           style="fill:url(#radialGradient36017);fill-opacity:1;fill-rule:nonzero;stroke:url(#linearGradient36019);stroke-width:2.78843403;stroke-linecap:round;stroke-linejoin:miter;stroke-miterlimit:4;stroke-opacity:1;stroke-dasharray:none"
           d="m 359.99856,130.66078 c -0.60201,1.74631 0.46169,3.22716 2.18643,4.18265 3.55248,1.96807 7.40321,-0.43409 8.52718,-4.27067 2.00407,-6.84067 -0.602,-12.19586 -6.17887,-14.98429 -10.65459,-5.3273 -21.40344,3.78788 -25.09591,13.94217 -5.57687,15.33638 5.608,32.22822 21.16252,36.21462 23.31134,5.97437 45.82686,-11.79971 50.98468,-34.11162 7.414,-32.071813 -16.58968,-63.599943 -47.40338,-69.377513 -22.30747,-4.182651 -48.34045,2.919381 -65.52821,18.212845 2.53003,25.845798 19.61291,39.893918 38.58813,50.232238"
           id="path1314"
           sodipodi:nodetypes="cssssssscc" />
        <path
           style="opacity:0.49019608;fill:none;stroke:url(#linearGradient36021);stroke-width:2.78843403;stroke-linecap:round;stroke-linejoin:miter;stroke-miterlimit:4;stroke-opacity:1;stroke-dasharray:none"
           d="m 362.78699,132.94615 c 1.26502,1.29229 3.82635,0.96668 5.02324,-1.85388 1.24366,-2.93078 1.24366,-8.85974 -4.0918,-11.80665 -8.59442,-4.74691 -19.60056,2.70136 -22.53472,14.54076 -3.09209,12.4766 7.57243,27.37331 20.12104,30.15879 22.08495,4.9023 42.34465,-10.66353 47.5082,-32.25291 6.95267,-29.0699 -13.80908,-58.764887 -44.63174,-65.708532 -18.14641,-4.087974 -46.00917,1.394217 -62.73977,16.730605 2.87646,22.923637 19.28328,36.615887 36.10191,46.023317"
           id="path2215"
           sodipodi:nodetypes="csssssscc" />
        <path
           sodipodi:nodetypes="ccccccccccssccsccccccc"
           id="path2225"
           d="m 357.61537,68.212884 c 5.06006,12.922902 6.87818,29.670623 1.81812,45.178096 4.03712,0.8297 7.21726,2.64901 8.801,4.26637 6.29692,-23.215806 4.54327,-39.11826 -10.61912,-49.444466 z m -27.71007,1.91705 c 8.3653,9.75952 19.81943,28.450157 19.51905,44.559756 3.77368,-1.57184 6.0791,-1.81427 9.99581,-1.31545 C 358.02594,93.855214 348.03012,72.918368 329.9053,70.129934 z m 50.45324,5.838282 c -0.9916,17.247908 -5.51587,29.057714 -11.84094,41.980614 2.10606,2.32294 3.38676,5.18082 3.91629,8.00838 0.11341,0.6056 0.25897,5.09266 0.41399,1.96233 0.0211,-0.42588 -0.30609,1.3977 -0.0871,1.26863 l -0.89308,2.11951 c -0.4767,1.37089 -0.73563,2.96516 -1.36415,2.93111 -0.0445,-0.002 -0.13409,1.24998 -0.33181,0.95358 l -3.63624,3.36987 c 9.88382,1.44982 34.0332,-8.30989 39.09326,-23.81737 -10.25774,7.95468 -18.3461,11.13455 -29.10428,15.51066 7.59009,-4.92685 24.09532,-18.15758 22.83031,-36.249632 -6.96984,13.064182 -16.0061,22.729422 -24.22452,31.108462 6.4832,-10.41909 17.87846,-28.469504 5.22831,-49.146144 z"
           style="fill:url(#radialGradient36023);fill-opacity:1;fill-rule:evenodd;stroke:none" />
        <path
           style="opacity:0.5;fill:url(#linearGradient36025);fill-opacity:1;fill-rule:evenodd;stroke:none"
           d="m 343.45815,146.75695 c 15.94334,22.50473 67.61416,1.21814 63.60585,-37.65801 5.36397,21.69011 -3.78081,41.07046 -18.53649,50.14636 -15.50675,9.53787 -36.40095,8.28276 -45.06936,-12.48835 z"
           id="path1911"
           sodipodi:nodetypes="ccsc" />
      </g>
      <path
         sodipodi:type="arc"
         style="fill:none;stroke:url(#radialGradient36027);stroke-width:18.58210373;stroke-miterlimit:4;stroke-opacity:1;stroke-dasharray:none"
         id="path4840"
         sodipodi:cx="117.56223"
         sodipodi:cy="116.46352"
         sodipodi:rx="105.47639"
         sodipodi:ry="105.47639"
         d="m 223.03862,116.46352 c 0,58.253 -47.22339,105.47638 -105.47639,105.47638 -58.252997,0 -105.476384,-47.22338 -105.476384,-105.47638 0,-58.253004 47.223387,-105.476391 105.476384,-105.476391 58.253,0 105.47639,47.223387 105.47639,105.476391 z"
         transform="matrix(1.0667253,0,0,1.0667253,249.59339,408.1276)" />
      <path
         id="path4852"
         d="m 375.39311,435.47901 c -53.52612,0 -96.98247,43.00013 -97.75,96.34374 10.00972,-5.92814 19.73393,-10.88682 25.9375,-13.75 14.28326,-6.59228 49.44541,-6.58732 61.53125,-1.09375 12.08584,5.49356 32.95038,9.88345 43.9375,1.09375 10.98712,-8.78969 8.80204,-16.48658 31.875,-26.37499 5.67666,-2.43286 12.40919,-4.6447 19.625,-6.53125 -16.79408,-29.65648 -48.64174,-49.6875 -85.15625,-49.6875 z"
         style="fill:url(#linearGradient36029);fill-opacity:1;stroke:none" />
    </g>
  </g>
</svg>
