<?xml version="1.0" encoding="UTF-8" standalone="no"?>
<!-- Created with Inkscape (http://www.inkscape.org/) -->

<svg
   xmlns:dc="http://purl.org/dc/elements/1.1/"
   xmlns:cc="http://creativecommons.org/ns#"
   xmlns:rdf="http://www.w3.org/1999/02/22-rdf-syntax-ns#"
   xmlns:svg="http://www.w3.org/2000/svg"
   xmlns="http://www.w3.org/2000/svg"
   xmlns:xlink="http://www.w3.org/1999/xlink"
   xmlns:sodipodi="http://sodipodi.sourceforge.net/DTD/sodipodi-0.dtd"
   xmlns:inkscape="http://www.inkscape.org/namespaces/inkscape"
   width="256"
   height="256"
   id="svg30418"
   version="1.1"
   inkscape:version="0.47pre0 r21549"
   sodipodi:docname="Nouveau document 5"
   inkscape:output_extension="org.inkscape.output.svg.inkscape">
  <defs
     id="defs30420">
    <inkscape:perspective
       sodipodi:type="inkscape:persp3d"
       inkscape:vp_x="0 : 526.18109 : 1"
       inkscape:vp_y="0 : 1000 : 0"
       inkscape:vp_z="744.09448 : 526.18109 : 1"
       inkscape:persp3d-origin="372.04724 : 350.78739 : 1"
       id="perspective30426" />
    <inkscape:perspective
       id="perspective30354"
       inkscape:persp3d-origin="0.5 : 0.33333333 : 1"
       inkscape:vp_z="1 : 0.5 : 1"
       inkscape:vp_y="0 : 1000 : 0"
       inkscape:vp_x="0 : 0.5 : 1"
       sodipodi:type="inkscape:persp3d" />
    <radialGradient
       inkscape:collect="always"
       xlink:href="#linearGradient4824"
       id="radialGradient4830"
       cx="15.593588"
       cy="88.653885"
       fx="15.593588"
       fy="88.653885"
       r="114.76744"
       gradientUnits="userSpaceOnUse" />
    <linearGradient
       inkscape:collect="always"
       id="linearGradient4824">
      <stop
         style="stop-color:#ffffff;stop-opacity:1;"
         offset="0"
         id="stop4826" />
      <stop
         style="stop-color:#ffffff;stop-opacity:0;"
         offset="1"
         id="stop4828" />
    </linearGradient>
    <radialGradient
       inkscape:collect="always"
       xlink:href="#linearGradient4824"
       id="radialGradient4838"
       gradientUnits="userSpaceOnUse"
       cx="219.53087"
       cy="98.953751"
       fx="219.53087"
       fy="98.953751"
       r="114.76744" />
    <radialGradient
       xlink:href="#linearGradient3178"
       r="165.41776"
       fy="256.63501"
       fx="200.60574"
       cy="256.63501"
       cx="200.60574"
       gradientTransform="matrix(0.82887149,-1.0804641e-7,1.4152297e-8,0.10856846,231.0724,104.11748)"
       gradientUnits="userSpaceOnUse"
       id="radialGradient17539"
       inkscape:collect="always" />
    <linearGradient
       inkscape:collect="always"
       id="linearGradient3178">
      <stop
         style="stop-color:#007eff;stop-opacity:1;"
         offset="0"
         id="stop3180" />
      <stop
         style="stop-color:#007eff;stop-opacity:0;"
         offset="1"
         id="stop3182" />
    </linearGradient>
    <radialGradient
       xlink:href="#linearGradient3582"
       r="124.44935"
       fy="113.8615"
       fx="181.23116"
       cy="113.8615"
       cx="181.23116"
       gradientTransform="matrix(0.5338329,-0.02659974,0.01687691,0.33870439,291.7236,46.972696)"
       gradientUnits="userSpaceOnUse"
       id="radialGradient17541"
       inkscape:collect="always" />
    <linearGradient
       inkscape:collect="always"
       id="linearGradient3582">
      <stop
         style="stop-color:#fff500;stop-opacity:1;"
         offset="0"
         id="stop3584-3" />
      <stop
         style="stop-color:#fff500;stop-opacity:0;"
         offset="1"
         id="stop3586-9" />
    </linearGradient>
    <radialGradient
       xlink:href="#linearGradient3592"
       r="124.44935"
       fy="-16.541117"
       fx="235.3445"
       cy="-16.541117"
       cx="235.3445"
       gradientTransform="matrix(0.35904798,0,0,0.237586,325.3217,53.665486)"
       gradientUnits="userSpaceOnUse"
       id="radialGradient17543"
       inkscape:collect="always" />
    <linearGradient
       inkscape:collect="always"
       id="linearGradient3592">
      <stop
         style="stop-color:#4b491d;stop-opacity:1;"
         offset="0"
         id="stop3594" />
      <stop
         style="stop-color:#4b491d;stop-opacity:0;"
         offset="1"
         id="stop3596-7" />
    </linearGradient>
    <radialGradient
       xlink:href="#linearGradient3592"
       r="124.44935"
       fy="291.78372"
       fx="186.34998"
       cy="291.78372"
       cx="186.34998"
       gradientTransform="matrix(0.35904798,0,0,0.237586,325.3217,53.665486)"
       gradientUnits="userSpaceOnUse"
       id="radialGradient17545"
       inkscape:collect="always" />
    <radialGradient
       r="124.44935"
       fy="120.09906"
       fx="168.79971"
       cy="120.09906"
       cx="168.79971"
       gradientTransform="matrix(0.35904798,-1.6597551e-8,1.5566542e-8,0.3367446,325.3217,42.375141)"
       gradientUnits="userSpaceOnUse"
       id="radialGradient163479"
       xlink:href="#linearGradient3606-4"
       inkscape:collect="always" />
    <linearGradient
       inkscape:collect="always"
       id="linearGradient3606-4">
      <stop
         style="stop-color:#fff400;stop-opacity:0.5462963"
         offset="0"
         id="stop3608-5-0" />
      <stop
         style="stop-color:#fff400;stop-opacity:0;"
         offset="1"
         id="stop3610-4" />
    </linearGradient>
    <radialGradient
       inkscape:collect="always"
       xlink:href="#linearGradient4824"
       id="radialGradient4842"
       gradientUnits="userSpaceOnUse"
       cx="117.56223"
       cy="1.6960773"
       fx="117.56223"
       fy="1.6960773"
       r="114.76744"
       gradientTransform="matrix(1.439753,0,0,1,-51.698347,0)" />
    <linearGradient
       gradientTransform="translate(247.54936,406.01026)"
       inkscape:collect="always"
       xlink:href="#linearGradient4859"
       id="linearGradient4865"
       x1="121.54688"
       y1="-8.986186"
       x2="121.54688"
       y2="143.39191"
       gradientUnits="userSpaceOnUse" />
    <linearGradient
       inkscape:collect="always"
       id="linearGradient4859">
      <stop
         style="stop-color:#ffffff;stop-opacity:1;"
         offset="0"
         id="stop4861" />
      <stop
         style="stop-color:#ffffff;stop-opacity:0;"
         offset="1"
         id="stop4863" />
    </linearGradient>
    <radialGradient
       inkscape:collect="always"
       xlink:href="#linearGradient4824"
       id="radialGradient30554"
       gradientUnits="userSpaceOnUse"
       cx="15.593588"
       cy="88.653885"
       fx="15.593588"
       fy="88.653885"
       r="114.76744" />
    <radialGradient
       inkscape:collect="always"
       xlink:href="#linearGradient4824"
       id="radialGradient30556"
       gradientUnits="userSpaceOnUse"
       cx="219.53087"
       cy="98.953751"
       fx="219.53087"
       fy="98.953751"
       r="114.76744" />
    <radialGradient
       inkscape:collect="always"
       xlink:href="#linearGradient3178"
       id="radialGradient30558"
       gradientUnits="userSpaceOnUse"
       gradientTransform="matrix(0.82887149,-1.0804641e-7,1.4152297e-8,0.10856846,231.0724,104.11748)"
       cx="200.60574"
       cy="256.63501"
       fx="200.60574"
       fy="256.63501"
       r="165.41776" />
    <radialGradient
       inkscape:collect="always"
       xlink:href="#linearGradient3582"
       id="radialGradient30560"
       gradientUnits="userSpaceOnUse"
       gradientTransform="matrix(0.5338329,-0.02659974,0.01687691,0.33870439,291.7236,46.972696)"
       cx="181.23116"
       cy="113.8615"
       fx="181.23116"
       fy="113.8615"
       r="124.44935" />
    <radialGradient
       inkscape:collect="always"
       xlink:href="#linearGradient3592"
       id="radialGradient30562"
       gradientUnits="userSpaceOnUse"
       gradientTransform="matrix(0.35904798,0,0,0.237586,325.3217,53.665486)"
       cx="235.3445"
       cy="-16.541117"
       fx="235.3445"
       fy="-16.541117"
       r="124.44935" />
    <radialGradient
       inkscape:collect="always"
       xlink:href="#linearGradient3592"
       id="radialGradient30564"
       gradientUnits="userSpaceOnUse"
       gradientTransform="matrix(0.35904798,0,0,0.237586,325.3217,53.665486)"
       cx="186.34998"
       cy="291.78372"
       fx="186.34998"
       fy="291.78372"
       r="124.44935" />
    <radialGradient
       inkscape:collect="always"
       xlink:href="#linearGradient3606-4"
       id="radialGradient30566"
       gradientUnits="userSpaceOnUse"
       gradientTransform="matrix(0.35904798,-1.6597551e-8,1.5566542e-8,0.3367446,325.3217,42.375141)"
       cx="168.79971"
       cy="120.09906"
       fx="168.79971"
       fy="120.09906"
       r="124.44935" />
    <radialGradient
       inkscape:collect="always"
       xlink:href="#linearGradient4824"
       id="radialGradient30568"
       gradientUnits="userSpaceOnUse"
       gradientTransform="matrix(1.439753,0,0,1,-51.698347,0)"
       cx="117.56223"
       cy="1.6960773"
       fx="117.56223"
       fy="1.6960773"
       r="114.76744" />
    <linearGradient
       inkscape:collect="always"
       xlink:href="#linearGradient4859"
       id="linearGradient30570"
       gradientUnits="userSpaceOnUse"
       gradientTransform="translate(247.54936,406.01026)"
       x1="121.54688"
       y1="-8.986186"
       x2="121.54688"
       y2="143.39191" />
  </defs>
  <sodipodi:namedview
     id="base"
     pagecolor="#ffffff"
     bordercolor="#666666"
     borderopacity="1.0"
     inkscape:pageopacity="0.0"
     inkscape:pageshadow="2"
     inkscape:zoom="0.35"
     inkscape:cx="375"
     inkscape:cy="520"
     inkscape:document-units="px"
     inkscape:current-layer="layer1"
     showgrid="false"
     inkscape:window-width="685"
     inkscape:window-height="485"
     inkscape:window-x="979"
     inkscape:window-y="539"
     inkscape:window-maximized="0" />
  <metadata
     id="metadata30423">
    <rdf:RDF>
      <cc:Work
         rdf:about="">
        <dc:format>image/svg+xml</dc:format>
        <dc:type
           rdf:resource="http://purl.org/dc/dcmitype/StillImage" />
        <dc:title></dc:title>
      </cc:Work>
    </rdf:RDF>
  </metadata>
  <g
     inkscape:label="Calque 1"
     inkscape:groupmode="layer"
     id="layer1"
     transform="translate(0,-796.36218)">
    <g
       id="g30537"
       transform="translate(-247.54967,390.35167)">
      <path
         transform="matrix(1.15625,0,0,1.15625,239.06867,397.70124)"
         d="m 223.03862,116.46352 c 0,58.253 -47.22339,105.47638 -105.47639,105.47638 -58.252997,0 -105.476384,-47.22338 -105.476384,-105.47638 0,-58.253004 47.223387,-105.476391 105.476384,-105.476391 58.253,0 105.47639,47.223387 105.47639,105.476391 z"
         sodipodi:ry="105.47639"
         sodipodi:rx="105.47639"
         sodipodi:cy="116.46352"
         sodipodi:cx="117.56223"
         id="path4820"
         style="fill:#000000;fill-opacity:1;stroke:none"
         sodipodi:type="arc" />
      <path
         sodipodi:type="arc"
         style="fill:none;stroke:url(#radialGradient30554);stroke-width:18.58210373;stroke-miterlimit:4;stroke-opacity:1;stroke-dasharray:none"
         id="path4822"
         sodipodi:cx="117.56223"
         sodipodi:cy="116.46352"
         sodipodi:rx="105.47639"
         sodipodi:ry="105.47639"
         d="m 223.03862,116.46352 c 0,58.253 -47.22339,105.47638 -105.47639,105.47638 -58.252997,0 -105.476384,-47.22338 -105.476384,-105.47638 0,-58.253004 47.223387,-105.476391 105.476384,-105.476391 58.253,0 105.47639,47.223387 105.47639,105.476391 z"
         transform="matrix(1.0667253,0,0,1.0667253,249.59339,408.1276)" />
      <path
         transform="matrix(1.0667253,0,0,1.0667253,249.59339,408.1276)"
         d="m 223.03862,116.46352 c 0,58.253 -47.22339,105.47638 -105.47639,105.47638 -58.252997,0 -105.476384,-47.22338 -105.476384,-105.47638 0,-58.253004 47.223387,-105.476391 105.476384,-105.476391 58.253,0 105.47639,47.223387 105.47639,105.476391 z"
         sodipodi:ry="105.47639"
         sodipodi:rx="105.47639"
         sodipodi:cy="116.46352"
         sodipodi:cx="117.56223"
         id="path4836"
         style="fill:none;stroke:url(#radialGradient30556);stroke-width:18.58210373;stroke-miterlimit:4;stroke-opacity:1;stroke-dasharray:none"
         sodipodi:type="arc" />
      <g
         transform="matrix(1.2167397,0,0,1.2167397,-105.47205,404.41586)"
         id="g17528">
        <path
           d="m 463.26632,141.12631 c 0,1.35361 -0.99421,2.26236 -2.17116,2.26236 l 0,-0.008 c -1.21036,0.008 -2.18625,-0.90049 -2.18625,-2.2541 0,-1.35325 0.97589,-2.25949 2.18625,-2.25949 1.17695,0 2.17116,0.90624 2.17116,2.25949 z m 0.88074,0 c 0,-1.85808 -1.44301,-2.93666 -3.0519,-2.93666 -1.61967,0 -3.06304,1.07858 -3.06304,2.93666 0,1.85699 1.44337,2.93988 3.06304,2.93988 1.60889,0 3.0519,-1.08289 3.0519,-2.93988 m -3.55816,0.24846 0.32673,0 0.75759,1.32955 0.83156,0 -0.83874,-1.38556 c 0.43337,-0.0309 0.78991,-0.23733 0.78991,-0.82079 0,-0.72491 -0.49944,-0.95794 -1.34643,-0.95794 l -1.22472,0 0,3.16429 0.7041,0 0,-1.32955 m 0,-0.5357 0,-0.7619 0.48974,0 c 0.26641,0 0.62941,0.0212 0.62941,0.34648 0,0.35366 -0.18778,0.41542 -0.50195,0.41542 l -0.6172,0"
           style="fill:#000000;fill-opacity:1;fill-rule:nonzero;stroke-width:0;stroke-linecap:butt;stroke-linejoin:miter;stroke-miterlimit:10"
           id="path17" />
        <path
           d="m 443.59444,124.93971 3.80519,10.40987 -7.72815,0 3.92296,-10.40987 z m -4.07556,-4.0533 -8.76866,22.21753 6.19214,0 1.387,-3.92547 10.37756,0 1.31268,3.92547 6.7221,0 -8.83438,-22.2204 -8.38844,0.003 z m -17.60484,22.22615 6.28227,0 0,-22.23297 -6.28334,-10e-4 0.001,22.2344 z m -43.61284,-22.2344 -5.24138,17.62135 -5.02093,-17.61992 -6.77846,-10e-4 7.1709,22.2344 9.05053,0 7.22871,-22.2344 -6.40937,0 z m 25.39403,4.8414 2.70004,0 c 3.91722,0 6.4503,1.75897 6.4503,6.32283 0,4.56494 -2.53308,6.32392 -6.4503,6.32392 l -2.70004,0 0,-12.64675 z m -6.22984,-4.8414 0,22.2344 10.18511,0 c 5.4263,0 7.19784,-0.90193 9.11372,-2.92588 1.35325,-1.42075 2.22861,-4.53837 2.22861,-7.94681 0,-3.12623 -0.74072,-5.9128 -2.03221,-7.64916 -2.32699,-3.1054 -5.67906,-3.71255 -10.68168,-3.71255 l -8.81355,0 z m -59.50951,-0.0309 0,22.26528 6.33522,0 0,-16.90613 4.90891,10e-4 c 1.62541,0 2.78405,0.40501 3.56678,1.24123 0.99277,1.0574 1.39813,2.76431 1.39813,5.88624 l 0,9.77723 6.139,0 0,-12.3017 c 0,-8.7798 -5.59612,-9.96358 -11.0716,-9.96358 l -11.27644,0 z m 49.39872,0.0309 0.003,22.2344 6.27939,0 0,-22.2344 -6.2819,0 z"
           style="fill:#000000;fill-opacity:1;fill-rule:nonzero;stroke-width:0;stroke-linecap:butt;stroke-linejoin:miter;stroke-miterlimit:10"
           id="path19" />
        <path
           id="path3174"
           style="fill:#000000;fill-opacity:1;fill-rule:nonzero;stroke-width:0;stroke-linecap:butt;stroke-linejoin:miter;stroke-miterlimit:10"
           d="m 354.83957,80.197661 c 0,0 8.08002,-11.92147 24.21312,-13.154441 l 0,-4.325451 c -17.86946,1.435115 -33.3436,16.569705 -33.3436,16.569705 0,0 8.76425,25.336576 33.3436,27.656386 l 0,-4.59725 C 361.01484,100.07707 354.83957,80.197661 354.83957,80.197661 z m 24.21312,13.005795 0,4.210196 c -13.63233,-2.430396 -17.41634,-16.60166 -17.41634,-16.60166 0,0 6.54545,-7.250974 17.41634,-8.426497 l 0,4.61987 c -0.008,0 -0.014,-0.0025 -0.0208,-0.0025 -5.70563,-0.684705 -10.16286,4.645003 -10.16286,4.645003 0,0 2.4979,8.973328 10.18368,11.555601 m 0,-38.463015 0,7.977328 c 0.52457,-0.04057 1.04914,-0.07432 1.57658,-0.09228 20.31565,-0.684704 33.55268,16.661981 33.55268,16.661981 0,0 -15.20317,18.486662 -31.04222,18.486662 -1.45163,0 -2.81062,-0.134643 -4.08704,-0.360484 l 0,4.932959 c 1.09151,0.13859 2.22323,0.2201 3.40414,0.2201 14.73927,0 25.39833,-7.527443 35.71952,-16.436501 1.71123,1.370487 8.71697,4.704247 10.15711,6.164136 -9.8135,8.216095 -32.68449,14.839095 -45.65079,14.839095 -1.24985,0 -2.45015,-0.0758 -3.62998,-0.18958 l 0,6.93142 56.02298,0 0,-59.13484 -56.02298,0 z m 0,17.645054 0,-5.342275 c 0.51919,-0.03626 1.04232,-0.06427 1.57658,-0.08115 14.60895,-0.458863 24.19373,12.554113 24.19373,12.554113 0,0 -10.35207,14.377358 -21.45168,14.377358 -1.5974,0 -3.02965,-0.256719 -4.31863,-0.69009 l 0,-16.198091 c 5.68732,0.687218 6.83197,3.199477 10.25118,8.899363 l 7.60464,-6.412597 c 0,0 -5.55124,-7.280416 -14.90911,-7.280416 -1.0179,0 -1.99128,0.07145 -2.94671,0.17378" />
        <path
           d="m 354.83957,76.607181 c 0,0 8.08002,-11.92147 24.21312,-13.154441 l 0,-4.325451 c -17.86946,1.435115 -33.3436,16.569705 -33.3436,16.569705 0,0 8.76425,25.336576 33.3436,27.656386 l 0,-4.597247 C 361.01484,96.48659 354.83957,76.607181 354.83957,76.607181 z m 24.21312,13.005795 0,4.210196 c -13.63233,-2.430395 -17.41634,-16.60166 -17.41634,-16.60166 0,0 6.54545,-7.250974 17.41634,-8.426497 l 0,4.61987 c -0.008,0 -0.014,-0.0025 -0.0208,-0.0025 -5.70563,-0.684705 -10.16286,4.645004 -10.16286,4.645004 0,0 2.4979,8.973327 10.18368,11.5556 m 0,-38.463015 0,7.977328 c 0.52457,-0.04057 1.04914,-0.07432 1.57658,-0.09228 20.31565,-0.684705 33.55268,16.66198 33.55268,16.66198 0,0 -15.20317,18.486663 -31.04222,18.486663 -1.45163,0 -2.81062,-0.134643 -4.08704,-0.360485 l 0,4.932961 c 1.09151,0.138592 2.22323,0.220096 3.40414,0.220096 14.73927,0 25.39833,-7.527441 35.71952,-16.436498 1.71123,1.370486 8.71697,4.704246 10.15711,6.164135 -9.8135,8.216095 -32.68449,14.839096 -45.65079,14.839096 -1.24985,0 -2.45015,-0.0758 -3.62998,-0.18958 l 0,6.93142 56.02298,0 0,-59.134841 -56.02298,0 z m 0,17.645054 0,-5.342275 c 0.51919,-0.03626 1.04232,-0.06427 1.57658,-0.08114 14.60895,-0.458863 24.19373,12.554113 24.19373,12.554113 0,0 -10.35207,14.377358 -21.45168,14.377358 -1.5974,0 -3.02965,-0.256719 -4.31863,-0.69009 l 0,-16.198091 c 5.68732,0.687218 6.83197,3.199477 10.25118,8.899363 l 7.60464,-6.412596 c 0,0 -5.55124,-7.280416 -14.90911,-7.280416 -1.0179,0 -1.99128,0.07145 -2.94671,0.173779"
           style="fill:#74b71b;fill-opacity:1;fill-rule:nonzero;stroke-width:0;stroke-linecap:butt;stroke-linejoin:miter;stroke-miterlimit:10"
           id="path21" />
        <path
           id="path3176"
           style="fill:url(#radialGradient30558);fill-opacity:1;fill-rule:nonzero;stroke-width:0;stroke-linecap:butt;stroke-linejoin:miter;stroke-miterlimit:10"
           d="m 443.59444,124.93971 3.80519,10.40987 -7.72815,0 3.92296,-10.40987 z m -4.07556,-4.0533 -8.76866,22.21753 6.19214,0 1.387,-3.92547 10.37756,0 1.31268,3.92547 6.7221,0 -8.83438,-22.2204 -8.38844,0.003 z m -17.60484,22.22615 6.28227,0 0,-22.23297 -6.28334,-10e-4 0.001,22.2344 z m -43.61284,-22.2344 -5.24138,17.62135 -5.02093,-17.61992 -6.77846,-10e-4 7.1709,22.2344 9.05053,0 7.22871,-22.2344 -6.40937,0 z m 25.39403,4.8414 2.70004,0 c 3.91722,0 6.4503,1.75897 6.4503,6.32283 0,4.56494 -2.53308,6.32392 -6.4503,6.32392 l -2.70004,0 0,-12.64675 z m -6.22984,-4.8414 0,22.2344 10.18511,0 c 5.4263,0 7.19784,-0.90193 9.11372,-2.92588 1.35325,-1.42075 2.22861,-4.53837 2.22861,-7.94681 0,-3.12623 -0.74072,-5.9128 -2.03221,-7.64916 -2.32699,-3.1054 -5.67906,-3.71255 -10.68168,-3.71255 l -8.81355,0 z m -59.50951,-0.0309 0,22.26528 6.33522,0 0,-16.90613 4.90891,10e-4 c 1.62541,0 2.78405,0.40501 3.56678,1.24123 0.99277,1.0574 1.39813,2.76431 1.39813,5.88624 l 0,9.77723 6.139,0 0,-12.3017 c 0,-8.7798 -5.59612,-9.96358 -11.0716,-9.96358 l -11.27644,0 z m 49.39872,0.0309 0.003,22.2344 6.27939,0 0,-22.2344 -6.2819,0 z" />
        <path
           id="path3580"
           style="fill:url(#radialGradient30560);fill-opacity:1;fill-rule:nonzero;stroke-width:0;stroke-linecap:butt;stroke-linejoin:miter;stroke-miterlimit:10"
           d="m 354.83957,76.607181 c 0,0 8.08002,-11.92147 24.21312,-13.154441 l 0,-4.325451 c -17.86946,1.435115 -33.3436,16.569705 -33.3436,16.569705 0,0 8.76425,25.336576 33.3436,27.656386 l 0,-4.597247 C 361.01484,96.48659 354.83957,76.607181 354.83957,76.607181 z m 24.21312,13.005795 0,4.210196 c -13.63233,-2.430395 -17.41634,-16.60166 -17.41634,-16.60166 0,0 6.54545,-7.250974 17.41634,-8.426497 l 0,4.61987 c -0.008,0 -0.014,-0.0025 -0.0208,-0.0025 -5.70563,-0.684705 -10.16286,4.645004 -10.16286,4.645004 0,0 2.4979,8.973327 10.18368,11.5556 m 0,-38.463015 0,7.977328 c 0.52457,-0.04057 1.04914,-0.07432 1.57658,-0.09228 20.31565,-0.684705 33.55268,16.66198 33.55268,16.66198 0,0 -15.20317,18.486663 -31.04222,18.486663 -1.45163,0 -2.81062,-0.134643 -4.08704,-0.360485 l 0,4.932961 c 1.09151,0.138592 2.22323,0.220096 3.40414,0.220096 14.73927,0 25.39833,-7.527441 35.71952,-16.436498 1.71123,1.370486 8.71697,4.704246 10.15711,6.164135 -9.8135,8.216095 -32.68449,14.839096 -45.65079,14.839096 -1.24985,0 -2.45015,-0.0758 -3.62998,-0.18958 l 0,6.93142 56.02298,0 0,-59.134841 -56.02298,0 z m 0,17.645054 0,-5.342275 c 0.51919,-0.03626 1.04232,-0.06427 1.57658,-0.08114 14.60895,-0.458863 24.19373,12.554113 24.19373,12.554113 0,0 -10.35207,14.377358 -21.45168,14.377358 -1.5974,0 -3.02965,-0.256719 -4.31863,-0.69009 l 0,-16.198091 c 5.68732,0.687218 6.83197,3.199477 10.25118,8.899363 l 7.60464,-6.412596 c 0,0 -5.55124,-7.280416 -14.90911,-7.280416 -1.0179,0 -1.99128,0.07145 -2.94671,0.173779" />
        <path
           d="m 354.83957,76.607181 c 0,0 8.08002,-11.92147 24.21312,-13.154441 l 0,-4.325451 c -17.86946,1.435115 -33.3436,16.569705 -33.3436,16.569705 0,0 8.76425,25.336576 33.3436,27.656386 l 0,-4.597247 C 361.01484,96.48659 354.83957,76.607181 354.83957,76.607181 z m 24.21312,13.005795 0,4.210196 c -13.63233,-2.430395 -17.41634,-16.60166 -17.41634,-16.60166 0,0 6.54545,-7.250974 17.41634,-8.426497 l 0,4.61987 c -0.008,0 -0.014,-0.0025 -0.0208,-0.0025 -5.70563,-0.684705 -10.16286,4.645004 -10.16286,4.645004 0,0 2.4979,8.973327 10.18368,11.5556 m 0,-38.463015 0,7.977328 c 0.52457,-0.04057 1.04914,-0.07432 1.57658,-0.09228 20.31565,-0.684705 33.55268,16.66198 33.55268,16.66198 0,0 -15.20317,18.486663 -31.04222,18.486663 -1.45163,0 -2.81062,-0.134643 -4.08704,-0.360485 l 0,4.932961 c 1.09151,0.138592 2.22323,0.220096 3.40414,0.220096 14.73927,0 25.39833,-7.527441 35.71952,-16.436498 1.71123,1.370486 8.71697,4.704246 10.15711,6.164135 -9.8135,8.216095 -32.68449,14.839096 -45.65079,14.839096 -1.24985,0 -2.45015,-0.0758 -3.62998,-0.18958 l 0,6.93142 56.02298,0 0,-59.134841 -56.02298,0 z m 0,17.645054 0,-5.342275 c 0.51919,-0.03626 1.04232,-0.06427 1.57658,-0.08114 14.60895,-0.458863 24.19373,12.554113 24.19373,12.554113 0,0 -10.35207,14.377358 -21.45168,14.377358 -1.5974,0 -3.02965,-0.256719 -4.31863,-0.69009 l 0,-16.198091 c 5.68732,0.687218 6.83197,3.199477 10.25118,8.899363 l 7.60464,-6.412596 c 0,0 -5.55124,-7.280416 -14.90911,-7.280416 -1.0179,0 -1.99128,0.07145 -2.94671,0.173779"
           style="fill:url(#radialGradient30562);fill-opacity:1;fill-rule:nonzero;stroke-width:0;stroke-linecap:butt;stroke-linejoin:miter;stroke-miterlimit:10"
           id="path3590" />
        <path
           id="path3600"
           style="fill:url(#radialGradient30564);fill-opacity:1;fill-rule:nonzero;stroke-width:0;stroke-linecap:butt;stroke-linejoin:miter;stroke-miterlimit:10"
           d="m 354.83957,76.607181 c 0,0 8.08002,-11.92147 24.21312,-13.154441 l 0,-4.325451 c -17.86946,1.435115 -33.3436,16.569705 -33.3436,16.569705 0,0 8.76425,25.336576 33.3436,27.656386 l 0,-4.597247 C 361.01484,96.48659 354.83957,76.607181 354.83957,76.607181 z m 24.21312,13.005795 0,4.210196 c -13.63233,-2.430395 -17.41634,-16.60166 -17.41634,-16.60166 0,0 6.54545,-7.250974 17.41634,-8.426497 l 0,4.61987 c -0.008,0 -0.014,-0.0025 -0.0208,-0.0025 -5.70563,-0.684705 -10.16286,4.645004 -10.16286,4.645004 0,0 2.4979,8.973327 10.18368,11.5556 m 0,-38.463015 0,7.977328 c 0.52457,-0.04057 1.04914,-0.07432 1.57658,-0.09228 20.31565,-0.684705 33.55268,16.66198 33.55268,16.66198 0,0 -15.20317,18.486663 -31.04222,18.486663 -1.45163,0 -2.81062,-0.134643 -4.08704,-0.360485 l 0,4.932961 c 1.09151,0.138592 2.22323,0.220096 3.40414,0.220096 14.73927,0 25.39833,-7.527441 35.71952,-16.436498 1.71123,1.370486 8.71697,4.704246 10.15711,6.164135 -9.8135,8.216095 -32.68449,14.839096 -45.65079,14.839096 -1.24985,0 -2.45015,-0.0758 -3.62998,-0.18958 l 0,6.93142 56.02298,0 0,-59.134841 -56.02298,0 z m 0,17.645054 0,-5.342275 c 0.51919,-0.03626 1.04232,-0.06427 1.57658,-0.08114 14.60895,-0.458863 24.19373,12.554113 24.19373,12.554113 0,0 -10.35207,14.377358 -21.45168,14.377358 -1.5974,0 -3.02965,-0.256719 -4.31863,-0.69009 l 0,-16.198091 c 5.68732,0.687218 6.83197,3.199477 10.25118,8.899363 l 7.60464,-6.412596 c 0,0 -5.55124,-7.280416 -14.90911,-7.280416 -1.0179,0 -1.99128,0.07145 -2.94671,0.173779" />
        <path
           d="m 354.83957,76.607181 c 0,0 8.08002,-11.92147 24.21312,-13.154441 l 0,-4.325451 c -17.86946,1.435115 -33.3436,16.569705 -33.3436,16.569705 0,0 8.76425,25.336576 33.3436,27.656386 l 0,-4.597247 C 361.01484,96.48659 354.83957,76.607181 354.83957,76.607181 z m 24.21312,13.005795 0,4.210196 c -13.63233,-2.430395 -17.41634,-16.60166 -17.41634,-16.60166 0,0 6.54545,-7.250974 17.41634,-8.426497 l 0,4.61987 c -0.008,0 -0.014,-0.0025 -0.0208,-0.0025 -5.70563,-0.684705 -10.16286,4.645004 -10.16286,4.645004 0,0 2.4979,8.973327 10.18368,11.5556 m 0,-38.463015 0,7.977328 c 0.52457,-0.04057 1.04914,-0.07432 1.57658,-0.09228 20.31565,-0.684705 33.55268,16.66198 33.55268,16.66198 0,0 -15.20317,18.486663 -31.04222,18.486663 -1.45163,0 -2.81062,-0.134643 -4.08704,-0.360485 l 0,4.932961 c 1.09151,0.138592 2.22323,0.220096 3.40414,0.220096 14.73927,0 25.39833,-7.527441 35.71952,-16.436498 1.71123,1.370486 8.71697,4.704246 10.15711,6.164135 -9.8135,8.216095 -32.68449,14.839096 -45.65079,14.839096 -1.24985,0 -2.45015,-0.0758 -3.62998,-0.18958 l 0,6.93142 56.02298,0 0,-59.134841 -56.02298,0 z m 0,17.645054 0,-5.342275 c 0.51919,-0.03626 1.04232,-0.06427 1.57658,-0.08114 14.60895,-0.458863 24.19373,12.554113 24.19373,12.554113 0,0 -10.35207,14.377358 -21.45168,14.377358 -1.5974,0 -3.02965,-0.256719 -4.31863,-0.69009 l 0,-16.198091 c 5.68732,0.687218 6.83197,3.199477 10.25118,8.899363 l 7.60464,-6.412596 c 0,0 -5.55124,-7.280416 -14.90911,-7.280416 -1.0179,0 -1.99128,0.07145 -2.94671,0.173779"
           style="fill:url(#radialGradient30566);fill-opacity:1;fill-rule:nonzero;stroke-width:0;stroke-linecap:butt;stroke-linejoin:miter;stroke-miterlimit:10"
           id="path3604" />
      </g>
      <path
         sodipodi:type="arc"
         style="fill:none;stroke:url(#radialGradient30568);stroke-width:18.58210373;stroke-miterlimit:4;stroke-opacity:1;stroke-dasharray:none"
         id="path4840"
         sodipodi:cx="117.56223"
         sodipodi:cy="116.46352"
         sodipodi:rx="105.47639"
         sodipodi:ry="105.47639"
         d="m 223.03862,116.46352 c 0,58.253 -47.22339,105.47638 -105.47639,105.47638 -58.252997,0 -105.476384,-47.22338 -105.476384,-105.47638 0,-58.253004 47.223387,-105.476391 105.476384,-105.476391 58.253,0 105.47639,47.223387 105.47639,105.476391 z"
         transform="matrix(1.0667253,0,0,1.0667253,249.59339,408.1276)" />
      <path
         id="path4852"
         d="m 375.39311,435.47901 c -53.52612,0 -96.98247,43.00013 -97.75,96.34374 10.00972,-5.92814 19.73393,-10.88682 25.9375,-13.75 14.28326,-6.59228 49.44541,-6.58732 61.53125,-1.09375 12.08584,5.49356 32.95038,9.88345 43.9375,1.09375 10.98712,-8.78969 8.80204,-16.48658 31.875,-26.37499 5.67666,-2.43286 12.40919,-4.6447 19.625,-6.53125 -16.79408,-29.65648 -48.64174,-49.6875 -85.15625,-49.6875 z"
         style="fill:url(#linearGradient30570);fill-opacity:1;stroke:none" />
    </g>
  </g>
</svg>
