<?xml version="1.0" encoding="UTF-8" standalone="no"?>
<!-- Generator: Adobe Illustrator 12.0.0, SVG Export Plug-In . SVG Version: 6.00 Build 51448)  -->
<svg
   xmlns:dc="http://purl.org/dc/elements/1.1/"
   xmlns:cc="http://creativecommons.org/ns#"
   xmlns:rdf="http://www.w3.org/1999/02/22-rdf-syntax-ns#"
   xmlns:svg="http://www.w3.org/2000/svg"
   xmlns="http://www.w3.org/2000/svg"
   xmlns:xlink="http://www.w3.org/1999/xlink"
   xmlns:sodipodi="http://sodipodi.sourceforge.net/DTD/sodipodi-0.dtd"
   xmlns:inkscape="http://www.inkscape.org/namespaces/inkscape"
   height="135.772"
   id="Layer_1"
   inkscape:version="0.46"
   sodipodi:docbase="F:\openclip\svg da inviare"
   sodipodi:docname="cairo-dock-cancel.svg"
   sodipodi:version="0.32"
   space="preserve"
   style="overflow:visible;enable-background:new 0 0 135.81 135.772;"
   version="1.1"
   viewBox="0 0 135.81 135.772"
   width="135.81"
   inkscape:output_extension="org.inkscape.output.svg.inkscape">
  <metadata
     id="metadata3">
    <rdf:RDF>
      <cc:Work
         rdf:about="">
        <dc:title>Tasto 11</dc:title>
        <dc:description />
        <dc:subject>
          <rdf:Bag>
            <rdf:li>unsorted</rdf:li>
          </rdf:Bag>
        </dc:subject>
        <dc:publisher>
          <cc:Agent
             rdf:about="http://www.openclipart.org/">
            <dc:title>Open Clip Art Library</dc:title>
          </cc:Agent>
        </dc:publisher>
        <dc:creator>
          <cc:Agent>
            <dc:title>Architetto Francesco Rollandin</dc:title>
          </cc:Agent>
        </dc:creator>
        <dc:rights>
          <cc:Agent>
            <dc:title>Architetto Francesco Rollandin</dc:title>
          </cc:Agent>
        </dc:rights>
        <dc:date />
        <dc:format>image/svg+xml</dc:format>
        <dc:type
           rdf:resource="http://purl.org/dc/dcmitype/StillImage" />
        <cc:license
           rdf:resource="http://web.resource.org/cc/PublicDomain" />
        <dc:language>en</dc:language>
      </cc:Work>
      <cc:License
         rdf:about="http://web.resource.org/cc/PublicDomain">
        <cc:permits
           rdf:resource="http://web.resource.org/cc/Reproduction" />
        <cc:permits
           rdf:resource="http://web.resource.org/cc/Distribution" />
        <cc:permits
           rdf:resource="http://web.resource.org/cc/DerivativeWorks" />
      </cc:License>
    </rdf:RDF>
  </metadata>
  <defs
     id="defs23">
    <inkscape:perspective
       sodipodi:type="inkscape:persp3d"
       inkscape:vp_x="0 : 67.886002 : 1"
       inkscape:vp_y="0 : 1000 : 0"
       inkscape:vp_z="135.81 : 67.886002 : 1"
       inkscape:persp3d-origin="67.904999 : 45.257334 : 1"
       id="perspective17" />
    <radialGradient
       r="63.1152"
       id="XMLID_2_"
       gradientUnits="userSpaceOnUse"
       cy="67.8623"
       cx="67.9199">
      <stop
         style="stop-color:#434548;stop-opacity:1;"
         offset="0"
         id="stop8" />
      <stop
         style="stop-color:#262729;stop-opacity:1;"
         offset="1"
         id="stop10" />
    </radialGradient>
    <radialGradient
       inkscape:collect="always"
       xlink:href="#XMLID_2_"
       id="radialGradient2398"
       gradientUnits="userSpaceOnUse"
       cx="67.9199"
       cy="67.8623"
       r="63.1152" />
    <linearGradient
       inkscape:collect="always"
       xlink:href="#XMLID_2_"
       id="linearGradient3177"
       x1="68.691887"
       y1="8.7577801"
       x2="68.690651"
       y2="31.943876"
       gradientUnits="userSpaceOnUse" />
    <linearGradient
       inkscape:collect="always"
       xlink:href="#XMLID_2_"
       id="linearGradient3185"
       x1="33.094299"
       y1="119.80628"
       x2="54.052254"
       y2="75.303238"
       gradientUnits="userSpaceOnUse" />
  </defs>
  <sodipodi:namedview
     bordercolor="#666666"
     borderopacity="1.0"
     id="base"
     inkscape:current-layer="Layer_1"
     inkscape:cx="-189.92794"
     inkscape:cy="275.96262"
     inkscape:pageopacity="0.0"
     inkscape:pageshadow="2"
     inkscape:window-height="810"
     inkscape:window-width="787"
     inkscape:window-x="98"
     inkscape:window-y="109"
     inkscape:zoom="0.66287598"
     pagecolor="#ffffff"
     showgrid="false" />
  <path
     style="fill:#ffffff;fill-opacity:1"
     id="path5"
     d="M 0,67.863 C 0,102.462 27.14,132.324 61.622,135.494 C 96.117,138.665 128.394,114.409 134.705,80.295 C 141.014,46.191 119.727,11.835 86.302,2.461 C 52.865,-6.917 16.735,11.289 4.405,43.747 C 1.485,51.434 0,59.64 0,67.863" />
  <path
     style="fill:url(#radialGradient2398)"
     id="path12"
     d="M 4.804,67.863 C 4.804,102.258 33.523,130.978 67.919,130.978 C 102.315,130.978 131.035,102.258 131.035,67.863 C 131.035,33.467 102.315,4.747 67.919,4.747 C 33.523,4.747 4.804,33.466 4.804,67.863" />
  <path
     style="fill:url(#linearGradient3185);fill-opacity:1"
     id="path14"
     d="M 10.891,43.33 C 5.791,73.056 23.545,102.912 52.093,112.639 C 82.371,122.957 116.442,107.707 129.104,78.379 C 123.02,113.872 86.526,137.206 51.753,127.821 C 15.85,118.132 -3.907,77.562 10.891,43.33" />
  <path
     style="fill:url(#linearGradient3177);fill-opacity:1"
     id="path16"
     d="M 28.499,39.845 C 37.228,41.65 47.278,29.285 54.846,26.138 C 68.986,20.262 86.648,22.992 99.457,30.994 C 113.007,39.46 122.645,55.721 124.127,71.683 C 124.132,71.729 124.132,71.736 124.128,71.707 C 123.128,62.04 123.803,52.953 120.122,43.611 C 114.023,28.123 100.832,15.996 84.93,11.123 C 68.487,6.084 50.506,9.291 36.34,18.891 C 31.966,21.857 15.129,37.079 28.499,39.845" />
  <path
     style="fill:#ffffff"
     id="path18"
     d="M 105.449,85.473 C 99.826,79.851 94.203,74.228 88.581,68.603 C 87.078,67.1 100.904,54.882 102.9,52.886 C 110.568,45.215 103.29,40.51 97.235,34.455 C 94.385,31.607 90.403,27.051 86.285,31.169 C 83.247,33.08 80.555,36.9 78.028,39.426 C 75.031,42.423 72.034,45.42 69.037,48.419 C 68.32,49.136 64.218,44.237 63.527,43.545 C 59.433,39.451 49.589,25.07 43.046,31.61 C 39.104,35.55 26.076,44.428 32.302,50.655 C 38.051,56.404 43.801,62.154 49.552,67.905 C 44.956,72.499 25.315,86.474 32.423,93.58 C 36.106,97.261 40.178,103.295 44.891,105.655 C 50.257,108.339 56.266,99.521 59.407,96.381 C 60.861,94.927 67.873,86.226 69.415,87.769 C 74.187,92.541 78.962,97.316 83.736,102.09 C 88.26,106.613 91.702,106.885 96.346,102.24 C 99.733,98.853 111.007,91.022 105.449,85.473" />
  <path
     style="fill:#000000;fill-opacity:1"
     id="path20"
     d="M 47.314,28.939 C 42.882,28.939 38.561,35.183 35.772,37.971 C 32.21,41.533 26.757,46.019 31.878,51.139 C 35.403,54.664 38.928,58.191 42.455,61.718 C 45.041,64.303 49.936,66.608 46.958,69.583 C 42.273,74.271 24.604,86.665 31.969,94.034 C 35.339,97.403 38.708,100.772 42.077,104.142 C 46.708,108.773 50.639,106.052 54.358,102.334 C 58.338,98.355 62.318,94.376 66.296,90.397 C 69.884,86.811 70.451,89.713 73.871,93.133 C 77.604,96.864 81.338,100.596 85.069,104.329 C 89.939,109.2 93.981,105.512 97.691,101.803 C 100.555,98.942 105.615,95.505 107.222,91.626 C 109.414,86.334 102.467,81.576 99.29,78.398 C 95.853,74.965 92.422,71.534 88.987,68.099 C 88.576,67.688 97.365,59.326 98.214,58.477 C 101.823,54.868 111.636,47.951 105.904,42.21 C 103.16,38.128 98.331,34.638 94.842,31.151 C 87.236,23.548 73.593,42.932 68.714,47.822 C 65.214,44.323 61.715,40.826 58.215,37.327 C 55.521,34.632 51.582,28.986 47.314,28.939 M 43.939,104.182 C 39.305,99.549 26.84,91.528 33.586,84.78 C 35.78,82.585 51.21,68.653 49.794,67.24 C 46.325,63.769 42.854,60.3 39.385,56.829 C 37.013,54.456 31.042,50.344 31.042,46.502 C 31.042,42.555 37.242,38.321 39.695,35.869 C 42.664,32.902 46.619,27.557 50.993,31.929 C 52.699,33.635 68.638,49.728 68.795,49.571 C 74.407,43.959 80.108,35.932 86.739,31.627 C 91.104,27.268 95.963,34.096 98.739,36.87 C 101.587,39.72 109.562,45.306 104.993,49.881 C 100.687,56.515 92.659,62.215 87.046,67.829 C 87.022,67.854 86.995,67.88 86.969,67.906 C 92.609,73.546 100.663,79.267 104.993,85.929 C 109.57,90.497 101.585,96.092 98.739,98.94 C 95.647,102.032 91.095,108.54 86.436,103.878 C 84.088,101.53 69.457,85.418 68.051,86.824 C 64.396,90.479 49.744,110.009 43.939,104.182" />
</svg>
