<?xml version="1.0" encoding="UTF-8" standalone="no"?>
<!-- Generator: Adobe Illustrator 12.0.0, SVG Export Plug-In . SVG Version: 6.00 Build 51448)  -->
<svg
   xmlns:dc="http://purl.org/dc/elements/1.1/"
   xmlns:cc="http://creativecommons.org/ns#"
   xmlns:rdf="http://www.w3.org/1999/02/22-rdf-syntax-ns#"
   xmlns:svg="http://www.w3.org/2000/svg"
   xmlns="http://www.w3.org/2000/svg"
   xmlns:xlink="http://www.w3.org/1999/xlink"
   xmlns:sodipodi="http://sodipodi.sourceforge.net/DTD/sodipodi-0.dtd"
   xmlns:inkscape="http://www.inkscape.org/namespaces/inkscape"
   height="135.788"
   id="Layer_1"
   inkscape:version="0.46"
   sodipodi:docbase="F:\openclip\svg da inviare"
   sodipodi:docname="cairo-dock-ok.svg"
   sodipodi:version="0.32"
   space="preserve"
   style="overflow:visible;enable-background:new 0 0 135.828 135.788;"
   version="1.1"
   viewBox="0 0 135.828 135.788"
   width="135.828"
   inkscape:output_extension="org.inkscape.output.svg.inkscape">
  <metadata
     id="metadata3">
    <rdf:RDF>
      <cc:Work
         rdf:about="">
        <dc:title>Tasto 7</dc:title>
        <dc:description />
        <dc:subject>
          <rdf:Bag>
            <rdf:li>unsorted</rdf:li>
          </rdf:Bag>
        </dc:subject>
        <dc:publisher>
          <cc:Agent
             rdf:about="http://www.openclipart.org/">
            <dc:title>Open Clip Art Library</dc:title>
          </cc:Agent>
        </dc:publisher>
        <dc:creator>
          <cc:Agent>
            <dc:title>Architetto Francesco Rollandin</dc:title>
          </cc:Agent>
        </dc:creator>
        <dc:rights>
          <cc:Agent>
            <dc:title>Architetto Francesco Rollandin</dc:title>
          </cc:Agent>
        </dc:rights>
        <dc:date />
        <dc:format>image/svg+xml</dc:format>
        <dc:type
           rdf:resource="http://purl.org/dc/dcmitype/StillImage" />
        <cc:license
           rdf:resource="http://web.resource.org/cc/PublicDomain" />
        <dc:language>en</dc:language>
      </cc:Work>
      <cc:License
         rdf:about="http://web.resource.org/cc/PublicDomain">
        <cc:permits
           rdf:resource="http://web.resource.org/cc/Reproduction" />
        <cc:permits
           rdf:resource="http://web.resource.org/cc/Distribution" />
        <cc:permits
           rdf:resource="http://web.resource.org/cc/DerivativeWorks" />
      </cc:License>
    </rdf:RDF>
  </metadata>
  <defs
     id="defs23">
    <inkscape:perspective
       sodipodi:type="inkscape:persp3d"
       inkscape:vp_x="0 : 67.893997 : 1"
       inkscape:vp_y="0 : 1000 : 0"
       inkscape:vp_z="135.828 : 67.893997 : 1"
       inkscape:persp3d-origin="67.914001 : 45.262665 : 1"
       id="perspective17" />
    <radialGradient
       r="63.1235"
       id="XMLID_2_"
       gradientUnits="userSpaceOnUse"
       cy="67.8696"
       cx="67.9282">
      <stop
         style="stop-color:#414346;stop-opacity:1;"
         offset="0"
         id="stop8" />
      <stop
         style="stop-color:#262729;stop-opacity:1;"
         offset="1"
         id="stop10" />
    </radialGradient>
    <radialGradient
       inkscape:collect="always"
       xlink:href="#XMLID_2_"
       id="radialGradient2398"
       gradientUnits="userSpaceOnUse"
       cx="67.9282"
       cy="67.8696"
       r="63.1235" />
    <linearGradient
       inkscape:collect="always"
       xlink:href="#XMLID_2_"
       id="linearGradient3177"
       x1="67.191231"
       y1="8.7592554"
       x2="67.944862"
       y2="40.245869"
       gradientUnits="userSpaceOnUse" />
  </defs>
  <sodipodi:namedview
     bordercolor="#666666"
     borderopacity="1.0"
     id="base"
     inkscape:current-layer="Layer_1"
     inkscape:cx="67.67974"
     inkscape:cy="91.336115"
     inkscape:pageopacity="0.0"
     inkscape:pageshadow="2"
     inkscape:window-height="810"
     inkscape:window-width="787"
     inkscape:window-x="98"
     inkscape:window-y="133"
     inkscape:zoom="3.7493513"
     pagecolor="#ffffff"
     showgrid="false" />
  <path
     style="fill:#ffffff;fill-opacity:1"
     id="path5"
     d="M 0,67.872 C 0,102.476 27.145,132.339 61.629,135.51 C 96.128,138.682 128.408,114.423 134.722,80.306 C 141.031,46.197 119.74,11.837 86.312,2.462 C 52.872,-6.916 16.737,11.293 4.406,43.753 C 1.485,51.44 0,59.648 0,67.872" />
  <path
     style="fill:url(#radialGradient2398)"
     id="path12"
     d="M 4.805,67.872 C 4.805,102.272 33.528,130.994 67.929,130.994 C 102.329,130.994 131.052,102.272 131.052,67.872 C 131.052,33.471 102.331,4.747 67.929,4.747 C 33.527,4.747 4.805,33.471 4.805,67.872" />
  <path
     style="fill:url(#linearGradient3177);fill-opacity:1"
     id="path16"
     d="M 28.502,39.848 C 37.231,41.656 47.283,29.289 54.853,26.141 C 68.994,20.264 86.659,22.994 99.47,30.998 C 113.021,39.465 122.66,55.727 124.143,71.69 C 124.147,71.737 124.147,71.745 124.143,71.714 C 123.142,62.047 123.818,52.961 120.137,43.616 C 114.037,28.126 100.845,15.997 84.941,11.124 C 68.495,6.086 50.512,9.292 36.345,18.893 C 31.97,21.858 15.131,37.081 28.502,39.848" />
  <path
     style="fill:#000000;fill-opacity:1"
     id="path18"
     d="M 98.494,44.133 C 86.456,54.562 74.415,64.986 62.382,75.419 C 56.471,68.597 50.563,61.775 44.653,54.953 C 42.303,52.241 40.119,49.051 36.455,48.068 C 30.508,46.472 22.801,51.935 21.544,57.875 C 19.849,65.889 31.187,74.983 35.785,80.29 C 41.05,86.367 46.127,92.686 51.371,98.737 C 58.559,107.029 64.928,104.03 71.802,98.074 C 79.525,91.382 87.249,84.691 94.971,78 C 101.044,72.738 107.116,67.479 113.187,62.218 C 123.653,53.151 108.883,35.131 98.494,44.133 M 62.877,77.36 C 69.197,71.885 75.515,66.411 81.835,60.936 C 87.775,55.79 94.264,47.808 101.43,44.321 C 107.58,41.331 115.799,48.408 115.335,54.866 C 115.055,58.772 112.002,60.878 109.333,63.188 C 101.173,70.259 93.013,77.329 84.852,84.399 C 78.642,89.78 72.43,95.16 66.221,100.54 C 58.349,107.36 52.325,96.647 47.793,91.416 C 40.751,83.288 33.71,75.161 26.667,67.034 C 23.729,63.643 21.563,59.465 24.643,55.201 C 28.144,50.358 35.384,46.993 40.037,52.363 C 42.896,55.664 60.84,78.702 62.877,77.36" />
  <path
     style="fill:#ffffff"
     id="path20"
     d="M 114.062,48.424 C 104.437,36.227 94.896,48.434 86.774,55.471 C 78.614,62.542 70.453,69.613 62.291,76.683 C 57.247,70.86 52.204,65.038 47.16,59.216 C 40.872,51.958 35.301,44.496 25.737,52.786 C 17.456,59.965 25.968,67.592 30.879,73.263 C 37.04,80.373 43.2,87.485 49.363,94.595 C 54.134,100.103 59.424,107.615 67.22,100.859 C 72.926,95.917 78.632,90.973 84.336,86.031 C 91.661,79.684 98.985,73.339 106.312,66.992 C 111.518,62.48 120.762,56.157 114.062,48.424" />
</svg>
