<?xml version="1.0" encoding="UTF-8" standalone="no"?>
<!-- Created with Inkscape (http://www.inkscape.org/) -->
<svg
   xmlns:dc="http://purl.org/dc/elements/1.1/"
   xmlns:cc="http://creativecommons.org/ns#"
   xmlns:rdf="http://www.w3.org/1999/02/22-rdf-syntax-ns#"
   xmlns:svg="http://www.w3.org/2000/svg"
   xmlns="http://www.w3.org/2000/svg"
   xmlns:xlink="http://www.w3.org/1999/xlink"
   xmlns:sodipodi="http://sodipodi.sourceforge.net/DTD/sodipodi-0.dtd"
   xmlns:inkscape="http://www.inkscape.org/namespaces/inkscape"
   width="254.72256"
   height="254.60004"
   id="svg2"
   sodipodi:version="0.32"
   inkscape:version="0.46"
   sodipodi:docbase="/home/christian/.icons/77142-brits"
   sodipodi:docname="Trash.svg"
   inkscape:output_extension="org.inkscape.output.svg.inkscape"
   version="1.0">
  <defs
     id="defs4">
    <inkscape:perspective
       sodipodi:type="inkscape:persp3d"
       inkscape:vp_x="0 : 127.30002 : 1"
       inkscape:vp_y="0 : 1000 : 0"
       inkscape:vp_z="254.72256 : 127.30002 : 1"
       inkscape:persp3d-origin="127.36128 : 84.866679 : 1"
       id="perspective126" />
    <linearGradient
       id="linearGradient15107">
      <stop
         style="stop-color:#ffffff;stop-opacity:1.0000000;"
         offset="0.0000000"
         id="stop15109" />
      <stop
         style="stop-color:#e2e2e2;stop-opacity:1.0000000;"
         offset="1.0000000"
         id="stop15111" />
    </linearGradient>
    <radialGradient
       cx="64.551804"
       cy="14.1646"
       r="52.241501"
       fx="64.551804"
       fy="14.1646"
       id="XMLID_67_"
       gradientUnits="userSpaceOnUse">
      <stop
         style="stop-color:#0f80bc;stop-opacity:1"
         offset="0"
         id="stop85" />
      <stop
         style="stop-color:#0a5f9e;stop-opacity:1"
         offset="0.33759999"
         id="stop87" />
      <stop
         style="stop-color:#00145a;stop-opacity:1"
         offset="1"
         id="stop89" />
    </radialGradient>
    <clipPath
       clipPathUnits="userSpaceOnUse"
       id="clipoutline1">
      <path
         id="outline1"
         d="M 54.1,12.5 L 12.9,54.7 C -2.7,70.3 23,69 32.3,74.9 C 36.6,77.7 18.5,81.3 22.2,85 C 25.8,88.7 43.9,92.1 47.5,95.7 C 51.1,99.4 40.2,103.3 43.8,107 C 47.3,110.7 55.7,107.2 57.2,115.6 C 58.3,121.8 72.6,118.7 79,113.4 C 83,110 72.1,110 75.7,106.3 C 84.7,97.2 92.7,102.2 96,93.8 C 97.8,89.3 82.4,86.1 86.5,83.2 C 96.3,76.3 132.3,72.8 115.7,56.2 L 73,12.5 C 67.7,7.5 59,7.5 54.1,12.5 z M 44.2,77.2 C 45.1,77.2 75,81.2 63.5,84.3 C 59.1,85.5 38.9,77.2 44.2,77.2 z M 101.4,93.8 C 101.4,95.9 117.7,97.1 116.8,93.3 C 115.5,86.9 103.2,87.4 101.4,93.8 z M 31.9,104.9 C 35.6,108.1 41.2,104.2 43,99.7 C 39.4,95 26.1,100 31.9,104.9 z M 99.4,98.2 C 94.8,102.4 100.2,106.8 104.7,103.9 C 105.9,103.1 104.6,99.2 99.4,98.2 z " />
    </clipPath>
    <pattern
       inkscape:collect="always"
       xlink:href="#pattern7096"
       id="pattern7103"
       patternTransform="matrix(0.9807814,0.1951099,-0.1951099,0.9807814,88.853396,564.9863)" />
    <pattern
       patternUnits="userSpaceOnUse"
       width="52.64405"
       height="52.64405"
       patternTransform="translate(265.42265,627.97688)"
       id="pattern7044">
      <path
         id="path6068"
         d="M 0.5,0.5 L 52.14405,52.14405"
         style="fill:none;fill-rule:evenodd;stroke:#e04613;stroke-width:1px;stroke-linecap:butt;stroke-linejoin:miter;stroke-opacity:1" />
    </pattern>
    <pattern
       patternUnits="userSpaceOnUse"
       width="52.64405"
       height="52.64405"
       patternTransform="translate(265.69051,628.69118)"
       id="pattern7053">
      <path
         id="path7051"
         d="M 0.5,0.5 L 52.14405,52.14405"
         style="fill:none;fill-rule:evenodd;stroke:#e04613;stroke-width:1px;stroke-linecap:butt;stroke-linejoin:miter;stroke-opacity:1" />
    </pattern>
    <pattern
       patternUnits="userSpaceOnUse"
       width="7.5"
       height="41.425995"
       patternTransform="translate(198.25517,601.81158)"
       id="pattern7087">
      <rect
         y="1.25"
         x="1.25"
         height="38.925995"
         width="5"
         id="rect7085"
         style="opacity:1;fill:#262729;fill-opacity:1;fill-rule:nonzero;stroke:#e04613;stroke-width:2.5;stroke-linejoin:miter;stroke-miterlimit:4;stroke-dasharray:none;stroke-opacity:1" />
    </pattern>
    <pattern
       patternUnits="userSpaceOnUse"
       width="7.5000006"
       height="213.63924"
       patternTransform="translate(197.38019,536.79187)"
       id="pattern7096">
      <rect
         id="rect7090"
         y="0.87500006"
         x="0.87500006"
         height="211.88924"
         width="5.7500005"
         style="fill:#262729;fill-opacity:1;stroke:#e04613;stroke-width:1.75000012;stroke-miterlimit:4;stroke-dasharray:none;stroke-opacity:1" />
    </pattern>
    <radialGradient
       inkscape:collect="always"
       xlink:href="#XMLID_67_"
       id="radialGradient31918"
       gradientUnits="userSpaceOnUse"
       cx="64.551804"
       cy="14.1646"
       fx="64.551804"
       fy="14.1646"
       r="52.241501" />
    <radialGradient
       inkscape:collect="always"
       xlink:href="#XMLID_67_"
       id="radialGradient32255"
       gradientUnits="userSpaceOnUse"
       cx="64.551804"
       cy="14.1646"
       fx="64.551804"
       fy="14.1646"
       r="52.241501" />
    <linearGradient
       id="linearGradient2542">
      <stop
         style="stop-color:#ffffff;stop-opacity:1.0000000;"
         offset="0.0000000"
         id="stop2544" />
      <stop
         style="stop-color:#e2e2e2;stop-opacity:1.0000000;"
         offset="1.0000000"
         id="stop2546" />
    </linearGradient>
    <linearGradient
       y2="26.022909"
       x2="18.475286"
       y1="4.7461624"
       x1="11.572842"
       gradientTransform="matrix(4.424777,0,0,4.6697466,315.57521,459.96281)"
       gradientUnits="userSpaceOnUse"
       id="linearGradient2540"
       xlink:href="#linearGradient15107"
       inkscape:collect="always" />
    <radialGradient
       cx="64.551804"
       cy="14.1646"
       r="52.241501"
       fx="64.551804"
       fy="14.1646"
       id="radialGradient2532"
       gradientUnits="userSpaceOnUse">
      <stop
         style="stop-color:#0f80bc;stop-opacity:1"
         offset="0"
         id="stop2534" />
      <stop
         style="stop-color:#0a5f9e;stop-opacity:1"
         offset="0.33759999"
         id="stop2536" />
      <stop
         style="stop-color:#00145a;stop-opacity:1"
         offset="1"
         id="stop2538" />
    </radialGradient>
    <clipPath
       clipPathUnits="userSpaceOnUse"
       id="clipPath2528">
      <path
         id="path2530"
         d="M 54.1,12.5 L 12.9,54.7 C -2.7,70.3 23,69 32.3,74.9 C 36.6,77.7 18.5,81.3 22.2,85 C 25.8,88.7 43.9,92.1 47.5,95.7 C 51.1,99.4 40.2,103.3 43.8,107 C 47.3,110.7 55.7,107.2 57.2,115.6 C 58.3,121.8 72.6,118.7 79,113.4 C 83,110 72.1,110 75.7,106.3 C 84.7,97.2 92.7,102.2 96,93.8 C 97.8,89.3 82.4,86.1 86.5,83.2 C 96.3,76.3 132.3,72.8 115.7,56.2 L 73,12.5 C 67.7,7.5 59,7.5 54.1,12.5 z M 44.2,77.2 C 45.1,77.2 75,81.2 63.5,84.3 C 59.1,85.5 38.9,77.2 44.2,77.2 z M 101.4,93.8 C 101.4,95.9 117.7,97.1 116.8,93.3 C 115.5,86.9 103.2,87.4 101.4,93.8 z M 31.9,104.9 C 35.6,108.1 41.2,104.2 43,99.7 C 39.4,95 26.1,100 31.9,104.9 z M 99.4,98.2 C 94.8,102.4 100.2,106.8 104.7,103.9 C 105.9,103.1 104.6,99.2 99.4,98.2 z " />
    </clipPath>
    <pattern
       inkscape:collect="always"
       xlink:href="#pattern7096"
       id="pattern2350"
       patternTransform="matrix(0.9807814,0.1951099,-0.1951099,0.9807814,88.853396,564.9863)" />
    <pattern
       patternUnits="userSpaceOnUse"
       width="52.64405"
       height="52.64405"
       patternTransform="translate(265.42265,627.97688)"
       id="pattern2352">
      <path
         id="path2354"
         d="M 0.5,0.5 L 52.14405,52.14405"
         style="fill:none;fill-rule:evenodd;stroke:#e04613;stroke-width:1px;stroke-linecap:butt;stroke-linejoin:miter;stroke-opacity:1" />
    </pattern>
    <pattern
       patternUnits="userSpaceOnUse"
       width="52.64405"
       height="52.64405"
       patternTransform="translate(265.69051,628.69118)"
       id="pattern2356">
      <path
         id="path2358"
         d="M 0.5,0.5 L 52.14405,52.14405"
         style="fill:none;fill-rule:evenodd;stroke:#e04613;stroke-width:1px;stroke-linecap:butt;stroke-linejoin:miter;stroke-opacity:1" />
    </pattern>
    <pattern
       patternUnits="userSpaceOnUse"
       width="7.5"
       height="41.425995"
       patternTransform="translate(198.25517,601.81158)"
       id="pattern2360">
      <rect
         y="1.25"
         x="1.25"
         height="38.925995"
         width="5"
         id="rect2362"
         style="opacity:1;fill:#262729;fill-opacity:1;fill-rule:nonzero;stroke:#e04613;stroke-width:2.5;stroke-linejoin:miter;stroke-miterlimit:4;stroke-dasharray:none;stroke-opacity:1" />
    </pattern>
    <pattern
       patternUnits="userSpaceOnUse"
       width="7.5000006"
       height="213.63924"
       patternTransform="translate(197.38019,536.79187)"
       id="pattern2364">
      <rect
         id="rect2366"
         y="0.87500006"
         x="0.87500006"
         height="211.88924"
         width="5.7500005"
         style="fill:#262729;fill-opacity:1;stroke:#e04613;stroke-width:1.75000012;stroke-miterlimit:4;stroke-dasharray:none;stroke-opacity:1" />
    </pattern>
    <radialGradient
       inkscape:collect="always"
       xlink:href="#XMLID_67_"
       id="radialGradient2517"
       gradientUnits="userSpaceOnUse"
       cx="64.551804"
       cy="14.1646"
       fx="64.551804"
       fy="14.1646"
       r="52.241501" />
    <radialGradient
       inkscape:collect="always"
       xlink:href="#XMLID_67_"
       id="radialGradient2515"
       gradientUnits="userSpaceOnUse"
       cx="64.551804"
       cy="14.1646"
       fx="64.551804"
       fy="14.1646"
       r="52.241501" />
    <pattern
       id="pattern2511"
       patternTransform="translate(197.38019,536.79187)"
       height="213.63924"
       width="7.5000006"
       patternUnits="userSpaceOnUse">
      <rect
         style="fill:#262729;fill-opacity:1;stroke:#e04613;stroke-width:1.75000012;stroke-miterlimit:4;stroke-dasharray:none;stroke-opacity:1"
         width="5.7500005"
         height="211.88924"
         x="0.87500006"
         y="0.87500006"
         id="rect2513" />
    </pattern>
    <pattern
       id="pattern2507"
       patternTransform="translate(198.25517,601.81158)"
       height="41.425995"
       width="7.5"
       patternUnits="userSpaceOnUse">
      <rect
         style="opacity:1;fill:#262729;fill-opacity:1;fill-rule:nonzero;stroke:#e04613;stroke-width:2.5;stroke-linejoin:miter;stroke-miterlimit:4;stroke-dasharray:none;stroke-opacity:1"
         id="rect2509"
         width="5"
         height="38.925995"
         x="1.25"
         y="1.25" />
    </pattern>
    <pattern
       id="pattern2503"
       patternTransform="translate(265.69051,628.69118)"
       height="52.64405"
       width="52.64405"
       patternUnits="userSpaceOnUse">
      <path
         style="fill:none;fill-rule:evenodd;stroke:#e04613;stroke-width:1px;stroke-linecap:butt;stroke-linejoin:miter;stroke-opacity:1"
         d="M 0.5,0.5 L 52.14405,52.14405"
         id="path2505" />
    </pattern>
    <pattern
       id="pattern2499"
       patternTransform="translate(265.42265,627.97688)"
       height="52.64405"
       width="52.64405"
       patternUnits="userSpaceOnUse">
      <path
         style="fill:none;fill-rule:evenodd;stroke:#e04613;stroke-width:1px;stroke-linecap:butt;stroke-linejoin:miter;stroke-opacity:1"
         d="M 0.5,0.5 L 52.14405,52.14405"
         id="path2501" />
    </pattern>
    <pattern
       patternTransform="matrix(0.9807814,0.1951099,-0.1951099,0.9807814,88.853396,564.9863)"
       id="pattern2497"
       xlink:href="#pattern7096"
       inkscape:collect="always" />
    <radialGradient
       r="52.241501"
       fy="14.1646"
       fx="64.551804"
       cy="14.1646"
       cx="64.551804"
       gradientUnits="userSpaceOnUse"
       id="radialGradient2635"
       xlink:href="#XMLID_67_"
       inkscape:collect="always" />
    <radialGradient
       r="52.241501"
       fy="14.1646"
       fx="64.551804"
       cy="14.1646"
       cx="64.551804"
       gradientUnits="userSpaceOnUse"
       id="radialGradient2633"
       xlink:href="#XMLID_67_"
       inkscape:collect="always" />
    <pattern
       id="pattern2629"
       patternTransform="translate(197.38019,536.79187)"
       height="213.63924"
       width="7.5000006"
       patternUnits="userSpaceOnUse">
      <rect
         style="fill:#262729;fill-opacity:1;stroke:#e04613;stroke-width:1.75000012;stroke-miterlimit:4;stroke-dasharray:none;stroke-opacity:1"
         width="5.7500005"
         height="211.88924"
         x="0.87500006"
         y="0.87500006"
         id="rect2631" />
    </pattern>
    <pattern
       id="pattern2625"
       patternTransform="translate(198.25517,601.81158)"
       height="41.425995"
       width="7.5"
       patternUnits="userSpaceOnUse">
      <rect
         style="opacity:1;fill:#262729;fill-opacity:1;fill-rule:nonzero;stroke:#e04613;stroke-width:2.5;stroke-linejoin:miter;stroke-miterlimit:4;stroke-dasharray:none;stroke-opacity:1"
         id="rect2627"
         width="5"
         height="38.925995"
         x="1.25"
         y="1.25" />
    </pattern>
    <pattern
       id="pattern2621"
       patternTransform="translate(265.69051,628.69118)"
       height="52.64405"
       width="52.64405"
       patternUnits="userSpaceOnUse">
      <path
         style="fill:none;fill-rule:evenodd;stroke:#e04613;stroke-width:1px;stroke-linecap:butt;stroke-linejoin:miter;stroke-opacity:1"
         d="M 0.5,0.5 L 52.14405,52.14405"
         id="path2623" />
    </pattern>
    <pattern
       id="pattern2617"
       patternTransform="translate(265.42265,627.97688)"
       height="52.64405"
       width="52.64405"
       patternUnits="userSpaceOnUse">
      <path
         style="fill:none;fill-rule:evenodd;stroke:#e04613;stroke-width:1px;stroke-linecap:butt;stroke-linejoin:miter;stroke-opacity:1"
         d="M 0.5,0.5 L 52.14405,52.14405"
         id="path2619" />
    </pattern>
    <pattern
       patternTransform="matrix(0.9807814,0.1951099,-0.1951099,0.9807814,88.853396,564.9863)"
       id="pattern2615"
       xlink:href="#pattern7096"
       inkscape:collect="always" />
    <clipPath
       id="clipPath2611"
       clipPathUnits="userSpaceOnUse">
      <path
         d="M 54.1,12.5 L 12.9,54.7 C -2.7,70.3 23,69 32.3,74.9 C 36.6,77.7 18.5,81.3 22.2,85 C 25.8,88.7 43.9,92.1 47.5,95.7 C 51.1,99.4 40.2,103.3 43.8,107 C 47.3,110.7 55.7,107.2 57.2,115.6 C 58.3,121.8 72.6,118.7 79,113.4 C 83,110 72.1,110 75.7,106.3 C 84.7,97.2 92.7,102.2 96,93.8 C 97.8,89.3 82.4,86.1 86.5,83.2 C 96.3,76.3 132.3,72.8 115.7,56.2 L 73,12.5 C 67.7,7.5 59,7.5 54.1,12.5 z M 44.2,77.2 C 45.1,77.2 75,81.2 63.5,84.3 C 59.1,85.5 38.9,77.2 44.2,77.2 z M 101.4,93.8 C 101.4,95.9 117.7,97.1 116.8,93.3 C 115.5,86.9 103.2,87.4 101.4,93.8 z M 31.9,104.9 C 35.6,108.1 41.2,104.2 43,99.7 C 39.4,95 26.1,100 31.9,104.9 z M 99.4,98.2 C 94.8,102.4 100.2,106.8 104.7,103.9 C 105.9,103.1 104.6,99.2 99.4,98.2 z "
         id="path2613" />
    </clipPath>
    <radialGradient
       gradientUnits="userSpaceOnUse"
       id="radialGradient2603"
       fy="14.1646"
       fx="64.551804"
       r="52.241501"
       cy="14.1646"
       cx="64.551804">
      <stop
         id="stop2605"
         offset="0"
         style="stop-color:#0f80bc;stop-opacity:1" />
      <stop
         id="stop2607"
         offset="0.33759999"
         style="stop-color:#0a5f9e;stop-opacity:1" />
      <stop
         id="stop2609"
         offset="1"
         style="stop-color:#00145a;stop-opacity:1" />
    </radialGradient>
    <linearGradient
       inkscape:collect="always"
       xlink:href="#linearGradient15107"
       id="linearGradient2601"
       gradientUnits="userSpaceOnUse"
       gradientTransform="matrix(4.424777,0,0,4.6697466,315.57521,459.96281)"
       x1="11.572842"
       y1="4.7461624"
       x2="18.475286"
       y2="26.022909" />
    <linearGradient
       id="linearGradient2595">
      <stop
         id="stop2597"
         offset="0.0000000"
         style="stop-color:#ffffff;stop-opacity:1.0000000;" />
      <stop
         id="stop2599"
         offset="1.0000000"
         style="stop-color:#e2e2e2;stop-opacity:1.0000000;" />
    </linearGradient>
    <inkscape:perspective
       id="perspective2592"
       inkscape:persp3d-origin="127.36128 : 84.866679 : 1"
       inkscape:vp_z="254.72256 : 127.30002 : 1"
       inkscape:vp_y="0 : 1000 : 0"
       inkscape:vp_x="0 : 127.30002 : 1"
       sodipodi:type="inkscape:persp3d" />
    <linearGradient
       inkscape:collect="always"
       xlink:href="#linearGradient15107"
       id="linearGradient2968"
       gradientUnits="userSpaceOnUse"
       gradientTransform="matrix(4.424777,0,0,4.6697466,9.68036,448.8645)"
       x1="11.572842"
       y1="4.7461624"
       x2="18.475286"
       y2="26.022909" />
  </defs>
  <sodipodi:namedview
     id="base"
     pagecolor="#a2a2a2"
     bordercolor="#666666"
     borderopacity="1.0"
     inkscape:pageopacity="0.87843137"
     inkscape:pageshadow="2"
     inkscape:zoom="1.4956828"
     inkscape:cx="-346.37253"
     inkscape:cy="47.50964"
     inkscape:document-units="px"
     inkscape:current-layer="layer1"
     inkscape:window-width="1280"
     inkscape:window-height="929"
     inkscape:window-x="0"
     inkscape:window-y="25"
     showgrid="true" />
  <metadata
     id="metadata7">
    <rdf:RDF>
      <cc:Work
         rdf:about="">
        <dc:format>image/svg+xml</dc:format>
        <dc:type
           rdf:resource="http://purl.org/dc/dcmitype/StillImage" />
      </cc:Work>
    </rdf:RDF>
  </metadata>
  <g
     inkscape:label="Ebene 1"
     inkscape:groupmode="layer"
     id="layer1"
     transform="translate(-259.63,-431.54916)">
    <path
       style="fill:#262729;fill-opacity:1;stroke:none;stroke-width:2.40000224;stroke-linejoin:miter;stroke-miterlimit:4;stroke-opacity:1"
       d="M 292.60735,436.28011 L 508.20734,436.28011 L 510.20734,653.8801 C 510.20734,670.5001 496.82734,683.8801 480.20734,683.8801 L 264.60735,683.8801 L 262.60735,466.28011 C 262.60735,449.66011 275.98735,436.28011 292.60735,436.28011 z "
       id="rect2160"
       sodipodi:nodetypes="ccccccc" />
    <g
       transform="translate(364.01781,150.06466)"
       id="g2370"
       inkscape:label="Ebene 1">
      <g
         transform="matrix(0.9030378,0,0,0.9030378,-313.29665,-103.53556)"
         id="g2479">
        <path
           sodipodi:nodetypes="cccssssssc"
           id="path2463"
           d="M 347.91345,623.13442 C 335.16051,618.28812 331.00702,614.87808 331.05288,609.29178 C 329.99498,606.44632 320.87229,533.86957 309.85692,496.68096 C 305.1435,487.87388 317.51855,477.44787 337.76247,473.17037 C 361.30797,468.19529 406.70441,470.5206 422.37512,477.50443 C 429.01163,480.4621 434.30476,486.55446 435.2933,488.1539 C 436.28181,489.75336 435.08597,506.61734 431.48027,528.51857 C 420.58728,594.6827 420.09851,598.33853 420.1441,606.04513 C 420.18471,612.91158 418.33473,613.01849 406.94182,619.69607 C 394.94478,626.72772 363.8075,629.17437 347.91345,623.13442 z"
           style="fill:#e6e6e6;fill-opacity:1" />
        <path
           sodipodi:nodetypes="cssssssssssssccsscccccccsssssccsssssccsssssc"
           id="path2461"
           d="M 380.14387,619.17427 C 376.18087,616.72501 382.24477,613.64955 397.63459,610.30343 C 402.15326,609.32098 407.7388,606.43042 410.04692,603.87997 C 415.04645,598.35553 423.66747,542.46148 421.09864,532.22645 C 419.60183,526.26265 418.17985,525.4875 409.65414,525.98784 C 401.94678,526.44016 399.40911,525.41183 397.47183,521.05122 C 395.29241,516.14556 392.14851,515.36911 368.7207,513.95064 C 338.60533,512.12724 327.05915,508.98777 316.46423,501.41182 C 299.02048,488.93858 322.86378,474.4972 348.82905,472.85047 C 381.86909,470.75506 415.95501,472.53249 429.03088,483.77987 C 435.37556,489.23735 434.36214,490.82557 433.34607,498.10858 C 431.33731,512.50718 418.71693,601.10122 418.8512,603.99585 C 419.0365,607.99026 416.45411,610.91383 411.28849,613.86218 C 396.20642,622.47049 383.92126,621.50882 380.14387,619.17427 z M 417.99038,503.7249 C 450.85063,491.91783 423.84639,475.25717 372.97007,475.94899 C 359.05983,476.13815 353.28777,476.91222 358.08398,477.94533 C 365.48211,479.53889 365.91769,480.3384 365.91769,492.3239 L 365.91769,505.01509 L 346.33342,503.77232 L 326.74914,502.52953 L 339.80532,505.97984 C 356.09166,510.28376 403.54549,508.91515 417.99038,503.7249 z M 376.37006,572.2792 C 374.23848,565.56315 376.6639,561.81088 383.13671,561.81088 C 387.62316,561.81088 387.90081,561.0707 385.26323,556.14233 C 382.74218,551.43168 383.04715,549.87588 387.0679,546.93584 C 391.3009,543.84058 392.45737,544.12849 396.31064,549.23691 C 400.45924,554.73683 400.43141,555.6318 395.83095,564.64942 C 389.10919,577.82518 379.34525,581.6532 376.37006,572.2792 z M 351.81312,565.5773 C 345.44549,554.78495 346.60689,546.14346 354.42504,546.14346 C 360.84884,546.14346 363.63082,552.78367 359.362,557.92726 C 356.63294,561.21559 357.32179,561.81088 363.85597,561.81088 C 370.2419,561.81088 371.50088,562.8243 371.15484,567.68616 C 370.85567,571.88973 368.84787,573.78719 364.09839,574.35482 C 358.82602,574.98493 356.29813,573.17879 351.81312,565.5773 z M 359.51027,543.66205 C 356.25659,541.60382 356.22635,540.30345 359.2987,534.56272 C 362.27481,529.00181 364.74888,527.8648 373.87291,527.8648 C 385.60402,527.8648 392.3765,532.84941 389.79291,539.58212 C 387.77294,544.84606 380.33347,544.60418 376.34144,539.14477 C 373.39873,535.12038 372.88111,535.22843 370.0864,540.45038 C 366.72467,546.73182 365.12897,547.21639 359.51027,543.66205 z"
           style="fill:#262729;fill-opacity:1" />
      </g>
    </g>
    <g
       id="g3038"
       transform="translate(306.94594,11.094431)">
      <g
         transform="translate(-300.54612,-17.784219)"
         id="g2838">
        <path
           id="path2641"
           d="M 257.98364,634.27895 L 503.18585,634.27895"
           style="fill:none;fill-rule:evenodd;stroke:#6c9eab;stroke-width:10.00000191;stroke-linecap:butt;stroke-linejoin:miter;stroke-miterlimit:4;stroke-dasharray:none;stroke-opacity:1" />
        <path
           inkscape:tile-cy="655.35609"
           inkscape:tile-cx="241.13734"
           inkscape:tile-h="52.72285"
           inkscape:tile-w="52.72286"
           id="path2643"
           d="M 256.93551,683.18889 L 261.80004,688.05342"
           style="fill:none;fill-rule:evenodd;stroke:#6c9eab;stroke-width:0.69999981;stroke-linecap:butt;stroke-linejoin:miter;stroke-miterlimit:4;stroke-dasharray:none;stroke-opacity:1" />
        <path
           style="fill:none;fill-rule:evenodd;stroke:#6c9eab;stroke-width:0.69999981;stroke-linecap:butt;stroke-linejoin:miter;stroke-miterlimit:4;stroke-dasharray:none;stroke-opacity:1"
           d="M 257.29009,683.54348 L 261.80004,688.05342"
           id="path2645" />
        <path
           style="fill:none;fill-rule:evenodd;stroke:#6c9eab;stroke-width:0.69999987;stroke-linecap:butt;stroke-linejoin:miter;stroke-miterlimit:4;stroke-dasharray:none;stroke-opacity:1"
           d="M 259.29125,680.58868 L 266.75599,688.05342"
           id="path2647" />
        <path
           style="fill:none;fill-rule:evenodd;stroke:#6c9eab;stroke-width:0.69999975;stroke-linecap:butt;stroke-linejoin:miter;stroke-miterlimit:4;stroke-dasharray:none;stroke-opacity:1"
           d="M 258.57401,674.91549 L 271.71193,688.05341"
           id="path2649" />
        <path
           style="fill:none;fill-rule:evenodd;stroke:#6c9eab;stroke-width:0.69999981;stroke-linecap:butt;stroke-linejoin:miter;stroke-miterlimit:4;stroke-dasharray:none;stroke-opacity:1"
           d="M 257.62039,669.00593 L 276.66789,688.05342"
           id="path2651" />
        <path
           style="fill:none;fill-rule:evenodd;stroke:#6c9eab;stroke-width:0.69999981;stroke-linecap:butt;stroke-linejoin:miter;stroke-miterlimit:4;stroke-dasharray:none;stroke-opacity:1"
           d="M 257.96689,664.39647 L 281.62385,688.05342"
           id="path2653" />
        <path
           style="fill:none;fill-rule:evenodd;stroke:#6c9eab;stroke-width:0.69999981;stroke-linecap:butt;stroke-linejoin:miter;stroke-miterlimit:4;stroke-dasharray:none;stroke-opacity:1"
           d="M 259.37709,660.85073 L 286.57978,688.05342"
           id="path2655" />
        <path
           style="fill:none;fill-rule:evenodd;stroke:#6c9eab;stroke-width:0.69999981;stroke-linecap:butt;stroke-linejoin:miter;stroke-miterlimit:4;stroke-dasharray:none;stroke-opacity:1"
           d="M 259.13263,655.65033 L 291.53574,688.05343"
           id="path2657" />
        <path
           style="fill:none;fill-rule:evenodd;stroke:#6c9eab;stroke-width:0.69999981;stroke-linecap:butt;stroke-linejoin:miter;stroke-miterlimit:4;stroke-dasharray:none;stroke-opacity:1"
           d="M 259.36092,650.92265 L 296.49167,688.0534"
           id="path2659" />
        <path
           style="fill:none;fill-rule:evenodd;stroke:#6c9eab;stroke-width:0.69999975;stroke-linecap:butt;stroke-linejoin:miter;stroke-miterlimit:4;stroke-dasharray:none;stroke-opacity:1"
           d="M 258.76187,645.36766 L 301.44762,688.0534"
           id="path2661" />
        <path
           style="fill:none;fill-rule:evenodd;stroke:#6c9eab;stroke-width:0.69999987;stroke-linecap:butt;stroke-linejoin:miter;stroke-miterlimit:4;stroke-dasharray:none;stroke-opacity:1"
           d="M 259.10838,640.75824 L 306.40359,688.05344"
           id="path2663" />
        <path
           style="fill:none;fill-rule:evenodd;stroke:#6c9eab;stroke-width:0.69999981;stroke-linecap:butt;stroke-linejoin:miter;stroke-miterlimit:4;stroke-dasharray:none;stroke-opacity:1"
           d="M 259.33667,636.03057 L 311.35953,688.05342"
           id="path2665" />
        <path
           style="fill:none;fill-rule:evenodd;stroke:#6c9eab;stroke-width:0.69999981;stroke-linecap:butt;stroke-linejoin:miter;stroke-miterlimit:4;stroke-dasharray:none;stroke-opacity:1"
           d="M 264.29262,636.03057 L 316.31548,688.05342"
           id="path2667" />
        <path
           style="fill:none;fill-rule:evenodd;stroke:#6c9eab;stroke-width:0.69999981;stroke-linecap:butt;stroke-linejoin:miter;stroke-miterlimit:4;stroke-dasharray:none;stroke-opacity:1"
           d="M 269.24857,636.03057 L 321.27143,688.05342"
           id="path2669" />
        <path
           style="fill:none;fill-rule:evenodd;stroke:#6c9eab;stroke-width:0.69999981;stroke-linecap:butt;stroke-linejoin:miter;stroke-miterlimit:4;stroke-dasharray:none;stroke-opacity:1"
           d="M 274.20452,636.03057 L 326.22737,688.05342"
           id="path2671" />
        <path
           style="fill:none;fill-rule:evenodd;stroke:#6c9eab;stroke-width:0.69999981;stroke-linecap:butt;stroke-linejoin:miter;stroke-miterlimit:4;stroke-dasharray:none;stroke-opacity:1"
           d="M 279.16046,636.03057 L 331.18332,688.05342"
           id="path2673" />
        <path
           style="fill:none;fill-rule:evenodd;stroke:#6c9eab;stroke-width:0.69999981;stroke-linecap:butt;stroke-linejoin:miter;stroke-miterlimit:4;stroke-dasharray:none;stroke-opacity:1"
           d="M 284.11641,636.03057 L 336.13927,688.05342"
           id="path2675" />
        <path
           style="fill:none;fill-rule:evenodd;stroke:#6c9eab;stroke-width:0.69999981;stroke-linecap:butt;stroke-linejoin:miter;stroke-miterlimit:4;stroke-dasharray:none;stroke-opacity:1"
           d="M 289.07236,636.03057 L 341.09522,688.05342"
           id="path2677" />
        <path
           style="fill:none;fill-rule:evenodd;stroke:#6c9eab;stroke-width:0.69999981;stroke-linecap:butt;stroke-linejoin:miter;stroke-miterlimit:4;stroke-dasharray:none;stroke-opacity:1"
           d="M 294.02831,636.03057 L 346.05117,688.05342"
           id="path2679" />
        <path
           style="fill:none;fill-rule:evenodd;stroke:#6c9eab;stroke-width:0.69999981;stroke-linecap:butt;stroke-linejoin:miter;stroke-miterlimit:4;stroke-dasharray:none;stroke-opacity:1"
           d="M 298.98426,636.03057 L 351.00712,688.05342"
           id="path2681" />
        <path
           style="fill:none;fill-rule:evenodd;stroke:#6c9eab;stroke-width:0.69999981;stroke-linecap:butt;stroke-linejoin:miter;stroke-miterlimit:4;stroke-dasharray:none;stroke-opacity:1"
           d="M 303.94021,636.03057 L 355.96307,688.05342"
           id="path2683" />
        <path
           style="fill:none;fill-rule:evenodd;stroke:#6c9eab;stroke-width:0.69999981;stroke-linecap:butt;stroke-linejoin:miter;stroke-miterlimit:4;stroke-dasharray:none;stroke-opacity:1"
           d="M 308.89616,636.03057 L 360.91902,688.05342"
           id="path2685" />
        <path
           style="fill:none;fill-rule:evenodd;stroke:#6c9eab;stroke-width:0.69999981;stroke-linecap:butt;stroke-linejoin:miter;stroke-miterlimit:4;stroke-dasharray:none;stroke-opacity:1"
           d="M 313.85211,636.03057 L 365.87497,688.05342"
           id="path2687" />
        <path
           style="fill:none;fill-rule:evenodd;stroke:#6c9eab;stroke-width:0.69999981;stroke-linecap:butt;stroke-linejoin:miter;stroke-miterlimit:4;stroke-dasharray:none;stroke-opacity:1"
           d="M 318.80805,636.03057 L 370.83091,688.05342"
           id="path2689" />
        <path
           style="fill:none;fill-rule:evenodd;stroke:#6c9eab;stroke-width:0.69999981;stroke-linecap:butt;stroke-linejoin:miter;stroke-miterlimit:4;stroke-dasharray:none;stroke-opacity:1"
           d="M 323.764,636.03057 L 375.78686,688.05342"
           id="path2691" />
        <path
           style="fill:none;fill-rule:evenodd;stroke:#6c9eab;stroke-width:0.69999981;stroke-linecap:butt;stroke-linejoin:miter;stroke-miterlimit:4;stroke-dasharray:none;stroke-opacity:1"
           d="M 328.71995,636.03057 L 380.74281,688.05342"
           id="path2693" />
        <path
           style="fill:none;fill-rule:evenodd;stroke:#6c9eab;stroke-width:0.69999981;stroke-linecap:butt;stroke-linejoin:miter;stroke-miterlimit:4;stroke-dasharray:none;stroke-opacity:1"
           d="M 333.6759,636.03057 L 385.69876,688.05342"
           id="path2695" />
        <path
           style="fill:none;fill-rule:evenodd;stroke:#6c9eab;stroke-width:0.69999981;stroke-linecap:butt;stroke-linejoin:miter;stroke-miterlimit:4;stroke-dasharray:none;stroke-opacity:1"
           d="M 338.63185,636.03057 L 390.65471,688.05342"
           id="path2697" />
        <path
           style="fill:none;fill-rule:evenodd;stroke:#6c9eab;stroke-width:0.69999981;stroke-linecap:butt;stroke-linejoin:miter;stroke-miterlimit:4;stroke-dasharray:none;stroke-opacity:1"
           d="M 343.5878,636.03057 L 395.61066,688.05342"
           id="path2699" />
        <path
           style="fill:none;fill-rule:evenodd;stroke:#6c9eab;stroke-width:0.69999981;stroke-linecap:butt;stroke-linejoin:miter;stroke-miterlimit:4;stroke-dasharray:none;stroke-opacity:1"
           d="M 348.54375,636.03057 L 400.56661,688.05342"
           id="path2701" />
        <path
           style="fill:none;fill-rule:evenodd;stroke:#6c9eab;stroke-width:0.69999981;stroke-linecap:butt;stroke-linejoin:miter;stroke-miterlimit:4;stroke-dasharray:none;stroke-opacity:1"
           d="M 353.4997,636.03057 L 405.52256,688.05342"
           id="path2703" />
        <path
           style="fill:none;fill-rule:evenodd;stroke:#6c9eab;stroke-width:0.69999981;stroke-linecap:butt;stroke-linejoin:miter;stroke-miterlimit:4;stroke-dasharray:none;stroke-opacity:1"
           d="M 358.45564,636.03057 L 410.4785,688.05342"
           id="path2705" />
        <path
           style="fill:none;fill-rule:evenodd;stroke:#6c9eab;stroke-width:0.69999981;stroke-linecap:butt;stroke-linejoin:miter;stroke-miterlimit:4;stroke-dasharray:none;stroke-opacity:1"
           d="M 363.41159,636.03057 L 415.43445,688.05342"
           id="path2707" />
        <path
           style="fill:none;fill-rule:evenodd;stroke:#6c9eab;stroke-width:0.69999981;stroke-linecap:butt;stroke-linejoin:miter;stroke-miterlimit:4;stroke-dasharray:none;stroke-opacity:1"
           d="M 368.36754,636.03057 L 420.3904,688.05342"
           id="path2709" />
        <path
           style="fill:none;fill-rule:evenodd;stroke:#6c9eab;stroke-width:0.69999981;stroke-linecap:butt;stroke-linejoin:miter;stroke-miterlimit:4;stroke-dasharray:none;stroke-opacity:1"
           d="M 373.32349,636.03057 L 425.34635,688.05342"
           id="path2711" />
        <path
           style="fill:none;fill-rule:evenodd;stroke:#6c9eab;stroke-width:0.69999981;stroke-linecap:butt;stroke-linejoin:miter;stroke-miterlimit:4;stroke-dasharray:none;stroke-opacity:1"
           d="M 378.27944,636.03057 L 430.3023,688.05342"
           id="path2713" />
        <path
           style="fill:none;fill-rule:evenodd;stroke:#6c9eab;stroke-width:0.69999981;stroke-linecap:butt;stroke-linejoin:miter;stroke-miterlimit:4;stroke-dasharray:none;stroke-opacity:1"
           d="M 383.23539,636.03057 L 435.25825,688.05342"
           id="path2715" />
        <path
           style="fill:none;fill-rule:evenodd;stroke:#6c9eab;stroke-width:0.69999981;stroke-linecap:butt;stroke-linejoin:miter;stroke-miterlimit:4;stroke-dasharray:none;stroke-opacity:1"
           d="M 388.19134,636.03057 L 440.2142,688.05342"
           id="path2717" />
        <path
           style="fill:none;fill-rule:evenodd;stroke:#6c9eab;stroke-width:0.69999981;stroke-linecap:butt;stroke-linejoin:miter;stroke-miterlimit:4;stroke-dasharray:none;stroke-opacity:1"
           d="M 393.14729,636.03057 L 445.17015,688.05342"
           id="path2719" />
        <path
           style="fill:none;fill-rule:evenodd;stroke:#6c9eab;stroke-width:0.69999981;stroke-linecap:butt;stroke-linejoin:miter;stroke-miterlimit:4;stroke-dasharray:none;stroke-opacity:1"
           d="M 398.10324,636.03057 L 450.1261,688.05342"
           id="path2721" />
        <path
           style="fill:none;fill-rule:evenodd;stroke:#6c9eab;stroke-width:0.69999981;stroke-linecap:butt;stroke-linejoin:miter;stroke-miterlimit:4;stroke-dasharray:none;stroke-opacity:1"
           d="M 403.05918,636.03057 L 455.08204,688.05342"
           id="path2723" />
        <path
           style="fill:none;fill-rule:evenodd;stroke:#6c9eab;stroke-width:0.69999981;stroke-linecap:butt;stroke-linejoin:miter;stroke-miterlimit:4;stroke-dasharray:none;stroke-opacity:1"
           d="M 408.01513,636.03057 L 460.03799,688.05342"
           id="path2725" />
        <path
           style="fill:none;fill-rule:evenodd;stroke:#6c9eab;stroke-width:0.69999981;stroke-linecap:butt;stroke-linejoin:miter;stroke-miterlimit:4;stroke-dasharray:none;stroke-opacity:1"
           d="M 412.97108,636.03057 L 464.99394,688.05342"
           id="path2727" />
        <path
           style="fill:none;fill-rule:evenodd;stroke:#6c9eab;stroke-width:0.69999981;stroke-linecap:butt;stroke-linejoin:miter;stroke-miterlimit:4;stroke-dasharray:none;stroke-opacity:1"
           d="M 417.92703,636.03057 L 469.94989,688.05342"
           id="path2729" />
        <path
           style="fill:none;fill-rule:evenodd;stroke:#6c9eab;stroke-width:0.69999981;stroke-linecap:butt;stroke-linejoin:miter;stroke-miterlimit:4;stroke-dasharray:none;stroke-opacity:1"
           d="M 422.88298,636.03057 L 474.90584,688.05342"
           id="path2731" />
        <path
           style="fill:none;fill-rule:evenodd;stroke:#6c9eab;stroke-width:0.69999981;stroke-linecap:butt;stroke-linejoin:miter;stroke-miterlimit:4;stroke-dasharray:none;stroke-opacity:1"
           d="M 427.83893,636.03057 L 479.86179,688.05342"
           id="path2733" />
        <path
           style="fill:none;fill-rule:evenodd;stroke:#6c9eab;stroke-width:0.69999981;stroke-linecap:butt;stroke-linejoin:miter;stroke-miterlimit:4;stroke-dasharray:none;stroke-opacity:1"
           d="M 432.79488,636.03057 L 484.81774,688.05342"
           id="path2735" />
        <path
           style="fill:none;fill-rule:evenodd;stroke:#6c9eab;stroke-width:0.69999981;stroke-linecap:butt;stroke-linejoin:miter;stroke-miterlimit:4;stroke-dasharray:none;stroke-opacity:1"
           d="M 437.75081,636.03054 L 487.05527,685.33499"
           id="path2737" />
        <path
           style="fill:none;fill-rule:evenodd;stroke:#6c9eab;stroke-width:0.69999981;stroke-linecap:butt;stroke-linejoin:miter;stroke-miterlimit:4;stroke-dasharray:none;stroke-opacity:1"
           d="M 442.70678,636.03059 L 490.12018,683.44398"
           id="path2739" />
        <path
           style="fill:none;fill-rule:evenodd;stroke:#6c9eab;stroke-width:0.69999987;stroke-linecap:butt;stroke-linejoin:miter;stroke-miterlimit:4;stroke-dasharray:none;stroke-opacity:1"
           d="M 447.66274,636.0306 L 492.71231,681.08016"
           id="path2741" />
        <path
           style="fill:none;fill-rule:evenodd;stroke:#6c9eab;stroke-width:0.69999981;stroke-linecap:butt;stroke-linejoin:miter;stroke-miterlimit:4;stroke-dasharray:none;stroke-opacity:1"
           d="M 452.61868,636.03058 L 496.84091,680.25281"
           id="path2743" />
        <path
           style="fill:none;fill-rule:evenodd;stroke:#6c9eab;stroke-width:0.69999981;stroke-linecap:butt;stroke-linejoin:miter;stroke-miterlimit:4;stroke-dasharray:none;stroke-opacity:1"
           d="M 457.57462,636.03057 L 498.72388,677.17982"
           id="path2745" />
        <path
           style="fill:none;fill-rule:evenodd;stroke:#6c9eab;stroke-width:0.69999981;stroke-linecap:butt;stroke-linejoin:miter;stroke-miterlimit:4;stroke-dasharray:none;stroke-opacity:1"
           d="M 462.53057,636.03058 L 500.37048,673.87047"
           id="path2747" />
        <path
           style="fill:none;fill-rule:evenodd;stroke:#6c9eab;stroke-width:0.69999987;stroke-linecap:butt;stroke-linejoin:miter;stroke-miterlimit:4;stroke-dasharray:none;stroke-opacity:1"
           d="M 467.48654,636.03059 L 501.66251,670.20656"
           id="path2749" />
        <path
           style="fill:none;fill-rule:evenodd;stroke:#6c9eab;stroke-width:0.69999975;stroke-linecap:butt;stroke-linejoin:miter;stroke-miterlimit:4;stroke-dasharray:none;stroke-opacity:1"
           d="M 472.44246,636.03055 L 503.19088,666.77896"
           id="path2751" />
        <path
           style="fill:none;fill-rule:evenodd;stroke:#6c9eab;stroke-width:0.69999975;stroke-linecap:butt;stroke-linejoin:miter;stroke-miterlimit:4;stroke-dasharray:none;stroke-opacity:1"
           d="M 477.3984,636.03055 L 504.83747,663.46961"
           id="path2753" />
        <path
           style="fill:none;fill-rule:evenodd;stroke:#6c9eab;stroke-width:0.69999981;stroke-linecap:butt;stroke-linejoin:miter;stroke-miterlimit:4;stroke-dasharray:none;stroke-opacity:1"
           d="M 482.35438,636.03059 L 504.82942,658.50562"
           id="path2755" />
        <path
           style="fill:none;fill-rule:evenodd;stroke:#6c9eab;stroke-width:0.69999987;stroke-linecap:butt;stroke-linejoin:miter;stroke-miterlimit:4;stroke-dasharray:none;stroke-opacity:1"
           d="M 487.31031,636.03058 L 504.46674,653.187"
           id="path2757" />
        <path
           style="fill:none;fill-rule:evenodd;stroke:#6c9eab;stroke-width:0.69999993;stroke-linecap:butt;stroke-linejoin:miter;stroke-miterlimit:4;stroke-dasharray:none;stroke-opacity:1"
           d="M 492.26628,636.0306 L 503.15856,646.92287"
           id="path2759" />
        <path
           style="fill:none;fill-rule:evenodd;stroke:#6c9eab;stroke-width:0.69999987;stroke-linecap:butt;stroke-linejoin:miter;stroke-miterlimit:4;stroke-dasharray:none;stroke-opacity:1"
           d="M 497.22221,636.03058 L 503.50504,642.3134"
           id="path2761" />
      </g>
    </g>
    <path
       style="fill:none;fill-opacity:1;stroke:#ffffff;stroke-width:10.00000095;stroke-linejoin:miter;stroke-miterlimit:4;stroke-dasharray:none;stroke-opacity:1"
       d="M 293.67747,436.54916 L 509.35257,436.54916 L 509.23001,652.03395 C 509.23001,668.16379 496.27484,681.14919 480.18254,681.14919 L 264.67458,681.14919 L 264.63,465.66439 C 264.63,449.53456 277.58518,436.54916 293.67747,436.54916 z "
       id="rect6047"
       sodipodi:nodetypes="ccccccc" />
  </g>
</svg>
